<svg xmlns="http://www.w3.org/2000/svg" version="1.1" style="display: block;" viewBox="0 0 2048 2048" width="2048" height="2048" preserveAspectRatio="none">
<path transform="translate(0,0)" fill="rgb(203,204,203)" d="M 668.781 340.283 C 691.049 337.677 711.809 343.226 726.44 361.113 C 739.447 376.588 741.355 397.001 741.302 416.759 C 741.239 440.421 742.573 466.597 739.071 490.072 C 737.996 497.281 733.09 505.292 730.883 512.333 C 727.751 522.322 727.963 533.178 727.556 543.55 L 719.527 803.266 C 718.413 836.892 718.478 888.42 715.157 920.489 C 720.318 924.883 722.999 931.248 728.079 933.611 C 732.974 931.492 751.589 914.995 759.827 909.747 C 878.753 833.999 1014.37 810.88 1152.42 843.289 C 1155.79 837.488 1158.22 833.641 1162.64 828.578 C 1197.34 788.874 1228.01 775.894 1278.59 771.122 C 1291.09 748.06 1295.81 739.07 1317.01 723.74 C 1313.82 722.465 1310.72 721.162 1307.59 719.762 C 1266.84 701.709 1272.78 651.259 1289.83 618.491 C 1322.04 556.559 1399.32 535.648 1459.92 568.023 C 1491.37 584.703 1514.9 613.203 1525.32 647.241 C 1536.18 683.052 1531.95 729.172 1513.18 761.495 C 1485.66 808.891 1453.97 823.839 1404.78 838.423 C 1434.62 888.717 1431.12 936.02 1413.93 990.976 C 1409.48 1005.21 1403.49 1018.62 1398.43 1032.61 C 1407.15 1050.31 1412.02 1059.2 1419.63 1077.84 C 1448.62 1070.34 1483.16 1060.36 1511.02 1077.83 C 1530.45 1089.42 1541.64 1121.85 1537.41 1143.51 C 1532.4 1169.15 1544.11 1194.12 1548.22 1219.42 C 1548.57 1221.62 1552.21 1236.36 1552.95 1237.23 C 1569.65 1257.07 1572.1 1274.79 1578.25 1298.94 C 1584.82 1324.57 1590.95 1350.31 1596.62 1376.15 C 1618.51 1396 1617.49 1410.9 1623.76 1438.09 C 1628.9 1460.06 1633.93 1482.06 1638.85 1504.08 C 1642.44 1520.51 1646.24 1537.21 1650.27 1553.56 C 1650.98 1556.44 1656.36 1560.79 1658.56 1564.48 C 1666.21 1577.29 1668.29 1589.4 1670.89 1603.73 C 1672.07 1621.36 1671.97 1635.13 1660.27 1649.68 C 1640.11 1674.22 1608.31 1685.02 1578.38 1692.3 C 1506.45 1709.8 1458.33 1703.5 1451.25 1622.07 L 1449.3 1624.66 C 1393.69 1698.14 1292.12 1714.7 1205.86 1726.72 C 1165.98 1732.09 1125.99 1736.69 1085.93 1740.52 C 985.243 1751.03 843.471 1763.06 745.836 1734.78 C 718.364 1726.62 692.555 1713.66 669.612 1696.49 C 603.913 1646.41 581.361 1572.76 573.726 1494.73 C 572.764 1484.9 572.5 1474.71 571.141 1465.02 L 570.975 1463.89 C 559.718 1471.33 548.129 1477.61 535.81 1483.1 C 513.1 1493.22 482.607 1506.05 457.987 1496 C 445.194 1490.78 435.042 1479.7 429.969 1466.96 C 419.291 1440.13 429.186 1366.05 436.411 1337.35 C 440.489 1321.14 446.489 1305.68 452.82 1290.26 C 450.789 1289.17 448.818 1287.97 446.916 1286.67 C 411.089 1262.23 353.379 1202.05 386.166 1157.12 C 403.973 1132.72 454.133 1117.34 482.714 1112.31 C 520.956 1105.58 564.051 1109.87 595.955 1132.85 C 598.089 1121.85 602.295 1110.71 606.083 1100.12 C 601.128 1094.55 594.763 1083.63 594.038 1076.27 C 592.695 1056.57 593.274 1036.24 593.941 1016.42 C 595.015 984.487 587.262 959.621 612.966 935.536 C 612.915 916.642 614.415 894.554 615.049 875.401 L 618.38 766.968 C 621.201 682.196 623.185 595.896 627.022 511.306 C 621.13 500.834 616.173 484.562 616.708 472.313 C 618.893 422.264 603.205 355.227 668.781 340.283 z" />
<path transform="translate(0,0)" fill="rgb(253,254,253)" d="M 671.769 347.346 C 709.69 343.617 733.052 367.586 733.846 404.72 C 734.441 432.532 736.254 461.342 731.427 488.873 C 729.295 501.033 720.531 511.74 720.739 524.701 C 720.224 548.968 719.382 573.2 718.717 597.436 C 717.365 636.304 716.208 675.18 715.245 714.06 L 708.715 924.959 C 717.434 933.772 718.578 935.496 725.159 945.78 C 736.169 934.624 767.55 913.322 781.563 904.919 C 894.068 838.225 1028.5 819.088 1155.15 851.739 C 1158.51 845.805 1162.55 840.552 1166.75 835.148 C 1194.21 799.834 1235.21 779.656 1279.75 778.062 C 1285.52 777.856 1290.94 762.784 1294.22 757.648 C 1308.67 734.986 1330.2 719.812 1356.77 714.832 C 1373.94 711.613 1401.86 707.914 1397.38 683.318 C 1396.91 680.732 1394.94 677.8 1392.37 676.803 C 1374.58 671.15 1370.8 694.835 1361.51 704.424 C 1356.33 709.111 1348.42 713.17 1341.97 715.619 C 1319.23 724.252 1291.27 708.062 1285.64 684.805 C 1280.11 661.444 1287.62 636.273 1299.51 616.151 C 1333.51 558.586 1407.95 544.261 1464.03 578.598 C 1528.58 617.464 1541.96 705.737 1501.15 766.775 C 1474.14 807.175 1438.75 823.331 1392.75 833.243 C 1396.94 839.519 1401.15 845.819 1404.76 852.594 C 1431.08 901.872 1418.32 965.135 1397.46 1014.06 C 1395.66 1018.21 1389.54 1029.01 1391.9 1033.41 C 1400.51 1049.47 1407.32 1071.86 1416.53 1087.07 C 1443.11 1077.91 1481.28 1067.48 1507.07 1084.27 C 1525.06 1095.98 1532.02 1117.98 1530.7 1138.46 C 1530.2 1146.14 1527.92 1154.52 1528.8 1162.35 C 1531.65 1183.6 1539.37 1206.2 1542.64 1227.16 C 1545.61 1246.2 1556.73 1250.46 1561.92 1265.31 C 1566.93 1279.6 1570.78 1298.9 1574.37 1313.82 C 1579.57 1335.42 1585.79 1357.8 1590.11 1379.51 C 1610.9 1398.29 1612.02 1418.65 1618.05 1444.69 L 1636.16 1524.3 C 1638.9 1535.56 1641.02 1547.08 1643.24 1558.46 C 1649.89 1564.05 1654.05 1569.75 1657.27 1577.91 C 1676.66 1626.98 1654.99 1659.08 1607.52 1675.63 C 1574.73 1687.05 1525.96 1700.52 1491.59 1686.37 C 1466.39 1675.99 1458.9 1642.46 1458.27 1618 C 1458.06 1611.2 1460.84 1603.22 1458.93 1597.53 C 1458.54 1597.63 1434.18 1632.49 1429.52 1636.97 C 1349.2 1714.26 1216.21 1716.23 1111.8 1730.4 C 1064.91 1736.76 1014.13 1741.41 968.611 1743.1 C 866.227 1746.91 741.583 1751.9 660.531 1679.12 C 594.495 1618.87 582.068 1535.35 577.853 1451.27 C 551.166 1469.01 522.629 1482.84 491.201 1490.92 C 463.877 1497.93 439.53 1482.26 433.872 1454.51 C 432.315 1446.87 433.433 1435.81 433.515 1427.74 C 433.91 1389.11 437.68 1349.52 451.951 1313.29 C 454.857 1305.92 456.197 1298.09 461.711 1291.93 C 465.878 1287.59 456.794 1283.76 453.278 1281.35 C 426.875 1263.21 394.451 1231.84 385.226 1200.62 C 379.42 1180.96 390.205 1156.91 407.568 1146.93 C 427.408 1135.53 451.982 1126.97 474.318 1121.69 C 510.15 1113.18 547.59 1115.46 580.957 1131.44 C 585.644 1133.68 589.307 1136.48 593.612 1139.28 C 595.877 1140.75 597.753 1141.5 600.151 1140.77 C 602.741 1136.14 611.706 1106.97 614.155 1099.72 C 611.322 1095.7 603.038 1083.94 602.343 1079.38 C 598.808 1056.23 601.751 1030.12 601.408 1006.66 C 601.011 979.54 597.043 958.809 620.119 939.444 L 629.793 637.23 L 632.173 553.816 C 632.644 539.714 633.469 524.381 633.401 510.12 C 631.722 501.623 625.85 493.011 624.906 484.354 C 622.841 464.155 623.984 443.226 624.07 422.957 C 624.151 403.903 624.893 383.239 637.254 367.729 C 646.53 356.088 656.833 349.309 671.769 347.346 z" />
<path transform="translate(0,0)" fill="rgb(6,6,5)" d="M 1364.35 606.591 C 1403.72 585.792 1455.73 607.111 1475.42 645.425 C 1487.41 669.091 1489.42 696.576 1481.01 721.737 C 1472.96 747.184 1455.03 768.331 1431.24 780.427 C 1416.7 787.761 1372.85 797.258 1367 802.167 C 1358.44 809.351 1350.72 827.071 1346.51 837.488 C 1347.2 841.018 1351.84 844.768 1354.47 847.479 C 1403.8 898.184 1374.84 978.837 1345.46 1032.97 C 1365.48 1066.57 1380.69 1099.64 1393.8 1136.89 C 1396.29 1143.96 1411.32 1153.1 1413.21 1162.36 C 1419.02 1173.86 1412.94 1196.13 1416.33 1204.41 C 1426.48 1229.15 1444.2 1250.86 1446.95 1279.38 C 1447.28 1282.77 1447.77 1285.9 1451.06 1287 C 1455.32 1282.76 1447.52 1256.61 1446.08 1250.12 C 1439.99 1222.12 1433.76 1194.16 1427.38 1166.23 C 1402.73 1151.33 1402.9 1129.71 1432.6 1121.91 C 1445.73 1118.47 1473.31 1108.52 1486.43 1116.64 C 1497.6 1125.12 1492.27 1143.58 1485.64 1153.14 C 1491.05 1172.66 1495.62 1193.88 1500.25 1213.68 C 1504.32 1231.13 1509.58 1251.54 1512.11 1269.19 C 1526.49 1272.54 1526.28 1279.46 1529.5 1293.1 C 1538.35 1330.67 1549.09 1368.49 1556.8 1406.27 C 1562.64 1408.74 1569.73 1411.73 1571.51 1418.45 C 1585.95 1473.14 1596.54 1529.19 1610.61 1583.89 C 1610.61 1583.91 1616.93 1587.55 1617.03 1587.7 C 1639.7 1620.85 1616.51 1632.62 1587.88 1642 C 1564.94 1649.52 1549.3 1652.62 1525.71 1654.06 C 1503.73 1655.19 1500.01 1646.05 1497.61 1625.91 C 1496.82 1618.08 1502.82 1611.17 1501.36 1604.99 C 1493.27 1569.93 1485.38 1534.82 1477.7 1499.67 C 1473.53 1481.23 1468.75 1462.79 1465.51 1444.2 C 1464.18 1436.55 1468.74 1431.67 1473.61 1426.53 C 1468.88 1402.75 1461.42 1367 1455.2 1343.92 C 1454.66 1359.26 1455.35 1374.72 1455.13 1390.14 C 1454.66 1417.3 1453.06 1444.42 1450.33 1471.45 C 1440.51 1569.93 1418.79 1626.5 1316.1 1657.58 C 1255.69 1675.86 1195.2 1681.69 1132.73 1689.12 C 1043.81 1699.23 951.042 1709.33 861.665 1705.13 C 793.81 1701.22 723.083 1692.27 675.082 1638.71 C 628.972 1587.25 622.579 1528.32 617.979 1463.11 C 614.822 1418.35 615.876 1381.41 619.487 1336.86 C 610.458 1360.69 599.774 1379.58 581.726 1398.04 C 581.193 1403.21 581.172 1405.95 577.49 1409.24 C 573.323 1409.1 575.257 1409.63 571.545 1407.33 C 557.075 1420.02 490.761 1461.43 474.328 1452.02 C 471.413 1446 472.021 1427.79 472.317 1420.23 C 474.756 1357.94 482.75 1311.81 529.263 1267.45 C 505.63 1266.56 483.506 1256.76 465.092 1242.29 C 459.291 1238.61 451.485 1230.36 446.898 1225.22 C 441.868 1222.03 429.45 1204.03 426.173 1198.58 C 414.865 1179.75 440.58 1173.21 454.052 1167.8 L 450.406 1164.33 C 452.489 1163 468.614 1160.65 471.352 1161.1 C 488.043 1159.05 495.798 1153.35 516.94 1154.93 C 551.754 1157.54 572.929 1167.48 596.159 1192.31 C 608.199 1181.65 617.246 1177.23 633.202 1175.55 C 637.328 1143.85 652.562 1104.34 667.868 1076.98 C 659.957 1076.12 645.749 1075.92 640.603 1070.66 C 639.902 1067.24 639.701 1068.84 641.247 1065.69 C 651.054 1059.63 672.113 1071.83 675.97 1061.6 C 668.427 1054.92 649.11 1067.36 637.425 1055.44 C 637.72 1048.94 638.072 1047.3 638.971 1041.21 C 642.199 1031.4 652.6 1032.99 661.605 1032.98 C 672.604 1032.97 683.601 1033.21 694.615 1033.2 C 728.185 985.891 780.022 946.725 831.764 921.23 C 937.651 868.609 1060.09 860.157 1172.2 897.73 C 1175.42 890.64 1182.31 879.938 1186.5 872.896 C 1195.29 861.184 1200.96 854.645 1211.03 844.381 C 1243.95 821.43 1265.34 810.756 1306.45 819.786 C 1316.07 796.241 1330.26 763.369 1356.4 755.026 C 1379.09 747.784 1399.92 748.573 1418.09 730.921 C 1430.16 719.13 1436.98 702.973 1436.99 686.099 C 1437.05 658.563 1415.31 636.238 1387.49 637.072 C 1370.13 637.729 1354.03 646.334 1343.84 660.407 C 1339.92 665.811 1333.56 678.698 1326.37 678.866 C 1314.32 669.825 1331.77 636.821 1338.76 627.171 C 1345.5 617.84 1354.26 611.771 1364.35 606.591 z" />
<path transform="translate(0,0)" fill="rgb(213,173,54)" d="M 1413.01 632.399 L 1413.3 631.435 C 1405.69 623.162 1372.21 629.28 1367.9 621.543 C 1377.17 607.618 1416.92 618.054 1428.75 627.083 C 1432.98 624.133 1431.18 623.373 1435.52 621.008 L 1438.77 622.222 L 1440.13 621.481 L 1446.25 625.447 C 1454.9 632.032 1461.52 640.755 1466.96 650.092 L 1465.22 655.518 C 1466.25 658.078 1467.55 665.268 1466.98 667.783 C 1471.03 673.754 1469.69 689.404 1469.35 697.283 L 1472 699.348 L 1472.15 698.899 C 1475.49 707.326 1468.2 716.569 1468.76 725.259 C 1461.98 748.716 1429.3 776.652 1405.4 779.661 C 1398.74 777.953 1373.34 786.555 1365.75 788.206 C 1356.38 790.243 1353.08 799.377 1345.4 805.389 L 1345.53 805.29 C 1344.42 803.459 1344.7 804.475 1345.24 802.063 C 1342.53 804.357 1343.73 803.011 1342.55 807.384 L 1340.68 803.89 L 1339.65 803.954 L 1339.84 807.141 C 1334.97 800.274 1345.99 779.082 1346.83 771.231 C 1364.06 749.355 1428.43 774.778 1447.09 696.163 C 1447.6 678.45 1446.25 668.537 1437.15 653.229 C 1436.45 652.563 1432.72 647.733 1431.9 646.712 C 1425.26 640.277 1420.67 637.369 1413.01 632.399 z" />
<path transform="translate(0,0)" fill="rgb(241,212,143)" d="M 1428.75 627.083 C 1432.98 624.133 1431.18 623.373 1435.52 621.008 L 1438.77 622.222 L 1440.13 621.481 L 1446.25 625.447 C 1454.9 632.032 1461.52 640.755 1466.96 650.092 L 1465.22 655.518 C 1466.25 658.078 1467.55 665.268 1466.98 667.783 C 1471.03 673.754 1469.69 689.404 1469.35 697.283 C 1465.94 699.023 1467.65 698.749 1464.13 698.54 C 1461.72 696.223 1461.46 691.488 1460.83 687.95 L 1461.11 685.299 C 1454.37 668.253 1456.13 653.228 1440.86 637.677 L 1440.57 637.197 C 1437.51 633.915 1435.69 632.47 1432.17 629.614 L 1428.75 627.083 z" />
<path transform="translate(0,0)" fill="rgb(193,55,51)" d="M 440.013 1185.58 C 467.815 1171.29 495.667 1161.96 527.225 1166.14 C 543.162 1168.46 558.374 1174.33 571.729 1183.33 C 570.649 1193.07 570.676 1206.78 557.788 1205.81 C 554.573 1204.51 551.462 1203.91 548.089 1203.11 C 532.455 1199.26 521.13 1200.51 505.593 1205.02 L 504.037 1207 C 504.808 1213.25 509.657 1215.34 514.697 1218.54 C 521.325 1220.52 537.811 1226.61 543.493 1230.04 L 543.807 1231.41 C 543.177 1231.87 542.357 1232.54 541.6 1232.62 C 507.536 1236.42 471.88 1221.31 449.758 1195.29 C 446.292 1191.21 441.972 1192.36 440.013 1185.58 z" />
<path transform="translate(0,0)" fill="rgb(156,38,36)" d="M 440.013 1185.58 C 441.972 1192.36 446.292 1191.21 449.758 1195.29 C 471.88 1221.31 507.536 1236.42 541.6 1232.62 C 542.357 1232.54 543.177 1231.87 543.807 1231.41 L 543.493 1230.04 C 537.811 1226.61 521.325 1220.52 514.697 1218.54 C 530.658 1213.25 549.993 1219.16 565.468 1224.02 C 571.437 1225.89 572.547 1227.75 578.168 1227.45 C 581.006 1229.48 583.537 1236.85 581.528 1239.4 C 578.408 1243.36 567.79 1243.98 563.881 1246.53 C 530.564 1268.31 498.455 1254.17 467.287 1231.89 C 463.64 1227.99 459.813 1224.46 455.94 1220.79 C 449.96 1213.35 436.159 1198.01 434.816 1189.58 C 436.182 1186.46 435.863 1187.43 440.013 1185.58 z" />
<path transform="translate(0,0)" fill="rgb(222,191,113)" d="M 1364.35 606.591 C 1361.94 611.524 1360.34 610.141 1357.12 614.349 C 1359.01 616.473 1365.32 615.647 1368.14 615.459 C 1390.77 606.113 1420.33 604.794 1440.13 621.481 L 1438.77 622.222 L 1435.52 621.008 C 1431.18 623.373 1432.98 624.133 1428.75 627.083 C 1416.92 618.054 1377.17 607.618 1367.9 621.543 C 1372.21 629.28 1405.69 623.162 1413.3 631.435 L 1413.01 632.399 C 1379.98 621.203 1356.19 630.364 1334.17 655.975 C 1336.93 648.395 1338.3 645.582 1342.37 638.538 C 1342.56 635.551 1340.8 629.2 1338.76 627.171 C 1345.5 617.84 1354.26 611.771 1364.35 606.591 z" />
<path transform="translate(0,0)" fill="rgb(14,6,5)" d="M 1364.35 606.591 C 1361.94 611.524 1360.34 610.141 1357.12 614.349 C 1359.01 616.473 1365.32 615.647 1368.14 615.459 C 1354.73 622.658 1351.15 626.071 1342.37 638.538 C 1342.56 635.551 1340.8 629.2 1338.76 627.171 C 1345.5 617.84 1354.26 611.771 1364.35 606.591 z" />
<path transform="translate(0,0)" fill="rgb(178,145,67)" d="M 1346.83 771.231 C 1345.99 779.082 1334.97 800.274 1339.84 807.141 L 1339.65 803.954 L 1340.68 803.89 L 1342.55 807.384 C 1343.73 803.011 1342.53 804.357 1345.24 802.063 C 1344.7 804.475 1344.42 803.459 1345.53 805.29 L 1345.4 805.389 C 1353.08 799.377 1356.38 790.243 1365.75 788.206 C 1373.34 786.555 1398.74 777.953 1405.4 779.661 L 1404.09 780.134 C 1377.75 789.49 1362.2 783.272 1348.58 811.118 C 1346.6 815.183 1344.67 819.266 1342.78 823.368 L 1339.17 823.772 C 1331.97 817.41 1338.28 810.124 1335.9 801.883 C 1334.89 798.407 1332.07 801.834 1329.05 794.88 C 1334.68 785.551 1338.42 778.259 1346.83 771.231 z" />
<path transform="translate(0,0)" fill="rgb(156,38,36)" d="M 571.729 1183.33 C 590.691 1196.3 591.984 1196.07 582.26 1217.28 C 574.134 1213.39 565.977 1209.57 557.788 1205.81 C 570.676 1206.78 570.649 1193.07 571.729 1183.33 z" />
<path transform="translate(0,0)" fill="rgb(176,141,67)" d="M 1329.05 794.88 C 1332.07 801.834 1334.89 798.407 1335.9 801.883 C 1338.28 810.124 1331.97 817.41 1339.17 823.772 L 1342.78 823.368 C 1341.79 826.499 1340 830.103 1338.62 833.152 C 1329.65 827.899 1325.61 825.821 1315.91 822.004 C 1319.74 812.477 1324.33 803.965 1329.05 794.88 z" />
<path transform="translate(0,0)" fill="rgb(138,43,43)" d="M 514.697 1218.54 C 509.657 1215.34 504.808 1213.25 504.037 1207 L 505.593 1205.02 C 506.141 1207.01 506.099 1208.77 507.433 1209.05 C 515.346 1210.73 526.567 1209.51 534.941 1209.92 C 549.687 1213.51 566.352 1217.34 578.168 1227.45 C 572.547 1227.75 571.437 1225.89 565.468 1224.02 C 549.993 1219.16 530.658 1213.25 514.697 1218.54 z" />
<path transform="translate(0,0)" fill="rgb(222,191,113)" d="M 1466.96 650.092 C 1476.66 672.955 1480.46 696.415 1470.88 720.41 C 1470.24 722.053 1469.53 723.671 1468.76 725.259 C 1468.2 716.569 1475.49 707.326 1472.15 698.899 L 1472 699.348 L 1469.35 697.283 C 1469.69 689.404 1471.03 673.754 1466.98 667.783 C 1467.55 665.268 1466.25 658.078 1465.22 655.518 L 1466.96 650.092 z" />
<path transform="translate(0,0)" fill="rgb(239,236,227)" d="M 638.971 1041.21 C 648.605 1048.66 678.849 1041.14 685.764 1044.86 C 685.284 1047.71 685.799 1046.35 683.41 1048.66 C 668.684 1051.79 645.965 1043.44 637.425 1055.44 C 637.72 1048.94 638.072 1047.3 638.971 1041.21 z" />
<path transform="translate(0,0)" fill="rgb(14,6,5)" d="M 505.593 1205.02 C 521.13 1200.51 532.455 1199.26 548.089 1203.11 C 532.336 1203.75 526.502 1202.93 511.05 1207.43 C 515.735 1207.38 531.363 1206.67 534.685 1208.51 L 534.941 1209.92 C 526.567 1209.51 515.346 1210.73 507.433 1209.05 C 506.099 1208.77 506.141 1207.01 505.593 1205.02 z" />
<path transform="translate(0,0)" fill="rgb(14,6,5)" d="M 455.94 1220.79 C 459.813 1224.46 463.64 1227.99 467.287 1231.89 C 463.462 1234.99 464.541 1235.22 466.283 1239.67 L 465.092 1242.29 C 459.291 1238.61 451.485 1230.36 446.898 1225.22 C 449.925 1225.2 451.145 1225.71 454.004 1226.51 L 455.382 1225.68 L 455.94 1220.79 z" />
<path transform="translate(0,0)" fill="rgb(239,236,227)" d="M 454.052 1167.8 L 450.406 1164.33 C 452.489 1163 468.614 1160.65 471.352 1161.1 L 470.941 1161.98 C 466.393 1162.82 458.338 1165.73 454.052 1167.8 z" />
<path transform="translate(0,0)" fill="rgb(239,236,227)" d="M 581.726 1398.04 C 581.193 1403.21 581.172 1405.95 577.49 1409.24 C 573.323 1409.1 575.257 1409.63 571.545 1407.33 L 581.726 1398.04 z" />
<path transform="translate(0,0)" fill="rgb(239,236,227)" d="M 717.594 1225.3 C 763.119 1202.87 810.871 1185.27 860.067 1172.8 C 1012.94 1133.82 1200.37 1133.62 1350.52 1182.78 C 1386.36 1194.51 1403.94 1199.15 1421.02 1234.54 C 1431.38 1256.15 1438.33 1279.24 1441.61 1302.97 C 1450.43 1364.08 1444.18 1490.63 1425.83 1551.1 C 1417.3 1579.2 1397.7 1604.84 1371.81 1620.12 C 1366.02 1623.79 1362.59 1625.77 1356.44 1628.77 C 1312.32 1658.71 1199.01 1672.25 1146.45 1677.87 C 1029.83 1690.35 907.694 1707.84 791.229 1688.13 C 740.832 1679.59 696.793 1654.89 668.137 1612.03 C 665.774 1608.9 663.372 1604.88 661.224 1601.52 C 638.403 1561.85 631.754 1518.16 628.865 1473.09 C 628.046 1460.32 626.85 1447.77 627.119 1434.95 C 626.056 1413.72 626.617 1380.45 628.093 1359.82 C 627.906 1352.98 628.902 1345.42 629.408 1338.59 C 630.865 1318.93 633.005 1300.64 639.216 1281.79 C 644.844 1264.71 653.925 1259.99 668.473 1251.27 C 684.541 1241.64 700.881 1233.47 717.594 1225.3 z" />
<path transform="translate(0,0)" fill="rgb(203,204,203)" d="M 628.093 1359.82 C 627.906 1352.98 628.902 1345.42 629.408 1338.59 C 630.865 1318.93 633.005 1300.64 639.216 1281.79 C 644.844 1264.71 653.925 1259.99 668.473 1251.27 C 684.541 1241.64 700.881 1233.47 717.594 1225.3 C 718.524 1230.07 711.16 1245.02 709.215 1250.53 C 705.324 1261.82 702.223 1273.36 699.934 1285.07 C 683.232 1375.01 685.021 1531.1 757.282 1597.47 C 771.402 1609.28 801.793 1630.08 819.645 1634.84 C 887.759 1653 965.886 1659.36 1036.2 1658.49 C 1079.12 1657.96 1125.57 1646.98 1169.79 1645 C 1204.04 1643.48 1241.61 1633.27 1277.22 1634.39 C 1291.04 1633.6 1309.38 1625.79 1323.45 1623.57 C 1334.81 1621.08 1342.05 1620.29 1353.35 1618.97 C 1359.34 1618.82 1366.56 1617.91 1371.81 1620.12 C 1366.02 1623.79 1362.59 1625.77 1356.44 1628.77 C 1312.32 1658.71 1199.01 1672.25 1146.45 1677.87 C 1029.83 1690.35 907.694 1707.84 791.229 1688.13 C 740.832 1679.59 696.793 1654.89 668.137 1612.03 C 665.774 1608.9 663.372 1604.88 661.224 1601.52 C 638.403 1561.85 631.754 1518.16 628.865 1473.09 C 628.046 1460.32 626.85 1447.77 627.119 1434.95 C 626.056 1413.72 626.617 1380.45 628.093 1359.82 z" />
<path transform="translate(0,0)" fill="rgb(203,204,203)" d="M 628.093 1359.82 C 630.376 1367.36 630.059 1422.6 628.703 1433.86 C 628.617 1434.56 628.062 1434.62 627.119 1434.95 C 626.056 1413.72 626.617 1380.45 628.093 1359.82 z" />
<path transform="translate(0,0)" fill="rgb(239,236,227)" d="M 661.224 1601.52 C 662.197 1598.97 662.792 1596.97 664.365 1594.71 L 665.662 1594.82 C 668.092 1597.71 668.988 1605.19 669.572 1609.11 L 668.137 1612.03 C 665.774 1608.9 663.372 1604.88 661.224 1601.52 z" />
<path transform="translate(0,0)" fill="rgb(6,6,5)" d="M 918.063 1310.37 C 981.452 1303.63 1029.67 1342.03 1049.81 1399.73 C 1052.88 1408.53 1054.91 1417.27 1057.8 1426.07 C 1071.61 1425.11 1086.59 1421.36 1099.28 1420.76 C 1129.13 1419.35 1160 1415.18 1189.62 1414.72 C 1193.41 1401.59 1197.43 1389.03 1203.93 1376.99 C 1228.46 1331.54 1287.94 1310.35 1334.33 1335.83 C 1385.95 1364.17 1394.48 1438.59 1367.58 1486.76 C 1352.86 1513.12 1327.75 1531.05 1298.76 1538.56 C 1275.32 1544.56 1255.06 1540.8 1234.49 1528.63 C 1206.23 1509.98 1201.54 1487.24 1189.65 1459.37 C 1163.75 1459.85 1139.67 1461.03 1113.88 1462.15 C 1092.27 1463.09 1079.49 1460.29 1056.5 1463.75 C 1043.53 1530.45 1005.24 1584.32 933.94 1594.63 C 806.453 1613.06 753.122 1450.98 824.709 1362.21 C 847.77 1333.29 881.325 1314.66 918.063 1310.37 z" />
<path transform="translate(0,0)" fill="rgb(57,57,57)" d="M 1045.05 1472.17 C 1043.45 1488.83 1028.29 1521.52 1019 1535.04 C 984.374 1585.43 906.641 1602.97 855.763 1567.29 C 799.941 1530.65 788.123 1427.94 827.933 1376.05 C 901.765 1279.81 1028.24 1309.19 1046.69 1431.03 C 1047.73 1446.16 1048.26 1457.04 1045.05 1472.17 z" />
<path transform="translate(0,0)" fill="rgb(63,64,64)" d="M 1045.05 1472.17 L 1044.6 1471.27 C 1042.04 1466.18 1042.62 1435.16 1046.69 1431.03 C 1047.73 1446.16 1048.26 1457.04 1045.05 1472.17 z" />
<path transform="translate(0,0)" fill="rgb(6,6,5)" d="M 929.728 1329.47 C 954.628 1328.9 975.727 1335.8 995.675 1351.56 C 1052.86 1396.71 1055.71 1480.42 1012.76 1536.22 C 993.423 1561.34 961.642 1574.72 930.472 1578.22 C 900.959 1579 876.308 1572.51 854.462 1552.07 C 800.875 1501.91 805.369 1416.17 852.611 1365.08 C 872.667 1343.58 900.353 1330.79 929.728 1329.47 z" />
<path transform="translate(0,0)" fill="rgb(57,57,57)" d="M 983.107 1441.25 C 976.417 1429.37 966.263 1405.55 952.55 1402.43 C 939.479 1399.44 907.319 1395.51 915.386 1374.89 C 922.975 1355.5 951.966 1354.3 968.111 1361.89 C 982.864 1369.07 992.724 1384.42 997.844 1399.8 C 1003.75 1411.94 1010.76 1441.36 996.032 1448.98 C 990.084 1449.58 986.361 1445.68 983.107 1441.25 z" />
<path transform="translate(0,0)" fill="rgb(239,236,227)" d="M 983.107 1441.25 C 982.553 1431.04 970.13 1382.75 997.844 1399.8 C 1003.75 1411.94 1010.76 1441.36 996.032 1448.98 C 990.084 1449.58 986.361 1445.68 983.107 1441.25 z" />
<path transform="translate(0,0)" fill="rgb(57,57,57)" d="M 858.186 1492.95 C 859.792 1492.87 864.167 1492.58 865.409 1493.73 C 876.643 1503.96 890.099 1521.83 906.234 1524.9 C 919.524 1526.18 937.017 1525.22 950.018 1522.38 C 971.329 1517.71 991.506 1523.46 966.468 1544.23 C 906.654 1586.26 829.438 1521.47 858.186 1492.95 z" />
<path transform="translate(0,0)" fill="rgb(57,57,57)" d="M 1166.25 1422.5 C 1174.16 1422.89 1180.04 1422.87 1187.97 1422.61 C 1187.49 1431.21 1187.02 1442.65 1187.69 1451.04 C 1168.59 1452.26 1139.7 1451.64 1120.25 1451.59 C 1111.01 1451.53 1101.54 1451.66 1092.36 1450.84 C 1092.05 1443.78 1090.89 1435.56 1094.21 1429.46 C 1100.28 1428.07 1117.73 1427.29 1124.95 1426.73 C 1138.74 1425.62 1152.51 1424.21 1166.25 1422.5 z" />
<path transform="translate(0,0)" fill="rgb(57,57,57)" d="M 1309.13 1412.11 C 1307.08 1378.32 1268.18 1391.1 1267.7 1376.43 C 1272.67 1365.39 1282.08 1362.26 1293.53 1362.59 C 1312.82 1363.16 1320.78 1374.58 1326.88 1390.74 C 1331.78 1397.01 1337.32 1406.54 1334.86 1414.2 C 1327.52 1437.05 1315.52 1427.48 1309.13 1412.11 z" />
<path transform="translate(0,0)" fill="rgb(239,236,227)" d="M 1309.13 1412.11 C 1309.19 1411.25 1309.25 1410.39 1309.32 1409.53 C 1310.3 1397.16 1312.9 1388.9 1326.88 1390.74 C 1331.78 1397.01 1337.32 1406.54 1334.86 1414.2 C 1327.52 1437.05 1315.52 1427.48 1309.13 1412.11 z" />
<path transform="translate(0,0)" fill="rgb(57,57,57)" d="M 1241.45 1465.5 C 1247.83 1468.6 1254.26 1476.49 1262.37 1480.36 C 1275.08 1486.43 1311.72 1472.47 1318.2 1484.77 C 1317.86 1489.57 1313.82 1492.79 1310.4 1496.09 C 1283.44 1517.51 1219.63 1494.15 1241.45 1465.5 z" />
<path transform="translate(0,0)" fill="rgb(57,57,57)" d="M 1057.3 1430.28 C 1065.43 1430.47 1074.35 1430.23 1082.54 1430.18 C 1083.67 1436.91 1086.66 1448.8 1083.66 1454.28 L 1080.23 1454.84 C 1072.15 1455.51 1065.53 1456.13 1057.54 1457.4 C 1057.69 1448.36 1057.61 1439.32 1057.3 1430.28 z" />
<path transform="translate(0,0)" fill="rgb(193,55,51)" d="M 905.323 903.621 C 1007.43 871.716 1119.26 878.72 1215.72 927.232 C 1218.11 928.433 1228.8 934.594 1230.19 936.28 C 1241.17 941.679 1273.92 965.586 1282.28 974.6 C 1317.09 1001.19 1348.92 1052.72 1365.7 1092.95 C 1370.25 1098.58 1377.05 1123.08 1381.89 1132.83 C 1355.63 1116.16 1297.93 1100.86 1266.65 1093.24 C 1256.46 1090.76 1247.57 1091.56 1238.04 1090.61 L 1237.19 1090.52 C 1235.31 1093.98 1235.34 1092.41 1235.64 1095.59 C 1238.33 1097.57 1259.78 1100.89 1264.81 1102.19 C 1293.24 1109.56 1320.7 1117.43 1347.99 1128.3 C 1385.18 1143.12 1408.73 1148.41 1405.54 1194.36 C 1392.26 1188.39 1379.72 1182.65 1366.12 1177.37 C 1348.19 1172.75 1330.58 1165.67 1312.53 1160.92 C 1241.8 1142.31 1172.61 1134.34 1099.38 1134.84 C 952.441 1135.84 805.578 1161.41 676.502 1234.83 C 665.149 1241.28 653.693 1249.62 642.482 1255.68 C 640.454 1247.29 636.08 1229.41 641.278 1222.04 C 647.599 1211.6 686.879 1178.66 697.91 1172.29 C 701.452 1166.28 763.399 1131.83 774.309 1125.6 L 773.425 1123.09 C 769.753 1121.46 762.873 1124 759.188 1125.62 C 718.972 1143.32 673.62 1174.2 643.977 1205.78 C 651.762 1186.06 657.133 1176.3 667.461 1157.94 C 667.512 1152.09 669.285 1150.37 669.667 1146.02 C 667.493 1149.27 662.75 1153.99 659.245 1155.88 C 652.711 1163.02 644.414 1181.95 640.846 1190.93 C 642.012 1179.47 645.907 1157.17 650.28 1146.77 C 653.002 1131.6 669.958 1094.28 677.703 1079.68 C 726.064 988.508 808.477 933.403 905.323 903.621 z" />
<path transform="translate(0,0)" fill="rgb(156,38,36)" d="M 650.28 1146.77 C 653.002 1131.6 669.958 1094.28 677.703 1079.68 C 726.064 988.508 808.477 933.403 905.323 903.621 C 900.05 909.14 875.969 917.853 867.506 923.701 C 805.356 966.649 752.929 1025.7 739.227 1102.17 C 739.038 1103.23 739.299 1105.41 739.422 1106.46 C 748.52 1114.96 821.999 1086.8 837.438 1083.06 C 847.146 1080.47 863.499 1075.65 873.372 1077.96 C 876.163 1080.15 875.3 1078.8 876.269 1082 C 875.815 1083.78 875.764 1084.96 874.817 1086.31 C 874.483 1086.48 874.15 1086.67 873.814 1086.84 C 855.519 1096.33 775.95 1123.74 770.419 1142.09 C 769.9 1143.81 770.052 1144.88 770.723 1146.59 C 771.866 1149.49 775.872 1152.48 778.172 1154.47 C 784.742 1156.5 787.691 1156.98 794.501 1155.64 C 815.82 1151.42 836.773 1145.18 858.087 1140.38 C 899.634 1130.96 941.573 1123.35 983.782 1117.56 C 1083.98 1103.79 1188.64 1117.64 1286.12 1142.57 C 1309.49 1148.55 1346.2 1163.22 1366.12 1177.37 C 1348.19 1172.75 1330.58 1165.67 1312.53 1160.92 C 1241.8 1142.31 1172.61 1134.34 1099.38 1134.84 C 952.441 1135.84 805.578 1161.41 676.502 1234.83 C 665.149 1241.28 653.693 1249.62 642.482 1255.68 C 640.454 1247.29 636.08 1229.41 641.278 1222.04 C 647.599 1211.6 686.879 1178.66 697.91 1172.29 C 701.452 1166.28 763.399 1131.83 774.309 1125.6 L 773.425 1123.09 C 769.753 1121.46 762.873 1124 759.188 1125.62 C 718.972 1143.32 673.62 1174.2 643.977 1205.78 C 651.762 1186.06 657.133 1176.3 667.461 1157.94 C 667.512 1152.09 669.285 1150.37 669.667 1146.02 C 667.493 1149.27 662.75 1153.99 659.245 1155.88 C 652.711 1163.02 644.414 1181.95 640.846 1190.93 C 642.012 1179.47 645.907 1157.17 650.28 1146.77 z" />
<path transform="translate(0,0)" fill="rgb(138,43,43)" d="M 680.798 1138.01 C 680.65 1138.65 680.502 1139.3 680.354 1139.94 C 679.564 1150.36 655.848 1175.25 659.091 1184.63 C 666.665 1184.34 667.602 1176.78 672.646 1173.74 C 698.914 1157.93 720.673 1136.56 750.056 1126.38 C 756.392 1124.18 772.877 1114.6 776.843 1123.31 L 776.119 1125.23 L 774.309 1125.6 L 773.425 1123.09 C 769.753 1121.46 762.873 1124 759.188 1125.62 C 718.972 1143.32 673.62 1174.2 643.977 1205.78 C 651.762 1186.06 657.133 1176.3 667.461 1157.94 C 671.944 1151.75 675.921 1144.67 680.798 1138.01 z" />
<path transform="translate(0,0)" fill="rgb(14,6,5)" d="M 668.768 1139.89 C 682.478 1120.73 703.379 1093.6 725.753 1085.99 C 712.229 1103.06 693.799 1118.92 680.798 1138.01 C 675.921 1144.67 671.944 1151.75 667.461 1157.94 C 667.512 1152.09 669.285 1150.37 669.667 1146.02 C 667.493 1149.27 662.75 1153.99 659.245 1155.88 C 660.939 1152.07 666.386 1143.71 668.768 1139.89 z" />
<path transform="translate(0,0)" fill="rgb(138,43,43)" d="M 641.278 1222.04 C 647.599 1211.6 686.879 1178.66 697.91 1172.29 C 695.226 1176.7 694.79 1178.07 693.817 1183.15 C 691.076 1185.27 689.797 1185.14 686.377 1185.61 C 681.252 1190.23 646.141 1220.07 641.278 1222.04 z" />
<path transform="translate(0,0)" fill="rgb(138,43,43)" d="M 650.28 1146.77 C 650.074 1148.01 649.876 1149.25 649.686 1150.49 C 649.097 1154.34 648.191 1157.38 650.437 1160.44 C 654.832 1158.91 662.99 1144.36 668.768 1139.89 C 666.386 1143.71 660.939 1152.07 659.245 1155.88 C 652.711 1163.02 644.414 1181.95 640.846 1190.93 C 642.012 1179.47 645.907 1157.17 650.28 1146.77 z" />
<path transform="translate(0,0)" fill="rgb(156,38,36)" d="M 1237.19 1090.52 C 1270.5 1082.81 1307.94 1094.75 1341.6 1099.18 C 1347.47 1099.95 1362.18 1103.98 1367.12 1103.84 L 1367.81 1101.2 C 1365.69 1097.58 1365.37 1097.11 1365.7 1092.95 C 1370.25 1098.58 1377.05 1123.08 1381.89 1132.83 C 1355.63 1116.16 1297.93 1100.86 1266.65 1093.24 C 1256.46 1090.76 1247.57 1091.56 1238.04 1090.61 L 1237.19 1090.52 z" />
<path transform="translate(0,0)" fill="rgb(182,55,52)" d="M 1230.19 936.28 C 1241.17 941.679 1273.92 965.586 1282.28 974.6 C 1279.06 974.526 1271.9 974.628 1269.57 973.701 C 1268.38 970.964 1267.74 969.174 1266.79 966.389 C 1263.62 963.789 1258.47 963.568 1254.03 962.501 L 1253.01 960.79 L 1254.35 957.382 C 1252.57 955.951 1248.35 956.452 1244.52 955.642 C 1241.6 947.343 1241.73 948.509 1233.89 944.581 C 1231.33 940.812 1231.11 940.641 1230.19 936.28 z" />
<path transform="translate(0,0)" fill="rgb(253,254,253)" d="M 1129.22 910.5 L 1140.56 910.501 C 1144.16 913.931 1146.21 915.604 1147.55 920.339 C 1147.68 920.782 1150.06 926.734 1149.94 926.629 C 1156.55 932.778 1164.38 931.354 1166.45 941.698 C 1166.94 944.128 1167.45 947.157 1165.94 949.809 C 1163.11 954.781 1158.05 956.149 1153.64 957.441 C 1150.65 958.317 1138.52 958.513 1139.03 958.278 C 1130.45 962.255 1128.62 969.653 1118.81 973.014 C 1115.77 978.837 1126.04 1005.99 1118.23 1013.32 C 1117.42 1014.09 1114.31 1020.99 1113.61 1022.52 L 1113.85 1023.6 C 1125.66 1023.13 1125.08 1028.65 1133.19 1031.02 C 1140.44 1036.27 1142.96 1036.85 1151.41 1033.59 C 1160.32 1031.63 1170.39 1032.54 1171.38 1043.89 C 1172.4 1055.49 1164.19 1054.51 1160.45 1062.68 C 1163.26 1075.7 1150.78 1091.77 1137.83 1081.97 C 1127.94 1074.49 1138.91 1062.83 1121.76 1056.99 L 1118.8 1058.87 C 1115.64 1055.58 1119.78 1052.37 1110.5 1048.12 C 1107.93 1046.94 1106.61 1045.43 1104.97 1043.2 C 1104.79 1038.58 1106.33 1037.57 1104.74 1034.59 C 1097.25 1039.76 1111.54 1064.85 1089.86 1063.37 C 1087.06 1061.96 1086.81 1061.42 1084.46 1059.33 C 1080.55 1059.86 1081.75 1059.73 1078.26 1062.96 L 1071.67 1065.63 C 1059.34 1068.97 1060.83 1062.21 1054.07 1064.99 C 1047.35 1068 1040.65 1065.14 1034.98 1061.36 C 1031.65 1059.4 1031.81 1053.64 1031.41 1049.95 C 1028.9 1047.07 1030.01 1047.96 1025.12 1047.42 C 1023.56 1051.97 1017.13 1055.23 1014.69 1058.96 C 1013 1063.76 1011.73 1064.49 1008.01 1068.23 C 1010.97 1069.82 1011.96 1066.55 1015.42 1069 C 1014.21 1070.64 1014.16 1070.68 1012.24 1071.7 C 1003.96 1076.14 1007.63 1090.48 999.777 1093.89 C 995.141 1095.85 990.338 1103.36 981.892 1099.11 C 977.338 1094.42 977.029 1088.71 976.23 1082.43 C 971.628 1081.54 970.713 1081.32 966.105 1081.44 C 948.77 1082.62 951.595 1062.72 961.726 1053.26 C 971.923 1052.32 976.223 1052.54 986.223 1053.79 C 991.634 1048.14 999.057 1044.65 999.309 1036.44 C 999.401 1033.43 1000.09 1032.13 1001.44 1029.54 C 1002.79 1029.85 1003.8 1030.11 1005.12 1030.48 C 1004.82 1026.32 1001.41 1021.42 999.371 1017.45 C 995.001 1008.96 999.423 996.447 995.428 986.471 C 989.503 984.076 971.083 974.341 965.005 976.093 C 960.991 977.249 961.154 978.899 956.776 976.876 C 943.252 978.726 938.968 976.312 936.64 962.547 C 936.526 960.091 936.856 956.997 938.694 955.497 C 945.616 949.848 949.993 947.065 949.713 937.087 C 949.558 931.538 952.636 929.253 956.521 925.51 C 974.394 924.991 979.061 930.333 978.495 948.887 C 985.184 952.595 989.308 954.238 996.533 956.684 C 999.195 957.586 998.588 961.517 1003.4 963.441 C 1007.54 961.618 1006.9 959.493 1009.76 956.601 C 1035.89 930.159 1074.59 930.352 1101.45 948.957 C 1102.57 949.725 1103.66 950.548 1104.71 951.421 C 1107.88 949.134 1117.19 939.937 1121.86 936.098 C 1121.96 930.485 1121.9 923.913 1122.38 918.394 C 1125.18 915.456 1126.85 913.755 1129.22 910.5 z" />
<path transform="translate(0,0)" fill="rgb(182,55,52)" d="M 1129.22 910.5 L 1140.56 910.501 C 1144.16 913.931 1146.21 915.604 1147.55 920.339 C 1147.68 920.782 1150.06 926.734 1149.94 926.629 C 1156.55 932.778 1164.38 931.354 1166.45 941.698 C 1166.94 944.128 1167.45 947.157 1165.94 949.809 C 1163.11 954.781 1158.05 956.149 1153.64 957.441 C 1150.65 958.317 1138.52 958.513 1139.03 958.278 C 1130.45 962.255 1128.62 969.653 1118.81 973.014 C 1115.77 978.837 1126.04 1005.99 1118.23 1013.32 C 1117.42 1014.09 1114.31 1020.99 1113.61 1022.52 L 1113.85 1023.6 C 1125.66 1023.13 1125.08 1028.65 1133.19 1031.02 C 1140.44 1036.27 1142.96 1036.85 1151.41 1033.59 C 1160.32 1031.63 1170.39 1032.54 1171.38 1043.89 C 1172.4 1055.49 1164.19 1054.51 1160.45 1062.68 C 1163.26 1075.7 1150.78 1091.77 1137.83 1081.97 C 1127.94 1074.49 1138.91 1062.83 1121.76 1056.99 L 1118.8 1058.87 C 1115.64 1055.58 1119.78 1052.37 1110.5 1048.12 C 1107.93 1046.94 1106.61 1045.43 1104.97 1043.2 C 1104.79 1038.58 1106.33 1037.57 1104.74 1034.59 C 1097.25 1039.76 1111.54 1064.85 1089.86 1063.37 C 1104.56 1056.07 1099.95 1047.73 1098.87 1032.89 C 1106.04 1026.85 1114.09 1018.9 1116.26 1009.55 C 1119.56 994.899 1116.54 975.865 1108.58 963.276 C 1091.48 936.242 1051.22 931.565 1025.57 948.755 C 1011.27 958.342 1004.45 969.229 1000.79 985.795 C 1002.5 996.743 1004.27 1008.74 1007.9 1019.19 C 1009.01 1022.39 1008.65 1023.72 1008.14 1027.16 C 1021.56 1041.15 1038.57 1038.47 1034.98 1061.36 C 1031.65 1059.4 1031.81 1053.64 1031.41 1049.95 C 1028.9 1047.07 1030.01 1047.96 1025.12 1047.42 C 1023.56 1051.97 1017.13 1055.23 1014.69 1058.96 C 1013 1063.76 1011.73 1064.49 1008.01 1068.23 C 1010.97 1069.82 1011.96 1066.55 1015.42 1069 C 1014.21 1070.64 1014.16 1070.68 1012.24 1071.7 C 1003.96 1076.14 1007.63 1090.48 999.777 1093.89 C 995.141 1095.85 990.338 1103.36 981.892 1099.11 C 977.338 1094.42 977.029 1088.71 976.23 1082.43 C 971.628 1081.54 970.713 1081.32 966.105 1081.44 C 948.77 1082.62 951.595 1062.72 961.726 1053.26 C 971.923 1052.32 976.223 1052.54 986.223 1053.79 C 991.634 1048.14 999.057 1044.65 999.309 1036.44 C 999.401 1033.43 1000.09 1032.13 1001.44 1029.54 C 1002.79 1029.85 1003.8 1030.11 1005.12 1030.48 C 1004.82 1026.32 1001.41 1021.42 999.371 1017.45 C 995.001 1008.96 999.423 996.447 995.428 986.471 C 989.503 984.076 971.083 974.341 965.005 976.093 C 960.991 977.249 961.154 978.899 956.776 976.876 C 943.252 978.726 938.968 976.312 936.64 962.547 C 936.526 960.091 936.856 956.997 938.694 955.497 C 945.616 949.848 949.993 947.065 949.713 937.087 C 949.558 931.538 952.636 929.253 956.521 925.51 C 974.394 924.991 979.061 930.333 978.495 948.887 C 985.184 952.595 989.308 954.238 996.533 956.684 C 999.195 957.586 998.588 961.517 1003.4 963.441 C 1007.54 961.618 1006.9 959.493 1009.76 956.601 C 1035.89 930.159 1074.59 930.352 1101.45 948.957 C 1102.57 949.725 1103.66 950.548 1104.71 951.421 C 1107.88 949.134 1117.19 939.937 1121.86 936.098 C 1121.96 930.485 1121.9 923.913 1122.38 918.394 C 1125.18 915.456 1126.85 913.755 1129.22 910.5 z" />
<path transform="translate(0,0)" fill="rgb(253,254,253)" d="M 1006.52 1037.85 C 1013 1042.1 1017.84 1044.77 1025.12 1047.42 C 1023.56 1051.97 1017.13 1055.23 1014.69 1058.96 C 1013 1063.76 1011.73 1064.49 1008.01 1068.23 C 1010.97 1069.82 1011.96 1066.55 1015.42 1069 C 1014.21 1070.64 1014.16 1070.68 1012.24 1071.7 C 1003.96 1076.14 1007.63 1090.48 999.777 1093.89 C 995.141 1095.85 990.338 1103.36 981.892 1099.11 C 977.338 1094.42 977.029 1088.71 976.23 1082.43 C 971.628 1081.54 970.713 1081.32 966.105 1081.44 C 945.529 1072.25 956.193 1050.6 984.219 1058.3 C 990.767 1053.6 1000.84 1043.68 1006.52 1037.85 z" />
<path transform="translate(0,0)" fill="rgb(182,55,52)" d="M 998.646 1073.71 C 1003.7 1067.86 1008.74 1063.83 1014.69 1058.96 C 1013 1063.76 1011.73 1064.49 1008.01 1068.23 C 1010.97 1069.82 1011.96 1066.55 1015.42 1069 C 1014.21 1070.64 1014.16 1070.68 1012.24 1071.7 C 1003.96 1076.14 1007.63 1090.48 999.777 1093.89 C 1001.4 1084.97 1000.76 1082.19 998.646 1073.71 z" />
<path transform="translate(0,0)" fill="rgb(239,236,227)" d="M 952.469 935.965 C 959.782 933.425 958.892 928.653 966.701 931.06 C 971.118 935.832 971.01 944.535 973.983 950.705 C 977.773 958.568 989.479 964.173 997.998 963.502 C 999.027 966.97 993.881 979.204 992.31 983.408 C 984.313 979.389 976.352 975.301 968.426 971.144 L 956.776 976.876 C 943.252 978.726 938.968 976.312 936.64 962.547 C 942.486 954.816 944.332 953.844 952.84 950.121 C 952.183 945.769 950.886 939.885 952.469 935.965 z" />
<path transform="translate(0,0)" fill="rgb(203,204,203)" d="M 952.469 935.965 C 955.527 928.648 962.313 922.1 969.478 929.671 C 976.143 936.712 976.049 941.786 976.056 950.74 C 984.244 956.24 990.524 958.882 997.998 963.502 C 989.479 964.173 977.773 958.568 973.983 950.705 C 971.01 944.535 971.118 935.832 966.701 931.06 C 958.892 928.653 959.782 933.425 952.469 935.965 z" />
<path transform="translate(0,0)" fill="rgb(203,204,203)" d="M 1000.79 985.795 C 1002.5 996.743 1004.27 1008.74 1007.9 1019.19 C 1009.01 1022.39 1008.65 1023.72 1008.14 1027.16 C 1000.26 1016.62 998.968 998.607 1000.79 985.795 z" />
<path transform="translate(0,0)" fill="rgb(239,236,227)" d="M 1116.78 1025.53 C 1119.41 1026.4 1139.22 1037.56 1143.03 1039.57 C 1169.02 1030.41 1179.92 1046.3 1156.46 1059.81 C 1157.14 1065.89 1157.34 1067.82 1156.92 1074.08 C 1143.61 1092.22 1134.96 1074.8 1135.08 1059.57 C 1131.8 1057.16 1128.45 1054.94 1124.92 1052.93 C 1107.9 1043.29 1101.72 1041.44 1116.78 1025.53 z" />
<path transform="translate(0,0)" fill="rgb(253,254,253)" d="M 1131.12 913.779 C 1143.85 913.638 1145.77 918.486 1146.9 930.11 C 1155.08 932.824 1164.19 935.569 1164.73 945.97 C 1160.71 958.027 1142.22 950.928 1135.12 954.927 C 1130.05 960.366 1126.85 963.964 1121.03 968.583 C 1117.78 960.956 1115.07 957.599 1110.22 950.94 C 1115.8 946.512 1119.79 943.135 1124.98 938.276 C 1124.51 926.921 1122.69 922.097 1131.12 913.779 z" />
<path transform="translate(0,0)" fill="rgb(138,43,43)" d="M 1055.45 1047.55 C 1058.17 1061.59 1056.05 1064.8 1071.67 1065.63 C 1059.34 1068.97 1060.83 1062.21 1054.07 1064.99 C 1054.44 1059.12 1054.74 1053.4 1055.45 1047.55 z" />
<path transform="translate(0,0)" fill="rgb(138,43,43)" d="M 1078.26 1062.96 C 1078.55 1056.85 1078.91 1050.75 1079.34 1044.65 C 1081.48 1049.66 1083.6 1053.94 1084.46 1059.33 C 1080.55 1059.86 1081.75 1059.73 1078.26 1062.96 z" />
<path transform="translate(0,0)" fill="rgb(156,38,36)" d="M 1021.15 988.331 C 1041.27 975.513 1060.47 990.407 1048.25 1009.87 L 1050.94 1011.68 C 1050.7 1015.33 1051.3 1013.74 1049.08 1016.64 C 1044.97 1018.06 1044.89 1018.01 1041.56 1014.6 L 1039.34 1015.34 C 1012.24 1023.41 1012.56 991.133 1021.15 988.331 z" />
<path transform="translate(0,0)" fill="rgb(203,204,203)" d="M 1039.34 1015.34 C 1012.24 1023.41 1012.56 991.133 1021.15 988.331 C 1016.17 1005.4 1020.88 1014.84 1039.34 1015.34 z" />
<path transform="translate(0,0)" fill="rgb(239,236,227)" d="M 1048.25 1009.87 L 1050.94 1011.68 C 1050.7 1015.33 1051.3 1013.74 1049.08 1016.64 C 1044.97 1018.06 1044.89 1018.01 1041.56 1014.6 C 1043.48 1013.41 1046.32 1011.25 1048.25 1009.87 z" />
<path transform="translate(0,0)" fill="rgb(182,55,52)" d="M 1033.09 986.343 C 1040.61 987.656 1043.29 985.572 1048.51 993.847 C 1053.38 1001.55 1046.75 1008.69 1040.56 1012.51 C 1032.34 1012.73 1026.11 1012.05 1022.89 1002.92 C 1021.82 999.829 1022.06 996.439 1023.56 993.535 C 1025.44 989.796 1029.33 987.693 1033.09 986.343 z" />
<path transform="translate(0,0)" fill="rgb(182,55,52)" d="M 1078.66 1006.87 C 1078.45 1006.71 1078.23 1006.54 1078.02 1006.38 C 1074.45 1003.39 1072.27 999.065 1071.99 994.42 C 1071.51 985.522 1076.7 977.668 1086.21 978.073 C 1090.87 978.314 1095.24 980.381 1098.39 983.827 C 1104.91 990.988 1102.82 999.694 1096.27 1005.96 C 1091.33 1010.8 1084.09 1011.14 1078.66 1006.87 z" />
<path transform="translate(0,0)" fill="rgb(156,38,36)" d="M 1061.83 1012.55 C 1068.85 1013.35 1075.33 1020.77 1071.96 1027.85 C 1068.38 1029.59 1068.98 1028.92 1064.26 1028.36 C 1061.17 1030.75 1060.81 1030.74 1057.99 1030.6 L 1056.82 1028.63 C 1056.97 1021.83 1058.48 1018.48 1061.83 1012.55 z" />
<path transform="translate(0,0)" fill="rgb(213,173,54)" d="M 1246.74 834.378 C 1265.45 822.527 1294.71 826.849 1314.59 832.141 C 1320.09 834.52 1329.6 838.754 1334.03 842.759 C 1338.12 845.149 1338.85 845.826 1342.24 849.163 C 1355.71 861.49 1361.69 873.356 1368 890.234 C 1374.23 922.586 1369.21 951.323 1357.62 981.968 C 1359.9 991.579 1356.57 996.786 1352.55 1005.5 C 1350.36 1010.26 1345.81 1019.74 1340.73 1021.44 L 1339.36 1022.65 C 1336.4 1021.11 1335.09 1018.24 1333.08 1015.24 L 1318.03 996.158 C 1317.64 995.896 1305.35 982.971 1303.85 981.461 C 1296.32 974.036 1288.6 966.806 1280.69 959.779 C 1259.28 943.271 1243.85 931.223 1219.9 918.31 C 1209.19 911.846 1193.36 905.551 1181.76 900.867 C 1187.89 887.267 1202.93 864.274 1215.15 855.474 C 1222.05 847.17 1236.69 838.135 1246.74 834.378 z" />
<path transform="translate(0,0)" fill="rgb(176,141,67)" d="M 1246.74 834.378 C 1265.45 822.527 1294.71 826.849 1314.59 832.141 C 1304.6 836.987 1296.1 838.839 1285.92 844.353 C 1254.26 857.973 1234.14 886.616 1220.13 917.507 C 1220.05 917.775 1219.98 918.042 1219.9 918.31 C 1209.19 911.846 1193.36 905.551 1181.76 900.867 C 1187.89 887.267 1202.93 864.274 1215.15 855.474 C 1222.05 847.17 1236.69 838.135 1246.74 834.378 z" />
<path transform="translate(0,0)" fill="rgb(178,145,67)" d="M 1215.15 855.474 C 1222.05 847.17 1236.69 838.135 1246.74 834.378 C 1245.15 838.956 1220.94 855.453 1215.15 855.474 z" />
<path transform="translate(0,0)" fill="rgb(222,191,113)" d="M 1280.69 959.779 L 1282.54 958.937 C 1289.9 964.215 1319.98 987.036 1318.03 996.158 C 1317.64 995.896 1305.35 982.971 1303.85 981.461 C 1296.32 974.036 1288.6 966.806 1280.69 959.779 z" />
<path transform="translate(0,0)" fill="rgb(14,6,5)" d="M 1357.62 981.968 C 1359.9 991.579 1356.57 996.786 1352.55 1005.5 C 1350.36 1010.26 1345.81 1019.74 1340.73 1021.44 C 1343.05 1015.53 1346.77 1008.27 1349.43 1001.86 C 1352.38 995.726 1355.09 988.38 1357.62 981.968 z" />
<path transform="translate(0,0)" fill="rgb(222,191,113)" d="M 1333.08 1015.24 C 1346.51 1016.49 1338.21 1008.6 1349.43 1001.86 C 1346.77 1008.27 1343.05 1015.53 1340.73 1021.44 L 1339.36 1022.65 C 1336.4 1021.11 1335.09 1018.24 1333.08 1015.24 z" />
<path transform="translate(0,0)" fill="rgb(241,212,143)" d="M 1335.37 863.634 C 1359.23 865.933 1363.17 913.452 1353.34 932.481 C 1349.29 934.384 1347.5 934.764 1343.53 932.767 C 1339.1 926.622 1341.3 912.068 1340.18 904.086 C 1338.9 894.958 1335.11 887.298 1333.18 878.522 C 1331.6 871.368 1331.63 869.351 1335.37 863.634 z" />
<path transform="translate(0,0)" fill="rgb(241,212,143)" d="M 1342.97 970.241 C 1340.63 971.397 1339.19 970.859 1337.02 970.131 C 1325.77 959.055 1333.1 934.276 1349.35 944.885 C 1352.47 946.92 1351.53 952.704 1350.96 955.905 C 1348.52 962.447 1347.87 965.103 1342.97 970.241 z" />
<path transform="translate(0,0)" fill="rgb(222,191,113)" d="M 1342.97 970.241 C 1340.63 971.397 1339.19 970.859 1337.02 970.131 C 1325.77 959.055 1333.1 934.276 1349.35 944.885 C 1352.47 946.92 1351.53 952.704 1350.96 955.905 C 1350.47 952.094 1350.67 950.086 1348.01 947.395 C 1344.53 945.883 1346.29 946.057 1342.53 946.953 C 1335.22 953.031 1331.69 966.529 1342.97 970.241 z" />
<path transform="translate(0,0)" fill="rgb(193,55,51)" d="M 585.555 1249.84 C 587.376 1253.34 590.778 1258.66 590.442 1262.35 C 584.861 1269 564.183 1285.17 561.746 1292.94 C 560.21 1298.33 559.5 1300.25 557.102 1305.3 L 558.13 1306.18 C 560.226 1305 562.369 1303.98 564.554 1302.99 C 573.514 1293.49 588.7 1275.74 598.877 1268.22 L 600.165 1269.25 C 622.8 1287.18 625.224 1269.45 619.058 1302.46 C 608.591 1358.49 575.208 1401.38 523.963 1426.28 C 517.075 1429.63 489.776 1442.63 483.795 1442.13 C 480.398 1436.67 481.664 1413.13 483.023 1406.96 L 482.967 1403.2 C 484.094 1392.19 485.587 1374.8 488.019 1364.59 C 489.348 1334.21 519.665 1283.48 546.114 1267.68 C 555.249 1259.82 573.691 1253.49 585.555 1249.84 z" />
<path transform="translate(0,0)" fill="rgb(156,38,36)" d="M 564.554 1302.99 C 573.514 1293.49 588.7 1275.74 598.877 1268.22 L 600.165 1269.25 C 622.8 1287.18 625.224 1269.45 619.058 1302.46 C 608.591 1358.49 575.208 1401.38 523.963 1426.28 C 517.075 1429.63 489.776 1442.63 483.795 1442.13 C 480.398 1436.67 481.664 1413.13 483.023 1406.96 C 483.829 1415.23 483.149 1426.65 482.855 1435.19 C 512.462 1419.56 588.508 1352.05 581.621 1314.93 L 580.111 1314.67 C 568.217 1322.18 547.025 1363.27 537.068 1364.71 C 535.048 1363.33 534.548 1363.02 532.338 1361.99 C 535.985 1356.16 542.583 1341.08 545.79 1334.26 C 551.717 1322.86 557.838 1313.84 564.554 1302.99 z" />
<path transform="translate(0,0)" fill="rgb(156,38,36)" d="M 585.555 1249.84 C 587.376 1253.34 590.778 1258.66 590.442 1262.35 C 584.861 1269 564.183 1285.17 561.746 1292.94 L 557.106 1297.04 C 560.41 1288.1 575.658 1271.94 569.558 1261.36 C 563.592 1258.87 554.329 1265.05 546.911 1267.43 L 546.114 1267.68 C 555.249 1259.82 573.691 1253.49 585.555 1249.84 z" />
<path transform="translate(0,0)" fill="rgb(14,6,5)" d="M 557.106 1297.04 L 561.746 1292.94 C 560.21 1298.33 559.5 1300.25 557.102 1305.3 L 558.13 1306.18 C 560.226 1305 562.369 1303.98 564.554 1302.99 C 557.838 1313.84 551.717 1322.86 545.79 1334.26 C 545.65 1330.82 546.238 1329.08 544.554 1326.87 C 541.581 1329.26 540.847 1329.81 537.345 1331.24 C 542.832 1318.05 550.88 1308.81 557.106 1297.04 z" />
<path transform="translate(0,0)" fill="rgb(6,6,5)" d="M 537.345 1331.24 C 540.847 1329.81 541.581 1329.26 544.554 1326.87 C 546.238 1329.08 545.65 1330.82 545.79 1334.26 C 542.583 1341.08 535.985 1356.16 532.338 1361.99 C 527.323 1354.46 532.864 1338.49 537.345 1331.24 z" />
<path transform="translate(0,0)" fill="rgb(182,55,52)" d="M 482.967 1403.2 C 484.094 1392.19 485.587 1374.8 488.019 1364.59 C 488.425 1373.81 494.183 1404.55 487.15 1410.59 L 486.043 1410.42 C 486.22 1406.78 487.032 1402.6 485.596 1399.78 C 484.761 1401.05 484.107 1402.18 482.967 1403.2 z" />
<path transform="translate(0,0)" fill="rgb(120,83,42)" d="M 1499.99 1445.85 C 1519.24 1439.18 1539.79 1434.22 1560.19 1434 C 1562.42 1434.71 1564.86 1434.95 1565.56 1437.08 C 1572.07 1456.73 1578.03 1486.23 1582.15 1505.9 C 1588.19 1532.07 1594.53 1561.87 1601.74 1587.58 C 1595.65 1591.18 1588.82 1595.08 1582.11 1597.43 C 1568.37 1603.02 1550.77 1607.71 1536.01 1609.29 C 1528.2 1610.24 1520.09 1610.32 1512.21 1610.54 C 1510.43 1598.53 1505.66 1580.71 1502.96 1568.02 C 1494.95 1530.36 1485.84 1493.1 1477.84 1455.39 C 1485.21 1452.16 1492.59 1448.98 1499.99 1445.85 z" />
<path transform="translate(0,0)" fill="rgb(92,58,28)" d="M 1477.84 1455.39 C 1485.21 1452.16 1492.59 1448.98 1499.99 1445.85 L 1500.21 1449.13 C 1505.57 1483.25 1514.36 1520.07 1521.91 1553.87 C 1525.69 1570.83 1534.54 1592.89 1536.01 1609.29 C 1528.2 1610.24 1520.09 1610.32 1512.21 1610.54 C 1510.43 1598.53 1505.66 1580.71 1502.96 1568.02 C 1494.95 1530.36 1485.84 1493.1 1477.84 1455.39 z" />
<path transform="translate(0,0)" fill="rgb(154,121,72)" d="M 1577.67 1572.91 C 1576 1569.4 1574.51 1561.69 1573.5 1557.55 C 1565.58 1524.95 1558.39 1492.17 1550.82 1459.49 C 1549.88 1455.4 1549.63 1450.9 1552.19 1447.4 C 1555.55 1446.37 1553.92 1446.39 1557.24 1447.16 C 1560.06 1451.14 1559.27 1454 1560.72 1457.89 C 1568.8 1479.59 1572.85 1503.42 1578.71 1526.32 C 1582.65 1542.09 1590.5 1558.45 1583.01 1572.83 L 1581.86 1572.93 L 1579.48 1570.77 C 1578.91 1571.41 1578.13 1572.22 1577.67 1572.91 z" />
<path transform="translate(0,0)" fill="rgb(139,107,53)" d="M 1582.15 1505.9 C 1588.19 1532.07 1594.53 1561.87 1601.74 1587.58 C 1595.65 1591.18 1588.82 1595.08 1582.11 1597.43 C 1583.01 1594.27 1591.45 1588.99 1595.13 1585.38 C 1595.09 1578.71 1594.73 1571.07 1592.77 1564.65 C 1590.65 1568.94 1588.96 1573.1 1585.78 1576.62 C 1581.98 1577.68 1583.21 1577.37 1578.68 1575.53 L 1577.67 1572.91 C 1578.13 1572.22 1578.91 1571.41 1579.48 1570.77 L 1581.86 1572.93 L 1583.01 1572.83 C 1590.5 1558.45 1582.65 1542.09 1578.71 1526.32 C 1580.21 1521.69 1582.18 1510.65 1582.15 1505.9 z" />
<path transform="translate(0,0)" fill="rgb(176,141,67)" d="M 1469.63 1286.02 C 1478.75 1282 1512.3 1271.28 1517.21 1284.65 C 1518.69 1288.69 1520.5 1297.38 1521.47 1301.87 C 1525.12 1315.98 1538.69 1365.14 1539.94 1377.23 C 1543.01 1386.81 1545.01 1396.73 1547.19 1406.55 C 1529.1 1407.68 1517.14 1410.08 1499.72 1415.63 C 1492.77 1417.8 1489.07 1419.16 1482.44 1422.13 L 1475.48 1390.38 C 1469.05 1358.32 1461.62 1326.94 1455.05 1295.07 C 1459.59 1290.64 1463.85 1288.35 1469.63 1286.02 z" />
<path transform="translate(0,0)" fill="rgb(139,107,53)" d="M 1455.05 1295.07 C 1459.59 1290.64 1463.85 1288.35 1469.63 1286.02 L 1470.97 1288.78 C 1472.6 1301.58 1475.22 1314.46 1478.03 1327.06 C 1484.51 1356.04 1489.47 1386.17 1498.11 1414.6 L 1499.72 1415.63 C 1492.77 1417.8 1489.07 1419.16 1482.44 1422.13 L 1475.48 1390.38 C 1469.05 1358.32 1461.62 1326.94 1455.05 1295.07 z" />
<path transform="translate(0,0)" fill="rgb(154,121,72)" d="M 1455.05 1295.07 C 1459.59 1290.64 1463.85 1288.35 1469.63 1286.02 L 1470.97 1288.78 C 1466.86 1290.67 1461.74 1292.26 1458.97 1295.42 C 1458.03 1304.87 1469.06 1345.93 1472.71 1355.02 L 1472.83 1354.43 C 1475.14 1362.19 1479.43 1383.62 1475.48 1390.38 C 1469.05 1358.32 1461.62 1326.94 1455.05 1295.07 z" />
<path transform="translate(0,0)" fill="rgb(222,191,113)" d="M 1531.22 1375.81 C 1534.19 1384.29 1535.76 1389.21 1533.22 1397.76 L 1529.48 1397.23 C 1520.39 1387.58 1512.84 1337.55 1508.16 1322.35 C 1506.1 1315.69 1500.14 1295.37 1504.81 1289.86 C 1508.4 1289.75 1506.73 1289.38 1509.96 1291.16 C 1512.76 1295.09 1515.73 1309.41 1517.1 1314.89 C 1523.72 1337.5 1525.87 1354.31 1531.22 1375.81 z" />
<path transform="translate(0,0)" fill="rgb(176,141,67)" d="M 1446.24 1160.36 C 1454.67 1157.33 1465.98 1153.08 1474.83 1155.12 C 1479.02 1158.74 1498.68 1249.46 1501.67 1261.85 C 1502.03 1266.18 1502.73 1265.7 1500.79 1268.33 C 1490.69 1271.49 1487.73 1269.46 1476.47 1273.75 C 1472.08 1275.01 1467.9 1276.54 1463.58 1278.05 C 1460.31 1274.57 1453.55 1239.23 1452.27 1232.3 C 1449.51 1223.44 1445.27 1200.55 1443.08 1190.54 C 1441.56 1184.36 1437.55 1170.85 1438.59 1164.86 C 1438.83 1163.5 1440.1 1163.51 1441.9 1162.81 C 1443.9 1160.99 1443.56 1161.48 1446.24 1160.36 z" />
<path transform="translate(0,0)" fill="rgb(139,107,53)" d="M 1452.13 1206.98 C 1457.4 1201.71 1451.73 1207.17 1453.31 1197.02 L 1454.08 1197.34 C 1456.24 1200.98 1454.55 1202.55 1458.13 1206.37 C 1462.73 1220.2 1471.5 1257.29 1472.84 1271.72 L 1471.68 1272.77 L 1476.47 1273.75 C 1472.08 1275.01 1467.9 1276.54 1463.58 1278.05 C 1460.31 1274.57 1453.55 1239.23 1452.27 1232.3 C 1452.83 1230.7 1452.39 1210.08 1452.13 1206.98 z" />
<path transform="translate(0,0)" fill="rgb(154,121,72)" d="M 1441.9 1162.81 C 1443.9 1160.99 1443.56 1161.48 1446.24 1160.36 C 1447.29 1162.46 1446.57 1161.52 1448.45 1163.14 C 1450.25 1168.37 1452.07 1174.67 1452.19 1180.22 C 1454.14 1187.28 1456.77 1199.07 1458.13 1206.37 C 1454.55 1202.55 1456.24 1200.98 1454.08 1197.34 L 1453.31 1197.02 C 1451.73 1207.17 1457.4 1201.71 1452.13 1206.98 C 1452.39 1210.08 1452.83 1230.7 1452.27 1232.3 C 1449.51 1223.44 1445.27 1200.55 1443.08 1190.54 C 1441.56 1184.36 1437.55 1170.85 1438.59 1164.86 C 1438.83 1163.5 1440.1 1163.51 1441.9 1162.81 z" />
<path transform="translate(0,0)" fill="rgb(139,107,53)" d="M 1441.9 1162.81 C 1443.9 1160.99 1443.56 1161.48 1446.24 1160.36 C 1447.29 1162.46 1446.57 1161.52 1448.45 1163.14 C 1450.25 1168.37 1452.07 1174.67 1452.19 1180.22 C 1449.94 1176.61 1451.28 1177.14 1448.48 1176.41 L 1448.7 1177.19 C 1438.71 1172.33 1446.67 1170.26 1441.9 1162.81 z" />
<path transform="translate(0,0)" fill="rgb(178,145,67)" d="M 1472.84 1271.72 C 1480.76 1267.48 1491.39 1270.46 1501.67 1261.85 C 1502.03 1266.18 1502.73 1265.7 1500.79 1268.33 C 1490.69 1271.49 1487.73 1269.46 1476.47 1273.75 L 1471.68 1272.77 L 1472.84 1271.72 z" />
<path transform="translate(0,0)" fill="rgb(222,191,113)" d="M 1477.95 1219.16 C 1475.67 1210.05 1463.8 1172.79 1470.59 1166.58 C 1474.24 1166.8 1474 1166.69 1477.17 1168.48 C 1480.48 1174.02 1480.67 1181.26 1481.14 1187.61 C 1482.86 1197.27 1495.45 1253.79 1494.11 1257.08 C 1490.72 1258.69 1492.53 1258.27 1488.4 1257.84 C 1484.77 1254.49 1478.6 1224.64 1477.95 1219.16 z" />
<path transform="translate(0,0)" fill="rgb(176,141,67)" d="M 1506.16 1619.69 C 1543.15 1624.22 1578.06 1610.86 1610.1 1594.59 C 1614.5 1597.93 1615.95 1610.5 1617.02 1616.07 C 1612.93 1619.88 1612.19 1620.56 1607.24 1623.08 L 1602.5 1625.48 C 1585.92 1633.83 1565.44 1639.47 1547.04 1641.93 C 1535.91 1644.41 1523.16 1644.8 1511.82 1643.63 C 1508.81 1635.94 1507.43 1627.8 1506.16 1619.69 z" />
<path transform="translate(0,0)" fill="rgb(154,121,72)" d="M 1506.16 1619.69 C 1543.15 1624.22 1578.06 1610.86 1610.1 1594.59 C 1614.5 1597.93 1615.95 1610.5 1617.02 1616.07 C 1612.93 1619.88 1612.19 1620.56 1607.24 1623.08 L 1606.08 1620.61 C 1604.06 1614.27 1603.42 1609.59 1598.01 1605.7 L 1596.43 1606.07 C 1592.34 1606.18 1594.72 1605.91 1592.23 1607.01 C 1582.68 1611.23 1542.05 1625.16 1534.47 1622.48 C 1535.18 1629.67 1536.01 1632.7 1537.88 1639.72 C 1540.89 1642.46 1541.91 1641.44 1547.04 1641.93 C 1535.91 1644.41 1523.16 1644.8 1511.82 1643.63 C 1508.81 1635.94 1507.43 1627.8 1506.16 1619.69 z" />
<path transform="translate(0,0)" fill="rgb(139,107,53)" d="M 1537.88 1639.72 C 1533.35 1643.36 1518.29 1643 1514.12 1638.6 C 1495.05 1618.48 1525.95 1622.81 1534.47 1622.48 C 1535.18 1629.67 1536.01 1632.7 1537.88 1639.72 z" />
<path transform="translate(0,0)" fill="rgb(176,141,67)" d="M 1598.01 1605.7 C 1599.24 1598.79 1609.46 1595.81 1613.35 1604.8 C 1614.81 1608.1 1614.82 1611.86 1613.38 1615.17 C 1612.06 1618.25 1609.14 1619.16 1606.08 1620.61 C 1604.06 1614.27 1603.42 1609.59 1598.01 1605.7 z" />
<path transform="translate(0,0)" fill="rgb(241,212,143)" d="M 1598.01 1605.7 C 1603.42 1609.59 1604.06 1614.27 1606.08 1620.61 L 1607.24 1623.08 L 1602.5 1625.48 C 1593.4 1621.18 1589.75 1615.38 1596.43 1606.07 L 1598.01 1605.7 z" />
<path transform="translate(0,0)" fill="rgb(156,38,36)" d="M 600.659 1203.13 C 605.178 1197.87 624.903 1181.67 631.619 1187.3 L 631.119 1190.65 C 630.785 1194.87 630.512 1200.46 629.883 1204.53 C 629.066 1216.64 628.599 1227.51 629.414 1239.69 C 629.942 1247.59 636.249 1261.2 634.103 1267.71 C 619.237 1283.58 571.893 1240.05 600.659 1203.13 z" />
<path transform="translate(0,0)" fill="rgb(193,55,51)" d="M 600.659 1203.13 C 605.178 1197.87 624.903 1181.67 631.619 1187.3 L 631.119 1190.65 C 629.06 1196.28 628.835 1200.57 627.248 1204.98 C 622.433 1218.39 617.689 1228.96 614.387 1242.95 C 603.197 1234.03 596.958 1229.65 596.712 1214.2 C 599.402 1210.95 599.708 1207.36 600.659 1203.13 z" />
<path transform="translate(0,0)" fill="rgb(138,43,43)" d="M 600.659 1203.13 C 599.708 1207.36 599.402 1210.95 596.712 1214.2 C 594.564 1221.97 597.698 1232.04 599.393 1239.84 C 600.085 1243.02 600.845 1242.6 603.791 1244.19 C 604.427 1246.5 604.019 1247.62 603.526 1249.94 C 607.171 1254.76 606.614 1249.62 610.897 1253.93 L 609.434 1256.97 C 614.017 1263.21 620.791 1264.41 627.918 1265.34 C 628.727 1264.97 629.536 1264.6 630.345 1264.23 C 627.754 1250.63 621.927 1214.87 629.883 1204.53 C 629.066 1216.64 628.599 1227.51 629.414 1239.69 C 629.942 1247.59 636.249 1261.2 634.103 1267.71 C 619.237 1283.58 571.893 1240.05 600.659 1203.13 z" />
<path transform="translate(0,0)" fill="rgb(178,145,67)" d="M 1457.97 1125.45 C 1464.98 1123.87 1473.85 1121.01 1480.2 1125.36 C 1488.5 1131.05 1484.63 1139.53 1479.04 1144.88 C 1475.69 1146.04 1474.42 1145.61 1470.93 1145.19 C 1459.79 1145.88 1451.48 1147.18 1441.04 1151.59 C 1440.37 1152.05 1439.7 1152.5 1439.02 1152.94 C 1425.95 1161.45 1416.41 1146.79 1420 1138.59 C 1423.93 1135.07 1428.95 1133.68 1433.98 1131.75 C 1439.45 1129.83 1452.65 1126.44 1457.97 1125.45 z" />
<path transform="translate(0,0)" fill="rgb(176,141,67)" d="M 1457.97 1125.45 C 1464.98 1123.87 1473.85 1121.01 1480.2 1125.36 C 1488.5 1131.05 1484.63 1139.53 1479.04 1144.88 C 1475.69 1146.04 1474.42 1145.61 1470.93 1145.19 C 1469.5 1144.6 1470.18 1144.93 1468.53 1144.01 L 1467.23 1143.28 L 1468.01 1144.2 L 1466.79 1143.47 C 1467.46 1142.78 1468.12 1142.09 1468.79 1141.4 L 1467.79 1139.68 L 1465.55 1135.19 C 1459.09 1133.4 1463.12 1131.6 1457.97 1125.45 z" />
<path transform="translate(0,0)" fill="rgb(241,212,143)" d="M 1465.55 1135.19 C 1466.21 1130.12 1465.34 1131.09 1468.13 1127.68 C 1471.39 1126.46 1469.76 1126.56 1473.18 1127.4 C 1475.75 1129.8 1475.82 1129.54 1476.53 1132.92 C 1475.39 1137.22 1476.44 1135.44 1473.38 1138.53 C 1471.48 1138.94 1469.7 1139.33 1467.79 1139.68 L 1465.55 1135.19 z" />
<path transform="translate(0,0)" fill="rgb(139,107,53)" d="M 1433.98 1131.75 L 1433.42 1134.92 C 1434.9 1138.09 1437.92 1145.08 1439.88 1147.7 C 1440.55 1149.52 1440.57 1149.6 1441.04 1151.59 C 1440.37 1152.05 1439.7 1152.5 1439.02 1152.94 C 1425.95 1161.45 1416.41 1146.79 1420 1138.59 C 1423.93 1135.07 1428.95 1133.68 1433.98 1131.75 z" />
<path transform="translate(0,0)" fill="rgb(154,121,72)" d="M 1433.98 1131.75 L 1433.42 1134.92 C 1430.67 1136.19 1425.37 1138.13 1424.31 1140.94 C 1420.33 1151.46 1434.43 1156.74 1439.88 1147.7 C 1440.55 1149.52 1440.57 1149.6 1441.04 1151.59 C 1440.37 1152.05 1439.7 1152.5 1439.02 1152.94 C 1425.95 1161.45 1416.41 1146.79 1420 1138.59 C 1423.93 1135.07 1428.95 1133.68 1433.98 1131.75 z" />
<path transform="translate(0,0)" fill="rgb(176,141,67)" d="M 1541.41 1416.3 C 1547.77 1415.18 1561.07 1415.62 1563.56 1422.86 C 1561.64 1425.6 1554.35 1425.46 1550.89 1425.49 C 1528.86 1425.66 1513.36 1431.32 1492.68 1438.2 C 1487.9 1440.02 1481.3 1444.15 1477.5 1444.64 L 1475.92 1443.34 C 1475.88 1441.11 1475.49 1439.06 1477.44 1437.44 C 1492.76 1424.72 1523.62 1419.11 1541.41 1416.3 z" />
<path transform="translate(0,0)" fill="rgb(6,6,5)" d="M 672.875 494.207 C 664.615 486.489 662.569 478.01 662.237 466.991 C 661.825 453.342 662.81 439.53 663.078 425.87 C 663.233 418.017 662.341 409.88 663.439 402.105 C 664.045 397.806 665.238 392.923 668.479 389.806 C 671.98 386.44 678.189 385.993 682.798 386.436 C 686.315 386.775 689.725 388.435 691.766 391.397 C 698.577 401.282 696.664 467.57 693.652 481.903 C 692.446 487.643 689.736 490.687 684.814 493.668 C 684.203 494.035 683.586 494.393 682.964 494.741 C 681.453 520.133 681.02 546.93 680.638 572.454 C 678.78 696.529 670.895 821.327 669.855 945.314 C 680.089 953.153 698.409 962.722 693.244 976.887 C 688.651 978.406 682.185 979.25 677.431 978.74 C 668.891 977.825 646.36 980.584 640.1 976.009 C 640.801 967.956 647.355 967.737 654.375 967.562 C 663.663 967.33 673.167 967.981 682.476 968.129 C 674.521 962.353 664.92 955.914 658.958 948.239 C 660.495 838.706 666.832 727.589 669.164 617.931 C 670.014 577.953 673.109 533.72 672.875 494.207 z" />
<path transform="translate(0,0)" fill="rgb(57,57,57)" d="M 677.924 395.463 C 682.079 396.28 685.461 397.386 685.34 402.525 C 684.927 420.049 690.087 471.616 680.57 484.096 L 677.237 483.339 C 669.213 475.004 673.93 422.253 673.16 408.112 C 672.868 402.768 674.139 399.198 677.924 395.463 z" />
<path transform="translate(0,0)" fill="rgb(6,6,5)" d="M 640.638 983.3 C 651.856 981.606 690.949 979.559 696.91 990.734 C 696.905 992.739 695.89 1010.89 695.341 1011.13 C 685.191 1015.52 650.926 1013.37 641.836 1008.92 C 640.292 1006.37 640.675 1007.79 641.21 1004.41 C 648.548 995.29 679.826 1003.96 686.946 998.955 C 684.723 988.9 651.085 998.863 640.965 989.912 C 639.458 985.826 639.724 987.939 640.638 983.3 z" />
<path transform="translate(0,0)" fill="rgb(6,6,5)" d="M 642.849 1017.12 C 656.309 1017.05 669.866 1016.91 683.33 1016.95 C 688.345 1016.96 693.003 1017.58 695.964 1021.8 C 696.221 1025.34 695.825 1025.48 694.213 1028.59 C 683.496 1029.59 671.326 1028.82 660.436 1029.21 C 653.552 1029.46 644.13 1029.9 640.178 1023.65 C 640.158 1020.21 640.814 1019.94 642.849 1017.12 z" />
<path transform="translate(0,0)" fill="rgb(253,254,253)" d="M 1385.03 682.38 C 1389.08 682.948 1389.55 683.687 1391.55 686.861 C 1392.6 695.281 1383.97 700.85 1376.87 702.843 L 1373.37 703.305 C 1372.97 697.846 1381.01 686.034 1385.03 682.38 z" />
</svg>