<svg version="1.1" xmlns="http://www.w3.org/2000/svg" style="display: block;" viewBox="0 0 2048 2048" width="1024" height="1024" preserveAspectRatio="none">
<defs>
	<linearGradient id="Gradient1" gradientUnits="userSpaceOnUse" x1="897.419" y1="1250.69" x2="1012.9" y2="954.926">
		<stop class="stop0" offset="0" stop-opacity="1" stop-color="rgb(215,230,239)"/>
		<stop class="stop1" offset="1" stop-opacity="1" stop-color="rgb(255,255,255)"/>
	</linearGradient>
</defs>
<path transform="translate(0,0)" fill="rgb(245,247,247)" d="M 1235.4 276.415 C 1236.53 276.296 1238.37 276.319 1239.47 276.385 C 1281.52 278.903 1316.13 313.343 1313.97 356.552 C 1312.04 394.938 1283.29 424.499 1258.16 450.928 C 1247.63 462.003 1237.36 473.13 1226.05 483.387 C 1233.49 488.033 1246.13 492.895 1254.45 497.318 C 1276.89 509.243 1303.86 525.363 1318.35 546.675 C 1324.19 532.742 1332.86 499.605 1335.94 484.084 C 1336.6 480.781 1334.24 464.74 1334.84 461.088 C 1338.66 437.84 1350.3 384.956 1360.04 366.096 C 1363.79 358.794 1369.03 352.364 1375.44 347.228 C 1387.51 337.444 1402.99 332.879 1418.44 334.545 C 1453.91 338.611 1479.91 369.381 1474.29 404.6 C 1469.96 431.726 1459.32 467.413 1449.62 493.413 C 1446.54 501.691 1435.99 510.614 1432.86 520.976 C 1425.1 546.732 1418.83 572.678 1411.8 598.565 L 1368.55 759.378 L 1344.67 847.466 C 1342.67 854.995 1334.83 883.04 1333.84 889.806 C 1331.8 903.761 1351.11 918.301 1346.76 941.391 C 1343.23 960.137 1337.21 976.937 1332.24 995.318 C 1327.68 1012.15 1324.32 1031.05 1319.44 1046.87 C 1318.11 1051.29 1316.16 1055.49 1313.65 1059.36 C 1306.03 1071.03 1278.15 1086.86 1277.55 1093.65 C 1279.18 1095.27 1281.69 1096.52 1283.95 1096.74 C 1304.75 1098.85 1322.5 1103.24 1342.5 1109.09 C 1368.82 1116.79 1390.1 1127.55 1413.67 1140.99 C 1417.56 1087.47 1426.07 1032.83 1464.93 992.618 C 1553.6 900.87 1705.24 964.055 1703.03 1091.04 C 1701.44 1182.45 1623.32 1298.65 1561.11 1363.38 C 1560.75 1368.75 1560.37 1372.58 1560.87 1378.08 C 1565.3 1426.88 1559.54 1477.98 1548.87 1525.53 C 1562.69 1556.99 1569.63 1582.99 1570.21 1617.92 C 1570.65 1644.7 1564.67 1687.62 1544.75 1707.34 C 1533.7 1718.04 1516.59 1725.83 1501.08 1723.72 C 1492.56 1722.56 1486.11 1720.72 1477.48 1720.73 C 1470.94 1735.74 1461.51 1749.33 1449.72 1760.7 C 1431.07 1778.61 1412.01 1791.32 1385.78 1790.94 C 1340.04 1785 1331.52 1743.53 1322.48 1706.71 C 1322.16 1705.37 1318.9 1706.27 1317.79 1706.53 C 1246.22 1723.51 1173.43 1733.14 1100.29 1740.27 C 998.907 1749.61 895.485 1760.93 794.086 1746.36 C 751.978 1740.3 709.992 1726.59 674.682 1701.58 C 565.293 1624.1 564.717 1472.75 570.005 1352.41 C 570.246 1346.94 564.346 1335.56 561.665 1330.53 C 546.696 1304.84 548.312 1257.41 563.459 1232.08 C 578.908 1206.25 586.284 1203.73 595.02 1172.7 C 602.449 1146.3 604.053 1131.72 608.112 1104.66 C 593.151 1078.08 590.888 1079.9 592.523 1046.52 C 593.406 1028.49 593.871 1005.49 593.701 987.311 C 576.358 980.957 563.736 977.379 546.333 968.846 C 492.472 942.438 448.709 893.851 429.647 836.787 C 410.933 779.341 415.61 716.835 442.666 662.815 C 479.551 590.403 546.877 549.843 622.519 538.178 C 626.998 537.488 625.721 521.736 625.284 517.81 C 623.179 498.926 615.244 481.159 616.127 461.722 C 617.067 433.548 612.481 397.95 625.244 371.939 C 639.625 342.628 681.139 332.516 708.897 348.541 C 727.455 359.254 734.031 372.765 739.707 392.328 C 746.158 391.743 777.013 369.171 787.54 364.385 C 883.231 320.882 1005.23 330.392 1085.39 402.484 C 1092.37 396.003 1108.27 374.686 1115.75 365.777 C 1127.18 352.34 1139.06 339.293 1151.37 326.66 C 1176.61 300.722 1197.59 279.66 1235.4 276.415 z"/>
<path transform="translate(0,0)" fill="rgb(0,0,0)" d="M 1127.71 445.812 C 1125.7 437.738 1124.38 433.811 1128.91 426.351 C 1141.03 406.392 1193.19 349.671 1211.76 335.273 C 1217.75 330.626 1224.49 326.664 1231.95 324.993 C 1240.6 323.056 1248.5 325.266 1255.68 330.274 C 1261.98 334.663 1266.25 340.884 1267.26 348.57 C 1269.42 364.951 1258.96 380.407 1249.17 392.537 C 1237.38 407.15 1179.15 470.525 1166 471.836 C 1162.29 472.205 1158.39 471.129 1154.81 470.321 C 1142.82 483.978 1123.69 503.587 1113.63 517.182 C 1114.82 520.917 1116.29 524.809 1116.65 528.677 C 1135.07 524.82 1149.37 522.157 1168.32 522.96 C 1257.81 526.757 1325.59 598.164 1329.66 687.27 C 1332.53 674.51 1336.24 662.339 1339.48 649.723 C 1354.01 593.219 1371.55 536.301 1384.93 479.601 C 1379.47 469.434 1380.35 462.982 1382.56 452.005 C 1386.31 433.406 1392.56 415.331 1397.47 397.023 C 1398.95 391.659 1402.09 384.256 1407.4 381.754 C 1418.9 376.329 1430.94 387.024 1429.21 399.115 C 1426.82 415.784 1420.42 432.717 1416.65 449.188 C 1414.73 457.601 1412.2 466.306 1409.01 474.295 C 1406.18 480.973 1401.66 482.326 1395.16 483.454 L 1282.11 906.671 C 1288.92 914.842 1305.71 930.366 1299.68 941.025 C 1294.54 942.874 1256.39 931.071 1248.93 928.693 C 1247.62 928.276 1246.57 926.68 1245.85 925.55 L 1245.56 923.499 C 1253.24 914.984 1276.25 924.942 1286.86 927.599 C 1282.09 922.268 1274.22 914.027 1270.6 908.246 C 1278.56 874.849 1288.88 841.818 1296.97 808.426 C 1298.47 802.261 1300.08 795.726 1301.87 789.667 C 1273.8 829.687 1247.59 849.879 1199.86 863.279 C 1183.77 902.593 1176.78 957.674 1180.79 1000.05 C 1181.76 1010.33 1192.56 1015.28 1194.74 1024.88 C 1202.6 1059.57 1206.04 1105.49 1202.86 1140.32 L 1203.53 1138.98 C 1208.93 1128.14 1213.58 1113.74 1217.61 1101.69 C 1223.53 1083.99 1226.93 1058.22 1240.28 1044.04 C 1244.57 1039.48 1255.79 1035.31 1261.83 1033 C 1253.24 1030.52 1223.13 1022.77 1223.54 1012 C 1224.41 1011.19 1225.15 1009.93 1226.28 1010.31 C 1237.42 1014 1274.98 1018.84 1276.18 1032.46 C 1273.05 1043.53 1258.17 1046.46 1249 1050.78 C 1230.02 1077.27 1226.21 1107.52 1234.79 1138.27 C 1291.05 1141.77 1370.73 1155.7 1409.21 1199.69 C 1450.92 1247.37 1455.75 1311.26 1455.18 1371.3 C 1462.61 1361.45 1468.93 1352.75 1480.38 1347.27 C 1489.33 1344.62 1490.29 1344.89 1499.24 1347.78 C 1501.77 1350.41 1504.24 1352.88 1506.5 1355.76 C 1525.79 1396.64 1509.74 1487 1500.38 1530.71 C 1523.08 1574.78 1529.95 1615.91 1516.28 1664.5 C 1509.61 1688.23 1495.56 1676.04 1484.07 1664.92 C 1477.83 1658.89 1470.66 1652.83 1463.6 1647.8 C 1459.62 1656.6 1455.02 1661.49 1451.09 1668.6 C 1446.36 1677.16 1453.89 1683.94 1437.26 1687.51 C 1435.04 1712.09 1420.35 1730.72 1398.65 1742.21 C 1390.18 1746.7 1383.16 1742.84 1380.48 1733.79 C 1373.63 1710.65 1362.58 1693.87 1374.23 1669.86 C 1359.38 1653.03 1378.43 1654.3 1367.58 1634.47 C 1307.87 1672.3 1200.14 1681.37 1130.6 1689.69 C 1049.96 1699.35 964.662 1707.39 883.499 1705.95 C 813.192 1704.69 731.004 1697.8 679.448 1644.13 C 660.829 1624.36 646.357 1601.06 636.883 1575.6 C 617.532 1523.21 615.919 1446.88 616.32 1391.63 C 616.451 1373.59 618.564 1352.53 618.909 1333.77 C 601.294 1315.13 594.372 1294.57 599.424 1269.31 C 602.198 1255.44 611.656 1242.88 619.975 1231.85 C 633.119 1214.44 637.439 1196.05 643.087 1175.52 C 644.782 1169.57 649.193 1159.54 649.716 1153.85 C 651.264 1136.99 651.285 1120.64 655.733 1104.07 C 659.469 1090.16 668.842 1086.09 680.854 1079.49 C 669.135 1076.78 656.857 1076.92 645.211 1074.09 C 641.472 1073.18 639.662 1070.12 640.786 1066.5 C 641.966 1065.76 642.027 1065.64 643.576 1065.15 C 651.27 1062.72 686.203 1065.62 692.571 1070.35 C 694.493 1071.78 695.876 1073.67 695.962 1076.15 C 696.381 1088.29 675.44 1093.29 669.35 1101.68 C 663.117 1110.27 660.284 1146.93 662.171 1157.54 C 662.861 1161.43 666.351 1161.35 668.817 1163.74 C 672.766 1167.56 669.963 1204.28 670.311 1212.55 C 689.413 1196.91 696.767 1191.36 718.175 1180.17 C 712.56 1159.91 709.21 1137.63 707.082 1116.69 C 705.334 1099.49 701.784 1069.4 717.541 1057.85 C 716.132 1021.58 703.162 976.674 687.061 944.234 C 681.515 944.765 675.461 945.638 669.888 946.338 C 672.646 948.1 675.355 949.938 678.012 951.85 C 684.313 956.463 693.229 963.089 694.413 971.015 C 690.531 982.741 672.261 978.86 662.285 979.219 C 656.75 979.418 643.693 979.931 640.347 976.277 C 640.421 972.219 639.97 974.173 642.284 970.354 C 648.517 966.216 673.161 968.443 682.185 968.957 C 673.719 961.664 663.428 956.512 657.864 947.058 C 653.739 947.105 649.613 947.1 645.487 947.043 C 595.684 945.839 548.409 924.857 514.105 888.732 C 481.635 854.555 464.114 808.854 465.415 761.73 C 466.715 712.926 487.76 666.739 523.735 633.734 C 567.287 593.013 612.981 583.403 670.127 585.278 C 670.638 554.911 672.398 524.646 672.969 494.369 C 671.173 492.491 669.299 490.63 667.709 488.57 C 664.72 484.695 663.519 478.855 663.029 474.096 C 662.194 465.998 663.095 457.516 663.063 449.365 C 663.008 434.942 661.65 419.508 663.416 405.224 C 664.128 399.474 665.607 392.63 670.559 388.956 C 674.054 386.362 678.414 386.042 682.582 386.808 C 686.822 387.588 690.978 389.915 693.279 393.656 C 698.674 402.429 695.576 475.065 692.588 486.901 C 689.031 490.798 687.665 491.519 683.197 494.548 C 683.163 507.035 678.518 581.633 683.475 587.874 L 687.435 588.217 C 691.199 584.993 690.669 571.981 691.727 566.277 C 703.882 500.736 738.317 445.93 797.49 413.218 C 851.113 384.204 913.945 377.273 972.603 393.902 C 1010.24 404.799 1045.35 424.651 1072.33 453.218 C 1077.53 458.72 1085.83 468.238 1089.48 474.858 L 1094.33 480.972 C 1098.39 478.801 1122.71 451.14 1127.71 445.812 z"/>
<path transform="translate(0,0)" fill="rgb(245,247,247)" d="M 1127.71 445.812 C 1125.7 437.738 1124.38 433.811 1128.91 426.351 C 1141.03 406.392 1193.19 349.671 1211.76 335.273 C 1217.75 330.626 1224.49 326.664 1231.95 324.993 C 1240.6 323.056 1248.5 325.266 1255.68 330.274 C 1261.98 334.663 1266.25 340.884 1267.26 348.57 C 1269.42 364.951 1258.96 380.407 1249.17 392.537 C 1237.38 407.15 1179.15 470.525 1166 471.836 C 1162.29 472.205 1158.39 471.129 1154.81 470.321 C 1142.82 483.978 1123.69 503.587 1113.63 517.182 C 1114.82 520.917 1116.29 524.809 1116.65 528.677 L 1115.66 527.359 C 1114.55 525.835 1114.03 525.042 1113.08 523.456 L 1110.39 522.64 C 1106.43 526.723 1109.13 530.345 1109.5 535.18 C 1111.15 538.839 1109.89 537.593 1113.03 539.4 C 1116.89 539.717 1142.7 534.398 1151.77 533.803 C 1200.35 530.527 1247.63 550.269 1279.45 587.109 C 1310.04 622.854 1322.45 665.63 1318.71 712.192 C 1317.49 728.291 1313.37 744.036 1306.54 758.664 C 1300.47 761.393 1276.77 786.67 1268.36 793.411 C 1230.24 823.983 1173.1 837.774 1126.15 822.126 C 1111.36 817.196 1095.39 803.958 1080.86 802.747 C 1065.91 801.501 1051.12 817.843 1040.5 827.04 C 1028.15 837.741 1017.4 842.973 1003.74 850.695 C 953.779 878.941 898.284 877.078 847.811 850.998 C 836.218 845.008 812.237 828.621 800.271 827.705 C 783.93 828.331 771.952 848.409 761.437 857.887 C 701.939 911.513 604.874 907.559 551.236 847.778 C 513.78 804.849 497.277 738.689 513.825 683.682 C 517.294 672.15 529.563 650.832 529.688 643.157 C 565.364 610.224 606.764 593.853 655.818 595.149 C 669.572 595.513 684.023 599.172 697.204 599.33 C 701.349 595.155 701.803 571.791 703.216 564.872 C 713.772 513.192 736.538 469.276 779.445 437.45 C 826.543 403.234 885.273 389.057 942.794 398.017 C 1000.81 406.91 1047.91 435.599 1082.5 482.74 C 1086.55 485.843 1086.54 487.104 1090.45 486.879 C 1092.18 483.35 1090.45 478.712 1089.48 474.858 L 1094.33 480.972 C 1098.39 478.801 1122.71 451.14 1127.71 445.812 z"/>
<path transform="translate(0,0)" fill="rgb(49,48,47)" d="M 1127.71 445.812 C 1125.7 437.738 1124.38 433.811 1128.91 426.351 C 1141.03 406.392 1193.19 349.671 1211.76 335.273 C 1217.75 330.626 1224.49 326.664 1231.95 324.993 C 1240.6 323.056 1248.5 325.266 1255.68 330.274 C 1261.98 334.663 1266.25 340.884 1267.26 348.57 C 1269.42 364.951 1258.96 380.407 1249.17 392.537 C 1237.38 407.15 1179.15 470.525 1166 471.836 C 1162.29 472.205 1158.39 471.129 1154.81 470.321 C 1142.82 483.978 1123.69 503.587 1113.63 517.182 C 1114.82 520.917 1116.29 524.809 1116.65 528.677 L 1115.66 527.359 C 1114.55 525.835 1114.03 525.042 1113.08 523.456 L 1110.39 522.64 C 1106.43 526.723 1109.13 530.345 1109.5 535.18 C 1107.71 532.052 1106.34 529.589 1104.78 526.344 C 1097.68 534.547 1087.89 545.221 1081.36 553.556 C 1091.36 565.791 1100.76 573.981 1100.34 590.599 C 1099.88 608.794 1054.44 651.854 1054.22 662.316 L 1056.63 664.257 C 1052.61 667.512 1052.81 667.776 1050.87 672.604 C 1021.77 660.538 1016.67 660.389 985.016 663.329 C 966.08 643.57 954.347 629.007 925.492 623.892 C 917.217 622.424 906.005 624.504 901.047 617.412 L 901.766 615.613 C 910.077 611.188 923.544 614.221 932.519 615.673 C 922.784 592.094 931.644 584.019 948.321 568.1 C 966.087 551.142 983.342 534.144 1002.14 518.322 C 1024.18 499.762 1037.22 523.662 1053.26 526.192 C 1061.43 521.517 1079.92 498.537 1087.14 490.144 L 1082.5 482.74 C 1086.55 485.843 1086.54 487.104 1090.45 486.879 C 1092.18 483.35 1090.45 478.712 1089.48 474.858 L 1094.33 480.972 C 1098.39 478.801 1122.71 451.14 1127.71 445.812 z"/>
<path transform="translate(0,0)" fill="rgb(116,163,212)" d="M 965.735 564.11 C 975.993 554.218 1009.98 517.985 1020.11 520.848 C 1055.61 530.885 1042.97 553.394 1078.29 513.62 L 1112.57 475.005 C 1119.13 467.619 1126.74 458.331 1133.98 451.886 L 1148.29 464.849 C 1137.98 475.924 1073.46 543.425 1072.84 553.814 C 1072.04 567.286 1099.14 575.567 1090.13 595.106 C 1082.26 612.159 1066.6 627.881 1055.44 643.054 C 1051.89 648.284 1047.82 653.019 1043.8 657.896 C 1020.73 650.776 1011.84 651.529 988.322 653.055 C 981.615 644.029 970.968 633.931 961.268 628.317 C 919.477 604.131 939.145 588.343 965.735 564.11 z"/>
<path transform="translate(0,0)" fill="rgb(118,195,215)" d="M 965.735 564.11 C 969.797 567.114 973.094 570.004 976.885 573.298 C 972.253 578.309 960.653 589.463 962.082 595.206 C 968.834 622.333 993.452 588.304 997.659 584.025 C 1001.37 586.828 1002.4 587.834 1005.53 591.291 C 1001.26 596.025 970.04 625.186 998.56 627.194 C 1003.98 627.576 1018.02 610.323 1022.18 605.55 C 1025.91 609.605 1026.07 610.976 1027.7 616.261 C 1021.24 623.169 1005.82 638.432 1014.49 648.727 C 1027.27 654.193 1039.37 637.538 1046.41 629.143 C 1049.85 634.029 1052.33 638.523 1055.44 643.054 C 1051.89 648.284 1047.82 653.019 1043.8 657.896 C 1020.73 650.776 1011.84 651.529 988.322 653.055 C 981.615 644.029 970.968 633.931 961.268 628.317 C 919.477 604.131 939.145 588.343 965.735 564.11 z"/>
<path transform="translate(0,0)" fill="rgb(49,48,47)" d="M 976.885 573.298 C 981.879 567.862 1005.49 540.02 1012.25 541.196 C 1038.45 545.748 1004.31 576.256 997.659 584.025 C 993.452 588.304 968.834 622.333 962.082 595.206 C 960.653 589.463 972.253 578.309 976.885 573.298 z"/>
<path transform="translate(0,0)" fill="rgb(249,172,99)" d="M 1005.18 553.261 C 1007.72 550.879 1008.99 549.131 1012.38 548.499 L 1014.26 549.492 C 1015.32 555.301 1012.33 558.017 1008.29 561.69 C 1003.52 567.482 998.23 572.974 993.094 578.455 L 984.466 575.463 L 1005.18 553.261 z"/>
<path transform="translate(0,0)" fill="rgb(249,172,99)" d="M 1005.18 553.261 C 1007.72 550.879 1008.99 549.131 1012.38 548.499 L 1014.26 549.492 C 1015.32 555.301 1012.33 558.017 1008.29 561.69 C 1006.87 556.508 1008.02 558.182 1005.18 553.261 z"/>
<path transform="translate(0,0)" fill="rgb(250,216,98)" d="M 984.466 575.463 L 993.094 578.455 C 988.227 583.996 977.832 597.311 970.512 597.585 L 969.626 596.061 C 971.798 587.512 978.392 581.859 984.466 575.463 z"/>
<path transform="translate(0,0)" fill="rgb(49,48,47)" d="M 1005.53 591.291 C 1012.82 583.342 1033.99 553.803 1045.02 566.527 C 1053.51 576.316 1028.78 598.517 1022.18 605.55 C 1018.02 610.323 1003.98 627.576 998.56 627.194 C 970.04 625.186 1001.26 596.025 1005.53 591.291 z"/>
<path transform="translate(0,0)" fill="rgb(249,172,99)" d="M 1036.51 569.472 C 1039.74 571.637 1038.94 570.229 1039.63 573.432 C 1037.59 580.629 1004.03 616.087 997.732 621.541 C 996.952 621.321 995.564 620.595 994.77 620.22 L 994.19 617.616 C 997.037 608.772 1028.26 576.761 1036.51 569.472 z"/>
<path transform="translate(0,0)" fill="rgb(49,48,47)" d="M 1027.7 616.261 C 1031.03 612.538 1066.5 566.267 1069.93 595.974 C 1070.77 603.238 1052.46 621.43 1046.41 629.143 C 1039.37 637.538 1027.27 654.193 1014.49 648.727 C 1005.82 638.432 1021.24 623.169 1027.7 616.261 z"/>
<path transform="translate(0,0)" fill="rgb(249,172,99)" d="M 1033.66 620.17 C 1040.46 612.555 1050.98 599.283 1059.61 595.017 L 1061.43 595.326 C 1061.84 601.259 1055.81 607.878 1051.95 612.307 C 1048.33 616.45 1044.68 620.568 1041 624.661 L 1033.66 620.17 z"/>
<path transform="translate(0,0)" fill="rgb(250,216,98)" d="M 1033.66 620.17 L 1041 624.661 C 1036.19 630.405 1028.31 641.783 1020.29 641.917 L 1019.71 640.098 C 1022.12 631.362 1027.48 626.909 1033.66 620.17 z"/>
<path transform="translate(0,0)" fill="rgb(118,195,215)" d="M 1048.3 550.019 C 1062.93 549.42 1061.17 552.171 1063.15 565.73 C 1066.68 568.298 1069.42 569.52 1069.68 573.968 C 1064.57 574.077 1058.99 573.939 1053.84 573.904 C 1051.03 563.81 1046.1 559.162 1048.3 550.019 z"/>
<path transform="translate(0,0)" fill="rgb(118,195,215)" d="M 1025.78 544.153 C 1030.08 543.859 1034.44 543.119 1037.61 546.326 L 1036.75 548.135 C 1033.48 549.381 1032.37 550.156 1028.93 549.469 C 1025.98 546.721 1027.13 548.341 1025.78 544.153 z"/>
<path transform="translate(0,0)" fill="rgb(249,172,99)" d="M 1238.7 333.346 C 1307.31 341.918 1181.31 450.271 1165.41 462.823 C 1163.81 464.091 1159.68 462.122 1158.19 461.426 C 1149.4 454.202 1139.81 445.807 1133.53 436.3 C 1148.61 410.039 1180.7 379.91 1201.34 356.793 C 1210.86 346.126 1224.14 335.34 1238.7 333.346 z"/>
<path transform="translate(0,0)" fill="rgb(49,48,47)" d="M 1229.88 346.011 C 1251.23 346.712 1250.92 367.139 1232.85 375.024 C 1212.52 373.613 1212.25 355.3 1229.88 346.011 z"/>
<path transform="translate(0,0)" fill="rgb(245,247,247)" d="M 1232.22 353.517 C 1235.86 353.777 1238.7 356.758 1238.79 360.402 C 1238.87 364.046 1236.17 367.157 1232.55 367.588 C 1229.89 367.905 1227.27 366.683 1225.8 364.434 C 1224.33 362.185 1224.26 359.298 1225.63 356.983 C 1226.99 354.668 1229.55 353.325 1232.22 353.517 z"/>
<path transform="translate(0,0)" fill="rgb(0,0,0)" d="M 1056.63 664.257 C 1062.52 668.463 1080.49 678.96 1075.76 687.196 C 1069.19 689.378 1058.53 677.095 1050.87 672.604 C 1052.81 667.776 1052.61 667.512 1056.63 664.257 z"/>
<path transform="translate(0,0)" fill="rgb(0,0,0)" d="M 805.422 698.403 C 817.945 699.11 822.874 700.964 833.076 707.731 C 840.677 705.181 868.465 694.804 868.611 711.891 C 868.688 720.934 855.782 731.606 849.381 737.483 C 850.087 765.113 835.68 784.6 807.211 787.169 C 793.777 786.998 788.953 784.413 777.901 777.857 C 771.968 779.777 759.354 784.363 753.513 783.647 C 724.441 780.08 754.682 754.789 762.217 748.675 L 762.078 747.127 C 759.619 718.69 777.967 700.776 805.422 698.403 z"/>
<path transform="translate(0,0)" fill="rgb(103,116,208)" d="M 799.786 705.242 C 821.969 703.642 834.225 714.031 842.221 733.752 C 828.033 745.458 816.769 751.758 800.867 760.095 C 794.405 763.595 786.556 766.954 779.773 770.044 C 775.222 764.863 772.092 760.732 769.952 754.035 C 766.67 744.082 767.747 733.205 772.916 724.089 C 779.155 713.206 788.209 708.291 799.786 705.242 z"/>
<path transform="translate(0,0)" fill="rgb(70,77,175)" d="M 792.633 716.8 C 794.375 717.056 795.286 717.444 796.971 717.975 C 799.441 720.713 798.876 719.178 799.023 722.615 C 796.108 728.564 794.033 729.467 788.018 732.461 C 785.566 732.117 784.882 731.77 782.528 730.915 C 780.395 728.188 780.968 729.726 781.007 726.057 C 784.136 720.466 786.721 719.173 792.633 716.8 z"/>
<path transform="translate(0,0)" fill="rgb(103,116,208)" d="M 841.455 742.889 L 842.307 743.936 C 844.012 770.606 815.141 785.488 790.696 777.305 L 787.738 775.516 C 788.265 773.31 812.688 761.469 815.899 759.615 C 825.072 754.32 832.933 749.1 841.455 742.889 z"/>
<path transform="translate(0,0)" fill="rgb(70,77,175)" d="M 816.803 764.979 C 821.184 764.786 823.523 763.791 825.793 767.742 C 824.845 771.192 823.821 771.761 821.257 774.223 C 816.769 774.981 814.559 776.322 812.149 772.221 C 812.946 768.48 814.155 767.729 816.803 764.979 z"/>
<path transform="translate(0,0)" fill="rgb(245,247,247)" d="M 762.998 756.81 C 763.906 757.67 770.955 770.245 772.612 772.839 C 767.433 774.354 762.368 775.54 757.131 776.8 C 752.494 777.116 749.695 778.417 748.246 773.739 C 750.43 767.138 757.753 761.535 762.998 756.81 z"/>
<path transform="translate(0,0)" fill="rgb(245,247,247)" d="M 854.218 709.243 C 858.637 708.794 861.37 707.458 862.419 712.114 C 860.109 718.62 853.417 724.173 848.364 728.941 C 846.603 726.923 842.665 718.632 838.143 713.198 C 843.825 711.401 848.398 710.472 854.218 709.243 z"/>
<path transform="translate(0,0)" fill="rgb(0,0,0)" d="M 1178.69 710.659 C 1179.64 710.779 1181.68 711.273 1182.68 711.491 C 1188.35 716.357 1189.84 727.562 1191.66 735.269 C 1199.32 737.833 1210.98 739.831 1213.19 748.329 C 1211.41 755.489 1200.15 760.942 1193.66 765.049 C 1193.36 773.169 1195.41 786.318 1187.24 790.082 C 1179.37 789.622 1175.2 784.196 1169.04 778.693 C 1161.45 773.097 1145.34 787.38 1139.9 777.551 C 1139.39 769.353 1143.78 761.904 1147.24 754.411 C 1142.81 747.476 1133.41 736.653 1138.56 729.187 C 1145.79 725.5 1153.84 727.699 1162.25 728.73 C 1167.78 722.104 1171.91 715.997 1178.69 710.659 z"/>
<path transform="translate(0,0)" fill="rgb(165,113,199)" d="M 1179.41 717.686 C 1182.15 720.752 1185.43 735.046 1186.65 739.595 C 1193.41 742.657 1201.77 745.622 1208.79 748.316 C 1203.19 752.286 1194.35 757.109 1188.23 760.687 C 1187.17 769.069 1187.04 777.423 1186.76 785.862 C 1182.25 781.646 1175.49 776.454 1170.56 772.446 C 1166.34 769.426 1151.06 774.151 1145.33 775.325 C 1147.97 768.171 1151.08 760.742 1153.93 753.629 C 1150.55 747.078 1145.58 739.912 1141.48 733.66 C 1149.18 733.958 1157.15 734.527 1164.87 734.973 C 1168.42 731.607 1175.98 721.879 1179.41 717.686 z"/>
<path transform="translate(0,0)" fill="rgb(0,0,0)" d="M 600.958 651.362 C 610.461 652.516 614.842 663.724 619.212 671.349 C 627.409 671.669 640.916 670.236 644.551 678.488 C 643.854 686.085 636.783 692.417 631.531 698.393 C 640.234 725.697 638.398 730.711 610.348 718.936 C 603.512 721.515 591.621 733.568 584.74 728.653 C 581.617 721.717 583.316 712.054 583.979 704.265 C 577.659 698.838 565.855 691.987 568.625 683.161 C 574.132 677.393 582.084 676.975 590.236 675.278 C 593.01 667.089 595.438 657.947 600.958 651.362 z"/>
<path transform="translate(0,0)" fill="rgb(103,116,208)" d="M 603.041 658.557 C 607.31 662.778 612.778 671.793 616.237 677.152 C 624.637 677.994 630.552 677.98 639.284 679.357 C 634.362 685.187 629.548 691.107 624.845 697.114 C 627.074 704.988 628.971 711.968 630.74 719.946 C 623.892 717.097 617.139 714.731 610.155 712.24 C 603.835 714.671 594.84 720.765 588.845 724.529 C 589.602 699.031 592.257 702.036 571.866 685.847 C 579.482 684.182 586.756 682.291 594.302 680.326 C 597.144 672.735 599.682 665.92 603.041 658.557 z"/>
<path transform="translate(0,0)" fill="rgb(0,0,0)" d="M 861.87 444.48 C 870.526 445.248 876.783 456.951 881.599 463.788 C 912.309 462.468 912.067 466.611 895.024 490.185 C 897.761 497.631 903.899 508.608 897.779 515.039 C 890.676 517.22 882.164 513.155 874.758 510.672 C 868.132 514.908 859.131 525.242 851.19 521.268 C 846.74 514.536 848.237 507.131 848.502 498.687 C 842.147 493.293 830.021 488.078 830.901 478.963 C 835.366 472.854 844.839 471.268 852.437 469.012 C 854.609 461.235 857.005 450.843 861.87 444.48 z"/>
<path transform="translate(0,0)" fill="rgb(116,163,212)" d="M 863.971 451.278 C 868.414 455.208 874.612 464.218 878.79 469.429 L 902.972 469.216 C 897.732 476.256 893.617 482.11 888.878 489.489 C 891.411 496.831 893.903 504.187 896.354 511.557 C 888.938 509.177 881.546 506.718 874.182 504.181 C 867.572 508.567 860.536 513.882 854.101 518.583 L 853.963 495.168 C 849.433 491.212 839.815 484.772 834.611 481.062 C 841.734 478.408 849.344 476.044 856.599 473.671 C 859.021 467.882 861.975 457.546 863.971 451.278 z"/>
<path transform="translate(0,0)" fill="rgb(0,0,0)" d="M 995.6 746.765 C 998.468 746.606 998.73 746.243 1001.05 747.727 C 1004.88 753.146 1005.54 760.048 1006.95 766.766 C 1012.61 769.073 1022.33 771.661 1024.09 777.783 C 1022.61 784.404 1013.72 788.248 1008.28 792.687 C 1007.6 799.889 1008.47 807.998 1002.14 812.163 C 996.051 812.255 992.119 807.288 987.609 803.085 L 985.677 801.475 C 977.835 800.625 968.561 807.036 962.822 802.57 C 961.122 795.522 965.417 788.546 968.459 781.774 C 956.767 761.443 956.161 757.232 981.383 761.179 C 986.259 755.772 989.979 751.419 995.6 746.765 z"/>
<path transform="translate(0,0)" fill="rgb(250,216,98)" d="M 996.719 753.649 C 999.679 756.435 1000.66 765.622 1001.46 769.994 C 1006.74 773.167 1013.56 775.949 1019.31 778.502 L 1002.8 787.674 C 1002.24 794.272 1001.63 800.866 1000.97 807.454 C 996.933 804.053 992.534 799.745 988.62 796.1 C 984.05 793.61 973.064 797.395 967.541 798.742 L 975.449 782.28 L 965.768 765.527 L 984.256 766.985 C 988.308 762.998 992.81 757.88 996.719 753.649 z"/>
<path transform="translate(0,0)" fill="rgb(0,0,0)" d="M 608.126 810.426 C 614.307 811.085 622.293 817.602 627.463 821.262 C 634.203 818.591 642.258 813.801 648.869 817.625 C 651.985 823.953 648.406 831.098 646.187 838.047 C 661.844 856.799 661.56 859.257 635.835 860.912 C 631.95 867.007 628.413 875.289 620.671 875.701 C 614.603 872.225 613.547 864.941 611.269 857.969 C 588.09 852.105 585.752 849.251 605.956 833.545 C 605.76 825.581 604.918 817.686 608.126 810.426 z"/>
<path transform="translate(0,0)" fill="rgb(249,172,99)" d="M 611.478 817.571 L 626.854 828.151 L 645.141 821.098 C 643.532 827.116 641.41 833.55 639.55 839.55 L 650.928 853.736 C 643.893 853.945 639.177 854.036 632.217 855.135 C 628.694 860.235 625.259 865.396 621.916 870.614 C 620.342 865.005 617.612 858.423 615.481 852.863 L 597.764 847.949 L 612.289 836.244 L 611.478 817.571 z"/>
<path transform="translate(0,0)" fill="rgb(0,0,0)" d="M 776.991 578.484 C 787.139 575.972 797.414 582.108 800.017 592.232 C 802.619 602.356 796.576 612.686 786.475 615.379 C 776.246 618.105 765.756 611.968 763.121 601.716 C 760.486 591.463 766.716 581.029 776.991 578.484 z"/>
<path transform="translate(0,0)" fill="rgb(250,216,98)" d="M 776.467 585.48 C 782.923 582.672 790.432 585.657 793.199 592.131 C 795.967 598.605 792.937 606.094 786.446 608.822 C 780.011 611.527 772.6 608.529 769.856 602.11 C 767.112 595.692 770.065 588.263 776.467 585.48 z"/>
<path transform="translate(0,0)" fill="rgb(0,0,0)" d="M 1217.2 610.503 C 1227.23 607.339 1237.91 612.928 1241.03 622.965 C 1244.14 633.002 1238.5 643.659 1228.45 646.728 C 1218.47 649.776 1207.9 644.182 1204.8 634.212 C 1201.71 624.243 1207.25 613.646 1217.2 610.503 z"/>
<path transform="translate(0,0)" fill="rgb(165,113,199)" d="M 1219.33 616.539 C 1226.01 614.596 1233 618.426 1234.96 625.101 C 1236.92 631.775 1233.1 638.775 1226.43 640.75 C 1219.74 642.731 1212.71 638.903 1210.75 632.206 C 1208.78 625.509 1212.63 618.488 1219.33 616.539 z"/>
<path transform="translate(0,0)" fill="rgb(197,204,209)" d="M 529.688 643.157 C 529.563 650.832 517.294 672.15 513.825 683.682 C 497.277 738.689 513.78 804.849 551.236 847.778 C 604.874 907.559 701.939 911.513 761.437 857.887 C 771.952 848.409 783.93 828.331 800.271 827.705 C 812.237 828.621 836.218 845.008 847.811 850.998 C 898.284 877.078 953.779 878.941 1003.74 850.695 C 1017.4 842.973 1028.15 837.741 1040.5 827.04 C 1051.12 817.843 1065.91 801.501 1080.86 802.747 C 1095.39 803.958 1111.36 817.196 1126.15 822.126 C 1173.1 837.774 1230.24 823.983 1268.36 793.411 C 1276.77 786.67 1300.47 761.393 1306.54 758.664 C 1304.28 765.439 1299.15 774.888 1295.41 780.919 C 1273.17 817.456 1237.2 843.546 1195.56 853.347 C 1144.98 864.867 1108.8 853.005 1066.84 826.386 C 1060.63 831.461 1051.88 841.905 1045.05 848.006 C 1023.8 867.01 1000.93 879.77 973.895 888.323 C 927.131 902.736 876.572 898.147 833.167 875.552 C 821.413 869.462 811.049 860.44 799.513 854.794 C 789.787 864.7 783.801 876.506 770.656 889.012 C 736.763 920.628 691.789 937.634 645.458 936.352 C 598.741 935.405 554.366 915.718 522.312 881.721 C 490.737 847.818 474.587 805.667 476.503 759.24 C 478.032 714.999 497.18 673.205 529.688 643.157 z"/>
<path transform="translate(0,0)" fill="rgb(237,141,67)" d="M 1374.23 1669.86 C 1375.86 1671.89 1380.66 1673.9 1382.86 1674.37 L 1389.83 1678.23 C 1401.34 1682.66 1409.07 1685.07 1421.3 1687.04 L 1427.83 1687.17 C 1430.97 1687.26 1434.12 1687.37 1437.26 1687.51 C 1435.04 1712.09 1420.35 1730.72 1398.65 1742.21 C 1390.18 1746.7 1383.16 1742.84 1380.48 1733.79 C 1373.63 1710.65 1362.58 1693.87 1374.23 1669.86 z"/>
<path transform="translate(0,0)" fill="rgb(60,17,15)" d="M 1374.23 1669.86 C 1375.86 1671.89 1380.66 1673.9 1382.86 1674.37 C 1370.36 1686.61 1387.36 1720.23 1390.63 1735.6 C 1407.51 1725.95 1429.21 1709.14 1427.83 1687.17 C 1430.97 1687.26 1434.12 1687.37 1437.26 1687.51 C 1435.04 1712.09 1420.35 1730.72 1398.65 1742.21 C 1390.18 1746.7 1383.16 1742.84 1380.48 1733.79 C 1373.63 1710.65 1362.58 1693.87 1374.23 1669.86 z"/>
<path transform="translate(0,0)" fill="rgb(249,172,99)" d="M 1389.83 1678.23 C 1401.34 1682.66 1409.07 1685.07 1421.3 1687.04 C 1412.75 1701.74 1410.62 1702.55 1398.7 1713.74 C 1393.47 1703.23 1386.09 1690.11 1389.83 1678.23 z"/>
<path transform="translate(0,0)" fill="rgb(245,247,247)" d="M 722.204 1190.07 C 722.59 1190.6 722.986 1191.12 723.362 1191.66 C 724.254 1192.94 725.001 1194.26 726.096 1195.39 C 742.641 1212.5 854.914 1226.24 883.065 1227.04 C 965.634 1229.37 1045.76 1219.85 1123.25 1190.21 C 1144.56 1182.05 1168.13 1171.66 1186.85 1158.56 C 1191.39 1155.38 1194.91 1150.72 1199.1 1147.11 C 1201.79 1144.79 1203.18 1145.3 1206.5 1145.56 C 1271.47 1150.91 1357.71 1156.14 1404.31 1209.42 C 1427.72 1236.18 1445.48 1296 1444.09 1330.93 C 1445.81 1339.64 1445.15 1378.06 1445.13 1388.97 C 1425.98 1422.12 1409.98 1463.64 1398.12 1499.98 C 1355.22 1522.96 1319.33 1566.02 1313.88 1615.51 C 1311.62 1636.1 1359.65 1622.14 1371.94 1620.33 C 1369.73 1621.79 1367.5 1623.2 1365.23 1624.56 C 1342.04 1638.55 1317.67 1647.86 1291.59 1654.77 C 1239.05 1668.68 1183.79 1674 1129.92 1680.2 C 1027.38 1691.99 876.82 1710.03 777.863 1685.54 C 727.165 1673 688.665 1648.01 661.585 1602.69 C 649.799 1582.96 642.165 1561.56 637.277 1539.14 C 625.152 1483.56 621.454 1349.21 635.482 1295.1 C 648.625 1244.41 678.266 1215.69 722.204 1190.07 z"/>
<path transform="translate(0,0)" fill="rgb(0,0,0)" d="M 1056.15 1463.68 C 1052.4 1485.13 1048.01 1502.57 1037.51 1521.75 C 981.244 1624.84 830.908 1622.37 798.675 1502.07 C 788.206 1463 791.421 1415.8 811.955 1380.46 C 831.222 1347.54 862.793 1323.64 899.703 1314.03 C 930.043 1306.29 965.292 1309.63 992.112 1326.19 C 1030.65 1349.99 1046.89 1383.94 1057.23 1426.03 C 1062.66 1425.84 1068.3 1425.71 1073.66 1424.96 C 1111.92 1419.63 1151.7 1416.67 1190.37 1415.87 C 1192.86 1406.11 1195.42 1397.47 1199.23 1388.13 C 1219.45 1338.62 1276.64 1310.63 1326.83 1332.98 C 1349.04 1342.69 1366.34 1361.02 1374.73 1383.76 C 1388.19 1419.86 1382.93 1453.95 1367.27 1487.86 C 1348.38 1516.67 1347.43 1509.35 1325.7 1527.32 C 1254.87 1563.58 1212.72 1526.88 1189.66 1458.92 C 1161.85 1460.11 1134.36 1461.43 1106.6 1462.85 C 1087.11 1463.84 1078.35 1460.41 1056.15 1463.68 z"/>
<path transform="translate(0,0)" fill="rgb(49,48,47)" d="M 920.564 1320.37 C 945.755 1316.53 979.344 1324.65 998.566 1340.92 C 1059.55 1392.56 1062.59 1482.75 1012.32 1543.05 C 993.434 1565.7 964.389 1582.65 935.245 1584.9 C 864.997 1593.44 816.866 1550.06 806.1 1482.04 C 793.797 1404.31 839.992 1329.89 920.564 1320.37 z"/>
<path transform="translate(0,0)" fill="rgb(0,0,0)" d="M 930.907 1329.44 C 951.641 1329.32 969.32 1333.82 986.623 1345.34 C 1083.75 1409.96 1047.13 1573.88 925.75 1578.29 C 899.511 1579.09 873.95 1569.88 854.266 1552.51 C 831.898 1532.8 816.856 1497.76 815.725 1468.29 C 813.039 1398.29 858.264 1333.77 930.907 1329.44 z"/>
<path transform="translate(0,0)" fill="rgb(49,48,47)" d="M 982.319 1438.11 C 977.627 1433.41 971.494 1418.88 966.251 1412.09 C 957.48 1398.01 935.331 1402.65 923.703 1395.06 C 902.818 1381.42 920.775 1361.78 939.102 1358.46 C 951.69 1356.17 964.671 1359.08 975.076 1366.52 C 984.856 1373.58 995.644 1387.98 997.457 1400.02 C 1017.97 1434.87 991.115 1467.51 982.319 1438.11 z"/>
<path transform="translate(0,0)" fill="rgb(245,247,247)" d="M 982.319 1438.11 C 982.069 1431.33 980.013 1424.51 979.427 1417.63 C 978.375 1405.29 982.246 1390.59 997.457 1400.02 C 1017.97 1434.87 991.115 1467.51 982.319 1438.11 z"/>
<path transform="translate(0,0)" fill="rgb(49,48,47)" d="M 859.782 1492.08 C 869.737 1493.93 871.38 1498.95 878.638 1506.98 C 896.627 1528.45 921.257 1527.19 946.324 1523.22 C 952.081 1522.3 971.555 1518.74 975.445 1523.69 C 982.469 1532.64 969.786 1541.76 963.192 1546.48 C 896.482 1585.98 829.162 1516.03 859.782 1492.08 z"/>
<path transform="translate(0,0)" fill="rgb(49,48,47)" d="M 1165.68 1422.38 C 1172.31 1422.15 1182.07 1422.76 1188.94 1422.98 C 1187.93 1432.41 1188.01 1441.58 1188.35 1451.03 C 1164.41 1451.96 1140.45 1452.57 1116.5 1452.85 C 1108.68 1452.99 1100.34 1452.75 1092.48 1452.66 C 1091.9 1443.88 1091.94 1438.13 1092.26 1429.3 C 1097.24 1428.37 1102.08 1427.93 1107.13 1427.75 C 1126.88 1427.01 1146.07 1424.82 1165.68 1422.38 z"/>
<path transform="translate(0,0)" fill="rgb(49,48,47)" d="M 1309.46 1411.68 C 1304.7 1377.52 1268.19 1390.31 1266.77 1377.42 C 1272.87 1363.81 1290.3 1359.95 1303.45 1364.42 C 1316.64 1368.9 1322.48 1379.41 1327.91 1391.13 C 1332.92 1399.35 1338.39 1407.41 1334.59 1417.29 C 1327.96 1434.52 1315.02 1428.03 1310.28 1414.11 C 1310 1413.3 1309.73 1412.49 1309.46 1411.68 z"/>
<path transform="translate(0,0)" fill="rgb(245,247,247)" d="M 1309.46 1411.68 C 1309.52 1410.6 1309.59 1409.53 1309.67 1408.45 C 1310.7 1394.65 1313.88 1390.09 1327.91 1391.13 C 1332.92 1399.35 1338.39 1407.41 1334.59 1417.29 C 1327.96 1434.52 1315.02 1428.03 1310.28 1414.11 C 1310 1413.3 1309.73 1412.49 1309.46 1411.68 z"/>
<path transform="translate(0,0)" fill="rgb(49,48,47)" d="M 1239.9 1466.51 C 1250.99 1467.59 1254.68 1478.1 1266.47 1481.24 C 1278.55 1484.46 1312.49 1472.3 1317.35 1485.36 C 1316.54 1491.49 1313.36 1494.15 1308.98 1498.49 C 1282.61 1514.56 1219.44 1495.22 1239.9 1466.51 z"/>
<path transform="translate(0,0)" fill="rgb(49,48,47)" d="M 1056.98 1430.86 C 1064.79 1431.18 1075.6 1430.68 1083.63 1430.56 C 1084.18 1435.66 1086.62 1451.53 1083.76 1455.39 C 1074.58 1456.17 1066.12 1456.94 1056.96 1458.15 L 1056.98 1430.86 z"/>
<path transform="translate(0,0)" fill="rgb(197,204,209)" d="M 722.204 1190.07 C 722.59 1190.6 722.986 1191.12 723.362 1191.66 C 724.254 1192.94 725.001 1194.26 726.096 1195.39 C 742.641 1212.5 854.914 1226.24 883.065 1227.04 C 965.634 1229.37 1045.76 1219.85 1123.25 1190.21 C 1144.56 1182.05 1168.13 1171.66 1186.85 1158.56 C 1191.39 1155.38 1194.91 1150.72 1199.1 1147.11 C 1201.79 1144.79 1203.18 1145.3 1206.5 1145.56 C 1203.97 1157.49 1175.58 1181.48 1165.03 1188.1 C 1045.91 1262.73 893.532 1268.85 758.833 1242.41 C 745.103 1239.71 729.623 1234.75 717.182 1228.69 C 689.293 1289.47 687.601 1401.84 697.635 1467.36 C 701.12 1490.28 706.866 1512.8 714.791 1534.59 C 731.133 1578.69 764.277 1610.7 806.632 1630.25 C 833.582 1642.69 872.455 1647.11 902.02 1650.74 C 946.391 1656.2 988.958 1660.15 1033.85 1658.83 C 1065.62 1657.91 1096.59 1652.4 1128.03 1649.08 L 1284.9 1633.7 C 1285 1602.92 1298.58 1575.89 1313 1549.05 C 1316.34 1542.82 1324.65 1533.89 1325.7 1527.32 C 1347.43 1509.35 1348.38 1516.67 1367.27 1487.86 C 1372.26 1487.97 1376.63 1485.41 1381.22 1483.32 C 1388.53 1452.62 1422.3 1373.45 1444.39 1352.86 C 1443.99 1345.23 1443.47 1338.56 1444.09 1330.93 C 1445.81 1339.64 1445.15 1378.06 1445.13 1388.97 C 1425.98 1422.12 1409.98 1463.64 1398.12 1499.98 C 1355.22 1522.96 1319.33 1566.02 1313.88 1615.51 C 1311.62 1636.1 1359.65 1622.14 1371.94 1620.33 C 1369.73 1621.79 1367.5 1623.2 1365.23 1624.56 C 1342.04 1638.55 1317.67 1647.86 1291.59 1654.77 C 1239.05 1668.68 1183.79 1674 1129.92 1680.2 C 1027.38 1691.99 876.82 1710.03 777.863 1685.54 C 727.165 1673 688.665 1648.01 661.585 1602.69 C 649.799 1582.96 642.165 1561.56 637.277 1539.14 C 625.152 1483.56 621.454 1349.21 635.482 1295.1 C 648.625 1244.41 678.266 1215.69 722.204 1190.07 z"/>
<path transform="translate(0,0)" fill="url(#Gradient1)" d="M 1016.04 1011.56 C 1030.35 1010.51 1056.17 1010.53 1070.58 1010.79 C 1103.12 1011.37 1147.99 1011.05 1179.69 1018.02 C 1190.14 1039.28 1191.84 1073.78 1193.07 1097.67 C 1192.73 1108.97 1196.57 1137.3 1186.3 1144.65 C 1106.27 1201.99 985.12 1217.2 893.085 1217.13 C 866.988 1217.17 754.688 1203.01 736.468 1188.94 C 723.801 1179.16 719.393 1131.39 717.692 1114.88 C 716.585 1104.14 713.451 1077.45 721.285 1068.98 C 741.687 1046.9 906.618 1021.35 942.536 1017.04 C 966.959 1014.11 991.477 1012.67 1016.04 1011.56 z"/>
<path transform="translate(0,0)" fill="rgb(245,247,247)" d="M 1067.58 839.959 C 1108.17 863.784 1139.52 871.711 1186.99 866.18 C 1184.15 874.746 1181.95 881.751 1179.74 890.476 C 1171.68 921.839 1165.45 973.813 1171.18 1005.45 C 1151.97 1003.52 1130.4 1001.43 1111.04 1001.03 C 1110.92 981.398 1111.91 963.389 1114.22 943.916 C 1114.41 942.293 1112.68 940.051 1111.7 938.845 C 1106.55 942.926 1106.12 949.641 1105.35 956.252 C 1103.73 971.205 1102.99 986.24 1103.14 1001.28 C 1084.18 1000.88 1065.22 1000.67 1046.26 1000.64 L 1012.75 1001.18 C 1012.11 991.506 1012.08 972.735 1007.64 964.725 C 1005.56 965.981 1003.78 966.398 1003.54 968.735 C 1002.48 979.083 1004.97 991.314 1005.24 1001.92 L 993.94 1002.1 C 962.003 1003.94 930.181 1007.41 898.598 1012.5 C 897.333 1001.96 896.015 979.342 888.684 972.428 C 887.979 973.383 887.273 974.339 886.567 975.294 C 886.516 987.862 889.677 1001.06 890.416 1013.65 L 876.818 1015.77 C 851.503 1021.24 827.159 1024.78 801.373 1031.07 C 799.41 1018.13 791.776 973.632 778.148 968.649 C 777.841 969.921 777.534 971.193 777.227 972.465 C 783.894 992.348 792.619 1011.54 793.441 1032.95 C 788.411 1034.1 782.784 1035.26 777.853 1036.6 C 774.02 1037.62 769.849 1038.63 766.085 1039.77 C 752.409 1043.36 741.199 1046.49 728.166 1051.89 C 724.787 1017 714.481 972.24 697.463 941.171 C 741.982 928.702 773.988 905.503 801.832 869.194 C 891.364 927.401 994.023 919.718 1067.58 839.959 z"/>
<path transform="translate(0,0)" fill="rgb(197,204,209)" d="M 1067.58 839.959 C 1108.17 863.784 1139.52 871.711 1186.99 866.18 C 1184.15 874.746 1181.95 881.751 1179.74 890.476 C 1171.13 891.462 1161.65 893.387 1153.26 893.72 C 1121.08 894.998 1096.79 888.176 1069.74 871.776 C 1064.43 878.744 1056.71 885.144 1049.76 890.428 C 978.988 944.175 888.564 950.622 811.686 906.759 C 801.673 917.68 793.718 926.605 781.896 935.769 C 771.262 944.012 760.351 950.038 749.598 957.489 C 759.592 988.837 763.881 1006.98 766.085 1039.77 C 752.409 1043.36 741.199 1046.49 728.166 1051.89 C 724.787 1017 714.481 972.24 697.463 941.171 C 741.982 928.702 773.988 905.503 801.832 869.194 C 891.364 927.401 994.023 919.718 1067.58 839.959 z"/>
<path transform="translate(0,0)" fill="rgb(197,204,209)" d="M 777.853 1036.6 C 776.061 1022.79 767.151 978.857 770.411 970.077 C 773.698 967.71 773.058 968.524 778.148 968.649 C 777.841 969.921 777.534 971.193 777.227 972.465 C 783.894 992.348 792.619 1011.54 793.441 1032.95 C 788.411 1034.1 782.784 1035.26 777.853 1036.6 z"/>
<path transform="translate(0,0)" fill="rgb(197,204,209)" d="M 1090.18 999.932 C 1090.71 987.008 1092.8 941.939 1105.88 935.886 C 1110.14 936.404 1108.18 935.634 1111.7 938.845 C 1106.55 942.926 1106.12 949.641 1105.35 956.252 C 1103.73 971.205 1102.99 986.24 1103.14 1001.28 C 1084.18 1000.88 1065.22 1000.67 1046.26 1000.64 C 1050.33 998.43 1083.73 999.809 1090.18 999.932 z"/>
<path transform="translate(0,0)" fill="rgb(197,204,209)" d="M 876.818 1015.77 C 876.163 1004.66 870.267 971.906 881.452 966.552 C 884.833 966.919 885.796 968.071 888.5 970.137 L 888.684 972.428 C 887.979 973.383 887.273 974.339 886.567 975.294 C 886.516 987.862 889.677 1001.06 890.416 1013.65 L 876.818 1015.77 z"/>
<path transform="translate(0,0)" fill="rgb(197,204,209)" d="M 993.94 1002.1 C 993.282 991.512 988.072 959.273 1002.91 958.379 C 1005.83 959.821 1006.24 961.705 1007.64 964.725 C 1005.56 965.981 1003.78 966.398 1003.54 968.735 C 1002.48 979.083 1004.97 991.314 1005.24 1001.92 L 993.94 1002.1 z"/>
<path transform="translate(0,0)" fill="rgb(245,247,247)" d="M 1449.76 1401.33 C 1453.66 1403.69 1458.11 1406.03 1462.12 1408.26 C 1476.42 1413.01 1490.19 1416.66 1505.31 1417.59 C 1504.96 1444.11 1501.94 1465.99 1497.49 1492.17 C 1494.25 1514.1 1490.04 1528.27 1485.32 1549.4 C 1481.11 1566.21 1476.26 1582.85 1470.77 1599.28 C 1466.62 1612.7 1458.85 1633.42 1453.02 1646.19 C 1451.09 1650.08 1449.8 1652.78 1447.45 1656.4 C 1430.26 1657.31 1415.84 1653.08 1399.74 1647.31 C 1389.52 1643.27 1385.92 1642.26 1377.99 1634.63 C 1379.35 1615.83 1389.23 1575.34 1393.67 1555.04 C 1397.08 1540.18 1401.9 1522.89 1406.31 1508.3 C 1411.59 1490.96 1417.63 1473.87 1424.42 1457.07 C 1428.89 1444.76 1436.28 1428.22 1442.18 1416.65 C 1444.48 1411.08 1446.93 1406.63 1449.76 1401.33 z"/>
<path transform="translate(0,0)" fill="rgb(229,77,74)" d="M 1449.76 1401.33 C 1453.66 1403.69 1458.11 1406.03 1462.12 1408.26 C 1476.42 1413.01 1490.19 1416.66 1505.31 1417.59 C 1504.96 1444.11 1501.94 1465.99 1497.49 1492.17 C 1494.25 1514.1 1490.04 1528.27 1485.32 1549.4 C 1476.91 1526.94 1453.99 1490.72 1437.78 1471.93 L 1437.95 1471.29 C 1434.9 1468.56 1428.18 1460.8 1424.42 1457.07 C 1428.89 1444.76 1436.28 1428.22 1442.18 1416.65 C 1444.48 1411.08 1446.93 1406.63 1449.76 1401.33 z"/>
<path transform="translate(0,0)" fill="rgb(245,247,247)" d="M 1449.76 1401.33 C 1453.66 1403.69 1458.11 1406.03 1462.12 1408.26 C 1476.42 1413.01 1490.19 1416.66 1505.31 1417.59 C 1504.96 1444.11 1501.94 1465.99 1497.49 1492.17 C 1494.51 1488.29 1486.84 1475.21 1483.51 1470.13 C 1474.34 1456.1 1464.32 1442.64 1453.5 1429.84 L 1453.14 1428.82 C 1449.64 1425.21 1445.59 1420.46 1442.18 1416.65 C 1444.48 1411.08 1446.93 1406.63 1449.76 1401.33 z"/>
<path transform="translate(0,0)" fill="rgb(197,204,209)" d="M 1449.76 1401.33 C 1453.66 1403.69 1458.11 1406.03 1462.12 1408.26 C 1459.85 1413.11 1454.4 1424.2 1453.14 1428.82 C 1449.64 1425.21 1445.59 1420.46 1442.18 1416.65 C 1444.48 1411.08 1446.93 1406.63 1449.76 1401.33 z"/>
<path transform="translate(0,0)" fill="rgb(180,62,70)" d="M 1424.42 1457.07 C 1428.89 1444.76 1436.28 1428.22 1442.18 1416.65 C 1445.59 1420.46 1449.64 1425.21 1453.14 1428.82 L 1453.5 1429.84 C 1447.97 1439.85 1441.55 1459.8 1437.95 1471.29 C 1434.9 1468.56 1428.18 1460.8 1424.42 1457.07 z"/>
<path transform="translate(0,0)" fill="rgb(245,247,247)" d="M 1393.67 1555.04 C 1399.72 1561.26 1404.44 1566.12 1409.82 1572.86 L 1409.97 1573.46 C 1425.57 1591.3 1446.45 1624.05 1453.02 1646.19 C 1451.09 1650.08 1449.8 1652.78 1447.45 1656.4 C 1430.26 1657.31 1415.84 1653.08 1399.74 1647.31 C 1389.52 1643.27 1385.92 1642.26 1377.99 1634.63 C 1379.35 1615.83 1389.23 1575.34 1393.67 1555.04 z"/>
<path transform="translate(0,0)" fill="rgb(197,204,209)" d="M 1393.67 1555.04 C 1399.72 1561.26 1404.44 1566.12 1409.82 1572.86 L 1409.97 1573.46 C 1405 1591.92 1400.17 1628.51 1399.74 1647.31 C 1389.52 1643.27 1385.92 1642.26 1377.99 1634.63 C 1379.35 1615.83 1389.23 1575.34 1393.67 1555.04 z"/>
<path transform="translate(0,0)" fill="rgb(229,77,74)" d="M 1406.31 1508.3 C 1409.36 1512.94 1416.13 1519.72 1420.31 1523.71 L 1420.95 1525.07 C 1441.84 1549.4 1456.5 1570.23 1470.77 1599.28 C 1466.62 1612.7 1458.85 1633.42 1453.02 1646.19 C 1446.45 1624.05 1425.57 1591.3 1409.97 1573.46 L 1409.82 1572.86 C 1404.44 1566.12 1399.72 1561.26 1393.67 1555.04 C 1397.08 1540.18 1401.9 1522.89 1406.31 1508.3 z"/>
<path transform="translate(0,0)" fill="rgb(180,62,70)" d="M 1406.31 1508.3 C 1409.36 1512.94 1416.13 1519.72 1420.31 1523.71 L 1420.95 1525.07 C 1417.88 1529.75 1411.18 1565.76 1409.82 1572.86 C 1404.44 1566.12 1399.72 1561.26 1393.67 1555.04 C 1397.08 1540.18 1401.9 1522.89 1406.31 1508.3 z"/>
<path transform="translate(0,0)" fill="rgb(197,204,209)" d="M 1424.42 1457.07 C 1428.18 1460.8 1434.9 1468.56 1437.95 1471.29 L 1437.78 1471.93 C 1435.52 1474.18 1421.44 1517.85 1420.31 1523.71 C 1416.13 1519.72 1409.36 1512.94 1406.31 1508.3 C 1411.59 1490.96 1417.63 1473.87 1424.42 1457.07 z"/>
<path transform="translate(0,0)" fill="rgb(180,62,70)" d="M 1359.66 1542.09 C 1368.3 1531.79 1381.85 1519.79 1393.88 1513.6 C 1386.15 1544.38 1376.6 1580.88 1371.52 1612.01 L 1349.14 1613.86 C 1341.5 1614.57 1331.16 1616.37 1323.22 1617.41 C 1326.27 1589.3 1341.28 1563.05 1359.66 1542.09 z"/>
<path transform="translate(0,0)" fill="rgb(229,77,74)" d="M 1359.66 1542.09 C 1360.03 1542.9 1360.4 1543.72 1360.76 1544.53 C 1358.68 1566.61 1348.16 1591.8 1349.14 1613.86 C 1341.5 1614.57 1331.16 1616.37 1323.22 1617.41 C 1326.27 1589.3 1341.28 1563.05 1359.66 1542.09 z"/>
<path transform="translate(0,0)" fill="rgb(229,77,74)" d="M 1496.77 1546.62 C 1499.01 1548.27 1499.76 1550.64 1500.91 1553.21 C 1515.64 1585.82 1517.07 1635.05 1504.16 1668.47 C 1500.7 1665.89 1496.5 1662.21 1493.09 1659.4 C 1485.73 1652.74 1475.16 1644.5 1467.31 1638.03 C 1480.21 1606.08 1487.74 1579.66 1496.77 1546.62 z"/>
<path transform="translate(0,0)" fill="rgb(229,77,74)" d="M 1453.82 1393.94 C 1458.74 1383.06 1480.11 1347.15 1494.99 1356.77 C 1505.6 1371.22 1506 1391.3 1505.9 1408.74 C 1490.17 1406.39 1482.06 1404.51 1466.97 1399.56 C 1461.84 1398.08 1458.55 1396.28 1453.82 1393.94 z"/>
<path transform="translate(0,0)" fill="rgb(180,62,70)" d="M 1453.82 1393.94 C 1458.74 1383.06 1480.11 1347.15 1494.99 1356.77 C 1488.35 1364.01 1469.85 1390.42 1466.97 1399.56 C 1461.84 1398.08 1458.55 1396.28 1453.82 1393.94 z"/>
<path transform="translate(0,0)" fill="rgb(245,247,247)" d="M 653.316 1222.13 C 656.344 1222.25 658.409 1221.92 660.696 1223.77 C 658.542 1229.73 648.327 1241.67 644.778 1247.9 C 635.358 1264.43 628.882 1281.39 624.694 1299.96 C 623.66 1304.55 622.425 1315.06 620.572 1318.62 L 619.21 1317.6 C 595.648 1275.09 616.868 1245.34 653.316 1222.13 z"/>
<path transform="translate(0,0)" fill="rgb(49,48,47)" d="M 676.697 396.801 C 678.964 396.84 684.552 396.943 684.721 400.101 C 685.839 420.95 688.511 464.395 682.431 483.354 L 677.001 482.954 C 675.702 481.994 674.28 481.484 674.177 479.783 C 673.223 463.925 669.984 408.674 676.697 396.801 z"/>
<path transform="translate(0,0)" fill="rgb(49,48,47)" d="M 1410.68 391.724 C 1414.96 391.973 1415.33 391.323 1418.47 393.277 C 1420.5 401.613 1402.69 460.453 1398.74 471.546 C 1396.93 471.806 1395.84 471.641 1394 471.571 L 1392.08 469.482 C 1388.66 457.318 1405.83 406.152 1410.68 391.724 z"/>
<path transform="translate(0,0)" fill="rgb(116,163,212)" d="M 1380.02 1649.22 C 1405.53 1662.49 1414.05 1661.95 1439.99 1666.48 L 1441.16 1668.43 C 1441.04 1673.18 1440.93 1673.38 1439.09 1677.85 C 1423.49 1679.16 1388.31 1673.65 1378.81 1658.3 C 1377.45 1656.1 1379.21 1651.69 1380.02 1649.22 z"/>
<path transform="translate(0,0)" fill="rgb(49,48,47)" d="M 657.034 1168.32 C 657.785 1168.59 658.738 1169.25 659.466 1169.69 C 660.308 1174.84 659.78 1208.65 657.77 1212.32 L 653.097 1213.64 C 650.941 1212.1 651.567 1212.8 650.372 1210.48 C 649.988 1203.31 653.487 1173.86 657.034 1168.32 z"/>
<path transform="translate(0,0)" fill="rgb(245,247,247)" d="M 639.473 1212.75 C 641.01 1215.1 640.728 1215.18 641.462 1218.06 C 640.724 1221.68 638.44 1223.21 635.717 1225.86 C 634.87 1225.81 635.416 1225.92 634.268 1225.03 C 635.125 1220.38 637.283 1216.98 639.473 1212.75 z"/>
<path transform="translate(0,0)" fill="rgb(60,17,15)" d="M 1480.38 1347.27 C 1464.12 1276.66 1456.34 1200.64 1461.86 1128.09 C 1465.87 1075.36 1488.79 1011.24 1547.01 999.035 C 1571.04 993.996 1594.22 997.416 1615.15 1011.12 C 1635.03 1023.99 1648.9 1044.31 1653.63 1067.51 C 1672.07 1157.33 1566.39 1294.38 1506.5 1355.76 C 1504.24 1352.88 1501.77 1350.41 1499.24 1347.78 C 1490.29 1344.89 1489.33 1344.62 1480.38 1347.27 z"/>
<path transform="translate(0,0)" fill="rgb(245,247,247)" d="M 1585.81 1009.46 C 1591.64 1012.26 1589.67 1034.87 1589.02 1040.59 C 1579.42 1126.16 1546.69 1207.76 1517.15 1288.02 C 1511.73 1302.75 1505.94 1317.75 1499.91 1332.25 L 1499.29 1333.54 L 1498.65 1332.38 C 1500.44 1316.37 1504.86 1291.41 1507.32 1275.66 C 1517.48 1210.8 1544.07 1059.47 1585.81 1009.46 z"/>
<path transform="translate(0,0)" fill="rgb(245,247,247)" d="M 1491.14 1296.55 C 1490.69 1223.56 1484.41 1026.19 1577.36 1007.33 C 1532.35 1061.6 1504.22 1241.12 1492.85 1312 C 1493.45 1316.38 1492.49 1322.07 1491.46 1326.36 C 1490.87 1316.63 1490.5 1306.26 1491.14 1296.55 z"/>
<path transform="translate(0,0)" fill="rgb(180,62,70)" d="M 1491.14 1296.55 C 1491.54 1301.1 1491.93 1307.7 1492.85 1312 C 1493.45 1316.38 1492.49 1322.07 1491.46 1326.36 C 1490.87 1316.63 1490.5 1306.26 1491.14 1296.55 z"/>
<path transform="translate(0,0)" fill="rgb(245,247,247)" d="M 1596.8 1013.38 C 1597.57 1013.73 1599.15 1014.42 1599.59 1014.86 C 1662.64 1077.86 1554.91 1249.47 1528.13 1294.93 L 1517.19 1312.85 C 1539 1246.45 1568.32 1183.16 1583.7 1114.28 C 1591.61 1078.86 1599.28 1050.52 1596.8 1013.38 z"/>
<path transform="translate(0,0)" fill="rgb(245,247,247)" d="M 1618.8 1025.59 C 1620.28 1026.39 1620.52 1026.38 1621.69 1027.46 C 1663.3 1065.56 1645.07 1129.17 1624.35 1174.34 C 1599.42 1228.65 1562.88 1277.4 1523.89 1323.31 C 1520.11 1327.84 1516.52 1331.63 1512.46 1335.9 C 1560.17 1256.87 1653 1120.58 1618.8 1025.59 z"/>
<path transform="translate(0,0)" fill="rgb(245,247,247)" d="M 1549.74 1007.23 L 1550.5 1008.26 C 1544.58 1013.11 1537.69 1018.92 1532.78 1024.73 C 1476.97 1090.7 1479.21 1244.77 1485.15 1327.28 C 1483.86 1323.72 1483.14 1319.58 1482.35 1315.84 C 1469.28 1242.73 1454.8 1118 1493.38 1050.42 C 1507.01 1026.54 1523.51 1014.21 1549.74 1007.23 z"/>
<path transform="translate(0,0)" fill="rgb(0,0,0)" d="M 642.995 982.35 C 654.365 981.216 685.959 981.541 694.845 988.718 C 698.065 995.362 696.582 1005.56 696.113 1013.05 C 683.777 1014.2 660.387 1012.51 647.06 1011.86 C 644.169 1011.17 644.367 1011.18 641.986 1009.36 C 640.295 1005.11 640.316 1007.1 640.976 1003.23 C 646.729 998.335 675.485 1002.08 687.028 999.805 L 687.315 998.401 C 679.26 990.317 644.796 998.454 639.787 988.276 C 640.224 984.816 640.616 984.845 642.995 982.35 z"/>
<path transform="translate(0,0)" fill="rgb(0,0,0)" d="M 643.092 1017.11 C 657.022 1016.96 671.395 1016.56 685.319 1017.08 C 690.928 1017.29 695.225 1018.04 696.613 1023.78 C 695.241 1028.51 696.595 1026.85 692.899 1029.31 C 680.298 1030.08 666.425 1029.64 653.725 1029.52 C 648.09 1029.47 643.054 1028.83 640.204 1023.73 C 640.693 1019.46 640.383 1020.93 643.092 1017.11 z"/>
<path transform="translate(0,0)" fill="rgb(0,0,0)" d="M 1227.79 994.674 C 1235.73 994.999 1277.72 1004.79 1281.45 1011.1 C 1282.02 1014.44 1281.13 1015.44 1279.61 1018.49 C 1273.53 1019.27 1231.7 1007.88 1227.18 1004.09 C 1225.84 1000.6 1226.88 998.374 1227.79 994.674 z"/>
<path transform="translate(0,0)" fill="rgb(0,0,0)" d="M 1233.44 978.676 C 1242.73 980.101 1279.3 989.042 1285.08 995.401 C 1285.85 998.478 1284.58 1000.59 1283.41 1003.66 C 1275.98 1003.29 1234.35 992.357 1230.89 986.143 C 1230.52 983.03 1231.87 981.468 1233.44 978.676 z"/>
<path transform="translate(0,0)" fill="rgb(0,0,0)" d="M 646.952 1049.24 C 657.833 1048.95 686.818 1046.58 695.294 1051.42 C 697.31 1054.59 697.002 1052.96 696.613 1056.41 C 694.227 1059.53 694.524 1058.6 689.751 1059.91 C 678.537 1060.39 647.044 1063.57 639.806 1057.73 C 638.496 1054.52 638.63 1056.12 639.362 1052.75 C 641.536 1050.26 643.698 1050.11 646.952 1049.24 z"/>
<path transform="translate(0,0)" fill="rgb(0,0,0)" d="M 1244.64 932.631 C 1252.95 933.224 1293.02 942.905 1296.75 949.845 C 1297.33 953.47 1296.41 955.191 1295.28 958.68 C 1287.68 956.828 1246.63 944.441 1243.33 941.199 C 1242.44 938.057 1243.61 935.839 1244.64 932.631 z"/>
<path transform="translate(0,0)" fill="rgb(0,0,0)" d="M 1243.71 947.93 C 1253.82 949.646 1289.2 957.252 1292.88 965.953 C 1292.77 969.631 1292.22 969.818 1290.11 972.824 C 1280.49 970.616 1270.47 967.221 1260.88 964.628 C 1255.11 963.07 1242.71 960.294 1240.09 955.159 C 1240.17 951.997 1241.78 950.529 1243.71 947.93 z"/>
<path transform="translate(0,0)" fill="rgb(0,0,0)" d="M 1240.47 964.046 C 1251.08 966.149 1281.54 972.378 1287.34 980.562 C 1288.16 984.044 1287.86 984.089 1286.62 987.354 L 1283.76 988.054 C 1272.31 985.636 1249 978.94 1238.13 973.557 C 1235.61 972.312 1235.56 970.617 1235.29 968.516 C 1237.59 964.74 1236.09 966.349 1240.47 964.046 z"/>
<path transform="translate(0,0)" fill="rgb(0,0,0)" d="M 648.892 1033.36 C 658.39 1033.17 690.361 1030.86 696.055 1036.49 C 697.383 1043.05 692.745 1043.79 687.887 1044.39 C 677.618 1044.66 648.574 1047.04 640.966 1041.99 C 639.63 1038.79 639.803 1040.49 641.189 1036.66 C 643.461 1034.05 645.448 1034.08 648.892 1033.36 z"/>
</svg>