<svg xmlns="http://www.w3.org/2000/svg" version="1.1" style="display: block;" viewBox="0 0 2048 2048" width="2048" height="2048" preserveAspectRatio="none">
<path transform="translate(0,0)" fill="rgb(198,201,202)" d="M 1407.54 333.186 C 1466.52 329.87 1488.52 386.207 1469.83 435.049 C 1458.78 463.934 1463.38 492.79 1435.83 514.878 C 1427.4 552.12 1415.32 593.652 1405.15 630.598 L 1380.28 723.932 L 1347.57 845.876 C 1343.15 862.081 1338.76 880.48 1333.84 896.261 C 1357.82 927.543 1346.53 946.472 1339.32 980.052 C 1377.52 982.512 1410.5 992.645 1441.15 1016.81 C 1477.33 1044.94 1501.47 1085.77 1508.68 1131.03 C 1510.63 1143.12 1510.33 1154 1511.4 1166 C 1512.4 1173.83 1515.62 1182.09 1516.69 1189.81 C 1523.43 1238.08 1535.13 1287.22 1502.39 1328.48 C 1503.23 1347.24 1504.15 1364.75 1503.75 1383.49 C 1503.15 1414.01 1501.44 1444.5 1498.61 1474.9 C 1492.53 1539.85 1480.89 1605.23 1429.66 1651.19 C 1354.21 1718.87 1231.44 1726.11 1135.56 1738.52 C 1046.56 1750.04 957.086 1757.47 868.29 1754.87 C 785.297 1752.43 699.148 1738.47 640.502 1674.55 C 564.665 1593.96 565.106 1467.68 568.572 1363.89 C 555.136 1345.75 545.366 1326 545.692 1302.2 C 546.281 1259.07 551.483 1202.08 568.979 1162.66 C 573.254 1153.03 583.388 1141.41 590.135 1134.17 C 595.392 1129.64 598.703 1127.52 604.5 1123.74 L 606.552 1102.28 C 605.923 1101.7 605.306 1101.1 604.701 1100.49 C 582.779 1078.31 594.722 1033.34 594.429 1005.42 C 594.335 996.443 591.746 990.696 591.753 978.659 C 544.119 937.67 503.115 871.001 536.626 808.021 C 546.575 789.322 560.921 779.152 578.725 768.534 C 584.374 746.341 596.892 730.96 618.383 722.528 C 618.092 698.493 619.588 671.937 620.357 647.887 C 621.594 602.37 623.178 556.864 625.11 511.372 C 610.869 486.597 615.283 460.296 615.43 433.162 C 615.718 404.202 611.839 380.651 633.378 357.969 C 658.397 331.624 698.84 331.848 724.497 356.984 C 745.004 377.075 743.365 404.928 742.698 431.45 C 742.204 451.066 743.67 471.387 740.82 490.795 C 739.54 499.356 729.651 511.387 729.527 519.7 C 728.737 572.759 725.408 626.17 724.959 679.182 C 743.94 670.68 765.141 662.681 784.809 655.763 C 823.998 641.98 855.057 622.48 893.489 648.88 C 982.421 628.453 1024.09 708.278 1021.24 785.991 C 1018.83 851.707 993.79 898.166 946.839 942.962 C 942.337 957.102 940.274 962.641 933.219 975.512 L 937.009 976.802 C 951.389 981.839 960.244 979.122 973.262 982.928 C 992.724 988.616 1007.48 1004.83 1016.49 1022.52 C 1059.44 1020.75 1102.43 1019.11 1145.36 1022.23 C 1155.91 1022.99 1166.5 1023.61 1177.05 1024.24 C 1176.76 1020.5 1175.61 1007.51 1176.23 1004.34 C 1179.58 987.17 1186.1 971.29 1190.91 954.352 C 1195.76 937.291 1198.9 914.158 1206.59 898.322 C 1210.16 890.985 1223.44 880.752 1229.78 876.173 C 1231.41 866.882 1237.32 847.318 1239.97 837.392 L 1261.46 757.424 L 1314.54 560.431 C 1320.86 536.887 1327.21 513.329 1333.98 489.835 C 1336.7 480.562 1331.88 470.336 1332.87 460.928 C 1335.09 439.823 1342.52 419.618 1347.58 399.091 C 1349.54 391.133 1351.88 383.582 1354.47 375.836 C 1362.76 351.13 1382.43 336.247 1407.54 333.186 z" />
<path transform="translate(0,0)" fill="rgb(254,254,254)" d="M 1234.73 883.377 C 1259.19 780.377 1291.81 674.671 1318.07 571.541 C 1323.08 552.266 1328.29 533.045 1333.7 513.88 C 1336.22 504.745 1338.98 495.439 1341.05 485.802 C 1341.95 481.602 1338.45 467.513 1338.99 463.522 C 1342.88 434.256 1353.95 397.898 1363.75 369.863 C 1366.18 364.287 1369.77 359.707 1374.05 355.404 C 1409.98 319.253 1474.6 347.815 1470.05 399.489 C 1467.41 429.386 1455.95 464.589 1445.74 492.831 C 1443.57 498.828 1435.35 506.738 1430.65 511.246 C 1404.47 603.879 1381.52 698.952 1355.3 791.721 C 1345.53 826.325 1337.7 863.145 1326.85 897.231 C 1350.76 929.468 1341.2 950.882 1331.16 986.544 C 1373.26 986.908 1409.49 998.245 1442.35 1025.63 C 1474.17 1052.61 1495.43 1089.97 1502.37 1131.12 C 1503.57 1138.49 1503.83 1145.09 1504.5 1152.47 C 1509.52 1207.29 1536.14 1277.84 1496.17 1325.53 C 1497.63 1355.19 1498.78 1380.83 1496.79 1410.78 C 1491.92 1491.66 1489.72 1590.64 1423.09 1648.48 C 1351.04 1711.03 1230.06 1720.24 1139.3 1731.59 C 1045.46 1743.32 949.51 1752.24 855.653 1747.88 C 776.192 1744.19 696.716 1729.27 642.007 1666.58 C 571.88 1589.62 569.726 1459.9 575.276 1360.69 C 544.701 1330.71 551.147 1286.44 555.578 1247.99 C 561.1 1200.07 566.993 1154.75 610.765 1126.92 C 611.15 1118.98 612.367 1109.16 613.138 1101.11 C 587.735 1075.03 600.95 1040.17 600.486 1007.28 C 600.335 996.579 598.181 989.338 598.33 976.492 C 583.215 962.314 573.545 954.728 560.788 937.044 C 540.562 909.006 526.39 875.737 531.798 840.699 C 535.402 818.122 547.714 797.858 566.092 784.258 C 571.999 779.853 577.405 777.463 583.108 773.251 L 583.881 772.67 C 589.775 748.988 602.117 735.681 624.264 726.297 C 623.908 672.064 629.211 615.663 629.158 561.601 C 629.122 524.537 636.426 521.784 622.331 487.365 C 619.095 479.461 621.154 401.948 623.106 391.044 C 624.347 383.769 627.069 376.827 631.104 370.648 C 639.077 358.406 653.175 347.644 667.393 345.678 C 724.313 338.594 741.168 381.338 736.811 430.081 C 733.852 463.178 744.728 480.877 722.963 512.171 C 723.126 568.742 720.471 631.544 718.33 688.382 C 725.759 685.007 733.055 682.12 740.672 679.206 C 772.163 667.16 803.39 654.649 835.509 644.341 C 849.017 641.132 859.917 640.573 873.342 644.959 C 880.715 648.188 885.711 650.387 891.682 655.77 C 926.329 646.89 956.945 651.975 982.544 678.982 C 1007.65 705.468 1016.99 752.237 1015.52 787.554 C 1012.91 849.821 986.111 897.474 940.826 939.043 C 938.6 953.123 931.141 965.943 924.698 978.589 C 933.261 981.345 936.063 982.619 944.174 986.812 C 977.883 984.548 998.986 998.292 1012.48 1029.09 C 1033.51 1028.53 1054.36 1027.26 1075.44 1026.92 C 1113.28 1026.3 1149.45 1028.43 1187.11 1031.49 C 1186.45 1029.84 1185.81 1028.17 1185.2 1026.5 C 1176.82 1003.24 1192.1 975.274 1198.14 952.96 C 1205.12 927.228 1204.53 893.289 1234.73 883.377 z" />
<path transform="translate(0,0)" fill="rgb(237,234,227)" d="M 835.509 644.341 C 849.017 641.132 859.917 640.573 873.342 644.959 C 867.502 645.801 854.068 642.711 846.305 645.499 C 844.531 646.136 841.987 646.33 840.068 646.376 C 837.987 644.993 837.881 645.042 835.509 644.341 z" />
<path transform="translate(0,0)" fill="rgb(2,3,3)" d="M 673.136 494.054 C 665.666 487.431 663.065 481.153 662.764 471.108 C 662.433 455.603 663.114 438.911 663.545 423.493 C 663.938 409.424 659.279 385.53 680.183 386.471 C 694.574 387.118 695.511 400.18 695.453 411.356 C 695.343 432.43 695.646 453.054 694.67 474.041 C 694.097 485.158 692.42 489.125 683.008 494.978 L 674.821 752.258 C 717.312 733.981 760.34 716.978 803.847 701.271 C 819.276 695.601 835.332 689.085 851.258 685.231 C 864.541 682.016 871.054 700.434 875.169 709.508 C 885.337 703.684 895.412 698.015 907.07 695.677 C 965.568 683.948 976.481 756.456 972.067 798.051 C 967.496 841.136 942.293 887.501 905.516 911.34 C 898.614 939.33 890.134 959.301 870.01 980.32 C 890.513 1046 906.75 1002.86 939.749 1035.07 C 945.682 1031.91 948.603 1031.15 955.042 1029.61 C 974.984 1036.78 975.749 1056.26 984.813 1073.48 C 1058.71 1067.85 1151.3 1066.14 1224.82 1077.26 C 1231.05 1050.8 1237.02 1042.57 1262.52 1033.13 C 1251.27 1029.48 1229.13 1023.78 1223.16 1014.19 L 1223.13 1012.51 C 1231.09 1008.07 1270.69 1021.99 1276.46 1029.49 C 1276.78 1031.83 1276.31 1035.78 1274.61 1036.94 C 1251.33 1052.93 1244.6 1047.48 1235.46 1077.89 C 1310.66 986.135 1444.72 1031.34 1461.14 1144.41 C 1462.39 1152.99 1461.28 1162.37 1462.6 1170.91 C 1468.43 1208.69 1493.41 1283.53 1452.7 1307.16 C 1456.02 1361.52 1456.11 1407.91 1451.21 1462.35 C 1444.99 1544.72 1428.78 1614.93 1343.64 1647.96 C 1271.92 1675.79 1196.55 1682.3 1120.46 1691.32 C 1046.29 1700.11 972.438 1707.13 897.564 1706.19 C 826.916 1705.3 742.917 1702.61 687.828 1652.17 C 627.662 1597 620.295 1522.58 616.919 1445.96 C 615.592 1415.86 615.901 1370.3 619.162 1339.78 C 608.623 1334.85 601.995 1329.1 597.794 1317.84 C 588.312 1292.43 602.125 1209.41 613.811 1185.3 C 621.845 1168.72 634.086 1161.89 649.941 1154.23 C 650.476 1139.96 651.462 1124.43 653.793 1110.28 C 656.46 1094.09 668.436 1086.78 681.643 1079.08 C 671.397 1077.96 647.325 1076.94 640.502 1070.03 L 640.328 1068.16 C 647.182 1061.13 688.175 1066.47 695.255 1071.47 C 702.375 1086.39 669.387 1093.27 665.677 1108.21 C 662.212 1122.16 661.55 1135.44 660.488 1149.68 C 700.465 1133.83 741.311 1120.26 782.828 1109.04 C 783.978 1095.42 790.069 1092.98 801.796 1088.44 C 802.043 1050.56 847.412 1059.76 815.875 1002.19 C 789.042 999.716 766.565 992.814 744.561 976.284 C 727.496 978.946 711.558 975.796 694.62 975.154 C 693.489 975.112 687.286 978.986 684.879 979.767 C 676.517 981.912 667.33 978.469 661.096 981.928 C 654.668 982.038 647.189 981.876 640.937 983.027 C 639.557 978.288 636.254 975.525 639.447 969.754 C 642.879 967.917 641.108 968.255 644.941 968.654 C 656.742 967.817 664.106 968.528 675.814 969.555 C 659.302 963.232 650.571 958.302 635.003 949.474 C 625.249 949.131 624.79 949.695 622.44 942.412 C 620.007 940.65 617.968 939.174 616.324 937.984 L 616.666 939.414 C 611.795 939.041 618.103 938.917 612.146 935.741 C 613.176 934.512 613.477 933.929 614.157 932.512 C 594.884 913.756 573.591 886.584 573.422 858.456 C 573.199 821.197 601.895 810.192 631.304 802.475 C 623.915 780.775 623.383 771.861 647.191 763.159 C 652.857 761.089 659.222 758.518 664.852 756.251 C 666.757 669.665 672.121 579.992 673.136 494.054 z" />
<path transform="translate(0,0)" fill="rgb(237,234,227)" d="M 640.937 983.027 C 639.557 978.288 636.254 975.525 639.447 969.754 C 642.879 967.917 641.108 968.255 644.941 968.654 C 641.502 971.954 641.8 970.755 640.615 974.781 C 644.85 982.61 674.503 977.479 684.879 979.767 C 676.517 981.912 667.33 978.469 661.096 981.928 C 654.668 982.038 647.189 981.876 640.937 983.027 z" />
<path transform="translate(0,0)" fill="rgb(237,234,227)" d="M 614.157 932.512 C 620.974 938.326 627.925 943.982 635.003 949.474 C 625.249 949.131 624.79 949.695 622.44 942.412 C 620.007 940.65 617.968 939.174 616.324 937.984 L 616.666 939.414 C 611.795 939.041 618.103 938.917 612.146 935.741 C 613.176 934.512 613.477 933.929 614.157 932.512 z" />
<path transform="translate(0,0)" fill="rgb(237,234,227)" d="M 807.871 1273.72 C 948.506 1241.88 1093.52 1234.13 1236.75 1250.8 C 1240.96 1256 1246.62 1261.31 1251.45 1266.08 L 1257.86 1271.37 C 1301.97 1301.38 1344.51 1306.05 1393.03 1282.3 C 1396.87 1279.75 1397.27 1279.11 1402.72 1280.44 C 1415.55 1283.57 1428.99 1288.16 1441.56 1292.32 C 1446.54 1357.77 1447.05 1420.64 1438.87 1485.86 C 1433.79 1526.34 1427.1 1567.56 1399.43 1599.49 C 1394.31 1605.39 1383.43 1615.92 1375.92 1618.23 C 1315.23 1662.89 1200.17 1672.63 1126.46 1681.15 C 1030.44 1692.25 929.654 1702.64 833.236 1694.85 C 776.703 1690.29 715.782 1674.44 679.111 1628.15 C 666.072 1611.96 650.327 1584.92 644.153 1564.98 C 623.73 1499.01 623.354 1398.87 630.358 1330.63 C 691.731 1308.32 732.204 1291.39 797.467 1276.17 C 798.99 1272.16 798.234 1272.27 801.107 1270.07 C 804.143 1270.25 805.444 1271.79 807.871 1273.72 z" />
<path transform="translate(0,0)" fill="rgb(198,201,202)" d="M 807.871 1273.72 C 948.506 1241.88 1093.52 1234.13 1236.75 1250.8 C 1240.96 1256 1246.62 1261.31 1251.45 1266.08 L 1257.86 1271.37 C 1301.97 1301.38 1344.51 1306.05 1393.03 1282.3 C 1392.79 1288.86 1386.21 1290.13 1380.95 1293.29 C 1329.17 1324.38 1262.4 1314.11 1219.3 1274.4 C 1195.17 1270.12 1157.2 1269.56 1132.33 1269.25 C 1017.82 1268.12 903.48 1278.47 791.031 1300.13 C 770.139 1304.32 748.796 1309.7 728.116 1314.96 C 717.248 1317.73 706.054 1322.07 695.136 1324.6 C 693.853 1349.59 691.875 1375.24 692.282 1399.54 C 693.831 1492.15 715.014 1597.62 813.491 1632.72 C 867.738 1652.06 933.213 1654.33 990.395 1658.7 C 1038.03 1662.33 1081.96 1654.09 1128.78 1649.2 L 1226.12 1639.2 C 1264.08 1635.55 1295.83 1633.24 1333.29 1622.98 C 1344.43 1619.93 1362.82 1620.53 1375.92 1618.23 C 1315.23 1662.89 1200.17 1672.63 1126.46 1681.15 C 1030.44 1692.25 929.654 1702.64 833.236 1694.85 C 776.703 1690.29 715.782 1674.44 679.111 1628.15 C 666.072 1611.96 650.327 1584.92 644.153 1564.98 C 623.73 1499.01 623.354 1398.87 630.358 1330.63 C 691.731 1308.32 732.204 1291.39 797.467 1276.17 C 798.99 1272.16 798.234 1272.27 801.107 1270.07 C 804.143 1270.25 805.444 1271.79 807.871 1273.72 z" />
<path transform="translate(0,0)" fill="rgb(186,198,204)" d="M 1251.45 1266.08 L 1257.86 1271.37 L 1257.4 1274.35 L 1255.23 1275.18 C 1251.42 1274.07 1253.09 1275.02 1250.19 1271.98 C 1249.58 1268.24 1249.51 1270.18 1251.45 1266.08 z" />
<path transform="translate(0,0)" fill="rgb(12,9,15)" d="M 797.467 1276.17 C 798.99 1272.16 798.234 1272.27 801.107 1270.07 C 804.143 1270.25 805.444 1271.79 807.871 1273.72 L 797.467 1276.17 z" />
<path transform="translate(0,0)" fill="rgb(186,198,204)" d="M 682.112 1614.27 L 684.707 1615.42 C 686.4 1618.71 685.544 1619.17 685.008 1623.7 L 683.388 1623.74 C 681.418 1621.16 682.054 1617.77 682.112 1614.27 z" />
<path transform="translate(0,0)" fill="rgb(2,3,3)" d="M 1055.98 1464.33 C 1052.86 1484.6 1048.52 1501.11 1038.88 1519.36 C 1021.03 1553.78 990.044 1579.55 952.943 1590.82 C 829.041 1627.79 756.822 1483.77 810.545 1384.06 C 845.053 1320.01 927.425 1289.68 992.269 1326.77 C 1030.36 1348.56 1046.52 1386.03 1057.42 1426.31 C 1062.95 1426.2 1070.2 1426.18 1075.63 1425.24 C 1112.57 1418.92 1153.3 1417.87 1190.63 1415.85 C 1191.38 1412.52 1192.16 1409.2 1192.98 1405.89 C 1206.28 1352.93 1255.64 1316.45 1311.98 1328.42 C 1333.48 1332.99 1357.12 1352.21 1368.02 1371.23 C 1383.45 1398.17 1385.23 1432.8 1377.03 1462.65 C 1374.28 1473.64 1368.57 1487.08 1361.5 1495.93 C 1351.84 1513.11 1322.29 1530.96 1303.82 1536.64 C 1283.28 1542.95 1259.85 1542.89 1240.66 1532.53 C 1210.67 1516.34 1200.09 1490 1190.33 1459.83 C 1156.33 1459.52 1122.94 1463.77 1089.09 1462.51 C 1078.09 1462.1 1066.82 1462.16 1055.98 1464.33 z" />
<path transform="translate(0,0)" fill="rgb(56,56,56)" d="M 926.061 1320.4 C 950.8 1318.04 981.381 1327.26 1000.47 1343.22 C 1087.82 1416.28 1048.34 1576.46 929.25 1584.96 C 908.444 1585.77 887.582 1586.22 869.072 1575.55 C 759.313 1512.29 794.503 1330.47 926.061 1320.4 z" />
<path transform="translate(0,0)" fill="rgb(2,3,3)" d="M 859.701 1358.17 C 899.773 1326.37 950.293 1318.94 993.469 1350.96 C 1059.94 1400.01 1057.14 1504.76 993.672 1554.59 C 948.124 1590.35 878.493 1587.46 842.237 1539.56 C 800.359 1484.22 810.39 1418.72 851.343 1366.34 L 859.701 1358.17 z" />
<path transform="translate(0,0)" fill="rgb(56,56,56)" d="M 983.278 1442 C 974.451 1430.09 967.364 1406.96 952.572 1403.01 C 937.254 1398.91 906.515 1398.8 916.641 1374.06 C 919.971 1365.93 925.349 1362.96 933.541 1360.38 C 966.29 1350.02 989.218 1374.96 998.646 1403.36 C 1004.04 1413.82 1006.73 1427.91 1003.2 1439.18 C 999.256 1451.78 990.854 1450.29 983.278 1442 z" />
<path transform="translate(0,0)" fill="rgb(237,234,227)" d="M 979.499 1405.88 C 982.878 1394.69 991.486 1396.01 998.646 1403.36 C 1004.04 1413.82 1006.73 1427.91 1003.2 1439.18 C 999.256 1451.78 990.854 1450.29 983.278 1442 C 982.44 1435.66 981.274 1429.55 980.12 1423.27 C 977.993 1416.18 978.237 1413.16 979.499 1405.88 z" />
<path transform="translate(0,0)" fill="rgb(254,254,254)" d="M 979.499 1405.88 C 983.09 1410.13 982.165 1418.51 980.12 1423.27 C 977.993 1416.18 978.237 1413.16 979.499 1405.88 z" />
<path transform="translate(0,0)" fill="rgb(56,56,56)" d="M 858.295 1492.73 C 863.706 1493.04 865.348 1494.13 870.203 1496.3 C 897.399 1534.62 918.568 1527.1 960.48 1521.47 C 964.966 1520.87 973.898 1520.92 977.388 1523.98 C 980.384 1532.58 971.303 1540.34 965.152 1544.86 C 952.754 1554.28 940.958 1558.36 923.869 1558.6 C 894.923 1559.01 854.865 1539.52 851.924 1507.12 C 851.399 1501.35 854.209 1496.81 858.295 1492.73 z" />
<path transform="translate(0,0)" fill="rgb(63,53,38)" d="M 851.343 1366.34 C 847.246 1366.63 847.851 1367.24 845.013 1365.49 C 845.942 1361.22 853.939 1360.34 858.53 1356.69 L 859.701 1358.17 L 851.343 1366.34 z" />
<path transform="translate(0,0)" fill="rgb(56,56,56)" d="M 1186.07 1422.49 L 1187.2 1422.45 C 1188.55 1424.81 1187.81 1446.96 1187.85 1451.76 C 1156 1452.37 1124.14 1452.75 1092.28 1452.9 C 1090.09 1449.35 1092.38 1433.66 1093.05 1429.13 C 1102.48 1428.64 1113.93 1429.33 1123.19 1428.21 C 1145.09 1425.55 1163.94 1423.32 1186.07 1422.49 z" />
<path transform="translate(0,0)" fill="rgb(56,56,56)" d="M 1309.45 1411.34 C 1309.42 1411.25 1309.4 1411.17 1309.37 1411.08 C 1303.16 1380.45 1275.03 1388.67 1268.8 1381.91 C 1262.96 1357.56 1317.79 1353.05 1325.94 1391.02 C 1332.3 1397.79 1335.3 1402.95 1335.12 1412.77 C 1334.89 1425.03 1322.19 1434.27 1313.6 1422.15 C 1311.79 1419.59 1310.42 1414.52 1309.45 1411.34 z" />
<path transform="translate(0,0)" fill="rgb(237,234,227)" d="M 1309.45 1411.34 C 1310.29 1398.63 1311.59 1391.24 1325.94 1391.02 C 1332.3 1397.79 1335.3 1402.95 1335.12 1412.77 C 1334.89 1425.03 1322.19 1434.27 1313.6 1422.15 C 1311.79 1419.59 1310.42 1414.52 1309.45 1411.34 z" />
<path transform="translate(0,0)" fill="rgb(56,56,56)" d="M 1240.82 1466.58 C 1252.15 1470.62 1254.12 1478.73 1265.5 1482.06 C 1276.54 1485.28 1313.32 1473.02 1317.48 1486.56 C 1316.27 1491.9 1312.29 1495.24 1308.06 1498.43 C 1279.64 1517.56 1218.39 1490.95 1240.82 1466.58 z" />
<path transform="translate(0,0)" fill="rgb(56,56,56)" d="M 1057.35 1432.14 C 1065.74 1432.27 1075.09 1431.96 1083.56 1431.87 C 1083.77 1433.86 1083.96 1435.85 1084.14 1437.84 C 1084.64 1443.5 1086.19 1451.76 1082.8 1455.81 L 1057.31 1457.4 C 1057.45 1448.98 1057.47 1440.56 1057.35 1432.14 z" />
<path transform="translate(0,0)" fill="rgb(2,3,3)" d="M 1171.75 1533.28 C 1174.77 1533.62 1174.59 1533.55 1177.27 1534.96 C 1182.4 1542.32 1175.09 1554.99 1169.88 1560.39 C 1141.02 1590.34 1104.6 1582.6 1077.42 1558.51 C 1073.03 1553.22 1072.5 1552.66 1072.74 1545.8 C 1077.91 1536.79 1090.88 1554.46 1096 1557.85 C 1117.62 1572.16 1150.67 1571.09 1164.67 1546.8 C 1167.48 1541.93 1168.16 1538.25 1171.75 1533.28 z" />
<path transform="translate(0,0)" fill="rgb(247,194,65)" d="M 736.834 1133.03 C 746.01 1129.61 762.975 1124.81 772.658 1122.03 C 909.007 1082.8 1067.72 1070.21 1208.11 1085.15 C 1214.19 1085.77 1221.85 1086.34 1227.75 1087.39 C 1218.82 1102.62 1214.22 1112.55 1209.68 1129.81 C 1208.79 1134 1207.85 1139.24 1206.8 1143.3 C 1205.85 1162.85 1205.29 1173.64 1209.15 1192.99 C 1214.53 1214.19 1218.16 1221.73 1229.42 1240.11 C 1218.17 1238.49 1189.91 1236.87 1181.69 1235.05 C 1176.21 1235.13 1165.51 1234.05 1159.67 1233.64 C 1107.7 1231.68 1066.09 1231.17 1013.74 1234.63 C 969.6 1237.54 931.88 1243.01 888.638 1248.15 C 863.151 1253.56 836.593 1257 810.302 1262.81 C 796.087 1265.95 769.32 1273.9 757.188 1275.86 C 752.072 1276.44 739.555 1274.51 734.694 1272.75 C 723.611 1268.74 716.969 1256.31 712.606 1245.9 L 714.121 1245.81 L 713.956 1245.28 C 704.083 1236.17 710.219 1193.3 715.326 1181.2 C 716.104 1163.51 727.028 1146.63 736.834 1133.03 z" />
<path transform="translate(0,0)" fill="rgb(250,105,44)" d="M 736.834 1133.03 C 746.01 1129.61 762.975 1124.81 772.658 1122.03 C 909.007 1082.8 1067.72 1070.21 1208.11 1085.15 C 1214.19 1085.77 1221.85 1086.34 1227.75 1087.39 C 1218.82 1102.62 1214.22 1112.55 1209.68 1129.81 C 1203.58 1128.24 1192.71 1129.07 1184.99 1127.07 L 1184.25 1127.17 C 1048.27 1117.69 911.208 1133.1 778.631 1163.96 C 758.481 1168.66 735.454 1175.65 715.326 1181.2 C 716.104 1163.51 727.028 1146.63 736.834 1133.03 z" />
<path transform="translate(0,0)" fill="rgb(221,75,26)" d="M 1208.11 1085.15 C 1214.19 1085.77 1221.85 1086.34 1227.75 1087.39 C 1218.82 1102.62 1214.22 1112.55 1209.68 1129.81 C 1203.58 1128.24 1192.71 1129.07 1184.99 1127.07 C 1188.64 1114.98 1196.93 1099.51 1205.24 1089.8 C 1207.01 1087.73 1207.43 1087.99 1208.11 1085.15 z" />
<path transform="translate(0,0)" fill="rgb(250,105,44)" d="M 713.956 1245.28 C 741.773 1235.56 783.188 1226.09 812.109 1219.76 C 915.896 1196.87 1021.99 1186.11 1128.26 1187.7 C 1145.01 1187.89 1161.57 1189.45 1178.34 1190 L 1178.97 1190.23 C 1182.5 1190.49 1188.35 1191.12 1191.68 1190.92 C 1197.51 1191.56 1203.34 1192.25 1209.15 1192.99 C 1214.53 1214.19 1218.16 1221.73 1229.42 1240.11 C 1218.17 1238.49 1189.91 1236.87 1181.69 1235.05 C 1176.21 1235.13 1165.51 1234.05 1159.67 1233.64 C 1107.7 1231.68 1066.09 1231.17 1013.74 1234.63 C 969.6 1237.54 931.88 1243.01 888.638 1248.15 C 863.151 1253.56 836.593 1257 810.302 1262.81 C 796.087 1265.95 769.32 1273.9 757.188 1275.86 C 752.072 1276.44 739.555 1274.51 734.694 1272.75 C 723.611 1268.74 716.969 1256.31 712.606 1245.9 L 714.121 1245.81 L 713.956 1245.28 z" />
<path transform="translate(0,0)" fill="rgb(221,75,26)" d="M 1178.97 1190.23 C 1182.5 1190.49 1188.35 1191.12 1191.68 1190.92 C 1197.51 1191.56 1203.34 1192.25 1209.15 1192.99 C 1214.53 1214.19 1218.16 1221.73 1229.42 1240.11 C 1218.17 1238.49 1189.91 1236.87 1181.69 1235.05 C 1185.54 1234.79 1188.19 1235.46 1191.96 1234.45 C 1188.25 1227.81 1180.21 1201.09 1178.97 1193.34 L 1178.97 1190.23 z" />
<path transform="translate(0,0)" fill="rgb(245,121,65)" d="M 713.956 1245.28 C 741.773 1235.56 783.188 1226.09 812.109 1219.76 C 915.896 1196.87 1021.99 1186.11 1128.26 1187.7 C 1145.01 1187.89 1161.57 1189.45 1178.34 1190 L 1178.97 1190.23 L 1178.97 1193.34 C 1066.62 1186.69 953.871 1194.28 843.42 1215.92 C 820.652 1220.54 797.958 1225.01 775.697 1231.71 C 773.083 1232.5 764.403 1233.4 761.151 1233.96 C 751.531 1235.61 721.441 1248.01 714.121 1245.81 L 713.956 1245.28 z" />
<path transform="translate(0,0)" fill="rgb(245,121,65)" d="M 888.638 1248.15 C 894.945 1241.06 956.991 1235.98 970.572 1234.56 C 976.054 1233.98 991.157 1231.76 996.704 1231.66 C 1050.5 1230.67 1105.65 1226.98 1159.32 1231.68 L 1159.67 1233.64 C 1107.7 1231.68 1066.09 1231.17 1013.74 1234.63 C 969.6 1237.54 931.88 1243.01 888.638 1248.15 z" />
<path transform="translate(0,0)" fill="rgb(218,147,31)" d="M 1184.99 1127.07 C 1192.71 1129.07 1203.58 1128.24 1209.68 1129.81 C 1208.79 1134 1207.85 1139.24 1206.8 1143.3 C 1205.85 1162.85 1205.29 1173.64 1209.15 1192.99 C 1203.34 1192.25 1197.51 1191.56 1191.68 1190.92 C 1188.35 1191.12 1182.5 1190.49 1178.97 1190.23 L 1178.34 1190 C 1179.19 1184.94 1177.3 1166 1177.96 1158.11 C 1178.52 1151.41 1184.46 1130.26 1184.25 1127.17 L 1184.99 1127.07 z" />
<path transform="translate(0,0)" fill="rgb(232,162,57)" d="M 1191.68 1190.92 C 1195.34 1189.55 1198.67 1189.7 1202.76 1188.14 C 1203.82 1183.94 1201.99 1172.1 1201.89 1166.85 C 1201.7 1157.6 1202.35 1153.02 1204.79 1143.84 L 1206.8 1143.3 C 1205.85 1162.85 1205.29 1173.64 1209.15 1192.99 C 1203.34 1192.25 1197.51 1191.56 1191.68 1190.92 z" />
<path transform="translate(0,0)" fill="rgb(198,201,202)" d="M 839.879 698.379 C 844.102 696.003 849.257 693.784 854.176 694.26 C 869.481 704.148 889.04 780.664 893.607 800.436 C 901.831 836.031 905.162 890.647 891.593 924.24 C 890.673 927.121 889.79 930.343 888.494 933.018 C 879.235 957.73 868.121 972.671 845.427 986.016 C 834.09 991.832 820.752 993.757 807.947 991.779 C 719.776 978.161 669.759 884.291 642.94 807.627 C 640.158 799.675 635.278 788.378 636.093 780.552 C 638.423 775.72 651.347 771.714 656.921 769.539 C 666.751 766.089 681.21 759.666 691.222 755.542 C 715.5 745.292 739.945 735.444 764.549 726.003 C 786.653 718.931 817.284 706.553 839.879 698.379 z" />
<path transform="translate(0,0)" fill="rgb(154,163,170)" d="M 845.427 986.016 C 834.09 991.832 820.752 993.757 807.947 991.779 C 719.776 978.161 669.759 884.291 642.94 807.627 C 640.158 799.675 635.278 788.378 636.093 780.552 C 638.423 775.72 651.347 771.714 656.921 769.539 C 683.14 853.388 735.873 957.144 827.086 981.543 C 832.976 983.119 839.986 983.817 845.427 986.016 z" />
<path transform="translate(0,0)" fill="rgb(254,254,254)" d="M 764.549 726.003 C 786.653 718.931 817.284 706.553 839.879 698.379 L 836.904 701.98 C 837.552 704.977 838.547 706.012 840.275 708.505 C 837.128 714.944 770.351 737.827 763.393 733.775 L 763.283 732.291 L 766.532 729.335 C 766.198 726.818 766.643 728.001 764.549 726.003 z" />
<path transform="translate(0,0)" fill="rgb(247,194,65)" d="M 751.128 820.417 C 756.19 767.401 754.056 758.179 797.484 802.572 C 808.227 800.189 834.141 792.434 842.204 797.359 C 845.211 802.123 844.233 805.705 842.018 810.758 C 837.534 820.991 832.813 831.127 828.31 841.355 C 856.682 891.675 857.678 889.334 800.858 883.179 C 795.724 889.766 790.259 895.557 784.619 901.681 C 770.005 917.725 762.445 919.754 758.601 894.97 C 757.271 886.391 755.895 877.34 754.007 868.858 C 743.187 864.213 723.901 857.76 715.949 849.417 C 710.831 844.048 718.44 838.804 722.755 836.106 C 732.128 830.725 741.587 825.494 751.128 820.417 z" />
<path transform="translate(0,0)" fill="rgb(2,3,3)" d="M 751.128 820.417 C 756.19 767.401 754.056 758.179 797.484 802.572 C 808.227 800.189 834.141 792.434 842.204 797.359 C 845.211 802.123 844.233 805.705 842.018 810.758 C 837.534 820.991 832.813 831.127 828.31 841.355 C 856.682 891.675 857.678 889.334 800.858 883.179 C 795.724 889.766 790.259 895.557 784.619 901.681 C 779.372 898.125 780.636 898.427 781.384 892.234 C 786.956 886.163 792.079 880.563 798.06 874.854 C 807.609 875.013 830.785 879.273 837.66 876.971 C 838.064 874.368 837.558 874.793 835.474 871.855 C 830.079 861.968 824.388 851.89 819.528 841.756 C 823.471 829.972 831.277 814.407 836.684 803.084 C 823.467 805.349 806.309 810.045 794.021 811.363 C 791.079 808.316 788.098 805.587 785.002 802.708 C 779.157 796.351 770.195 787.443 763.369 782.305 C 759.913 823.388 767.152 821.603 730.695 841.318 L 724.82 844.562 L 726.324 841.337 C 725.882 838.273 725.482 838.816 722.755 836.106 C 732.128 830.725 741.587 825.494 751.128 820.417 z" />
<path transform="translate(0,0)" fill="rgb(218,147,31)" d="M 754.007 868.858 C 743.187 864.213 723.901 857.76 715.949 849.417 C 710.831 844.048 718.44 838.804 722.755 836.106 C 725.482 838.816 725.882 838.273 726.324 841.337 L 724.82 844.562 L 730.695 841.318 C 739.186 843.244 758.72 852.696 767.413 856.737 C 769.822 868.897 771.512 881.189 772.474 893.548 C 779.148 884.727 788.864 874.674 797.123 867.247 C 806.593 867.953 825.796 869.158 833.841 872.219 L 835.474 871.855 C 837.558 874.793 838.064 874.368 837.66 876.971 C 830.785 879.273 807.609 875.013 798.06 874.854 C 792.079 880.563 786.956 886.163 781.384 892.234 C 780.636 898.427 779.372 898.125 784.619 901.681 C 770.005 917.725 762.445 919.754 758.601 894.97 C 757.271 886.391 755.895 877.34 754.007 868.858 z" />
<path transform="translate(0,0)" fill="rgb(2,3,3)" d="M 754.007 868.858 C 743.187 864.213 723.901 857.76 715.949 849.417 C 710.831 844.048 718.44 838.804 722.755 836.106 C 725.482 838.816 725.882 838.273 726.324 841.337 L 724.82 844.562 L 724.209 845.806 C 734.907 852.662 750.872 857.733 761.057 863.665 C 764.687 875.119 767.222 894.137 769.013 906.387 L 781.384 892.234 C 780.636 898.427 779.372 898.125 784.619 901.681 C 770.005 917.725 762.445 919.754 758.601 894.97 C 757.271 886.391 755.895 877.34 754.007 868.858 z" />
<path transform="translate(0,0)" fill="rgb(248,225,177)" d="M 794.021 811.363 C 793.541 811.472 793.06 811.581 792.579 811.689 C 782.63 820.5 778.057 809.908 771.887 803.372 C 770.214 801.601 769.017 799.613 769.381 796.373 L 771.204 796.103 C 777.85 798.332 778.842 802.197 785.002 802.708 C 788.098 805.587 791.079 808.316 794.021 811.363 z" />
<path transform="translate(0,0)" fill="rgb(248,225,177)" d="M 816.314 811.472 C 818.79 811.121 818.755 810.91 820.965 811.955 C 822.119 815.205 822.171 813.671 821.097 816.712 C 815.784 821.125 806.313 821.115 799.243 821.81 C 795.905 821.377 795.744 821.567 792.847 819.655 C 792.585 812.93 810.96 811.767 816.314 811.472 z" />
<path transform="translate(0,0)" fill="rgb(254,254,254)" d="M 841.435 717.682 C 842.527 717.606 844.428 717.487 845.403 718.128 C 863.44 729.986 899.627 854.63 872.551 859.977 C 865.375 850.618 856.895 799.792 850.544 783.484 C 845.477 770.476 831.264 737.144 830.128 725.705 C 832.113 721.881 837.294 719.899 841.435 717.682 z" />
<path transform="translate(0,0)" fill="rgb(254,254,254)" d="M 874.381 873.778 C 887.268 877.547 884.941 888.628 875.8 895.221 C 861.553 891.834 864.716 880.591 874.381 873.778 z" />
<path transform="translate(0,0)" fill="rgb(247,194,65)" d="M 1282.77 1050.6 C 1307.64 1038.05 1336.25 1035.09 1363.17 1042.27 C 1387.59 1048.83 1408.27 1061.64 1424.09 1081.63 C 1445.6 1108.28 1455.64 1142.37 1452.02 1176.42 C 1451.94 1177.13 1451.85 1177.84 1451.75 1178.54 C 1447.64 1206.5 1434.51 1237.32 1412.5 1255.72 C 1400.97 1270.25 1373.11 1281.54 1355.41 1285.39 C 1338.11 1289.15 1303.13 1287.77 1287.95 1277.81 C 1272.08 1272.37 1255.23 1257.47 1244.43 1244.97 C 1231.74 1231.16 1223.01 1210.62 1219.06 1192.43 C 1213.54 1175.45 1215.16 1152.55 1218.41 1135.29 C 1222.6 1117.2 1227.18 1104.79 1238.22 1089.78 C 1240.88 1091.46 1241.61 1091.61 1243.7 1093.92 L 1242.96 1094.69 L 1245.1 1095.39 L 1243.87 1095.4 L 1245.09 1095.71 L 1245.47 1094 C 1246.7 1093.92 1247.44 1093.73 1248.56 1094 L 1251 1091.69 C 1255.98 1084.42 1269.77 1070.82 1277.92 1067.41 C 1283.26 1062.83 1296.11 1057.83 1303.07 1054.87 C 1298.88 1053.76 1296 1053.86 1291.59 1052.99 L 1291.84 1050.55 C 1287.66 1050.2 1288.52 1052.14 1282.77 1050.6 z" />
<path transform="translate(0,0)" fill="rgb(218,147,31)" d="M 1218.41 1135.29 C 1222.6 1117.2 1227.18 1104.79 1238.22 1089.78 C 1240.88 1091.46 1241.61 1091.61 1243.7 1093.92 L 1242.96 1094.69 L 1245.1 1095.39 L 1243.87 1095.4 L 1245.09 1095.71 L 1245.47 1094 C 1246.7 1093.92 1247.44 1093.73 1248.56 1094 L 1251 1091.69 L 1252.53 1093.41 C 1253.44 1092.53 1254.11 1091.9 1255.07 1091.05 L 1256.21 1091.49 L 1256.17 1093.52 C 1254.17 1094.77 1255.12 1094.26 1253.34 1095.12 C 1252.42 1097.76 1251.47 1100.16 1250.95 1102.91 C 1253.57 1107.77 1256.09 1112.69 1258.53 1117.65 C 1253.24 1117.47 1247.5 1116.5 1243.39 1119.61 C 1242.39 1120.8 1241.75 1121.58 1240.66 1122.71 C 1238.49 1121.9 1239.5 1122.2 1237.62 1121.78 C 1234.54 1127.2 1237.09 1131.44 1235.24 1134.6 C 1233.95 1168.4 1238.14 1190.37 1260.03 1217.18 C 1264.7 1222.9 1271.44 1228.5 1270.45 1235.88 C 1268.63 1240.36 1268.43 1238.41 1269.94 1242 L 1275.48 1246.13 C 1281.51 1249.41 1283.24 1249.37 1290.11 1249.22 C 1291.86 1249.82 1298 1251.95 1299.88 1252.59 C 1301.58 1253.17 1299.02 1255.45 1302.28 1254.07 C 1304.92 1260.3 1311.43 1263.97 1318.13 1263 L 1318.14 1263.87 C 1329.16 1261.83 1345.49 1265.16 1350.23 1262.27 L 1351.27 1263.31 C 1353.2 1271 1357 1270.36 1365.39 1269.89 C 1373.46 1268.48 1387.12 1260.56 1393.83 1255.1 C 1399.39 1251.9 1404.44 1247.88 1408.81 1243.18 L 1410.92 1241.77 C 1410.03 1246.06 1409.71 1244.2 1410.92 1247.7 C 1413.4 1247.63 1413.07 1247.48 1415.34 1248.72 L 1414.74 1249.76 C 1413 1252.82 1412.67 1252.51 1412.5 1255.72 C 1400.97 1270.25 1373.11 1281.54 1355.41 1285.39 C 1338.11 1289.15 1303.13 1287.77 1287.95 1277.81 C 1272.08 1272.37 1255.23 1257.47 1244.43 1244.97 C 1231.74 1231.16 1223.01 1210.62 1219.06 1192.43 C 1213.54 1175.45 1215.16 1152.55 1218.41 1135.29 z" />
<path transform="translate(0,0)" fill="rgb(221,75,26)" d="M 1218.41 1135.29 C 1222.6 1117.2 1227.18 1104.79 1238.22 1089.78 C 1240.88 1091.46 1241.61 1091.61 1243.7 1093.92 L 1242.96 1094.69 L 1245.1 1095.39 L 1243.87 1095.4 L 1245.09 1095.71 L 1245.47 1094 C 1246.7 1093.92 1247.44 1093.73 1248.56 1094 L 1251 1091.69 L 1252.53 1093.41 C 1253.44 1092.53 1254.11 1091.9 1255.07 1091.05 L 1256.21 1091.49 L 1256.17 1093.52 C 1254.17 1094.77 1255.12 1094.26 1253.34 1095.12 C 1252.42 1097.76 1251.47 1100.16 1250.95 1102.91 C 1253.57 1107.77 1256.09 1112.69 1258.53 1117.65 C 1253.24 1117.47 1247.5 1116.5 1243.39 1119.61 C 1242.39 1120.8 1241.75 1121.58 1240.66 1122.71 C 1238.49 1121.9 1239.5 1122.2 1237.62 1121.78 C 1234.54 1127.2 1237.09 1131.44 1235.24 1134.6 C 1233.27 1135.47 1232.39 1135.33 1232.05 1136.93 C 1228.59 1153.14 1232.43 1177.1 1231.25 1192.01 C 1234.4 1205.8 1239.28 1215.99 1246.6 1228.15 C 1247.54 1235.23 1252.16 1238.22 1252.22 1243.18 C 1249.6 1244.86 1247.55 1244.71 1244.43 1244.97 C 1231.74 1231.16 1223.01 1210.62 1219.06 1192.43 C 1213.54 1175.45 1215.16 1152.55 1218.41 1135.29 z" />
<path transform="translate(0,0)" fill="rgb(232,162,57)" d="M 1251 1091.69 L 1252.53 1093.41 C 1253.44 1092.53 1254.11 1091.9 1255.07 1091.05 L 1256.21 1091.49 L 1256.17 1093.52 C 1254.17 1094.77 1255.12 1094.26 1253.34 1095.12 C 1252.42 1097.76 1251.47 1100.16 1250.95 1102.91 C 1253.57 1107.77 1256.09 1112.69 1258.53 1117.65 C 1253.24 1117.47 1247.5 1116.5 1243.39 1119.61 C 1242.39 1120.8 1241.75 1121.58 1240.66 1122.71 C 1238.49 1121.9 1239.5 1122.2 1237.62 1121.78 C 1234.54 1127.2 1237.09 1131.44 1235.24 1134.6 C 1233.27 1135.47 1232.39 1135.33 1232.05 1136.93 C 1228.59 1153.14 1232.43 1177.1 1231.25 1192.01 C 1221.94 1153.55 1229.87 1127.03 1248.56 1094 L 1251 1091.69 z" />
<path transform="translate(0,0)" fill="rgb(207,86,31)" d="M 1218.41 1135.29 C 1220.01 1136.2 1220.85 1136.71 1222.34 1137.79 C 1223.72 1147.02 1223.21 1144.64 1221 1152.17 C 1217.76 1163.17 1220.08 1180.79 1219.06 1192.43 C 1213.54 1175.45 1215.16 1152.55 1218.41 1135.29 z" />
<path transform="translate(0,0)" fill="rgb(221,75,26)" d="M 1410.92 1241.77 C 1410.03 1246.06 1409.71 1244.2 1410.92 1247.7 C 1413.4 1247.63 1413.07 1247.48 1415.34 1248.72 L 1414.74 1249.76 C 1413 1252.82 1412.67 1252.51 1412.5 1255.72 C 1400.97 1270.25 1373.11 1281.54 1355.41 1285.39 C 1338.11 1289.15 1303.13 1287.77 1287.95 1277.81 C 1285.86 1275.01 1284.52 1273.26 1285.09 1269.89 C 1291.18 1267.02 1298.33 1272.11 1305.87 1272.11 C 1306.93 1272 1306.35 1272 1307.66 1272.19 C 1324.45 1274.61 1349.61 1277.22 1365.39 1269.89 C 1373.46 1268.48 1387.12 1260.56 1393.83 1255.1 C 1399.39 1251.9 1404.44 1247.88 1408.81 1243.18 L 1410.92 1241.77 z" />
<path transform="translate(0,0)" fill="rgb(207,86,31)" d="M 1246.6 1228.15 C 1254.73 1238.88 1262.78 1247.95 1273.84 1255.79 C 1282.64 1263.18 1295.16 1267.68 1305.87 1272.11 C 1298.33 1272.11 1291.18 1267.02 1285.09 1269.89 C 1284.52 1273.26 1285.86 1275.01 1287.95 1277.81 C 1272.08 1272.37 1255.23 1257.47 1244.43 1244.97 C 1247.55 1244.71 1249.6 1244.86 1252.22 1243.18 C 1252.16 1238.22 1247.54 1235.23 1246.6 1228.15 z" />
<path transform="translate(0,0)" fill="rgb(245,121,65)" d="M 1282.77 1050.6 C 1307.64 1038.05 1336.25 1035.09 1363.17 1042.27 C 1387.59 1048.83 1408.27 1061.64 1424.09 1081.63 C 1445.6 1108.28 1455.64 1142.37 1452.02 1176.42 C 1451.94 1177.13 1451.85 1177.84 1451.75 1178.54 C 1447.64 1206.5 1434.51 1237.32 1412.5 1255.72 C 1412.67 1252.51 1413 1252.82 1414.74 1249.76 L 1415.34 1248.72 C 1413.07 1247.48 1413.4 1247.63 1410.92 1247.7 C 1409.71 1244.2 1410.03 1246.06 1410.92 1241.77 C 1411.93 1238.62 1422.65 1225.84 1425.05 1221.64 C 1442.52 1191.13 1445.96 1152.72 1432.49 1120.11 C 1431.61 1116.72 1430.78 1115.18 1429.31 1112.07 L 1427.46 1108.65 C 1423.1 1100.54 1419.11 1095.14 1413.51 1087.76 C 1398.61 1070.91 1385.83 1062.43 1364.43 1055.3 C 1362.06 1055.16 1363.11 1055.37 1361.37 1054.86 C 1351.36 1051.95 1337.05 1050.43 1326.68 1050.53 C 1321.39 1051.12 1308.56 1052.93 1304.18 1055.49 L 1303.07 1054.87 C 1298.88 1053.76 1296 1053.86 1291.59 1052.99 L 1291.84 1050.55 C 1287.66 1050.2 1288.52 1052.14 1282.77 1050.6 z" />
<path transform="translate(0,0)" fill="rgb(248,225,177)" d="M 1326.68 1050.53 C 1337.05 1050.43 1351.36 1051.95 1361.37 1054.86 C 1363.11 1055.37 1362.06 1055.16 1364.43 1055.3 C 1385.83 1062.43 1398.61 1070.91 1413.51 1087.76 C 1419.11 1095.14 1423.1 1100.54 1427.46 1108.65 L 1429.31 1112.07 C 1430.78 1115.18 1431.61 1116.72 1432.49 1120.11 L 1430.49 1119.8 C 1427.27 1122.53 1428.47 1127.66 1428.82 1131.65 C 1427.5 1127.24 1425.66 1122.4 1424.11 1118.02 L 1424.48 1116.17 L 1421.8 1112.22 C 1417.71 1108.04 1417.29 1103.52 1414.64 1101.59 C 1411.83 1098 1413.49 1098.7 1410.06 1098.14 C 1402.08 1101.1 1397.96 1106.57 1390.44 1109.95 L 1389.93 1109.43 C 1386.07 1110.88 1387.05 1111.16 1383.63 1110.41 L 1382.34 1107.86 C 1382.1 1085.29 1348.54 1109.21 1340.39 1079.03 L 1339.24 1079.14 C 1333.96 1077.9 1329.72 1077.94 1324.42 1078.06 C 1322.83 1074.01 1321.41 1069.15 1320.08 1064.96 L 1320.89 1063.87 C 1325.05 1063.96 1323.31 1064.31 1326.94 1061.7 C 1318.84 1060.21 1315.4 1058.53 1309.75 1065.71 C 1309.74 1068.75 1309.95 1068.79 1309.26 1071.67 L 1307.81 1072.08 L 1306.67 1071.04 C 1304.03 1068.66 1302.62 1066.91 1299.16 1066.07 C 1295.23 1066.95 1295.25 1066.83 1291.87 1068.88 L 1290.44 1069.94 C 1290.16 1067.76 1289.86 1066.46 1289.35 1064.31 L 1286.95 1064.28 C 1283.28 1066.97 1282.48 1067.42 1277.92 1067.41 C 1283.26 1062.83 1296.11 1057.83 1303.07 1054.87 L 1304.18 1055.49 C 1308.56 1052.93 1321.39 1051.12 1326.68 1050.53 z" />
<path transform="translate(0,0)" fill="rgb(63,53,38)" d="M 1340.39 1079.03 C 1342.21 1073.31 1343.14 1069.1 1348.88 1066.23 C 1354.91 1063.22 1365.26 1064.52 1368.15 1071.21 L 1367.46 1072.93 C 1360.35 1073.65 1353.14 1070.65 1348.22 1074.59 C 1346.36 1079.22 1349.1 1084.46 1353.48 1086.56 C 1358.68 1086.89 1361.3 1085.59 1364.39 1087.45 C 1364.47 1090.36 1364.54 1089.25 1363.34 1092.14 C 1368.23 1092.51 1386.08 1076.13 1392.11 1081.97 C 1392.84 1087.12 1389.77 1100.14 1389.93 1109.43 C 1386.07 1110.88 1387.05 1111.16 1383.63 1110.41 L 1382.34 1107.86 C 1382.1 1085.29 1348.54 1109.21 1340.39 1079.03 z" />
<path transform="translate(0,0)" fill="rgb(247,194,65)" d="M 1304.18 1055.49 C 1308.56 1052.93 1321.39 1051.12 1326.68 1050.53 C 1332.06 1051.25 1337.98 1054.09 1342.5 1051.45 C 1344.25 1053.48 1343.86 1052.28 1343.99 1054.99 C 1342.54 1055.81 1334.91 1054.45 1330.4 1056.42 C 1338.34 1057.56 1345.41 1056.94 1353.21 1058.72 C 1344.58 1059.99 1331.62 1057.57 1326.94 1061.7 C 1318.84 1060.21 1315.4 1058.53 1309.75 1065.71 C 1309.74 1068.75 1309.95 1068.79 1309.26 1071.67 L 1307.81 1072.08 L 1306.67 1071.04 C 1304.03 1068.66 1302.62 1066.91 1299.16 1066.07 C 1295.23 1066.95 1295.25 1066.83 1291.87 1068.88 L 1290.44 1069.94 C 1290.16 1067.76 1289.86 1066.46 1289.35 1064.31 L 1286.95 1064.28 C 1283.28 1066.97 1282.48 1067.42 1277.92 1067.41 C 1283.26 1062.83 1296.11 1057.83 1303.07 1054.87 L 1304.18 1055.49 z" />
<path transform="translate(0,0)" fill="rgb(232,162,57)" d="M 1349.89 1261.24 C 1347.14 1258.7 1345.7 1253.66 1345.43 1250.2 C 1344.53 1241.25 1338.45 1233.31 1351.57 1230.1 C 1355.24 1229.21 1376.77 1220 1378.15 1219.89 C 1379.42 1221.63 1381.91 1225.23 1383.22 1226.68 L 1390.27 1234.74 C 1392.8 1236.44 1393.56 1236.03 1396.66 1235.88 L 1397.51 1237.07 C 1396.28 1240.48 1394.98 1242.44 1395.48 1245.66 C 1399.53 1248.01 1404.33 1243.5 1408.81 1243.18 C 1404.44 1247.88 1399.39 1251.9 1393.83 1255.1 C 1387.12 1260.56 1373.46 1268.48 1365.39 1269.89 C 1357 1270.36 1353.2 1271 1351.27 1263.31 L 1350.23 1262.27 L 1349.89 1261.24 z" />
<path transform="translate(0,0)" fill="rgb(247,194,65)" d="M 1383.22 1226.68 L 1390.27 1234.74 C 1392.8 1236.44 1393.56 1236.03 1396.66 1235.88 L 1397.51 1237.07 C 1396.28 1240.48 1394.98 1242.44 1395.48 1245.66 C 1399.53 1248.01 1404.33 1243.5 1408.81 1243.18 C 1404.44 1247.88 1399.39 1251.9 1393.83 1255.1 C 1393.21 1255.16 1392.59 1255.22 1391.97 1255.27 C 1387.67 1257.31 1380.92 1257.09 1375.69 1257.43 L 1378.58 1255.03 C 1382.07 1246.05 1373.03 1242.36 1372.6 1233.22 C 1374.49 1229.88 1374.44 1230.8 1378.96 1228.92 L 1379.85 1229.32 L 1383.22 1226.68 z" />
<path transform="translate(0,0)" fill="rgb(39,26,14)" d="M 1365.09 1234.83 C 1362.12 1236.47 1357.61 1239.86 1354.52 1237.53 L 1355.14 1235.59 C 1360.11 1230.64 1370.28 1223.97 1377.47 1223.96 C 1379.69 1226.34 1378.92 1224.87 1378.96 1228.92 C 1374.44 1230.8 1374.49 1229.88 1372.6 1233.22 C 1373.03 1242.36 1382.07 1246.05 1378.58 1255.03 L 1375.69 1257.43 C 1372.88 1252.63 1367.64 1240.41 1365.09 1234.83 z" />
<path transform="translate(0,0)" fill="rgb(39,26,14)" d="M 1349.89 1261.24 C 1348.63 1254.43 1344.62 1240.25 1347.37 1235 C 1353.99 1236.35 1357.4 1255.17 1356.22 1261.11 C 1355.79 1263.24 1353.06 1263.25 1351.27 1263.31 L 1350.23 1262.27 L 1349.89 1261.24 z" />
<path transform="translate(0,0)" fill="rgb(237,199,112)" d="M 1309.75 1065.71 C 1315.4 1058.53 1318.84 1060.21 1326.94 1061.7 C 1323.31 1064.31 1325.05 1063.96 1320.89 1063.87 L 1320.08 1064.96 C 1321.41 1069.15 1322.83 1074.01 1324.42 1078.06 C 1323.8 1086.57 1323.38 1088.06 1317.88 1094.58 L 1318.25 1095.11 L 1317.1 1096.28 C 1309.55 1098.75 1307.87 1096.89 1300.41 1093.59 C 1298.73 1096.3 1298.08 1101.11 1298.83 1104.2 L 1301.12 1104.39 L 1301.53 1105.31 L 1300.18 1105.85 C 1294.58 1108.17 1294.76 1108.74 1290.7 1113.19 C 1278.75 1114.04 1275.62 1113.9 1267.24 1105.18 C 1264.54 1096.85 1263.59 1092.39 1268.11 1084.45 C 1276.11 1070.41 1291.81 1082.14 1294.65 1082.02 C 1295.2 1078.2 1293.05 1072.87 1291.87 1068.88 C 1295.25 1066.83 1295.23 1066.95 1299.16 1066.07 C 1302.62 1066.91 1304.03 1068.66 1306.67 1071.04 L 1307.81 1072.08 L 1309.26 1071.67 C 1309.95 1068.79 1309.74 1068.75 1309.75 1065.71 z" />
<path transform="translate(0,0)" fill="rgb(39,26,14)" d="M 1317.88 1094.58 C 1313.52 1094.62 1309.88 1095.89 1305.56 1093.19 C 1299.02 1089.1 1293.02 1077.25 1297.29 1069.83 C 1298.13 1068.38 1298.93 1068.7 1300.66 1068.37 C 1303.61 1071.68 1304.24 1080.46 1307.74 1086.24 C 1311.28 1088.33 1309.45 1087.93 1313.37 1087.71 C 1323.11 1080.97 1311.81 1072.41 1313.82 1064.82 C 1317.14 1062.71 1315.46 1063 1318.89 1063.29 L 1320.08 1064.96 C 1321.41 1069.15 1322.83 1074.01 1324.42 1078.06 C 1323.8 1086.57 1323.38 1088.06 1317.88 1094.58 z" />
<path transform="translate(0,0)" fill="rgb(39,26,14)" d="M 1278.91 1080.55 C 1286.93 1078.85 1294.83 1083.92 1296.63 1091.91 C 1298.44 1099.91 1293.48 1107.88 1285.51 1109.79 C 1280.26 1111.05 1274.73 1109.39 1271.05 1105.43 C 1267.36 1101.48 1266.09 1095.85 1267.72 1090.7 C 1269.35 1085.55 1273.62 1081.67 1278.91 1080.55 z" />
<path transform="translate(0,0)" fill="rgb(247,194,65)" d="M 1280.44 1087.65 C 1284.42 1086.82 1288.35 1089.23 1289.41 1093.15 C 1290.47 1097.07 1288.3 1101.14 1284.44 1102.43 C 1281.74 1103.33 1278.76 1102.67 1276.71 1100.7 C 1274.65 1098.73 1273.85 1095.79 1274.63 1093.05 C 1275.42 1090.31 1277.65 1088.23 1280.44 1087.65 z" />
<path transform="translate(0,0)" fill="rgb(39,26,14)" d="M 1301.13 1232 L 1303.74 1234.58 C 1310.33 1234.12 1312.56 1231.18 1317.88 1232.33 L 1319 1233.65 C 1321.06 1234.07 1323 1234.93 1324.71 1236.16 C 1330.69 1240.47 1332.62 1248.51 1329.25 1255.06 C 1327.04 1259.35 1322.9 1262.31 1318.13 1263 C 1311.43 1263.97 1304.92 1260.3 1302.28 1254.07 C 1299.02 1255.45 1301.58 1253.17 1299.88 1252.59 C 1298 1251.95 1291.86 1249.82 1290.11 1249.22 C 1298.58 1245.12 1300.22 1241.13 1301.13 1232 z" />
<path transform="translate(0,0)" fill="rgb(237,199,112)" d="M 1301.13 1232 L 1303.74 1234.58 C 1310.33 1234.12 1312.56 1231.18 1317.88 1232.33 L 1319 1233.65 C 1313.58 1232.53 1307.98 1234.52 1304.47 1238.8 C 1300.96 1243.09 1300.11 1248.97 1302.28 1254.07 C 1299.02 1255.45 1301.58 1253.17 1299.88 1252.59 C 1298 1251.95 1291.86 1249.82 1290.11 1249.22 C 1298.58 1245.12 1300.22 1241.13 1301.13 1232 z" />
<path transform="translate(0,0)" fill="rgb(237,199,112)" d="M 1313.98 1240.68 C 1318.18 1239.49 1322.57 1241.91 1323.79 1246.11 C 1325.02 1250.3 1322.62 1254.7 1318.43 1255.95 C 1314.2 1257.21 1309.76 1254.79 1308.52 1250.56 C 1307.29 1246.32 1309.74 1241.89 1313.98 1240.68 z" />
<path transform="translate(0,0)" fill="rgb(39,26,14)" d="M 1284.2 1216.45 C 1293.15 1221.16 1296.3 1223.21 1301.13 1232 C 1300.22 1241.13 1298.58 1245.12 1290.11 1249.22 C 1283.24 1249.37 1281.51 1249.41 1275.48 1246.13 L 1269.94 1242 C 1268.43 1238.41 1268.63 1240.36 1270.45 1235.88 L 1284.2 1216.45 z" />
<path transform="translate(0,0)" fill="rgb(63,53,38)" d="M 1390.44 1109.95 C 1397.96 1106.57 1402.08 1101.1 1410.06 1098.14 C 1413.49 1098.7 1411.83 1098 1414.64 1101.59 C 1417.29 1103.52 1417.71 1108.04 1421.8 1112.22 L 1424.48 1116.17 L 1424.11 1118.02 L 1422.43 1120.14 C 1417.74 1123.12 1412.53 1126.27 1408.06 1129.49 L 1405.04 1131.88 L 1402.43 1132.89 C 1399.26 1132.39 1400.49 1133.14 1398.6 1130.6 C 1398.03 1124.25 1403.13 1114.06 1405.72 1108.01 C 1400.85 1112.16 1396.77 1117 1390.68 1116.76 C 1388.2 1114.52 1389.02 1115.86 1388.21 1112.55 L 1390.44 1109.95 z" />
<path transform="translate(0,0)" fill="rgb(237,234,227)" d="M 1414.64 1101.59 C 1417.29 1103.52 1417.71 1108.04 1421.8 1112.22 L 1406.43 1122.72 C 1409.12 1115.66 1411.86 1108.62 1414.64 1101.59 z" />
<path transform="translate(0,0)" fill="rgb(248,225,177)" d="M 1424.11 1118.02 C 1425.66 1122.4 1427.5 1127.24 1428.82 1131.65 C 1431.36 1138.9 1432.58 1160.29 1416.26 1154.81 C 1410.34 1152.82 1413.45 1135 1405.04 1131.88 L 1408.06 1129.49 C 1412.53 1126.27 1417.74 1123.12 1422.43 1120.14 L 1424.11 1118.02 z" />
<path transform="translate(0,0)" fill="rgb(237,234,227)" d="M 1408.06 1129.49 C 1412.53 1126.27 1417.74 1123.12 1422.43 1120.14 C 1422.24 1127.35 1424.89 1130.95 1424.49 1136.37 C 1421.95 1138.23 1418.52 1136.76 1414.47 1137.37 L 1413.99 1136.52 C 1412.13 1133.3 1411.26 1131.54 1408.06 1129.49 z" />
<path transform="translate(0,0)" fill="rgb(39,26,14)" d="M 1250.95 1102.91 C 1256.74 1101.1 1257.78 1100.41 1261.26 1107.21 C 1263.19 1110.99 1264.37 1114.51 1266.62 1118.19 C 1270 1119.75 1272.2 1120.26 1273.98 1123.46 L 1274.14 1125.77 C 1271.87 1127.98 1273.22 1127.23 1269.76 1127.72 C 1266.94 1126.47 1265.64 1125.79 1262.96 1124.24 C 1257.3 1124.47 1250.05 1125.69 1245.29 1124.53 C 1243.15 1122.14 1244.08 1123.38 1243.39 1119.61 C 1247.5 1116.5 1253.24 1117.47 1258.53 1117.65 C 1256.09 1112.69 1253.57 1107.77 1250.95 1102.91 z" />
<path transform="translate(0,0)" fill="rgb(237,199,112)" d="M 1340.39 1079.03 C 1348.54 1109.21 1382.1 1085.29 1382.34 1107.86 C 1380.71 1105.76 1377.25 1098.63 1373.45 1100.37 C 1366.33 1103.62 1350.23 1095.91 1343.63 1092.66 C 1340.26 1086.86 1339.55 1086.06 1339.24 1079.14 L 1340.39 1079.03 z" />
<path transform="translate(0,0)" fill="rgb(39,26,14)" d="M 1378.15 1219.89 C 1379.51 1219.16 1382.02 1217.25 1383.33 1217.85 C 1389.59 1220.72 1392.43 1224.92 1394.02 1231.25 C 1392.73 1233.57 1392.63 1233.38 1390.27 1234.74 L 1383.22 1226.68 C 1381.91 1225.23 1379.42 1221.63 1378.15 1219.89 z" />
<path transform="translate(0,0)" fill="rgb(164,103,42)" d="M 1314.66 1138.6 C 1335.06 1096.8 1334.36 1102.06 1353.18 1138.75 C 1397.06 1144.53 1396.18 1145.8 1364.63 1175.26 C 1366.61 1184.66 1374.01 1205.89 1363.97 1211.04 C 1355.19 1211.35 1343.16 1203.14 1335.34 1198.36 C 1330.48 1198.39 1319.82 1205.59 1315.01 1208.46 C 1310.06 1210.54 1307.45 1212.3 1302.14 1211.7 C 1299.65 1210.29 1300.53 1210.86 1298.64 1208.41 C 1296.66 1201.18 1300.26 1184.54 1303.32 1178.15 C 1301.5 1168.61 1280.06 1159.78 1279.84 1147.73 C 1283.73 1139.99 1305.76 1140.46 1314.66 1138.6 z" />
<path transform="translate(0,0)" fill="rgb(232,162,57)" d="M 1320.47 1143.67 C 1321.12 1137.91 1330.71 1120.88 1333.88 1114.91 C 1336.4 1120.22 1338.97 1125.51 1341.61 1130.76 C 1344.63 1135.62 1345.93 1139.19 1348.04 1144.42 C 1359.07 1146.4 1370.15 1148.07 1381.27 1149.42 C 1373.93 1156.8 1366.39 1164.64 1358.66 1171.55 C 1358.64 1183.76 1362.13 1193.51 1363.21 1205.51 C 1353.62 1201.04 1343.72 1195.31 1334.37 1190.21 C 1326.4 1193.71 1320.86 1197.01 1313.3 1201.45 C 1310.47 1203.16 1310.4 1203.33 1307.08 1204.25 L 1305.42 1203.24 C 1304.18 1198.28 1307.12 1188.58 1308.34 1183.03 C 1308.67 1181.52 1309.69 1176.89 1309.43 1175.68 C 1307.54 1167.16 1292 1155.57 1285.51 1149.69 C 1295.73 1147.9 1310.88 1146.28 1320.47 1143.67 z" />
<path transform="translate(0,0)" fill="rgb(248,225,177)" d="M 1420.18 1167.57 C 1423.96 1165.92 1428.36 1167.6 1430.08 1171.34 C 1431.8 1175.09 1430.19 1179.53 1426.47 1181.3 C 1424.01 1182.48 1421.11 1182.24 1418.88 1180.67 C 1416.64 1179.1 1415.43 1176.45 1415.7 1173.74 C 1415.97 1171.03 1417.68 1168.67 1420.18 1167.57 z" />
<path transform="translate(0,0)" fill="rgb(218,147,31)" d="M 614.238 1215.65 C 624.57 1168.75 646.75 1165.97 687.933 1149.44 C 703.143 1143.33 720.967 1136.46 736.834 1133.03 C 727.028 1146.63 716.104 1163.51 715.326 1181.2 C 710.219 1193.3 704.083 1236.17 713.956 1245.28 L 714.121 1245.81 L 712.606 1245.9 C 716.969 1256.31 723.611 1268.74 734.694 1272.75 C 739.555 1274.51 752.072 1276.44 757.188 1275.86 C 712.342 1289.52 668.905 1305.12 625.428 1322.61 C 623.427 1323.41 621.38 1326.35 619.034 1327.7 C 614.159 1326.35 609.384 1320.03 608.096 1315.32 C 604.898 1305.2 603.616 1290.03 605.547 1279.61 C 607.571 1258.18 610.47 1236.84 614.238 1215.65 z" />
<path transform="translate(0,0)" fill="rgb(221,75,26)" d="M 712.606 1245.9 C 716.969 1256.31 723.611 1268.74 734.694 1272.75 C 739.555 1274.51 752.072 1276.44 757.188 1275.86 C 712.342 1289.52 668.905 1305.12 625.428 1322.61 C 623.427 1323.41 621.38 1326.35 619.034 1327.7 C 614.159 1326.35 609.384 1320.03 608.096 1315.32 C 604.898 1305.2 603.616 1290.03 605.547 1279.61 L 606.154 1284.43 C 608.398 1285.31 607.199 1285.18 609.767 1284.67 C 623.04 1274.58 694.972 1250.63 712.606 1245.9 z" />
<path transform="translate(0,0)" fill="rgb(207,86,31)" d="M 605.547 1279.61 L 606.154 1284.43 C 608.398 1285.31 607.199 1285.18 609.767 1284.67 C 607.288 1294.17 612.509 1293.96 612.1 1303.59 L 611.465 1303.78 L 610.132 1302.66 C 608.101 1308.07 608.232 1309.48 608.096 1315.32 C 604.898 1305.2 603.616 1290.03 605.547 1279.61 z" />
<path transform="translate(0,0)" fill="rgb(221,75,26)" d="M 614.238 1215.65 C 624.57 1168.75 646.75 1165.97 687.933 1149.44 C 703.143 1143.33 720.967 1136.46 736.834 1133.03 C 727.028 1146.63 716.104 1163.51 715.326 1181.2 C 679.991 1192.11 648.051 1204.87 614.238 1215.65 z" />
<path transform="translate(0,0)" fill="rgb(198,201,202)" d="M 860.289 987.179 C 864.17 988.959 871.823 1015.73 881.902 1022.95 C 900.945 1036.59 910.446 1025.57 930.155 1038.42 L 918.263 1042.72 C 914.389 1044.27 909.93 1046.19 906.03 1047.5 C 887.579 1055.59 859.196 1066.33 839.961 1073.47 C 834.148 1076.08 817.82 1084.36 812.434 1082.42 C 808.039 1066.09 853.755 1065.83 826.686 1001.53 C 839.647 999.721 850.369 996.041 860.289 987.179 z" />
<path transform="translate(0,0)" fill="rgb(154,163,170)" d="M 860.289 987.179 C 862.711 1003.72 856.33 1000.67 845.527 1010.56 C 851.278 1031.84 854.447 1047.52 842.336 1067.63 C 841.622 1068.82 839.646 1072.13 839.961 1073.47 C 834.148 1076.08 817.82 1084.36 812.434 1082.42 C 808.039 1066.09 853.755 1065.83 826.686 1001.53 C 839.647 999.721 850.369 996.041 860.289 987.179 z" />
<path transform="translate(0,0)" fill="rgb(254,254,254)" d="M 906.03 1047.5 C 905.86 1046.81 905.475 1044.74 904.797 1044.59 C 898.562 1043.18 887.197 1043.49 882.378 1039 C 876.52 1033.54 856.221 1017.09 863.481 1008.63 C 866.317 1009.3 866.107 1009.33 868.205 1011.41 C 873.878 1031.22 896.642 1033.04 912.64 1038.6 C 911.979 1040.16 912.041 1039.34 912.56 1041.06 C 915.59 1041.49 915.501 1041.44 918.263 1042.72 C 914.389 1044.27 909.93 1046.19 906.03 1047.5 z" />
<path transform="translate(0,0)" fill="rgb(198,201,202)" d="M 878.7 717.981 C 895.641 706.716 918.792 697.708 937.797 709.176 C 948.78 717.604 954.478 727.326 957.807 740.633 C 973.871 784.077 956.57 851.707 923.286 883.272 L 922.681 884.066 C 917.673 889.563 912.984 893.98 907.569 899.09 C 908.07 896.143 909.016 889.324 909.697 886.737 L 910.091 873.493 C 913.473 870.171 917.256 865.504 920.408 861.834 C 926.875 850.368 931.887 843.887 936.413 829.71 C 945.166 801.716 950.998 765.366 937.531 737.858 C 925.716 713.723 902.089 724.416 884.844 734.042 L 878.7 717.981 z" />
<path transform="translate(0,0)" fill="rgb(254,254,254)" d="M 957.807 740.633 C 956.315 750.263 965.414 799.058 955.858 805.113 C 952.181 800.805 955.811 776.906 954.208 765.512 C 951.345 745.163 945.57 720.222 922.707 713.129 C 918.922 711.955 909.217 713.187 905.984 710.57 C 913.323 702.379 929.585 711.216 937.797 709.176 C 948.78 717.604 954.478 727.326 957.807 740.633 z" />
<path transform="translate(0,0)" fill="rgb(154,163,170)" d="M 910.091 873.493 C 913.473 870.171 917.256 865.504 920.408 861.834 C 922.651 867.4 923.374 877.229 923.286 883.272 L 922.681 884.066 C 917.673 889.563 912.984 893.98 907.569 899.09 C 908.07 896.143 909.016 889.324 909.697 886.737 L 910.091 873.493 z" />
<path transform="translate(0,0)" fill="rgb(142,151,161)" d="M 909.697 886.737 C 913.847 886.658 914.87 884.063 919.838 882.187 L 922.681 884.066 C 917.673 889.563 912.984 893.98 907.569 899.09 C 908.07 896.143 909.016 889.324 909.697 886.737 z" />
<path transform="translate(0,0)" fill="rgb(254,254,254)" d="M 913.923 732.22 C 937.819 731.966 937.204 775.476 935.446 791.467 C 932.849 815.079 925.25 839.31 910.968 858.444 C 909.801 854.743 908.034 824.505 906.69 816.96 C 902.121 791.323 895.444 768.512 888.204 743.652 C 897.723 737.9 902.989 734.315 913.923 732.22 z" />
<path transform="translate(0,0)" fill="rgb(91,93,94)" d="M 811.907 1094.51 C 829.049 1088.05 949.426 1039.16 956.59 1040.05 C 965.228 1045.79 970.191 1064.44 974.799 1074.51 C 928.78 1077.51 861.961 1089.27 817.38 1099.58 C 815.578 1097.87 813.753 1096.17 811.907 1094.51 z" />
<path transform="translate(0,0)" fill="rgb(154,163,170)" d="M 596.898 874.27 C 600.658 872.217 601.216 872.173 603.336 868.661 C 613.669 898.269 640.249 923.194 667.973 936.504 C 682.425 943.497 697.89 948.168 713.797 950.345 C 721.549 958.209 726.471 962.146 734.901 969.101 C 713.559 968.052 675.79 964.186 658 951.789 C 636.851 941.099 623.776 929.728 608.145 912.567 C 604.01 907.62 601.899 904.716 598.348 899.359 C 600.575 899.872 599.913 899.864 602.168 899.771 C 600.323 895.205 600.286 895.157 603.353 891.823 C 600.318 884.148 599.067 882.726 596.898 874.27 z" />
<path transform="translate(0,0)" fill="rgb(186,198,204)" d="M 613.537 907.092 C 624.05 918.92 643.206 940.62 657.306 947.172 C 658.963 949.995 658.705 948.511 658 951.789 C 636.851 941.099 623.776 929.728 608.145 912.567 L 609.295 910.003 C 610.804 909.121 612.213 908.235 613.537 907.092 z" />
<path transform="translate(0,0)" fill="rgb(198,201,202)" d="M 598.348 899.359 C 600.575 899.872 599.913 899.864 602.168 899.771 C 600.323 895.205 600.286 895.157 603.353 891.823 L 613.537 907.092 C 612.213 908.235 610.804 909.121 609.295 910.003 L 608.145 912.567 C 604.01 907.62 601.899 904.716 598.348 899.359 z" />
<path transform="translate(0,0)" fill="rgb(254,254,254)" d="M 642.265 837.279 C 644.293 837.915 657.841 869.168 661.101 874.163 L 660.046 922.489 C 654.216 918.409 648.755 913.962 643.185 909.536 C 630.959 898.223 603.478 870.592 613.988 851.135 C 619.031 841.801 632.646 839.463 642.265 837.279 z" />
<path transform="translate(0,0)" fill="rgb(186,198,204)" d="M 598.348 899.359 C 591.835 892.116 585.574 877.569 583.719 867.927 C 577.001 833.013 602.663 817.666 633.044 812.219 C 635.42 814.081 635.397 815.95 636.63 819.352 C 638.159 822.896 638.708 824.526 639.775 828.246 C 625.469 831.465 615.467 833.84 605.605 845.697 C 601.103 854.483 600.717 858.81 603.336 868.661 C 601.216 872.173 600.658 872.217 596.898 874.27 C 599.067 882.726 600.318 884.148 603.353 891.823 C 600.286 895.157 600.323 895.205 602.168 899.771 C 599.913 899.864 600.575 899.872 598.348 899.359 z" />
<path transform="translate(0,0)" fill="rgb(154,163,170)" d="M 636.63 819.352 C 638.159 822.896 638.708 824.526 639.775 828.246 C 625.469 831.465 615.467 833.84 605.605 845.697 C 605.365 840.411 604.592 840.875 600.499 839.047 C 608.03 830.098 616.377 823.117 627.987 821.857 C 630.686 821.564 634.302 820.763 636.63 819.352 z" />
<path transform="translate(0,0)" fill="rgb(142,151,161)" d="M 600.499 839.047 C 604.592 840.875 605.365 840.411 605.605 845.697 C 601.103 854.483 600.717 858.81 603.336 868.661 C 601.216 872.173 600.658 872.217 596.898 874.27 C 594.518 860.061 594.036 851.99 600.499 839.047 z" />
<path transform="translate(0,0)" fill="rgb(250,105,44)" d="M 1440.01 1238.68 L 1440.24 1238.06 C 1444.2 1239.35 1452.52 1241.91 1456.11 1243.61 C 1460.52 1245.18 1460.73 1245.35 1464.47 1248.25 L 1464.58 1250 C 1465.03 1258.38 1466.62 1295.81 1452.61 1294.08 C 1451.89 1291.52 1451.22 1289.46 1450.37 1286.95 C 1445.01 1281.57 1417.59 1274.35 1408.65 1271.99 C 1421.65 1262.15 1430.73 1252.07 1440.01 1238.68 z" />
<path transform="translate(0,0)" fill="rgb(56,56,56)" d="M 678.973 394.49 C 681.696 395.498 681.814 395.716 684.22 397.427 C 688.512 405.279 685.111 447.445 686.006 458.897 C 686.613 466.651 686.088 478.65 680.377 484.618 C 677.092 483.221 677.134 483.374 674.482 480.685 C 671.06 470.678 673.327 423.65 673.246 410.302 C 673.206 403.596 673.897 398.977 678.973 394.49 z" />
<path transform="translate(0,0)" fill="rgb(250,105,44)" d="M 1238.22 1089.78 C 1249.1 1072.71 1264.74 1059.56 1282.77 1050.6 C 1288.52 1052.14 1287.66 1050.2 1291.84 1050.55 L 1291.59 1052.99 C 1296 1053.86 1298.88 1053.76 1303.07 1054.87 C 1296.11 1057.83 1283.26 1062.83 1277.92 1067.41 C 1269.77 1070.82 1255.98 1084.42 1251 1091.69 L 1248.56 1094 C 1247.44 1093.73 1246.7 1093.92 1245.47 1094 L 1245.09 1095.71 L 1243.87 1095.4 L 1245.1 1095.39 L 1242.96 1094.69 L 1243.7 1093.92 C 1241.61 1091.61 1240.88 1091.46 1238.22 1089.78 z" />
<path transform="translate(0,0)" fill="rgb(254,254,254)" d="M 670.488 893.631 C 673.336 895.927 685.088 915.412 688.746 920.408 C 693.889 927.432 697.772 932.405 703.641 939.28 C 693.916 938.478 678.321 931.597 669.658 927.607 C 669.646 916.499 670.172 904.779 670.488 893.631 z" />
<path transform="translate(0,0)" fill="rgb(247,194,65)" d="M 1458.43 1195.71 C 1460.53 1211.31 1462.88 1225.33 1463.82 1241.07 L 1464.47 1248.25 C 1460.73 1245.35 1460.52 1245.18 1456.11 1243.61 C 1452.52 1241.91 1444.2 1239.35 1440.24 1238.06 C 1445.23 1230.63 1449.92 1219.55 1453.67 1211.19 L 1458.43 1195.71 z" />
<path transform="translate(0,0)" fill="rgb(237,199,112)" d="M 1458.43 1195.71 C 1460.53 1211.31 1462.88 1225.33 1463.82 1241.07 C 1458.9 1234.56 1462.51 1214.71 1456.96 1208.33 L 1453.67 1211.19 L 1458.43 1195.71 z" />
<path transform="translate(0,0)" fill="rgb(56,56,56)" d="M 787.963 1106.5 C 796.483 1101.01 802.394 1098.13 811.907 1094.51 C 813.753 1096.17 815.578 1097.87 817.38 1099.58 L 787.963 1106.5 z" />
<path transform="translate(0,0)" fill="rgb(2,3,3)" d="M 1410.84 381.071 C 1413.34 381.227 1415.96 381.322 1418.37 382.019 C 1422.21 383.133 1425.49 385.459 1427.26 389.108 C 1432.34 399.6 1416.23 454.521 1411.87 467.306 C 1409.55 474.104 1407.17 478.698 1400.64 481.951 C 1396.49 484.017 1394.86 486.354 1393.18 490.674 C 1389.22 500.851 1387.25 512.64 1384.5 523.247 C 1378.93 544.711 1373.23 566.143 1367.41 587.54 L 1310.25 799.713 C 1302.03 830.121 1290.92 877.006 1281.23 905.81 C 1285.73 912.112 1307.68 933.525 1300.22 940.74 C 1293.07 942.201 1277 936.035 1268.66 934.212 L 1267.79 934.027 C 1260.68 932.012 1249.45 931.753 1246.55 924.518 C 1250.08 914.11 1278.11 925.641 1287.67 927.611 C 1280.7 920.049 1276.91 916.584 1271.38 907.869 C 1277.69 877.268 1291.08 831.739 1299.47 800.922 L 1355.51 592.47 C 1364.69 558.217 1377.9 514.464 1385.1 480.341 C 1384.52 479.03 1383.95 477.711 1383.4 476.387 C 1378.14 463.412 1386.11 438.11 1390.08 424.715 C 1394.08 411.203 1397.12 386.56 1410.84 381.071 z" />
<path transform="translate(0,0)" fill="rgb(56,56,56)" d="M 1410.44 390.781 C 1415.24 391.109 1415.66 390.663 1418.78 393.349 C 1421.46 402.187 1403.51 461.212 1398.55 471.495 C 1394.69 472.221 1393.93 471.848 1391.53 469.25 C 1389.31 460.519 1406.62 398.542 1410.44 390.781 z" />
<path transform="translate(0,0)" fill="rgb(2,3,3)" d="M 661.096 981.928 C 669.214 982.631 688.482 982.917 694.762 988.542 C 698.806 992.166 693.868 1003.27 695.666 1007.75 C 696.124 1009.06 695.465 1010.27 694.886 1011.37 C 689.27 1015.21 646.47 1014.12 641.023 1006.92 C 640.809 1003.57 640.372 1005.04 642.344 1002.36 C 652.638 997.433 677.639 1002.97 685.95 999.864 L 686.257 998.261 C 677.549 987.701 634.517 1002.66 640.937 983.027 C 647.189 981.876 654.668 982.038 661.096 981.928 z" />
<path transform="translate(0,0)" fill="rgb(198,201,202)" d="M 737.749 1024.15 C 742.165 1025.11 769.401 1036.06 773.946 1038.27 C 774.839 1044.03 764.276 1059.77 758.675 1062.98 C 750.72 1071.76 748.092 1073.79 737.308 1077.39 C 738.091 1059.2 737.426 1042.23 737.749 1024.15 z" />
<path transform="translate(0,0)" fill="rgb(254,254,254)" d="M 743.888 1033.26 C 750.86 1036.8 759.165 1039.64 766.704 1041.74 C 764.677 1045.3 761.345 1051.55 758.362 1054.12 C 756.321 1055.89 757.032 1055 755.308 1057.52 C 752.386 1061.8 750.19 1066.34 745.348 1067.53 C 742.563 1063.55 744.088 1041.31 743.888 1033.26 z" />
<path transform="translate(0,0)" fill="rgb(2,3,3)" d="M 694.59 1049.87 L 697.527 1048.36 C 700.917 1050.32 699.668 1048.99 701.41 1052.5 C 700.955 1056.06 701.79 1054.81 699.347 1056.7 L 697.475 1056.87 C 689.357 1061.29 650.816 1062.56 642.282 1059.58 C 639.653 1057.15 639.683 1057.41 638.972 1053.94 C 639.717 1052.38 639.682 1051.65 641.184 1051.01 C 648.752 1047.8 688.121 1048.24 694.59 1049.87 z" />
<path transform="translate(0,0)" fill="rgb(237,234,227)" d="M 694.59 1049.87 L 697.527 1048.36 C 700.917 1050.32 699.668 1048.99 701.41 1052.5 C 700.955 1056.06 701.79 1054.81 699.347 1056.7 L 697.475 1056.87 L 694.59 1049.87 z" />
<path transform="translate(0,0)" fill="rgb(2,3,3)" d="M 643.432 1017.26 C 655.965 1016.5 670.194 1017.41 682.855 1017.33 C 688.495 1017.29 694 1017.72 696.507 1023.1 C 696.213 1026.86 696.019 1026.73 693.756 1029.57 C 680.479 1030.16 665.955 1029.68 652.6 1029.25 C 647.131 1029.08 642.32 1028.46 639.956 1023.24 C 640.74 1019.41 640.513 1020.58 643.432 1017.26 z" />
<path transform="translate(0,0)" fill="rgb(2,3,3)" d="M 1227.19 994.495 C 1235.12 994.079 1276.04 1005.11 1281.14 1011.45 C 1281.75 1015.65 1282.02 1013.57 1279.51 1017.77 C 1272.44 1019.73 1231.38 1007.54 1226.57 1002.99 C 1225.47 999.625 1226.31 997.94 1227.19 994.495 z" />
<path transform="translate(0,0)" fill="rgb(2,3,3)" d="M 1230.87 979.82 C 1243.26 978.73 1273.57 987.647 1284.17 995.275 C 1286.33 996.832 1284.99 1000.63 1284.58 1002.75 C 1277.9 1004.62 1238.6 992.193 1231.74 988.05 C 1230.04 985.301 1230.63 983.13 1230.87 979.82 z" />
<path transform="translate(0,0)" fill="rgb(2,3,3)" d="M 1239.63 963.733 C 1250.47 966.213 1284.53 972.504 1288.59 982.637 C 1288.15 986.311 1288.16 986.042 1285.74 988.88 C 1276.08 986.797 1265.7 982.975 1256.08 980.323 C 1250.33 978.741 1237.15 975.515 1234.89 970.165 C 1235.35 967.049 1237.23 965.938 1239.63 963.733 z" />
<path transform="translate(0,0)" fill="rgb(2,3,3)" d="M 1245.58 947.914 C 1255.59 950.475 1290.46 957.536 1293.52 966.889 C 1292.99 970.423 1292.42 970.492 1289.91 973.034 C 1279.94 970.272 1244.17 963.258 1240.72 953.761 C 1242.16 949.72 1241.69 950.99 1245.58 947.914 z" />
<path transform="translate(0,0)" fill="rgb(2,3,3)" d="M 645.231 1033.41 C 656.554 1032.98 685.061 1031.17 694.166 1035.04 C 696.778 1038.01 696.088 1036.31 696.214 1040.35 C 694.187 1043.8 694.99 1042.68 690.961 1044.78 C 679.707 1044.8 651.286 1045.75 641.999 1042.77 C 639.362 1040.22 639.944 1041.68 639.567 1038.56 C 641.815 1035.3 641.993 1035.43 645.231 1033.41 z" />
<path transform="translate(0,0)" fill="rgb(2,3,3)" d="M 1245.68 932.597 C 1255.91 933.521 1292.09 942.327 1296.62 951.004 C 1296.92 954.782 1296.36 955.267 1294.51 958.52 C 1287.68 956.67 1245.34 943.808 1243.28 939.727 C 1242.93 936.546 1244.04 935.39 1245.68 932.597 z" />
</svg>