<svg version="1.1" xmlns="http://www.w3.org/2000/svg" style="display: block;" viewBox="0 0 2048 2048" width="1024" height="1024" preserveAspectRatio="none">
<defs>
	<linearGradient id="Gradient1" gradientUnits="userSpaceOnUse" x1="1407.42" y1="1146.14" x2="1429.56" y2="1107.68">
		<stop class="stop0" offset="0" stop-opacity="1" stop-color="rgb(208,160,113)"/>
		<stop class="stop1" offset="1" stop-opacity="1" stop-color="rgb(230,199,169)"/>
	</linearGradient>
	<linearGradient id="Gradient2" gradientUnits="userSpaceOnUse" x1="1377" y1="1047.11" x2="1468.99" y2="999.872">
		<stop class="stop0" offset="0" stop-opacity="1" stop-color="rgb(84,84,84)"/>
		<stop class="stop1" offset="1" stop-opacity="1" stop-color="rgb(107,107,107)"/>
	</linearGradient>
	<linearGradient id="Gradient3" gradientUnits="userSpaceOnUse" x1="1510.97" y1="991.393" x2="1534.27" y2="986.222">
		<stop class="stop0" offset="0" stop-opacity="1" stop-color="rgb(84,82,82)"/>
		<stop class="stop1" offset="1" stop-opacity="1" stop-color="rgb(111,111,112)"/>
	</linearGradient>
	<linearGradient id="Gradient4" gradientUnits="userSpaceOnUse" x1="1170.45" y1="923.662" x2="1235.84" y2="857.903">
		<stop class="stop0" offset="0" stop-opacity="1" stop-color="rgb(210,161,113)"/>
		<stop class="stop1" offset="1" stop-opacity="1" stop-color="rgb(230,194,160)"/>
	</linearGradient>
</defs>
<path transform="translate(0,0)" fill="rgb(245,245,243)" d="M 1407.25 336.348 C 1427.35 333.497 1449.24 344.088 1461.46 359.783 C 1476.86 379.028 1474.16 400.904 1468.84 423.309 C 1466.24 434.243 1463.58 445.388 1460.49 456.182 C 1457.18 467.715 1455.23 479.472 1449.77 490.206 C 1443.75 502.048 1433.29 510.729 1429.56 523.821 C 1408.3 598.597 1389.38 674.017 1368.71 748.943 C 1359.29 783.066 1351.09 817.958 1340.5 851.718 C 1359.44 854.308 1371.3 857.754 1389.1 863.721 C 1407.28 855.13 1424.1 855.859 1443.37 860.23 C 1465.23 865.188 1505.44 873.143 1518.64 892.781 C 1523.38 899.836 1525.83 910.213 1532.52 915.579 C 1536.22 918.55 1541.88 920.235 1546.29 922.143 C 1560.34 928.228 1571.63 938.137 1579.66 951.178 C 1586.06 961.574 1590.2 973.162 1590.86 985.395 C 1592.48 1015.63 1568.62 1091.38 1560.56 1124.59 C 1584.91 1142.04 1612.16 1166.92 1620.13 1197.02 C 1638.22 1265.38 1548.74 1294.55 1498.12 1308.05 C 1497.39 1318.93 1499.12 1335.77 1499.57 1347.36 C 1500.12 1366.19 1500.11 1385.02 1499.54 1403.85 C 1496.78 1484.77 1491.84 1591.79 1427.98 1647.66 C 1404.41 1668.28 1365.08 1689.28 1335.17 1698.68 C 1256.45 1723.42 1170.44 1730.85 1088.68 1739.28 C 1014.49 1748.71 943.144 1751.31 868.771 1750.67 C 617.24 1748.52 561.352 1597.46 571.609 1372.72 C 562.803 1372.78 550.769 1371.55 541.755 1370.88 C 536.375 1370.98 526.915 1369.44 521.421 1368.78 C 484.537 1364.53 432.942 1356.06 425.858 1311.18 C 418.242 1262.93 465.301 1225.17 496.651 1196.07 C 515.825 1178.28 540.307 1157.74 561.602 1142.86 C 594.268 1120.05 609.191 1120.22 595.342 1074.01 C 592.076 1062.93 596.379 1037.46 595.833 1025.24 C 595.759 1003.27 592.867 979.33 599.148 957.997 C 601.41 950.335 609.727 942.765 614.309 935.702 L 614.914 934.751 L 622.675 673.998 C 624.613 622.278 626.15 570.544 627.287 518.8 C 627.515 502.146 620.361 497.042 619.15 484.647 C 616.599 458.536 618.108 426.712 619.314 400.457 C 620.139 382.489 627.218 365.814 641.278 354.402 C 653.832 344.258 669.949 339.61 685.977 341.512 C 701.409 343.516 715.439 351.492 725.056 363.727 C 733.392 374.348 738.748 391.448 738.798 404.698 C 738.905 433.001 741.206 462.046 736.969 490.038 C 735.416 500.298 725.986 511.651 725.463 520.732 C 723.823 549.241 723.4 577.971 722.506 606.54 L 716.962 801.875 C 716.737 808.542 713.501 848.512 715.797 851.356 L 717.519 847.584 C 718.792 847.327 720.378 847.006 722.277 846.623 C 728.847 841.125 735.323 833.371 741.697 827.886 C 751.967 819.05 762.491 810.536 773.436 802.642 C 798.322 784.692 824.629 769.434 852.824 757.315 C 862.639 753.096 881.192 748.331 889.483 743.853 C 900.697 737.797 911.378 719.708 925.326 712.119 C 934.83 706.948 939.436 704.324 950.819 701.592 C 976.678 695.387 1003.13 698.941 1026.54 711.502 C 1032.32 714.603 1039.53 722.959 1045.65 724.615 C 1062.54 729.179 1081.93 728.831 1098.89 732.743 C 1138.98 741.992 1177.87 755.678 1214.07 775.331 C 1227.44 782.588 1240.85 791.858 1254.2 799.728 C 1260.62 778.454 1266.26 754.893 1271.93 733.322 L 1293.99 651.509 C 1307.78 599.966 1322.3 548.6 1335.81 496.976 C 1339.65 482.297 1334.71 474.185 1336.39 461.326 C 1339.43 438.058 1348.15 414.184 1353.23 391.154 C 1359.64 362.079 1376.45 340.32 1407.25 336.348 z"/>
<path transform="translate(0,0)" fill="rgb(0,0,0)" d="M 1385.68 480.664 C 1382.67 475.942 1380.09 471.527 1380.89 465.725 C 1383.64 445.734 1390.02 426.29 1395.12 406.801 C 1397.37 398.205 1399.9 389.16 1407.12 383.379 C 1418.17 374.529 1431.23 388.133 1429.32 399.736 C 1427.95 408.995 1424.8 417.261 1422.52 426.301 C 1418.83 440.45 1416.37 454.92 1411.45 468.697 C 1407.4 479.919 1405.36 480.03 1395.56 484.48 C 1389.66 499.97 1384.17 524.259 1379.78 540.949 L 1356.04 629.499 C 1332.88 716.403 1307.88 804.787 1285.89 891.794 C 1292.34 899.509 1298.61 907.378 1304.68 915.394 C 1315.92 910.505 1318.7 912.391 1328.87 910.119 C 1331.92 909.439 1329.49 903.379 1342.02 898.135 C 1362.33 901.16 1371.55 900.382 1377.01 920.804 C 1377.83 923.852 1387.78 924.921 1390.9 925.423 C 1409.46 900.153 1412.51 897.34 1442.5 906.276 C 1477.1 916.586 1488.9 910.577 1491.44 952.312 C 1538.28 963.327 1555.23 967.542 1540.51 1021.48 C 1532.5 1050.81 1527.67 1084.69 1516 1113.07 C 1512.07 1122.63 1498.86 1126.65 1489.73 1129.35 C 1512.85 1145.15 1569.38 1181.23 1576.9 1209.75 C 1578.08 1214.23 1577.17 1221.08 1574.09 1224.72 C 1552.18 1250.59 1477.94 1268.85 1445.86 1273.9 C 1462.2 1345.01 1454.36 1412.19 1448.81 1483.91 C 1440.72 1588.36 1398.87 1636.18 1298.2 1662.78 C 1238.72 1678.49 1177.86 1683.88 1116.5 1690.99 C 1019.71 1702.21 921.323 1711.63 823.855 1702.58 C 763.287 1696.54 705.456 1678.67 666.919 1628.84 C 625.703 1575.55 620.325 1514.6 617.296 1450.02 C 615.401 1409.62 615.721 1367.93 620.388 1327.75 C 583.16 1327.88 544.082 1327.94 507.278 1321.88 C 498.198 1320.41 477.695 1316.35 472.824 1307.65 C 462.91 1289.94 494.179 1261.76 504.449 1251.57 C 545.561 1210.73 591.311 1174.85 640.767 1144.66 C 641.881 1126.48 644.393 1110.42 647.951 1092.69 C 648.679 1089.05 651.1 1078.42 650.242 1075.79 C 646.239 1074.6 643.958 1074.3 640.812 1071.72 C 639.682 1068.17 639.661 1069.89 640.828 1066.4 C 646.152 1062.74 651.481 1068.32 654.638 1061.99 C 653.36 1059.93 646.386 1061.23 640.578 1058.69 C 638.28 1055.71 638.826 1057.36 638.959 1053.54 C 644.338 1046.8 652.592 1051.65 658.555 1047.82 L 658.633 1046.15 C 652.923 1042.78 639.637 1048.63 640.332 1037.34 C 647.105 1029.58 660.476 1037.02 663.821 1030 C 658.206 1026.56 646.366 1031.83 640.652 1024.63 C 640.321 1020.86 639.861 1022.49 641.814 1019.5 C 652.04 1013.51 664.403 1021.41 669.923 1013.89 C 665.193 1009.75 640.473 1016.08 640.283 1005.53 C 648.729 992.206 671.399 1010.2 676.807 995.027 C 672.829 991.785 651.719 996.275 641.435 990.461 C 639.495 987.408 639.775 988.992 640.352 985.594 C 647.853 977.512 673.2 985.74 683.344 981.85 L 684.124 980.083 C 679.575 976.121 650.305 981.134 641.112 976.463 C 640.092 973.601 640.166 975.087 641.441 971.861 C 648.878 965.593 671.539 967.975 681.93 968.261 C 675.856 963.225 668.975 958.999 663.356 953.413 C 659.689 949.866 659.108 946.004 659.191 941.06 C 659.411 927.988 660.422 914.866 660.718 901.789 C 661.406 864.711 662.474 827.64 663.922 790.584 L 672.971 493.976 C 669.325 490.838 664.799 485.312 664.186 480.415 C 660.998 457.21 663.562 432.847 663.319 409.551 C 663.082 386.973 681.206 377.056 694.99 397.058 C 696.968 417.453 696.818 464.191 692.919 484.856 C 692.081 489.299 686.725 492.373 682.982 494.429 L 669.811 944.495 C 677.698 952.044 683.877 956.075 692.54 964.999 C 693.212 963.65 693.804 962.48 694.529 961.156 C 734.042 888.04 797.406 830.663 874.072 798.575 C 891.822 791.193 909.584 786.188 928.025 780.872 C 939.845 743.592 977.421 734.512 1008.68 754.412 C 1015.22 760.288 1018.13 763.471 1022.81 771.307 C 1027.62 771.317 1033.49 771.087 1038.14 771.894 C 1104.81 771.092 1184.52 803.622 1236.53 844.338 C 1251.54 856.09 1264.85 868.94 1278 882.692 C 1299.09 801.735 1320.62 720.896 1342.6 640.177 C 1356.85 587.457 1370.59 533.026 1385.68 480.664 z"/>
<path transform="translate(0,0)" fill="rgb(245,245,243)" d="M 662.477 1239.84 C 691.425 1233.77 720.378 1228.76 749.573 1224.17 C 854.756 1207.6 960.612 1192.15 1066.86 1184.66 C 1110.3 1181.86 1153.82 1180.53 1197.34 1180.68 C 1253.1 1180.4 1317.44 1180.78 1373.62 1185.4 C 1388.78 1186.64 1411.92 1218.83 1419.61 1232.31 C 1429.21 1252.51 1436.51 1273.39 1440.28 1295.47 C 1450.79 1356.98 1445.45 1495.47 1424.91 1553.59 C 1414.95 1581.74 1398.46 1603.98 1373.01 1619.78 C 1314.5 1659.29 1222.4 1669.24 1153.29 1677.37 C 1101.76 1683.48 1050.12 1688.72 998.409 1693.07 C 918.054 1699.71 815.967 1702.85 740.48 1673.1 C 665.125 1641.94 632.466 1559.86 629.534 1483.71 C 626.876 1414.7 616.022 1293.84 662.477 1239.84 z"/>
<path transform="translate(0,0)" fill="rgb(197,196,196)" d="M 662.477 1239.84 C 691.425 1233.77 720.378 1228.76 749.573 1224.17 C 854.756 1207.6 960.612 1192.15 1066.86 1184.66 C 1110.3 1181.86 1153.82 1180.53 1197.34 1180.68 C 1253.1 1180.4 1317.44 1180.78 1373.62 1185.4 C 1388.78 1186.64 1411.92 1218.83 1419.61 1232.31 C 1400.77 1234.71 1375.75 1225.94 1356 1225.5 C 1311.51 1224.5 1266.71 1222.92 1222.2 1223.18 C 1134.84 1223.69 1048.06 1232.45 961.149 1240.26 C 882.492 1247.32 803.779 1257.52 726.399 1273.46 C 718.024 1275.2 709.706 1278.31 701.322 1280.02 C 696.761 1302.51 694.747 1332.17 693.718 1355.06 C 690.532 1425.92 693.562 1507.81 733.108 1568.99 C 775.142 1634.02 845.995 1645.21 916.574 1651.57 C 959.936 1655.48 1002.34 1660.58 1046.28 1658.43 C 1068.08 1657.86 1096.73 1652.03 1119.58 1649.72 L 1229.53 1638.18 C 1244.94 1636.64 1261.51 1636.19 1276.63 1634.34 C 1305.42 1630.82 1343.29 1615.07 1373.01 1619.78 C 1314.5 1659.29 1222.4 1669.24 1153.29 1677.37 C 1101.76 1683.48 1050.12 1688.72 998.409 1693.07 C 918.054 1699.71 815.967 1702.85 740.48 1673.1 C 665.125 1641.94 632.466 1559.86 629.534 1483.71 C 626.876 1414.7 616.022 1293.84 662.477 1239.84 z"/>
<path transform="translate(0,0)" fill="rgb(0,0,0)" d="M 924.065 1310.42 C 995.92 1304.53 1043.2 1360.22 1056.81 1425.76 C 1075.1 1425.97 1083.88 1422.12 1099.52 1421.06 C 1129.38 1419.05 1160.68 1416.16 1190.45 1415.75 C 1200.45 1372.28 1226.83 1335.86 1272.67 1326.54 C 1295.76 1321.83 1319.77 1326.54 1339.36 1339.64 C 1388.35 1372.4 1394.62 1447.42 1362.92 1493.89 C 1346.69 1517.56 1321.84 1533.93 1293.68 1539.49 C 1268.97 1544.12 1250.18 1539.3 1229.87 1525.34 C 1207.81 1506.38 1198.49 1486.07 1190.17 1458.75 C 1162.26 1459.2 1135.71 1461.48 1108.16 1462.67 C 1085.78 1463.63 1081.07 1459.56 1056.19 1463.97 C 1051.14 1496.6 1041.08 1521.6 1020.07 1547.16 C 976.581 1600.07 891.857 1613.72 838.656 1567.37 C 782.119 1518.12 777.783 1415.81 826.802 1359.75 C 853.034 1329.75 884.505 1313.72 924.065 1310.42 z"/>
<path transform="translate(0,0)" fill="rgb(58,58,59)" d="M 918.736 1320.35 C 942.927 1316.32 977.291 1324.31 996.693 1339.32 C 1022.95 1359.7 1043.55 1396.58 1047.04 1429.85 C 1054.37 1499.56 1009.34 1576.37 936.248 1584.92 C 905.202 1586.43 880.823 1585.74 854.566 1566.68 C 792.95 1521.94 787.536 1417.56 838.387 1363.1 C 860.851 1339.04 886.061 1325.19 918.736 1320.35 z"/>
<path transform="translate(0,0)" fill="rgb(0,0,0)" d="M 930.511 1329.44 C 955.689 1328.46 980.172 1338.39 999.302 1354.58 C 1080.54 1423.32 1040.41 1570.31 930.724 1578.09 C 923.85 1578.2 916.819 1578.31 909.984 1577.54 C 856.721 1571.53 819.871 1522.65 816.102 1471.62 C 813.374 1433.83 825.729 1396.49 850.463 1367.78 C 870.936 1344.07 899.626 1331.68 930.511 1329.44 z"/>
<path transform="translate(0,0)" fill="rgb(58,58,59)" d="M 981.89 1437.77 C 975.84 1431.24 970.634 1418.06 964.421 1410.36 C 955.433 1397.91 936.209 1402.59 924.448 1395.19 C 903.847 1380.99 917.079 1364.35 936.719 1359.16 C 962.306 1352.41 991.416 1371.72 996.612 1397.87 C 1019.36 1436.29 989.883 1467.28 981.89 1437.77 z"/>
<path transform="translate(0,0)" fill="rgb(245,245,243)" d="M 981.89 1437.77 C 981.772 1426.16 970.284 1389.52 996.612 1397.87 C 1019.36 1436.29 989.883 1467.28 981.89 1437.77 z"/>
<path transform="translate(0,0)" fill="rgb(58,58,59)" d="M 856.89 1492.93 C 858.065 1492.79 859.92 1492.71 861.004 1492.58 C 866.646 1491.91 876.847 1504.99 881.515 1509.67 C 907.23 1535.4 932.968 1522.7 964.04 1520.82 C 968.78 1520.53 974.033 1521.33 977.618 1525.01 C 980.272 1534.15 971.053 1540.95 964.521 1545.7 C 906.261 1582.96 831.344 1525.31 856.89 1492.93 z"/>
<path transform="translate(0,0)" fill="rgb(58,58,59)" d="M 1169.97 1422.43 L 1188.08 1422.91 C 1187.98 1432.26 1188.06 1441.61 1188.33 1450.96 C 1159.9 1452.35 1139.95 1452.57 1111.48 1452.25 L 1092.23 1451.92 C 1091.67 1442.85 1091.28 1438.37 1092.15 1429.4 C 1104.67 1428.2 1117.84 1428.14 1130.2 1426.81 C 1143.95 1425.33 1156.04 1423.22 1169.97 1422.43 z"/>
<path transform="translate(0,0)" fill="rgb(58,58,59)" d="M 1309.71 1407.55 C 1303.01 1397.14 1298.27 1386.47 1283.41 1386.77 C 1266.63 1387.11 1259.87 1373.33 1278.39 1365.74 C 1301.91 1356.09 1319 1367.39 1326.24 1390.22 C 1353.64 1419.79 1313.11 1446.87 1309.71 1407.55 z"/>
<path transform="translate(0,0)" fill="rgb(245,245,243)" d="M 1309.71 1407.55 C 1311.35 1395.48 1313.85 1391.87 1326.24 1390.22 C 1353.64 1419.79 1313.11 1446.87 1309.71 1407.55 z"/>
<path transform="translate(0,0)" fill="rgb(58,58,59)" d="M 1240.14 1465.38 C 1250.77 1468.62 1255.09 1478.94 1265.77 1481.23 C 1280.21 1484.33 1304.78 1474.89 1317.01 1481.99 C 1320.92 1488.41 1315.69 1491.98 1311.03 1496.32 C 1282.26 1516.02 1220.53 1495.88 1240.14 1465.38 z"/>
<path transform="translate(0,0)" fill="rgb(58,58,59)" d="M 1057.01 1431.54 L 1083.47 1430.78 C 1085.2 1439.91 1086.64 1445.39 1084.59 1454.7 C 1076.33 1455.07 1065.25 1456.52 1056.82 1457.36 L 1057.01 1431.54 z"/>
<path transform="translate(0,0)" fill="rgb(219,179,130)" d="M 982.706 782.876 C 996.007 780.666 1023.69 779.863 1037.48 781.868 C 1121.61 783.725 1207.2 822.529 1264.81 883.533 C 1307.73 928.976 1331.15 971.184 1355.16 1027.97 C 1328.13 1019.1 1294.26 1010.33 1266.09 1006.34 C 1254.16 994.858 1236.55 978.853 1225.7 966.945 C 1220.04 961.683 1212.92 955.414 1207.85 949.758 C 1192.53 936.052 1189.64 931.094 1170 925.401 L 1169.26 924.488 L 1168.01 922.982 C 1151.8 903.296 1132.78 901.669 1112.7 917.131 C 1102.05 930.277 1101.06 939.769 1107.02 955.009 C 1086.08 954.797 1080.08 956.977 1062.06 967.333 L 1056.31 959.079 C 1048.48 947.83 1042.05 945.491 1029.93 940.132 C 1027.91 936.241 1025.24 931.967 1022.25 928.766 C 1016.26 922.201 1007.84 918.374 998.945 918.172 C 986.338 917.82 977.44 923.086 968.897 931.559 C 960.909 945.716 962.15 950.922 965.822 967.021 C 958.441 986.068 960.05 988.844 964.528 1008.52 C 956.625 1009.19 950.487 1009.93 942.659 1011.18 C 896.438 1018 855.963 1026.93 810.691 1038.62 C 807.142 1039.67 803.355 1040.89 799.763 1041.69 C 782.719 1046.71 765.769 1052.04 748.92 1057.68 C 715.282 1069.09 689.91 1079.38 657.577 1093.4 C 672.545 1018.49 703.374 949.106 755.771 892.893 C 798.733 846.802 860.934 807.24 922.865 793.13 L 941.697 788.398 C 950.25 786.886 958.824 785.489 967.415 784.208 C 973.201 783.212 976.924 783.104 982.706 782.876 z"/>
<path transform="translate(0,0)" fill="rgb(175,138,98)" d="M 922.865 793.13 L 941.697 788.398 C 939.87 793.606 911.209 813.407 904.945 819.472 C 841.122 881.265 808.57 954.791 799.763 1041.69 C 782.719 1046.71 765.769 1052.04 748.92 1057.68 C 715.282 1069.09 689.91 1079.38 657.577 1093.4 C 672.545 1018.49 703.374 949.106 755.771 892.893 C 798.733 846.802 860.934 807.24 922.865 793.13 z"/>
<path transform="translate(0,0)" fill="rgb(219,179,130)" d="M 922.865 793.13 L 941.697 788.398 C 939.87 793.606 911.209 813.407 904.945 819.472 C 841.122 881.265 808.57 954.791 799.763 1041.69 C 782.719 1046.71 765.769 1052.04 748.92 1057.68 C 748.81 1057.37 748.7 1057.06 748.59 1056.75 C 760.596 963.419 812.733 881.342 884.529 821.95 C 894.457 813.737 917.049 803.166 922.865 793.13 z"/>
<path transform="translate(0,0)" fill="url(#Gradient4)" d="M 982.706 782.876 C 996.007 780.666 1023.69 779.863 1037.48 781.868 C 1121.61 783.725 1207.2 822.529 1264.81 883.533 C 1307.73 928.976 1331.15 971.184 1355.16 1027.97 C 1328.13 1019.1 1294.26 1010.33 1266.09 1006.34 C 1254.16 994.858 1236.55 978.853 1225.7 966.945 C 1220.04 961.683 1212.92 955.414 1207.85 949.758 C 1207.51 936.288 1167.33 886.426 1156.6 875.126 C 1118.15 834.875 1069.77 805.469 1016.33 789.87 C 1007.36 787.257 991.746 783.133 982.706 782.876 z"/>
<path transform="translate(0,0)" fill="rgb(175,138,98)" d="M 982.706 782.876 C 996.007 780.666 1023.69 779.863 1037.48 781.868 C 1031.94 782.1 1026.4 782.223 1020.85 782.236 C 1091.6 800.633 1162.18 855.805 1200.3 917.197 C 1209.06 931.298 1222.67 950.721 1225.7 966.945 C 1220.04 961.683 1212.92 955.414 1207.85 949.758 C 1207.51 936.288 1167.33 886.426 1156.6 875.126 C 1118.15 834.875 1069.77 805.469 1016.33 789.87 C 1007.36 787.257 991.746 783.133 982.706 782.876 z"/>
<path transform="translate(0,0)" fill="rgb(175,138,98)" d="M 941.697 788.398 C 950.25 786.886 958.824 785.489 967.415 784.208 C 967.092 784.629 966.769 785.051 966.446 785.472 C 944.434 799.653 928.845 809.267 909.152 828.078 C 852.071 882.602 817.303 957.917 808.924 1036.06 C 808.792 1037.29 809.826 1038.08 810.691 1038.62 C 807.142 1039.67 803.355 1040.89 799.763 1041.69 C 808.57 954.791 841.122 881.265 904.945 819.472 C 911.209 813.407 939.87 793.606 941.697 788.398 z"/>
<path transform="translate(0,0)" fill="rgb(180,152,113)" d="M 942.659 1011.18 C 937.113 997.967 940.271 980.212 945.249 967.328 C 951.143 952.073 949.5 935.085 968.897 931.559 C 960.909 945.716 962.15 950.922 965.822 967.021 C 958.441 986.068 960.05 988.844 964.528 1008.52 C 956.625 1009.19 950.487 1009.93 942.659 1011.18 z"/>
<path transform="translate(0,0)" fill="rgb(175,138,98)" d="M 1085.77 947.476 C 1087.53 933.293 1096.24 916.508 1112.7 917.131 C 1102.05 930.277 1101.06 939.769 1107.02 955.009 C 1086.08 954.797 1080.08 956.977 1062.06 967.333 L 1056.31 959.079 C 1067.62 952.634 1072.96 951.272 1085.77 947.476 z"/>
<path transform="translate(0,0)" fill="rgb(219,179,130)" d="M 1135.45 1091.69 C 1145.89 1091.44 1155.17 1091.21 1165.65 1091.67 C 1181.67 1109.87 1193.88 1117.82 1218.73 1119.41 C 1220.64 1119.53 1222.55 1119.64 1224.47 1119.74 C 1239.25 1117.73 1246.43 1114.06 1259.17 1106.66 C 1310.5 1122.98 1361.23 1139.33 1402.49 1176.43 C 1256.79 1168.7 1111.27 1166.61 966.227 1184 C 902.967 1191.59 840.516 1199.95 777.546 1209.68 C 833.069 1160.49 897.732 1133.66 967.916 1112.5 C 976.804 1110.51 987.927 1107.68 996.744 1106.24 C 1011.62 1124.06 1023.34 1131.38 1046.84 1133.43 C 1049.19 1133.63 1051.55 1133.81 1053.9 1133.98 C 1083.52 1129.28 1097.18 1118.08 1111.08 1092.02 L 1135.45 1091.69 z"/>
<path transform="translate(0,0)" fill="rgb(180,152,113)" d="M 967.916 1112.5 C 976.804 1110.51 987.927 1107.68 996.744 1106.24 C 1011.62 1124.06 1023.34 1131.38 1046.84 1133.43 C 1049.19 1133.63 1051.55 1133.81 1053.9 1133.98 C 1053.08 1134.64 1051.61 1135.85 1050.59 1136.21 C 1024.11 1145.63 981.892 1139.42 967.916 1112.5 z"/>
<path transform="translate(0,0)" fill="rgb(180,152,113)" d="M 1135.45 1091.69 C 1145.89 1091.44 1155.17 1091.21 1165.65 1091.67 C 1181.67 1109.87 1193.88 1117.82 1218.73 1119.41 C 1220.64 1119.53 1222.55 1119.64 1224.47 1119.74 C 1215.3 1127.05 1192.32 1126.94 1181.04 1124.48 C 1160.7 1120.04 1146.67 1108.98 1135.45 1091.69 z"/>
<path transform="translate(0,0)" fill="rgb(219,179,130)" d="M 737.821 1116.47 C 796.469 1095.65 885.061 1076.81 946.297 1068.48 L 948.497 1069.71 C 949.761 1074.41 949.792 1075.61 950.102 1080.54 C 873.973 1097.75 751.485 1154.19 707.037 1220.93 C 680.791 1226.46 654.204 1231.24 627.868 1236.53 C 622.49 1238.52 601.801 1243.03 594.874 1244.82 C 560.236 1253.76 520.426 1264.05 489.225 1281.94 C 527.049 1238.26 596.476 1182.91 645.759 1153.78 C 665.393 1142.18 715.794 1122.77 737.821 1116.47 z"/>
<path transform="translate(0,0)" fill="rgb(175,138,98)" d="M 489.225 1281.94 C 527.049 1238.26 596.476 1182.91 645.759 1153.78 C 665.393 1142.18 715.794 1122.77 737.821 1116.47 C 736.572 1121.4 716.773 1136.24 711.664 1140.41 C 682.158 1164.49 655.801 1191.33 634.201 1222.8 C 632.331 1225.52 627.006 1233.73 627.868 1236.53 C 622.49 1238.52 601.801 1243.03 594.874 1244.82 C 560.236 1253.76 520.426 1264.05 489.225 1281.94 z"/>
<path transform="translate(0,0)" fill="rgb(58,58,59)" d="M 1362.44 1020.44 C 1350.46 993.361 1338.73 966.811 1322.67 941.838 C 1318.92 936.003 1314.25 929.807 1311.43 923.554 L 1313.16 921.755 C 1320.76 918.932 1334.08 921.05 1341.84 923.258 C 1382.8 933.635 1423.69 944.312 1464.49 955.288 C 1477.34 958.8 1494.62 962.495 1506.71 966.408 C 1539.99 974.966 1540.25 984.146 1532.72 1015.38 L 1518.91 1069.17 C 1516.61 1078.5 1513.28 1094.5 1510.52 1103.05 C 1484.38 1103.68 1464.03 1096.23 1441.72 1082.23 C 1455.75 1077.82 1467.62 1068.32 1475.01 1055.6 C 1492.9 1024.48 1483.09 988.121 1451.66 970.481 C 1437.9 962.611 1421.51 960.739 1406.33 965.303 C 1388.37 970.53 1377.09 980.884 1368.21 996.845 C 1364.24 1006.5 1363.18 1010.22 1362.44 1020.44 z"/>
<path transform="translate(0,0)" fill="rgb(45,45,46)" d="M 1362.44 1020.44 C 1350.46 993.361 1338.73 966.811 1322.67 941.838 C 1318.92 936.003 1314.25 929.807 1311.43 923.554 L 1313.16 921.755 C 1320.76 918.932 1334.08 921.05 1341.84 923.258 C 1338.39 931.468 1362.26 990.495 1368.21 996.845 C 1364.24 1006.5 1363.18 1010.22 1362.44 1020.44 z"/>
<path transform="translate(0,0)" fill="url(#Gradient3)" d="M 1506.71 966.408 C 1539.99 974.966 1540.25 984.146 1532.72 1015.38 C 1530.13 1011.52 1530.18 999.383 1529.21 993.727 C 1526.47 977.552 1517.08 976.063 1505.98 968.385 L 1506.71 966.408 z"/>
<path transform="translate(0,0)" fill="rgb(253,36,30)" d="M 1504.84 983.447 C 1511.71 981.87 1518.6 986.03 1520.4 992.849 C 1522.2 999.667 1518.27 1006.69 1511.52 1008.71 C 1506.94 1010.09 1501.99 1008.86 1498.59 1005.51 C 1495.18 1002.16 1493.88 997.22 1495.18 992.626 C 1496.48 988.033 1500.18 984.514 1504.84 983.447 z"/>
<path transform="translate(0,0)" fill="rgb(94,71,50)" d="M 1040.9 1011.1 C 1072.4 1006.1 1101.97 1027.65 1106.84 1059.17 C 1111.71 1090.69 1090.03 1120.16 1058.49 1124.9 C 1027.13 1129.61 997.873 1108.09 993.032 1076.75 C 988.192 1045.42 1009.59 1016.07 1040.9 1011.1 z"/>
<path transform="translate(0,0)" fill="rgb(0,0,0)" d="M 1041.52 1021.42 C 1058.21 1018.31 1075.28 1024.43 1086.2 1037.43 C 1097.12 1050.42 1100.2 1068.29 1094.27 1084.2 C 1088.33 1100.1 1074.29 1111.58 1057.53 1114.24 C 1032.08 1118.28 1008.11 1101.12 1003.73 1075.73 C 999.349 1050.34 1016.19 1026.14 1041.52 1021.42 z"/>
<path transform="translate(0,0)" fill="rgb(124,163,87)" d="M 1047.49 1027.68 C 1069.46 1026.21 1088.52 1042.73 1090.17 1064.69 C 1091.82 1086.65 1075.45 1105.84 1053.51 1107.66 C 1031.31 1109.51 1011.86 1092.92 1010.18 1070.71 C 1008.51 1048.49 1025.26 1029.18 1047.49 1027.68 z"/>
<path transform="translate(0,0)" fill="rgb(170,204,151)" d="M 1073.81 1049.36 C 1093.16 1059.03 1070.14 1087.71 1058.69 1095.98 C 1055.29 1095.9 1055.08 1095.22 1053.15 1093.45 C 1052.27 1084.48 1061.2 1081.83 1064.69 1074.75 C 1068.63 1066.79 1068.87 1057.16 1073.81 1049.36 z"/>
<path transform="translate(0,0)" fill="rgb(94,71,50)" d="M 1215.74 996.768 C 1247.54 994.69 1274.95 1018.9 1276.83 1050.71 C 1278.71 1082.52 1254.33 1109.78 1222.5 1111.46 C 1190.96 1113.12 1164 1089 1162.14 1057.47 C 1160.28 1025.94 1184.22 998.828 1215.74 996.768 z"/>
<path transform="translate(0,0)" fill="rgb(0,0,0)" d="M 1218.09 1006.79 C 1243.93 1005.81 1265.74 1025.84 1266.94 1051.67 C 1268.15 1077.5 1248.31 1099.47 1222.49 1100.91 C 1196.35 1102.36 1174.04 1082.22 1172.82 1056.07 C 1171.6 1029.91 1191.93 1007.78 1218.09 1006.79 z"/>
<path transform="translate(0,0)" fill="rgb(120,92,65)" d="M 1216.4 1013.73 C 1238.43 1011.87 1257.81 1028.17 1259.75 1050.19 C 1261.7 1072.2 1245.48 1091.65 1223.48 1093.69 C 1201.34 1095.74 1181.75 1079.4 1179.79 1057.26 C 1177.83 1035.11 1194.25 1015.59 1216.4 1013.73 z"/>
<path transform="translate(0,0)" fill="rgb(170,153,142)" d="M 1244.2 1036.29 C 1256.18 1042.77 1248.63 1059.39 1243.46 1068.27 C 1239.62 1074.9 1235.58 1078.14 1229.43 1082.31 C 1225.16 1080.59 1226.64 1081.97 1224.39 1078.54 C 1224.09 1068.72 1231.9 1067.95 1235.31 1060.13 C 1238.9 1051.88 1239.36 1044.66 1244.2 1036.29 z"/>
<path transform="translate(0,0)" fill="rgb(175,138,98)" d="M 941.309 1019.44 C 949.819 1018.05 957.968 1017.08 966.513 1016.07 C 969.909 1028.77 973.228 1042.07 976.863 1054.64 C 966.726 1056.3 957.435 1057.35 947.26 1058.47 C 876.05 1068.25 805.801 1084.08 737.275 1105.78 C 736.33 1093.57 739.236 1080.4 742.341 1068.68 C 810.779 1045.93 869.431 1030.47 941.309 1019.44 z"/>
<path transform="translate(0,0)" fill="rgb(138,106,74)" d="M 941.309 1019.44 C 949.819 1018.05 957.968 1017.08 966.513 1016.07 C 969.909 1028.77 973.228 1042.07 976.863 1054.64 C 966.726 1056.3 957.435 1057.35 947.26 1058.47 C 947.03 1048.45 945.559 1030.16 943.433 1020.71 L 941.309 1019.44 z"/>
<path transform="translate(0,0)" fill="url(#Gradient2)" d="M 1413.41 971.554 C 1442.14 966.257 1469.76 985.113 1475.29 1013.79 C 1480.82 1042.47 1462.19 1070.25 1433.55 1076.01 C 1404.59 1081.83 1376.43 1062.94 1370.83 1033.93 C 1365.24 1004.92 1384.36 976.913 1413.41 971.554 z"/>
<path transform="translate(0,0)" fill="rgb(0,0,0)" d="M 1419.43 981.923 C 1442.4 980.036 1462.62 996.95 1464.82 1019.89 C 1467.02 1042.83 1450.38 1063.28 1427.48 1065.79 C 1412.38 1067.45 1397.56 1060.85 1388.68 1048.52 C 1379.81 1036.19 1378.26 1020.04 1384.63 1006.25 C 1390.99 992.464 1404.29 983.168 1419.43 981.923 z"/>
<path transform="translate(0,0)" fill="rgb(58,58,59)" d="M 1389.97 1011.46 C 1394.69 1001.8 1400.2 994.503 1410.87 990.572 C 1419.25 987.508 1428.51 987.923 1436.58 991.723 C 1445.46 995.919 1452.3 1003.48 1455.58 1012.74 C 1462.92 1034.04 1450.91 1049.87 1431.71 1057.92 C 1400.7 1061.27 1382.49 1042.44 1389.97 1011.46 z"/>
<path transform="translate(0,0)" fill="rgb(45,45,46)" d="M 1431.71 1057.92 C 1400.7 1061.27 1382.49 1042.44 1389.97 1011.46 L 1391.01 1013.17 C 1407.87 1041.58 1401.45 1039.93 1431.71 1057.92 z"/>
<path transform="translate(0,0)" fill="rgb(131,132,135)" d="M 1432.87 999.889 C 1445.04 1001.66 1452.98 1015.81 1439.95 1023.54 C 1428.77 1019.93 1420.25 1008.26 1432.87 999.889 z"/>
<path transform="translate(0,0)" fill="rgb(131,132,135)" d="M 1445.21 1027.7 C 1451.2 1033.75 1448.04 1037.98 1441.41 1040.36 C 1438.39 1036.42 1438.55 1037.83 1438.37 1033.64 C 1439.95 1030.48 1442.16 1029.6 1445.21 1027.7 z"/>
<path transform="translate(0,0)" fill="rgb(138,106,74)" d="M 1392.76 1185.39 C 1413.96 1185.07 1435 1187.07 1456.01 1188.63 C 1485.41 1190.28 1512.43 1192.12 1540.83 1200.62 C 1578.31 1211.83 1571.7 1221.4 1540.64 1235.86 C 1511.11 1249.63 1475.48 1258.21 1443.61 1264.2 C 1435.11 1240.08 1426.09 1218.67 1408.44 1199.31 C 1404.07 1194.51 1398.27 1191.08 1394.01 1186.69 L 1392.76 1185.39 z"/>
<path transform="translate(0,0)" fill="url(#Gradient1)" d="M 1284.63 1065.62 C 1297.35 1067.04 1311.84 1070.93 1324.39 1073.28 C 1386.82 1084.97 1446.4 1111.77 1498.76 1147.41 C 1508.57 1154.09 1555.44 1187.13 1557.26 1197.37 C 1521.18 1184.39 1497.71 1182.05 1460.18 1179.88 C 1424.71 1130.76 1338.59 1090.98 1281.15 1076.82 L 1284.63 1065.62 z"/>
<path transform="translate(0,0)" fill="rgb(138,106,74)" d="M 644.427 1243.18 L 647.069 1243.09 C 647.317 1244.93 637.389 1261.51 635.274 1266.63 C 627.951 1284.34 624.561 1299.19 622.119 1318.07 C 577.984 1318.08 538.339 1318.46 495.08 1309.34 C 470.706 1301.43 483.024 1295.88 499.352 1287.81 C 544.741 1265.38 595.297 1254.21 644.427 1243.18 z"/>
<path transform="translate(0,0)" fill="rgb(120,92,65)" d="M 718.79 1218.6 C 778.728 1147.94 867.216 1112.31 953.989 1087.66 L 957.842 1095.11 C 960.65 1100.47 960.008 1101.03 960.751 1106.62 C 944.871 1110.35 926.33 1117.22 910.948 1122.96 C 850.472 1145.52 810.019 1170.68 761.826 1212.4 C 747.619 1214.32 732.856 1216.11 718.79 1218.6 z"/>
<path transform="translate(0,0)" fill="rgb(138,106,74)" d="M 978.695 963.929 C 991.892 950.144 1012.42 942.24 1030.97 949.233 C 1053.37 957.673 1070.08 993.348 1083.12 1012.56 C 1074.54 1008.28 1069.44 1005.7 1059.79 1003.99 C 1032.31 1003.95 1017.73 1007.5 998.191 1027.78 C 989.357 1041.35 987.472 1044.11 985.92 1060.84 C 982.216 1048.45 978.86 1035.87 976.255 1023.25 C 970.564 995.67 960.52 988.023 978.695 963.929 z"/>
<path transform="translate(0,0)" fill="rgb(94,71,50)" d="M 978.695 963.929 C 984.589 976.956 988.781 997.839 993.266 1011.69 C 994.623 1015.88 996.416 1024.34 998.191 1027.78 C 989.357 1041.35 987.472 1044.11 985.92 1060.84 C 982.216 1048.45 978.86 1035.87 976.255 1023.25 C 970.564 995.67 960.52 988.023 978.695 963.929 z"/>
<path transform="translate(0,0)" fill="rgb(180,152,113)" d="M 1030.97 949.233 C 1053.37 957.673 1070.08 993.348 1083.12 1012.56 C 1074.54 1008.28 1069.44 1005.7 1059.79 1003.99 C 1057.63 993.203 1028.86 957.3 1030.97 949.233 z"/>
<path transform="translate(0,0)" fill="rgb(138,106,74)" d="M 1122.96 956.782 C 1134.29 939.879 1150.64 932.265 1170.89 934.193 C 1173.01 934.755 1178.4 936.228 1180.01 937.381 C 1201.24 952.522 1222.45 975.44 1241.81 993.112 C 1234.71 991.225 1231.09 990.13 1223.76 989.57 C 1192.17 990.455 1171.93 1002 1158.61 1031.32 C 1155.94 1025.68 1151.11 1016.39 1147.6 1011.5 C 1159.53 993.744 1168.26 998.164 1146.57 976.463 C 1138.41 968.294 1134.05 962.09 1122.96 956.782 z"/>
<path transform="translate(0,0)" fill="rgb(180,152,113)" d="M 1223.76 989.57 C 1221.58 988.241 1218.38 989.444 1216.96 987.921 C 1211.24 981.807 1169.25 938.507 1168.71 934.908 L 1170.89 934.193 C 1173.01 934.755 1178.4 936.228 1180.01 937.381 C 1201.24 952.522 1222.45 975.44 1241.81 993.112 C 1234.71 991.225 1231.09 990.13 1223.76 989.57 z"/>
<path transform="translate(0,0)" fill="rgb(120,92,65)" d="M 1278.32 1084.53 C 1283.44 1085.39 1295.37 1089.18 1300.67 1090.79 C 1348.05 1105.13 1393.72 1128.58 1431.09 1161.24 C 1434.82 1164.49 1445.68 1174.01 1447.7 1177.77 C 1445.56 1179.08 1442.64 1178.24 1439.5 1178.03 C 1431.02 1177.48 1422.54 1176.79 1414.08 1175.97 C 1375.08 1137.72 1317.44 1116.01 1266.06 1100.5 C 1271 1094.67 1273.98 1090.81 1278.32 1084.53 z"/>
<path transform="translate(0,0)" fill="rgb(175,138,98)" d="M 1273.1 1015.23 C 1299.7 1020.68 1319.28 1025.37 1345.02 1033.53 L 1359.29 1038.07 C 1363.87 1049.23 1368.4 1062.82 1371.78 1074.49 L 1359.39 1071.17 C 1332.69 1064.66 1313.12 1060.45 1285.86 1056.07 C 1284.67 1038.64 1281.82 1030.16 1273.1 1015.23 z"/>
<path transform="translate(0,0)" fill="rgb(180,152,113)" d="M 1345.02 1033.53 L 1359.29 1038.07 C 1363.87 1049.23 1368.4 1062.82 1371.78 1074.49 L 1359.39 1071.17 C 1358.38 1061.37 1349.03 1043.77 1345.02 1033.53 z"/>
<path transform="translate(0,0)" fill="rgb(138,106,74)" d="M 655.478 1103.99 C 684.213 1090.86 712.375 1078.77 742.341 1068.68 C 739.236 1080.4 736.33 1093.57 737.275 1105.78 C 707.321 1115.14 679.439 1127 650.644 1139.38 C 651.383 1128.35 653.146 1114.77 655.478 1103.99 z"/>
<path transform="translate(0,0)" fill="rgb(45,45,46)" d="M 1376.78 1064.18 C 1395.25 1083.27 1416.31 1088.41 1441.72 1082.23 C 1464.03 1096.23 1484.38 1103.68 1510.52 1103.05 C 1499.18 1148.87 1409.37 1080.98 1382.86 1077.07 C 1379.6 1076.59 1377.7 1067.49 1376.78 1064.18 z"/>
<path transform="translate(0,0)" fill="rgb(58,58,59)" d="M 1418.29 910.101 C 1428.89 911.498 1453.89 917.831 1463.96 921.497 C 1471.58 923.297 1475.29 922.966 1478.27 931.128 C 1479.64 935.718 1482 941.769 1481.47 946.261 C 1478.29 950.255 1476.45 948.654 1471.66 947.284 C 1448.94 941.547 1422.28 934.766 1400.02 928.083 C 1406.35 920.549 1410.11 915.617 1418.29 910.101 z"/>
<path transform="translate(0,0)" fill="rgb(131,132,135)" d="M 1463.96 921.497 C 1471.58 923.297 1475.29 922.966 1478.27 931.128 C 1479.64 935.718 1482 941.769 1481.47 946.261 C 1478.29 950.255 1476.45 948.654 1471.66 947.284 L 1472.06 943.278 C 1469.65 935.142 1466.33 929.057 1463.96 921.497 z"/>
<path transform="translate(0,0)" fill="rgb(84,83,84)" d="M 1478.27 931.128 C 1479.64 935.718 1482 941.769 1481.47 946.261 C 1478.29 950.255 1476.45 948.654 1471.66 947.284 L 1472.06 943.278 L 1476.56 940.399 C 1478.8 937.408 1478.29 934.965 1478.27 931.128 z"/>
<path transform="translate(0,0)" fill="rgb(120,92,65)" d="M 1066.07 974.096 C 1083.04 963.403 1101.1 958.623 1120.79 965.275 C 1130.66 969.129 1140 981.385 1147.24 989.479 L 1135.78 987.607 C 1113.61 985.726 1102.55 989.786 1082.42 997.409 C 1077.24 989.483 1072.2 981.295 1066.07 974.096 z"/>
<path transform="translate(0,0)" fill="rgb(170,153,142)" d="M 1120.79 965.275 C 1130.66 969.129 1140 981.385 1147.24 989.479 L 1135.78 987.607 C 1131.97 979.464 1122.23 973.435 1120.79 965.275 z"/>
<path transform="translate(0,0)" fill="rgb(94,71,50)" d="M 1114.78 995.26 C 1121.48 994.649 1140.06 993.365 1145.28 996.628 C 1147.49 1002.3 1139.92 1009.02 1137.32 1014.89 C 1135.4 1019.24 1134.2 1022.37 1132.61 1026.86 C 1128.09 1026.96 1123.47 1027.6 1118.96 1028.11 C 1114.86 1028.39 1109.11 1029.69 1104.94 1030.5 C 1095.87 1021.45 1092.58 1015.32 1087.46 1003.89 C 1096.22 1000.02 1105.38 997.13 1114.78 995.26 z"/>
<path transform="translate(0,0)" fill="rgb(45,45,46)" d="M 1110.35 1015.52 C 1104.06 1005.67 1111.05 1002.56 1119.72 1001.97 C 1135.42 1007.62 1123.83 1026.13 1110.35 1015.52 z"/>
<path transform="translate(0,0)" fill="rgb(0,0,0)" d="M 1110.35 1015.52 C 1104.06 1005.67 1111.05 1002.56 1119.72 1001.97 C 1119.72 1005.98 1120.2 1008.76 1118.19 1012.14 C 1115.37 1014.57 1113.93 1014.62 1110.35 1015.52 z"/>
<path transform="translate(0,0)" fill="rgb(58,58,59)" d="M 677.706 395.555 C 681.135 396.292 680.93 396.227 683.882 398.136 C 688.734 407.751 686.39 464.571 684.872 477.3 C 684.607 479.517 682.796 482.251 681.478 484.045 C 674.955 483.238 672.672 479.231 673.073 473.09 C 674.093 457.425 669.045 405.739 677.706 395.555 z"/>
<path transform="translate(0,0)" fill="rgb(219,179,130)" d="M 969.811 754.859 C 983.987 753.831 994.902 755.667 1006.91 764.105 C 1008.5 766.559 1009.41 767.963 1010.77 770.596 C 1009.45 772.557 1010.37 771.857 1007.87 772.5 C 998.762 771.548 984.792 772.704 975.146 773.096 C 962.204 775.218 951.727 775.917 938.327 778.585 C 946.506 763.071 953.241 758.956 969.811 754.859 z"/>
<path transform="translate(0,0)" fill="rgb(175,138,98)" d="M 938.327 778.585 C 946.506 763.071 953.241 758.956 969.811 754.859 C 967.686 760.754 963.211 764.719 965.033 770.634 C 968.748 773.625 970.259 773.095 975.146 773.096 C 962.204 775.218 951.727 775.917 938.327 778.585 z"/>
<path transform="translate(0,0)" fill="rgb(58,58,59)" d="M 1411.53 390.579 C 1415.79 391.014 1416.81 390.979 1419.25 393.677 C 1420.26 403.514 1403.39 462.361 1397.83 472.677 C 1395.43 472.772 1391.34 471.575 1391.51 468.934 C 1392.85 448.153 1402.92 408.734 1411.53 390.579 z"/>
<path transform="translate(0,0)" fill="rgb(120,92,65)" d="M 1119.22 922.919 C 1127.01 916.307 1132 915.79 1141.96 915.6 C 1147.29 916.616 1153.04 918.299 1156.53 922.735 L 1156.52 924.876 C 1154.11 927.004 1151.82 927.026 1148.61 927.615 C 1138.23 931.82 1133.6 933.877 1125.35 941.593 C 1121.05 946.502 1118.67 949.652 1114.91 954.973 C 1108.6 941.386 1109.79 934.452 1119.22 922.919 z"/>
<path transform="translate(0,0)" fill="rgb(94,71,50)" d="M 1114.91 954.973 C 1108.6 941.386 1109.79 934.452 1119.22 922.919 C 1121.42 929.029 1123.37 935.388 1125.35 941.593 C 1121.05 946.502 1118.67 949.652 1114.91 954.973 z"/>
<path transform="translate(0,0)" fill="rgb(170,153,142)" d="M 1141.96 915.6 C 1147.29 916.616 1153.04 918.299 1156.53 922.735 L 1156.52 924.876 C 1154.11 927.004 1151.82 927.026 1148.61 927.615 C 1145.65 922.672 1143.36 921.696 1141.96 915.6 z"/>
<path transform="translate(0,0)" fill="rgb(94,71,50)" d="M 1115.29 1066.34 C 1126.32 1065.78 1139.68 1066.02 1150.9 1065.97 C 1153.08 1069.89 1159.62 1080.04 1159.5 1083.65 C 1144.51 1083.41 1128.69 1083.81 1113.65 1083.96 C 1114.44 1078.07 1114.83 1072.26 1115.29 1066.34 z"/>
<path transform="translate(0,0)" fill="rgb(94,71,50)" d="M 977.075 935.579 C 984.568 928.528 993.866 924.891 1004.09 927.521 C 1009.7 929.278 1014.76 931.514 1018.56 936.199 L 1018.56 938.304 C 1015.99 939.769 1014.07 939.304 1011.07 939.138 C 998.423 941.341 995.39 941.895 984.198 947.896 C 983.624 948.664 972.61 957.243 971.063 958.466 C 970.979 953.687 971.041 948.745 971.036 943.951 C 972.777 941.157 975.074 938.247 977.075 935.579 z"/>
<path transform="translate(0,0)" fill="rgb(94,71,50)" d="M 977.075 935.579 C 978.803 939.449 980.938 945.81 984.198 947.896 C 983.624 948.664 972.61 957.243 971.063 958.466 C 970.979 953.687 971.041 948.745 971.036 943.951 C 972.777 941.157 975.074 938.247 977.075 935.579 z"/>
<path transform="translate(0,0)" fill="rgb(170,153,142)" d="M 1004.09 927.521 C 1009.7 929.278 1014.76 931.514 1018.56 936.199 L 1018.56 938.304 C 1015.99 939.769 1014.07 939.304 1011.07 939.138 C 1008.94 933.116 1005.53 933.062 1004.09 927.521 z"/>
<path transform="translate(0,0)" fill="rgb(94,71,50)" d="M 953.989 1087.66 C 963.985 1085.47 973.954 1083.16 983.896 1080.74 C 986.388 1087.53 988.272 1092.37 991.37 1098.87 C 981.575 1101.25 970.29 1103.72 960.751 1106.62 C 960.008 1101.03 960.65 1100.47 957.842 1095.11 L 953.989 1087.66 z"/>
<path transform="translate(0,0)" fill="rgb(94,71,50)" d="M 1139.99 1028.18 C 1142.68 1020.81 1143.71 1018.26 1147.6 1011.5 C 1151.11 1016.39 1155.94 1025.68 1158.61 1031.32 C 1155.47 1040.43 1154.76 1047.16 1153.54 1056.69 C 1149.28 1047.32 1144.41 1037.59 1139.99 1028.18 z"/>
<path transform="translate(0,0)" fill="rgb(180,152,113)" d="M 946.297 1068.48 C 953.848 1067.16 972.866 1063.31 979.389 1065.65 C 980.681 1068.56 981.567 1069.7 980.928 1072.78 C 976.409 1075.53 957.597 1078.44 950.102 1080.54 C 949.792 1075.61 949.761 1074.41 948.497 1069.71 L 946.297 1068.48 z"/>
<path transform="translate(0,0)" fill="rgb(58,58,59)" d="M 1357.42 917.432 C 1349.66 915.835 1344.26 915.257 1337.54 910.937 L 1337.58 909.672 C 1344.83 906.022 1351.85 907.366 1359.34 908.759 C 1363.42 910.827 1366.62 912.062 1367.32 917.045 C 1364.46 920.853 1361.54 918.841 1357.42 917.432 z"/>
<path transform="translate(0,0)" fill="rgb(84,83,84)" d="M 1359.34 908.759 C 1363.42 910.827 1366.62 912.062 1367.32 917.045 C 1364.46 920.853 1361.54 918.841 1357.42 917.432 C 1357.05 914.17 1358.14 911.64 1359.34 908.759 z"/>
<path transform="translate(0,0)" fill="rgb(138,106,74)" d="M 1120.69 1035.26 C 1127 1034.77 1133.04 1033.39 1137.18 1039.26 L 1136.72 1041.15 C 1133.43 1043.3 1133.03 1042.51 1128.31 1042.6 C 1120.59 1043.02 1116.73 1044.05 1109.99 1040.3 L 1109.95 1038.55 C 1113.14 1035.88 1116.43 1035.91 1120.69 1035.26 z"/>
<path transform="translate(0,0)" fill="rgb(180,152,113)" d="M 1113.09 1052.04 C 1121.43 1051.77 1133.69 1050.81 1141.84 1052.37 C 1144.48 1052.87 1145.17 1055.48 1146.41 1057.91 C 1138.2 1057.88 1122.81 1059.63 1115.41 1057.11 C 1114.08 1056.66 1113.64 1053.79 1113.09 1052.04 z"/>
</svg>