<svg xmlns="http://www.w3.org/2000/svg" version="1.1" style="display: block;" viewBox="0 0 2048 2048" width="2048" height="2048" preserveAspectRatio="none">
<defs>
	<linearGradient id="Gradient1" gradientUnits="userSpaceOnUse" x1="1391.55" y1="431.651" x2="1417.45" y2="431.337">
		<stop class="stop0" offset="0" stop-opacity="1" stop-color="rgb(58,51,57)" />
		<stop class="stop1" offset="1" stop-opacity="1" stop-color="rgb(63,68,61)" />
	</linearGradient>
	<linearGradient id="Gradient2" gradientUnits="userSpaceOnUse" x1="624.367" y1="981.058" x2="628.633" y2="981.942">
		<stop class="stop0" offset="0" stop-opacity="1" stop-color="rgb(99,99,100)" />
		<stop class="stop1" offset="1" stop-opacity="1" stop-color="rgb(140,140,138)" />
	</linearGradient>
	<linearGradient id="Gradient3" gradientUnits="userSpaceOnUse" x1="625.379" y1="972.441" x2="630.453" y2="974.626">
		<stop class="stop0" offset="0" stop-opacity="1" stop-color="rgb(107,110,109)" />
		<stop class="stop1" offset="1" stop-opacity="1" stop-color="rgb(134,137,136)" />
	</linearGradient>
	<linearGradient id="Gradient4" gradientUnits="userSpaceOnUse" x1="859.453" y1="749.808" x2="1083.35" y2="1147.73">
		<stop class="stop0" offset="0" stop-opacity="1" stop-color="rgb(60,62,67)" />
		<stop class="stop1" offset="1" stop-opacity="1" stop-color="rgb(90,93,95)" />
	</linearGradient>
</defs>
<path transform="translate(0,0)" fill="rgb(7,8,6)" d="M 855.248 344.698 C 930.437 308.212 1006.99 280.914 1091.23 308.843 C 1125.55 320.224 1135.09 331.02 1162.88 348.551 L 1164.23 347.564 L 1165.96 348.311 L 1167.92 347.444 C 1173.43 354.207 1172.21 353.162 1178.42 358.74 C 1180.01 355.961 1178.88 356.662 1181.44 355.922 L 1182.54 356.894 C 1182.1 361.64 1181.6 360.184 1183.44 364.094 C 1187.21 365.369 1189.54 365.938 1193.44 366.814 C 1196.02 372.968 1188.21 375.215 1202.76 377.081 C 1206.17 380.058 1205.49 386.397 1209.51 390.472 C 1210.8 390.077 1211.7 389.875 1213.07 389.76 L 1213.36 391.458 C 1211.31 393.543 1211.45 393.613 1208.82 394.764 C 1228.59 416.624 1256.26 455.297 1273.24 480.591 C 1276.94 476.356 1281.92 479.205 1284.39 483.046 C 1283.04 484.978 1283.61 484.299 1281.49 485.619 C 1282.13 487.89 1282.43 488.349 1283.52 490.472 L 1282.7 494.799 C 1294.4 512.885 1305.84 531.144 1317.01 549.569 C 1321.73 528.852 1328.92 507.103 1332.91 486.711 C 1334.62 477.97 1330.58 462.594 1333.67 449.532 C 1339.17 426.261 1347.72 401.944 1352.55 378.915 L 1351.5 377.891 C 1351.48 367.369 1362.53 349.43 1371.16 342.901 C 1373.78 340.918 1376.4 341.915 1379.08 342.528 C 1397.58 333.41 1415.44 329.7 1435.6 336.443 C 1450.97 341.692 1463.61 352.873 1470.69 367.493 C 1484.69 396.172 1473.38 420.152 1466.05 448.48 C 1458.29 478.413 1458.66 495.059 1435.78 517.936 C 1429.12 544.563 1422.21 571.125 1415.03 597.616 C 1410.76 614.037 1405.76 636.05 1400.79 651.802 C 1474.1 652.549 1542.81 657.117 1608.15 693.596 L 1610.5 692.913 L 1612.91 694.826 L 1614.31 694.622 C 1618.5 694.038 1619.64 693.574 1623.53 694.687 C 1629.76 700.355 1625.28 702.64 1628.67 709.219 C 1637.85 719.535 1646.78 728.442 1652.96 740.973 C 1674.95 785.625 1662.81 828.954 1638.74 869.134 C 1637.92 872.449 1635.75 883.462 1634.1 885.179 L 1633.14 885.569 C 1630.33 886.74 1629.4 886.945 1627.1 889.032 C 1626.65 892.422 1626.89 896.307 1625.02 898.205 C 1621.1 898.651 1619.24 898.834 1615.33 898.766 C 1605.35 909.453 1591.28 920.928 1582.85 930.208 C 1580.58 933.859 1580.05 935.035 1579.33 939.272 C 1574.79 941.668 1567.28 945.114 1563.36 947.415 L 1561.85 947.258 C 1551.28 954.077 1541.05 962.205 1530.57 969.364 C 1452.83 1022.46 1368.4 1057.89 1281.8 1093.58 C 1329 1102.31 1350.54 1106.85 1394.83 1127.52 C 1399.43 1127.09 1405.39 1125.54 1408.91 1127.37 C 1412.18 1130.85 1412.5 1134.88 1414.36 1139.48 C 1426.94 1148.71 1433.61 1155.03 1444.42 1166.35 C 1484.2 1126.31 1528.18 1105.9 1585.19 1105.61 C 1636.98 1105.19 1686.77 1125.59 1723.37 1162.25 C 1736.57 1175.45 1750.2 1195.08 1758.6 1211.76 C 1762.94 1214.65 1761.9 1214.33 1764.4 1219.87 L 1764.93 1218.47 C 1769.06 1218.97 1767.19 1218.28 1770.68 1220.79 L 1771.14 1223.14 C 1769.46 1225.46 1769.56 1225.51 1767.28 1227.17 C 1768.71 1230.78 1778.37 1253.91 1778.39 1256.06 C 1776.53 1257.88 1776.34 1257.67 1775.34 1260.01 C 1783.95 1304.75 1778.67 1344.99 1759.23 1386.21 C 1761.96 1389.91 1761.26 1388.24 1760.97 1393.69 L 1760.29 1394.37 L 1760.9 1395.58 L 1760.69 1395.8 C 1758.36 1393.99 1757.88 1392.86 1755.67 1393 C 1735.34 1428.44 1716.36 1446.68 1682.19 1468.36 C 1679.22 1473.2 1678.59 1476.69 1673.45 1478.79 C 1670.46 1477.62 1671.86 1478.38 1669.65 1475.07 C 1639.34 1488.28 1623.81 1491.99 1590.54 1493.89 C 1586.74 1519.15 1578.73 1517.37 1571.33 1538.16 C 1557.87 1575.92 1547.52 1618.41 1533.79 1655.59 C 1535.43 1664.9 1535.97 1664.24 1531.96 1672.84 L 1531.06 1673.21 C 1529.6 1675.58 1528.76 1676.73 1527.69 1679.33 L 1526.22 1679.26 C 1524.41 1681.97 1520.17 1691.79 1519.1 1694.87 C 1498.82 1753.3 1442.39 1788.27 1385.43 1752.12 C 1364.51 1738.84 1354.67 1722.24 1349.27 1697.84 C 1317.97 1710.04 1286.18 1715.89 1253.43 1721.89 C 1209.89 1729.86 1168.46 1734.3 1124.78 1739.25 C 1042.26 1748.61 959.876 1756.05 876.718 1754.59 C 846.539 1754.06 818.459 1750.47 788.521 1747.5 C 763.717 1796.05 693.871 1801.42 658.495 1761.56 C 631.84 1731.53 627.78 1699.37 629.03 1660.86 C 605.63 1629.22 590.863 1598.26 581.826 1559.84 C 565.562 1490.71 564.722 1419.95 569.327 1349.45 C 547.218 1317.8 544.46 1280.31 556.313 1244.06 C 506.044 1242.76 460.014 1241.53 410.647 1230.13 C 325.023 1210.36 259.318 1163.22 282.772 1067.42 L 282.444 1064.03 L 279.254 1062.01 L 279.333 1059.88 L 280.761 1061.84 L 282.456 1061.8 C 285.809 1052.77 282.582 1060.21 281.618 1054.35 L 284.021 1052.43 C 285.552 1048.83 285.849 1048.44 285.196 1044.61 C 287.663 1042.26 288.173 1042.22 291.283 1041.08 L 292.18 1040.75 C 293.913 1038.21 293.699 1038.27 296.481 1037.03 C 299.342 1033.32 302.093 1028.68 304.902 1024.78 C 336.778 980.521 381.418 948.949 427.03 920.11 L 427.402 918.252 C 428.624 911.88 433.847 908.129 439.467 912.481 C 444.97 908.895 452.201 905.148 458.071 901.915 C 455.315 887.69 452.586 864.622 450.748 849.89 C 441.211 773.474 432.437 677.118 445.007 601.078 C 449.211 575.158 456.848 549.913 467.715 526.009 C 467.504 524.008 468.634 507.619 469.223 506.644 L 470.759 508.2 C 476.594 503.687 476.344 501.276 485.643 496.936 C 493.505 488.107 500.903 478.28 509.615 470.314 C 563.409 421.13 635.11 398.196 706.59 391.962 C 717.643 390.997 728.939 390.474 739.97 389.108 C 740.257 388.276 740.543 387.444 740.83 386.613 C 748.722 384.411 762.112 388.231 767.834 384.213 C 768.487 380.784 767.93 381.708 769.642 378.944 C 772.722 378.727 771.918 378.957 775.165 381.203 C 778.533 381.237 782.417 377.969 788.163 377.687 C 792.921 376.649 834.132 355.189 840.151 351.628 L 840.567 349.898 C 842.961 348.804 842.929 348.963 844.645 347.016 C 841.802 346.822 840.642 346.995 838.101 345.749 C 840.022 344.429 851.629 341.247 854.145 341.95 L 855.248 344.698 z" />
<path transform="translate(0,0)" fill="rgb(245,246,244)" d="M 1162.88 348.551 L 1164.23 347.564 L 1165.96 348.311 L 1167.92 347.444 C 1173.43 354.207 1172.21 353.162 1178.42 358.74 C 1180.01 355.961 1178.88 356.662 1181.44 355.922 L 1182.54 356.894 C 1182.1 361.64 1181.6 360.184 1183.44 364.094 C 1187.21 365.369 1189.54 365.938 1193.44 366.814 C 1196.02 372.968 1188.21 375.215 1202.76 377.081 C 1206.17 380.058 1205.49 386.397 1209.51 390.472 C 1210.8 390.077 1211.7 389.875 1213.07 389.76 L 1213.36 391.458 C 1211.31 393.543 1211.45 393.613 1208.82 394.764 C 1200.01 384.593 1190.72 374.855 1180.97 365.583 C 1177 361.821 1165.58 352.116 1162.88 348.551 z" />
<path transform="translate(0,0)" fill="rgb(245,246,244)" d="M 1352.55 378.915 L 1351.5 377.891 C 1351.48 367.369 1362.53 349.43 1371.16 342.901 C 1373.78 340.918 1376.4 341.915 1379.08 342.528 C 1364.71 353.648 1358.71 361.705 1352.55 378.915 z" />
<path transform="translate(0,0)" fill="rgb(245,246,244)" d="M 739.97 389.108 C 740.257 388.276 740.543 387.444 740.83 386.613 C 748.722 384.411 762.112 388.231 767.834 384.213 C 768.487 380.784 767.93 381.708 769.642 378.944 C 772.722 378.727 771.918 378.957 775.165 381.203 C 778.533 381.237 782.417 377.969 788.163 377.687 C 765.856 390.489 765.183 389.469 739.97 389.108 z" />
<path transform="translate(0,0)" fill="rgb(245,246,244)" d="M 1758.6 1211.76 C 1762.94 1214.65 1761.9 1214.33 1764.4 1219.87 L 1764.93 1218.47 C 1769.06 1218.97 1767.19 1218.28 1770.68 1220.79 L 1771.14 1223.14 C 1769.46 1225.46 1769.56 1225.51 1767.28 1227.17 C 1768.71 1230.78 1778.37 1253.91 1778.39 1256.06 C 1776.53 1257.88 1776.34 1257.67 1775.34 1260.01 C 1771.42 1242.46 1766.06 1227.98 1758.6 1211.76 z" />
<path transform="translate(0,0)" fill="rgb(231,233,227)" d="M 1638.74 869.134 C 1637.92 872.449 1635.75 883.462 1634.1 885.179 L 1633.14 885.569 C 1630.33 886.74 1629.4 886.945 1627.1 889.032 C 1626.65 892.422 1626.89 896.307 1625.02 898.205 C 1621.1 898.651 1619.24 898.834 1615.33 898.766 C 1623.34 888.933 1631.24 879.368 1638.74 869.134 z" />
<path transform="translate(0,0)" fill="rgb(245,246,244)" d="M 467.715 526.009 C 467.504 524.008 468.634 507.619 469.223 506.644 L 470.759 508.2 C 476.594 503.687 476.344 501.276 485.643 496.936 C 478.709 507.376 474.051 515.177 467.715 526.009 z" />
<path transform="translate(0,0)" fill="rgb(245,246,244)" d="M 282.772 1067.42 L 282.444 1064.03 L 279.254 1062.01 L 279.333 1059.88 L 280.761 1061.84 L 282.456 1061.8 C 285.809 1052.77 282.582 1060.21 281.618 1054.35 L 284.021 1052.43 C 285.552 1048.83 285.849 1048.44 285.196 1044.61 C 287.663 1042.26 288.173 1042.22 291.283 1041.08 L 292.18 1040.75 C 293.913 1038.21 293.699 1038.27 296.481 1037.03 C 292.188 1046.41 287.826 1053.76 284.22 1063.55 L 282.772 1067.42 z" />
<path transform="translate(0,0)" fill="rgb(245,246,244)" d="M 1608.15 693.596 L 1610.5 692.913 L 1612.91 694.826 L 1614.31 694.622 C 1618.5 694.038 1619.64 693.574 1623.53 694.687 C 1629.76 700.355 1625.28 702.64 1628.67 709.219 C 1622.36 703.943 1614.77 698.694 1608.15 693.596 z" />
<path transform="translate(0,0)" fill="rgb(245,246,244)" d="M 1394.83 1127.52 C 1399.43 1127.09 1405.39 1125.54 1408.91 1127.37 C 1412.18 1130.85 1412.5 1134.88 1414.36 1139.48 C 1408.13 1135.3 1401.3 1131.38 1394.83 1127.52 z" />
<path transform="translate(0,0)" fill="rgb(245,246,244)" d="M 1273.24 480.591 C 1276.94 476.356 1281.92 479.205 1284.39 483.046 C 1283.04 484.978 1283.61 484.299 1281.49 485.619 C 1282.13 487.89 1282.43 488.349 1283.52 490.472 L 1282.7 494.799 L 1273.24 480.591 z" />
<path transform="translate(0,0)" fill="rgb(245,246,244)" d="M 840.151 351.628 L 840.567 349.898 C 842.961 348.804 842.929 348.963 844.645 347.016 C 841.802 346.822 840.642 346.995 838.101 345.749 C 840.022 344.429 851.629 341.247 854.145 341.95 L 855.248 344.698 C 852.161 346.183 842.883 350.864 840.151 351.628 z" />
<path transform="translate(0,0)" fill="rgb(231,233,227)" d="M 1526.22 1679.26 C 1526.1 1676.45 1532.45 1659.48 1533.79 1655.59 C 1535.43 1664.9 1535.97 1664.24 1531.96 1672.84 L 1531.06 1673.21 C 1529.6 1675.58 1528.76 1676.73 1527.69 1679.33 L 1526.22 1679.26 z" />
<path transform="translate(0,0)" fill="rgb(231,233,227)" d="M 1582.85 930.208 C 1580.58 933.859 1580.05 935.035 1579.33 939.272 C 1574.79 941.668 1567.28 945.114 1563.36 947.415 L 1561.85 947.258 C 1564.95 943.925 1578.59 933.578 1582.85 930.208 z" />
<path transform="translate(0,0)" fill="rgb(245,246,244)" d="M 1669.65 1475.07 C 1673.78 1472.74 1677.96 1470.5 1682.19 1468.36 C 1679.22 1473.2 1678.59 1476.69 1673.45 1478.79 C 1670.46 1477.62 1671.86 1478.38 1669.65 1475.07 z" />
<path transform="translate(0,0)" fill="rgb(245,246,244)" d="M 427.03 920.11 L 427.402 918.252 C 428.624 911.88 433.847 908.129 439.467 912.481 L 427.03 920.11 z" />
<path transform="translate(0,0)" fill="rgb(245,246,244)" d="M 1759.23 1386.21 C 1761.96 1389.91 1761.26 1388.24 1760.97 1393.69 L 1760.29 1394.37 L 1760.9 1395.58 L 1760.69 1395.8 C 1758.36 1393.99 1757.88 1392.86 1755.67 1393 C 1756.05 1391.69 1758.44 1387.64 1759.23 1386.21 z" />
<path transform="translate(0,0)" fill="rgb(245,246,244)" d="M 466.383 907.146 C 465.04 885.905 459.674 859.656 457.159 838.001 C 431.009 612.815 432.481 432.616 706.127 400.029 C 715.457 398.837 724.834 398.055 734.232 397.685 C 740.827 397.425 765.918 397.47 770.737 395.356 C 853.482 359.073 933.357 302.743 1027.7 305.768 C 1049.53 306.467 1075.83 310.385 1095.69 319.576 C 1100.26 321.37 1105.24 323.122 1109.49 325.49 C 1113.96 327.675 1120.91 330.824 1124.91 333.404 L 1127.95 335.188 C 1205.98 382.644 1274.37 494.619 1320.11 571.903 C 1323.35 547.892 1336.11 514.842 1340.95 489.952 C 1343.98 482.445 1338.48 469.621 1340.09 462.628 C 1347.11 432.101 1354.32 398.151 1365.77 369.116 C 1373.74 348.909 1401.59 339.042 1421.95 341.675 C 1435.95 343.364 1448.67 350.626 1457.24 361.816 C 1482.35 394.468 1458.43 434.418 1452.21 469.75 C 1449.27 486.435 1442.77 500.041 1429.5 511.165 C 1415.16 558.492 1402.88 611.579 1389.92 659.838 C 1462.32 659.702 1572.45 665.296 1626.52 719.489 C 1645.38 738.084 1655.96 763.497 1655.85 789.985 C 1655.08 915.989 1440.52 1015.49 1343.29 1058.77 C 1323.58 1067.55 1296.45 1078.92 1275.86 1086.12 C 1274.33 1091.58 1272.88 1095.62 1270.92 1100.91 C 1273.06 1101.23 1281.27 1102.31 1282.87 1102.82 C 1295.12 1103.94 1309.31 1107.11 1321.41 1109.85 C 1372.82 1120.89 1409.23 1140.19 1444.1 1179.16 C 1477.65 1137.32 1533.83 1113.31 1586.91 1113.66 C 1635.75 1113.84 1682.54 1133.34 1717.05 1167.9 C 1751.96 1203.41 1771.37 1251.32 1771.03 1301.11 C 1770.49 1351 1749.97 1398.59 1714.07 1433.24 C 1679.33 1467.31 1632.36 1485.99 1583.71 1485.08 C 1583.25 1487.83 1580.5 1503.42 1578.31 1506.55 C 1529.19 1576.65 1524.92 1824.69 1384.2 1741.03 C 1366.63 1730.58 1358.88 1705.63 1356.54 1685.75 C 1289.87 1719.34 1044.63 1740.76 962.986 1744.83 C 936.076 1745.98 909.141 1746.46 882.207 1746.27 C 849.845 1745.94 817.538 1742.5 785.515 1738.05 C 779.961 1746.18 773.263 1756.54 765.82 1762.83 C 734.703 1789.13 689.012 1784.53 662.939 1753.59 C 638.749 1724.87 635.649 1692.79 637.938 1657.27 C 637.444 1656.74 636.96 1656.2 636.486 1655.66 C 571.966 1581.89 572.474 1439.96 577.901 1347.47 C 559.502 1320.44 553.468 1295.61 559.865 1262.76 C 561.639 1253.66 565.279 1244.33 567.872 1235.31 C 489.028 1237.88 328.737 1228.47 293.362 1142.39 C 256.44 1052.55 359.418 972.039 425.916 930.808 C 437.745 923.473 453.21 912.514 466.383 907.146 z" />
<path transform="translate(0,0)" fill="rgb(231,233,227)" d="M 1282.87 1102.82 C 1295.12 1103.94 1309.31 1107.11 1321.41 1109.85 C 1314.78 1110.28 1308.92 1108.46 1301.67 1109.68 C 1293.61 1111.04 1288.93 1106.05 1282.87 1102.82 z" />
<path transform="translate(0,0)" fill="rgb(245,246,244)" d="M 1124.91 333.404 L 1127.95 335.188 C 1124.98 336.454 1120.87 339.253 1117.86 337.444 C 1120.32 334.272 1120.9 334.571 1124.91 333.404 z" />
<path transform="translate(0,0)" fill="rgb(7,8,6)" d="M 511.334 927.735 C 505.292 896.733 500.976 863.115 497.504 831.486 C 488.778 749.756 476.962 645.258 503.839 566.468 C 540.582 458.756 679.439 436.971 777.572 436.538 C 781.608 436.52 811.787 421.246 817.104 418.596 L 883.384 385.632 C 943.188 356.613 1008.4 332.072 1074.51 355.334 C 1095.64 362.765 1113.69 372.548 1131.1 386.745 C 1203.59 445.864 1291.43 594.242 1332.41 679.867 C 1349.13 614.013 1368.18 548.391 1384.59 482.421 C 1385.64 476.504 1379.5 472.111 1380.55 465.806 C 1384.24 442.718 1391.87 420.164 1397.63 397.569 C 1403.22 375.627 1421.36 374.313 1429.8 395.225 C 1426.32 415.93 1415.51 453.991 1408.86 475.033 C 1407.17 480.402 1399.95 482.127 1394.88 483.49 L 1339.6 692.971 L 1343.87 701.159 C 1413.68 698.104 1497.55 697.363 1562.88 725.557 C 1583.4 734.416 1603.29 747.915 1611.66 769.515 C 1618.31 786.686 1616.2 805.135 1608.79 821.637 C 1562.12 925.608 1348.69 1015.21 1244.93 1054.83 C 1232.66 1084.54 1222.53 1106.68 1234.75 1138.08 C 1246.54 1139.89 1260.44 1140.2 1272.85 1142 C 1304.97 1146.67 1341.49 1155.57 1370.34 1170.23 C 1412.98 1191.91 1430.33 1223.64 1444.19 1267.23 C 1453.38 1231.37 1470.22 1202.99 1500.38 1181.24 C 1552.22 1143.86 1620.9 1144.61 1672.03 1182.08 C 1752.21 1240.83 1749.81 1362.58 1669 1419.09 C 1630.65 1445.92 1594.57 1449.27 1549.75 1441.14 C 1547.64 1449.91 1541.43 1465.19 1538.2 1474.38 C 1546 1485.91 1544.24 1495.83 1531.01 1501.56 C 1515.91 1554.81 1497.82 1609.13 1480.07 1661.59 C 1473.93 1679.74 1462.85 1707.21 1444.52 1715.56 C 1430.76 1722.52 1404.36 1712.67 1399.34 1697.86 C 1389.87 1669.9 1410.27 1632.59 1421.98 1607.57 C 1440.78 1567.41 1461.96 1528.73 1481.1 1488.79 C 1486.62 1477.29 1479.44 1476.59 1482.81 1465.82 C 1484.74 1459.48 1491.39 1459.76 1494.25 1457.67 C 1501.07 1452.71 1508.36 1432.09 1511.68 1424.52 C 1485.75 1407.98 1468.91 1389.44 1455.04 1361.88 C 1457.14 1405.85 1450.1 1505.24 1437.61 1545.99 C 1431.94 1565.05 1422.93 1582.96 1411 1598.87 C 1361.66 1663.52 1239.44 1675.74 1162.4 1685.81 C 1159.57 1690.05 1161.04 1689.15 1156.86 1690.68 C 1152.54 1690.31 1150.96 1689.33 1146.89 1687.59 C 1041.55 1699.99 860.279 1719.81 759.277 1689.72 L 758.904 1691.36 C 755.229 1707.31 748.589 1728.33 733.766 1736.8 C 715.095 1747.29 694.759 1734.59 686.066 1717.27 C 678.645 1702.47 677.177 1686.67 677.738 1670.34 C 678.019 1662.17 678.378 1652.59 680.83 1644.86 C 677.452 1641.18 674.123 1637.47 670.844 1633.7 C 609.051 1562.14 612.299 1423.94 619.113 1334.14 C 615.709 1330.32 610.792 1324.13 608.062 1319.9 C 594.798 1299.6 593.826 1273.63 605.537 1252.39 C 608.806 1246.5 614.665 1239.93 618.533 1234.28 C 626.397 1222.79 634.984 1207.8 637.939 1194.18 L 638.286 1192.55 C 581.234 1195.52 300.611 1212.05 328.806 1086.9 C 343.482 1021.76 453.396 960.17 511.334 927.735 z" />
<path transform="translate(0,0)" fill="rgb(231,233,227)" d="M 1146.89 1687.59 C 1151.83 1686.82 1157.39 1686.35 1162.4 1685.81 C 1159.57 1690.05 1161.04 1689.15 1156.86 1690.68 C 1152.54 1690.31 1150.96 1689.33 1146.89 1687.59 z" />
<path transform="translate(0,0)" fill="rgb(81,84,88)" d="M 917.685 386.314 C 963.687 366.266 1009.97 352.618 1059.89 366.221 C 1129.29 385.129 1171.51 448.831 1211.96 503.545 C 1215.14 507.845 1217.98 512.742 1221.35 516.813 L 1230.85 531.807 C 1251.88 563.712 1269.39 595.556 1288.63 628.125 C 1289.69 630.189 1292.99 636.211 1293.54 638.071 C 1296.64 642.723 1298.62 646.567 1301.19 651.471 C 1190.76 740.923 1007.69 802.415 870.756 839.311 C 848.512 845.072 826.206 850.59 803.841 855.863 C 793.127 858.359 779.05 861.099 768.775 864.01 C 762.637 859.275 754.393 853.276 748.871 848.101 C 726.289 862.696 712.783 867.516 687.394 853.63 C 677.599 862.781 672.49 868.622 658.839 871.703 C 629.73 875.288 633.095 855.795 614.756 889.63 C 583.121 891.601 552.583 894.183 520.652 895.846 C 515.414 853.977 508.918 809.411 506.144 767.124 C 501.33 693.768 492.787 586.318 543.887 526.425 C 577.395 487.151 649.08 460.746 699.731 456.667 C 792.635 444.229 873.01 461.543 964.665 468.722 C 995.995 471.176 1041.35 467.179 1065.39 446.307 C 1072.14 440.444 1076.17 432.939 1068.32 425.935 C 1064.43 428.407 1060.34 433.484 1056.82 436.754 C 1036.95 455.351 1004.78 455.457 979.149 455.187 C 921.612 454.58 864.902 440.389 807.414 438.814 C 819.718 434.38 832.324 427.485 844.208 421.798 C 868.742 410.057 892.813 397.33 917.685 386.314 z" />
<path transform="translate(0,0)" fill="rgb(52,53,54)" d="M 520.652 895.846 C 515.414 853.977 508.918 809.411 506.144 767.124 C 501.33 693.768 492.787 586.318 543.887 526.425 C 577.395 487.151 649.08 460.746 699.731 456.667 C 695.849 461.959 688.745 467.871 683.45 471.948 C 658.388 491.248 637.64 517.2 629.278 548.672 C 615.569 600.277 617.689 658.523 622.555 711.352 C 628.976 765.272 640.52 820.238 658.502 871.074 C 658.614 871.284 658.726 871.493 658.839 871.703 C 629.73 875.288 633.095 855.795 614.756 889.63 C 583.121 891.601 552.583 894.183 520.652 895.846 z" />
<path transform="translate(0,0)" fill="rgb(52,53,54)" d="M 917.685 386.314 C 924.516 390.633 938.251 387.308 946.565 386.857 C 978.217 385.139 1010.55 386.124 1039 401.867 C 1054.58 410.321 1054.05 412.806 1065.36 422.74 L 1065.11 425.412 C 1066.51 425.733 1066.92 425.957 1068.32 425.935 C 1064.43 428.407 1060.34 433.484 1056.82 436.754 C 1036.95 455.351 1004.78 455.457 979.149 455.187 C 921.612 454.58 864.902 440.389 807.414 438.814 C 819.718 434.38 832.324 427.485 844.208 421.798 C 868.742 410.057 892.813 397.33 917.685 386.314 z" />
<path transform="translate(0,0)" fill="rgb(62,81,83)" d="M 1230.85 531.807 L 1227.03 532.875 C 1220.63 528.101 1220.02 524.24 1221.35 516.813 L 1230.85 531.807 z" />
<path transform="translate(0,0)" fill="rgb(62,81,83)" d="M 1288.63 628.125 C 1289.69 630.189 1292.99 636.211 1293.54 638.071 L 1292.08 639.001 C 1291.48 637.215 1288.95 635.752 1287.28 634.979 C 1286.12 631.886 1286.82 632.323 1288.63 628.125 z" />
<path transform="translate(0,0)" fill="rgb(231,233,227)" d="M 744.861 1182.18 C 755.984 1179.52 768.637 1178.04 780.004 1176.45 C 815.728 1171.45 851.529 1165.02 886.759 1157.25 C 926.78 1148.42 968.1 1146.95 1009.07 1145.08 C 1064.67 1142.03 1120.38 1141.77 1176 1144.3 C 1276.89 1148.84 1412.49 1154.44 1435.86 1274.55 C 1449.66 1345.48 1448.64 1468.61 1429.87 1538.05 C 1425.81 1553.14 1419.6 1567.57 1411.45 1580.9 C 1399.86 1599.61 1389.97 1609.28 1371.58 1620.4 C 1367.24 1623.14 1362.82 1625.75 1358.32 1628.22 C 1295.71 1663.13 1191.53 1673.44 1119.5 1680.75 C 1005.96 1692.26 871.648 1711.49 760.713 1680.04 C 764.628 1660.6 765.236 1626.42 765.932 1606.08 L 766.174 1604.74 C 764.87 1590.28 762.542 1492.43 765.356 1485.69 C 766.165 1483.75 766.243 1483.66 768.246 1482.82 C 772.817 1484.45 773.768 1491.77 774.883 1496.61 C 779.929 1518.52 791.403 1536.83 805.101 1554.44 C 806.565 1556.16 810.375 1560.37 811.376 1562.12 C 847.363 1596.29 883.202 1614.57 934.214 1613.09 C 976.189 1611.69 1015.85 1593.51 1044.3 1562.62 C 1069.77 1535.51 1085.82 1499.13 1087.07 1461.84 C 1104.98 1463.7 1121.63 1461.64 1139.4 1460.76 C 1155.66 1459.95 1173.66 1458.99 1189.91 1459.06 C 1199.21 1487.67 1213.06 1518.61 1241.58 1532.73 C 1288.59 1555.98 1347.54 1526.91 1370.19 1481.65 C 1408.72 1404.64 1354.62 1299.76 1260.95 1329.85 C 1219.8 1343.07 1201.11 1374.55 1190.56 1415.2 C 1170.52 1414.59 1153.19 1416.59 1133.28 1418.4 C 1115.53 1420.01 1102.24 1417.83 1085.32 1423.91 C 1076.03 1378.75 1054.2 1341.38 1015.04 1315.59 C 979.698 1292.65 936.688 1284.71 895.483 1293.5 C 853.551 1302.41 816.982 1327.85 794.039 1364.06 C 780.62 1384.86 772.958 1408.23 769.843 1432.7 C 743.095 1431.13 730.518 1451.21 742.947 1474.6 C 739.568 1505.73 743.093 1558.39 741.928 1592.48 C 743.584 1606.98 739.205 1656.42 737.633 1671.55 C 693.912 1652.42 659.4 1609.48 644.696 1564.8 C 634.134 1532.71 629.487 1494.43 628.081 1460.64 C 624.806 1429.03 626.868 1364.9 629.974 1332.97 C 627.045 1267.56 682.223 1198.49 744.861 1182.18 z" />
<path transform="translate(0,0)" fill="rgb(199,199,198)" d="M 629.974 1332.97 C 627.045 1267.56 682.223 1198.49 744.861 1182.18 L 749.99 1183.6 L 750.494 1184.71 C 713.668 1213.39 699.21 1273.24 695.672 1319.75 C 689.407 1402.1 688.533 1504.29 737.445 1575.39 C 742.114 1582.17 740.18 1585.13 741.928 1592.48 C 743.584 1606.98 739.205 1656.42 737.633 1671.55 C 693.912 1652.42 659.4 1609.48 644.696 1564.8 C 634.134 1532.71 629.487 1494.43 628.081 1460.64 C 624.806 1429.03 626.868 1364.9 629.974 1332.97 z" />
<path transform="translate(0,0)" fill="rgb(245,246,244)" d="M 629.974 1332.97 C 630.801 1335.99 631.806 1342.76 631.539 1345.62 C 629.993 1362.17 631.444 1451.76 628.081 1460.64 C 624.806 1429.03 626.868 1364.9 629.974 1332.97 z" />
<path transform="translate(0,0)" fill="rgb(199,199,198)" d="M 765.932 1606.08 L 770.364 1607.32 C 801.81 1644.03 908.718 1651.92 955.183 1655.48 C 985.333 1657.8 1016.17 1659.7 1046.4 1657.73 C 1074.94 1655.88 1102.94 1651.04 1131.31 1648.04 C 1163.79 1644.61 1196.16 1642.03 1228.61 1638.01 C 1243.77 1636.13 1258.99 1636.8 1274.1 1635.09 C 1286.29 1633.71 1298.25 1630.19 1310.09 1627.13 C 1318.14 1625.06 1366.18 1613.69 1370.95 1619.3 C 1371.22 1619.62 1371.37 1620.03 1371.58 1620.4 C 1367.24 1623.14 1362.82 1625.75 1358.32 1628.22 C 1295.71 1663.13 1191.53 1673.44 1119.5 1680.75 C 1005.96 1692.26 871.648 1711.49 760.713 1680.04 C 764.628 1660.6 765.236 1626.42 765.932 1606.08 z" />
<path transform="translate(0,0)" fill="rgb(231,233,227)" d="M 768.149 1638.95 C 771.82 1641.96 769.928 1646.98 767.506 1650.11 L 766.708 1650.3 C 765.093 1646.21 766.589 1642.9 768.149 1638.95 z" />
<path transform="translate(0,0)" fill="rgb(245,246,244)" d="M 766.174 1604.74 C 768.525 1600.78 767.807 1577.53 768.377 1570.83 L 768.977 1572.52 L 768.793 1569.73 C 769.703 1573.74 771.209 1603.35 770.364 1607.32 L 765.932 1606.08 L 766.174 1604.74 z" />
<path transform="translate(0,0)" fill="rgb(245,246,244)" d="M 805.101 1554.44 C 806.565 1556.16 810.375 1560.37 811.376 1562.12 C 811.46 1564.16 812.037 1565.05 812.791 1567.1 L 811.33 1567.2 C 807.123 1564.69 804.335 1562.51 802.005 1558 C 802.921 1554.98 802.047 1556.23 805.101 1554.44 z" />
<path transform="translate(0,0)" fill="rgb(245,246,244)" d="M 826.442 1318.31 C 828.69 1319.44 827.838 1318.58 828.924 1320.97 C 827.658 1324.07 823.831 1326.31 820.962 1328.44 L 820.012 1328.12 L 819.783 1326.79 C 823.067 1323.62 824.185 1322.27 826.442 1318.31 z" />
<path transform="translate(0,0)" fill="url(#Gradient4)" d="M 1349.94 715.084 C 1417.13 714.07 1525.9 711.266 1583.53 755.022 C 1592.98 762.202 1600.74 777.233 1600.84 789.371 C 1601.09 819.255 1576.71 845.228 1558.57 865.749 L 1555.65 868.928 C 1531.05 890.82 1504.58 910.502 1476.52 927.746 C 1474 929.769 1474.06 930.057 1471.07 931.236 C 1396.24 977.062 1308.73 1015.79 1226.26 1046.18 C 1116.38 1086.1 1003.73 1117.95 889.218 1141.5 C 743.983 1171.66 573.977 1196.21 426.512 1167.91 C 391.038 1161.1 327.842 1138.66 343.098 1090.01 C 362.068 1032.42 441.791 983.355 492.555 955.38 C 499.745 951.437 507 947.616 514.318 943.916 C 516.426 956.484 528.564 1022.43 534.965 1028.98 C 541.112 1035.27 612.161 1036.06 625.703 1033.97 C 638.748 1052.77 657.201 1059.13 678.842 1063.63 L 680.473 1064.02 C 697.902 1065.34 709.005 1070.27 722.868 1080.01 C 736.011 1064.75 745.11 1055.8 765.267 1048.39 C 781.601 1036.19 785.792 1035.69 798.5 1017.46 C 871.463 1005.28 943.637 988.781 1014.64 968.035 C 1042.61 959.742 1067.92 950.426 1095.35 941.773 C 1183.48 905.928 1265.01 873.365 1341.04 813.391 C 1352.83 804.092 1369.99 790.734 1378.02 778.579 C 1368.57 758.24 1359.28 735.84 1349.94 715.084 z" />
<path transform="translate(0,0)" fill="rgb(52,53,54)" d="M 798.5 1017.46 C 871.463 1005.28 943.637 988.781 1014.64 968.035 C 1042.61 959.742 1067.92 950.426 1095.35 941.773 C 1087.22 948.975 1071.72 953.714 1061.16 958.033 C 973.58 993.844 879.263 1024.74 786.737 1044.52 C 782.692 1045.38 768.333 1048.5 765.267 1048.39 C 781.601 1036.19 785.792 1035.69 798.5 1017.46 z" />
<path transform="translate(0,0)" fill="rgb(81,84,88)" d="M 1471.07 931.236 C 1468.93 929.008 1469.11 929.133 1468.46 926.071 C 1470.81 922.113 1473.36 922.133 1477.4 924.625 L 1476.52 927.746 C 1474 929.769 1474.06 930.057 1471.07 931.236 z" />
<path transform="translate(0,0)" fill="rgb(52,53,54)" d="M 678.842 1063.63 L 680.473 1064.02 L 679.513 1065.97 C 676.153 1066.68 670.585 1067.83 667.549 1066 C 670.338 1064.26 675.041 1064.82 678.842 1063.63 z" />
<path transform="translate(0,0)" fill="rgb(81,84,88)" d="M 1555.65 868.928 C 1551.47 868.346 1552.86 869.344 1550.72 866.801 L 1551.3 865.085 C 1555.06 863.82 1553.93 864.246 1558.57 865.749 L 1555.65 868.928 z" />
<path transform="translate(0,0)" fill="rgb(52,53,54)" d="M 1307.59 664.346 C 1321.23 688.049 1331.63 710.785 1342.77 735.773 C 1347.28 745.879 1355.83 768.004 1361.28 776.369 C 1329.7 806.253 1291.35 831.689 1253.57 853.024 C 1130.58 922.482 995.028 963.553 857.343 991.482 C 844.298 995.306 818.086 999.297 804.243 1001.74 C 805.896 992.655 806.556 986.716 804.942 977.397 C 799.226 947 784.256 938.848 776.919 911.804 C 773.742 900.093 782.903 892.367 786.396 883.227 C 786.248 883.615 784.652 878.198 784.493 876.454 C 787.456 874.581 797.204 872.933 801.136 871.942 C 969.104 829.582 1170.77 773.301 1307.59 664.346 z" />
<path transform="translate(0,0)" fill="rgb(26,26,26)" d="M 804.942 977.397 L 857.343 991.482 C 844.298 995.306 818.086 999.297 804.243 1001.74 C 805.896 992.655 806.556 986.716 804.942 977.397 z" />
<path transform="translate(0,0)" fill="rgb(7,8,6)" d="M 885.943 1305.48 C 906.953 1298.13 934.567 1297.63 956.29 1302.19 C 959.844 1302.83 962.849 1303.11 966.094 1304.68 C 1005 1314.03 1043.32 1344.57 1060.66 1380.73 C 1078.51 1409.13 1081.54 1454.19 1074 1486.52 C 1068.2 1511.83 1055.94 1535.21 1038.43 1554.38 C 1020.73 1573.21 1011.87 1579.62 988.936 1591.12 L 988.169 1590.95 C 980.196 1595.53 962.746 1600.3 953.544 1601.67 C 935.238 1604.95 922.939 1604.13 904.342 1602.09 C 893.336 1600.29 875.224 1594.01 865.038 1589.28 L 858.499 1586.43 C 853.999 1584.37 846.907 1579.56 842.945 1576.65 C 831.429 1569.25 816.572 1554.07 808.65 1543.02 C 804.14 1537.55 800.855 1531.7 797.198 1525.63 L 794.85 1521.15 C 778.932 1490.14 774.141 1454.6 781.278 1420.48 C 788.449 1386.33 810.802 1347.9 840.177 1328.62 C 850.652 1319.66 872.722 1309.44 885.943 1305.48 z" />
<path transform="translate(0,0)" fill="rgb(213,183,106)" d="M 1049.51 1387.16 C 1051.12 1384.57 1046.99 1378.53 1045.6 1375.64 C 1048.94 1375.5 1047.44 1376.04 1050.13 1373.66 C 1055.34 1373.32 1055.12 1379.14 1060.66 1380.73 C 1078.51 1409.13 1081.54 1454.19 1074 1486.52 C 1068.2 1511.83 1055.94 1535.21 1038.43 1554.38 C 1020.73 1573.21 1011.87 1579.62 988.936 1591.12 L 989.85 1587.14 C 994.351 1582.04 997.834 1581.17 1004.17 1578.16 C 1003.97 1576.53 1004.07 1576.39 1004.19 1574.73 L 1007.19 1573.48 L 1007.88 1571.36 L 997.023 1571.45 C 1013.77 1561.84 1026.73 1547.92 1038.72 1533.05 C 1044.83 1523.93 1050.05 1514.24 1054.29 1504.11 C 1071.22 1462.86 1066.25 1426.84 1049.51 1387.16 z" />
<path transform="translate(0,0)" fill="rgb(211,183,116)" d="M 1038.72 1533.05 C 1039.49 1543.24 1034.8 1535.07 1037.79 1542.63 L 1040.17 1544.58 C 1039.89 1547.36 1039.86 1547.16 1038.19 1549.45 L 1033.49 1548.81 C 1033.07 1547.39 1033.01 1548.05 1033.48 1546.85 C 1031.06 1548.14 1023.94 1555.78 1023.27 1558.27 C 1026.06 1556.05 1028.83 1553.8 1031.58 1551.54 C 1034.34 1551.89 1035.99 1553.06 1038.43 1554.38 C 1020.73 1573.21 1011.87 1579.62 988.936 1591.12 L 989.85 1587.14 C 994.351 1582.04 997.834 1581.17 1004.17 1578.16 C 1003.97 1576.53 1004.07 1576.39 1004.19 1574.73 L 1007.19 1573.48 L 1007.88 1571.36 L 997.023 1571.45 C 1013.77 1561.84 1026.73 1547.92 1038.72 1533.05 z" />
<path transform="translate(0,0)" fill="rgb(187,156,96)" d="M 1007.88 1571.36 L 1009.13 1569.21 C 1012.4 1568.94 1010.88 1568.59 1013.78 1570.53 L 1014.54 1572.86 C 1011.85 1577.81 1009.53 1577.31 1004.17 1578.16 C 1003.97 1576.53 1004.07 1576.39 1004.19 1574.73 L 1007.19 1573.48 L 1007.88 1571.36 z" />
<path transform="translate(0,0)" fill="rgb(177,139,76)" d="M 840.177 1328.62 C 844.115 1328.43 844.33 1327.71 846.845 1329.51 L 846.715 1330.6 L 843.597 1331.88 C 846.424 1334.03 849.254 1332.59 852.484 1331.64 L 853.628 1332.38 C 852.239 1334.03 850.47 1335.68 850.23 1337.92 C 847.648 1340.12 845.029 1342.28 842.373 1344.39 C 834.838 1350.52 828.518 1357.52 822.201 1364.89 C 807.956 1384.77 802.521 1395.81 795.552 1419.71 C 792.98 1434.91 791.837 1444.54 792.797 1460.13 C 793.059 1464.38 794.824 1477.47 794.816 1480.59 C 795.477 1482.88 802.684 1505.71 802.654 1505.47 L 802.61 1506.48 C 802.336 1514.67 804.954 1513.79 802.599 1520.86 L 804.621 1523.01 L 803.918 1524.04 C 799.577 1523.22 798.618 1522.19 794.85 1521.15 C 778.932 1490.14 774.141 1454.6 781.278 1420.48 C 788.449 1386.33 810.802 1347.9 840.177 1328.62 z" />
<path transform="translate(0,0)" fill="rgb(187,156,96)" d="M 794.816 1480.59 L 793.091 1480.45 C 791.51 1474.54 790.189 1463.09 790.773 1456.98 C 791.988 1444.27 790.135 1449.68 786.893 1443.19 C 787.691 1438.81 788.033 1435.91 789.773 1431.73 C 789.997 1434.2 790.081 1435.47 790.634 1437.88 C 790.612 1433.06 791.987 1422.19 794.453 1418.14 L 795.552 1419.71 C 792.98 1434.91 791.837 1444.54 792.797 1460.13 C 793.059 1464.38 794.824 1477.47 794.816 1480.59 z" />
<path transform="translate(0,0)" fill="rgb(187,156,96)" d="M 822.201 1364.89 L 819.932 1363.16 C 821.222 1358.39 834.727 1346.11 839.083 1343.03 L 842.373 1344.39 C 834.838 1350.52 828.518 1357.52 822.201 1364.89 z" />
<path transform="translate(0,0)" fill="rgb(211,183,116)" d="M 885.943 1305.48 C 906.953 1298.13 934.567 1297.63 956.29 1302.19 C 959.844 1302.83 962.849 1303.11 966.094 1304.68 C 1005 1314.03 1043.32 1344.57 1060.66 1380.73 C 1055.12 1379.14 1055.34 1373.32 1050.13 1373.66 C 1047.44 1376.04 1048.94 1375.5 1045.6 1375.64 C 1046.99 1378.53 1051.12 1384.57 1049.51 1387.16 C 1033.44 1361.73 1019.51 1342.77 991.321 1328.77 C 954.552 1310.5 921.68 1308.48 883.16 1321.25 L 881.184 1319.61 C 882.755 1316.69 883.69 1311.77 884.987 1308.28 L 885.943 1305.48 z" />
<path transform="translate(0,0)" fill="rgb(213,183,106)" d="M 885.943 1305.48 C 906.953 1298.13 934.567 1297.63 956.29 1302.19 C 959.844 1302.83 962.849 1303.11 966.094 1304.68 C 969.035 1310.08 990.203 1311.34 998.867 1323.65 L 996.332 1325.63 C 961.352 1317.95 951.068 1304.41 908.851 1311.82 C 904.293 1312.32 891.59 1314.94 888.54 1312.57 C 887.734 1317.4 886.384 1318.71 881.184 1319.61 C 882.755 1316.69 883.69 1311.77 884.987 1308.28 L 885.943 1305.48 z" />
<path transform="translate(0,0)" fill="rgb(211,183,116)" d="M 885.943 1305.48 C 906.953 1298.13 934.567 1297.63 956.29 1302.19 C 945.526 1305.96 921.593 1301.03 904.487 1304.22 C 900.311 1307.74 890.275 1308.99 884.987 1308.28 L 885.943 1305.48 z" />
<path transform="translate(0,0)" fill="rgb(178,146,85)" d="M 997.023 1571.45 L 1007.88 1571.36 L 1007.19 1573.48 L 1004.19 1574.73 C 1004.07 1576.39 1003.97 1576.53 1004.17 1578.16 C 997.834 1581.17 994.351 1582.04 989.85 1587.14 L 988.936 1591.12 L 988.169 1590.95 C 980.196 1595.53 962.746 1600.3 953.544 1601.67 C 935.238 1604.95 922.939 1604.13 904.342 1602.09 C 893.336 1600.29 875.224 1594.01 865.038 1589.28 L 865.645 1587.75 C 874.288 1589.84 882.894 1593.51 891.469 1594.47 C 892.671 1594.61 893.794 1594.91 894.947 1595.25 C 900.227 1595 904.21 1595.54 907.801 1591.71 L 907.15 1589.57 L 908.641 1588.64 C 946.18 1591.08 963.001 1588.48 997.023 1571.45 z" />
<path transform="translate(0,0)" fill="rgb(187,156,96)" d="M 953.544 1601.67 L 949.167 1600.85 L 949.195 1600.02 C 952.356 1599.28 958.984 1599.09 960.599 1597.49 C 958.178 1597.22 959.208 1597.64 957.437 1596.43 C 965.579 1594.79 979.732 1588.16 988.169 1590.95 C 980.196 1595.53 962.746 1600.3 953.544 1601.67 z" />
<path transform="translate(0,0)" fill="rgb(178,146,85)" d="M 794.85 1521.15 C 798.618 1522.19 799.577 1523.22 803.918 1524.04 L 804.621 1523.01 L 802.599 1520.86 C 804.954 1513.79 802.336 1514.67 802.61 1506.48 L 802.654 1505.47 C 818.549 1535.77 826.127 1547.06 854.198 1567.6 C 845.808 1567.58 847.52 1571.26 841.577 1571.3 C 842.352 1572.92 842.544 1573.29 843.416 1574.76 L 842.945 1576.65 C 831.429 1569.25 816.572 1554.07 808.65 1543.02 C 804.14 1537.55 800.855 1531.7 797.198 1525.63 L 794.85 1521.15 z" />
<path transform="translate(0,0)" fill="rgb(177,139,76)" d="M 842.945 1576.65 L 843.416 1574.76 C 842.544 1573.29 842.352 1572.92 841.577 1571.3 C 847.52 1571.26 845.808 1567.58 854.198 1567.6 L 865.857 1574.24 C 876.307 1579.45 884.961 1582.89 896.328 1585.67 C 898.225 1586.13 907.322 1588.08 908.641 1588.64 L 907.15 1589.57 L 907.801 1591.71 C 904.21 1595.54 900.227 1595 894.947 1595.25 C 893.794 1594.91 892.671 1594.61 891.469 1594.47 C 882.894 1593.51 874.288 1589.84 865.645 1587.75 L 865.038 1589.28 L 858.499 1586.43 C 853.999 1584.37 846.907 1579.56 842.945 1576.65 z" />
<path transform="translate(0,0)" fill="rgb(187,156,96)" d="M 885.943 1305.48 L 884.987 1308.28 C 883.69 1311.77 882.755 1316.69 881.184 1319.61 L 883.16 1321.25 C 870.023 1326.63 862.194 1330.33 850.23 1337.92 C 850.47 1335.68 852.239 1334.03 853.628 1332.38 L 852.484 1331.64 C 849.254 1332.59 846.424 1334.03 843.597 1331.88 L 846.715 1330.6 L 846.845 1329.51 C 844.33 1327.71 844.115 1328.43 840.177 1328.62 C 850.652 1319.66 872.722 1309.44 885.943 1305.48 z" />
<path transform="translate(0,0)" fill="rgb(62,81,83)" d="M 847.597 1351.22 C 880.487 1327.28 908.785 1317.88 949.306 1323.52 C 960.916 1325.95 974.107 1329.07 984.408 1335.32 C 989.442 1337.13 996.224 1341.74 1000.84 1344.8 C 1004.24 1347.6 1008.2 1350.68 1011.39 1353.64 C 1016.29 1357.91 1019.78 1360.95 1024.2 1365.74 L 1029.19 1372.14 C 1071.17 1421.38 1063.31 1510.43 1012.08 1550.07 C 993.756 1564.5 963.104 1581.73 939.183 1580.88 C 904.523 1586.71 859.36 1566.75 836.032 1541.45 C 832.198 1537.35 829.647 1534.15 826.241 1529.78 L 823.572 1526.99 C 818.264 1518.52 814.293 1511.42 810.342 1502.28 C 801.671 1485.63 798.488 1458.52 800.42 1440 C 804.248 1403.31 819.366 1374.59 847.597 1351.22 z" />
<path transform="translate(0,0)" fill="rgb(62,81,83)" d="M 847.597 1351.22 C 880.487 1327.28 908.785 1317.88 949.306 1323.52 C 948.342 1325.47 947.154 1328.07 946.101 1329.9 L 945.53 1331.29 C 940.722 1339.73 930.77 1353 927.129 1360.72 C 920.363 1367.96 918.493 1370.59 914.385 1380.16 L 829.083 1515.78 L 828.153 1517.07 C 826.87 1519.95 825.067 1524.38 823.572 1526.99 C 818.264 1518.52 814.293 1511.42 810.342 1502.28 C 801.671 1485.63 798.488 1458.52 800.42 1440 C 804.248 1403.31 819.366 1374.59 847.597 1351.22 z" />
<path transform="translate(0,0)" fill="rgb(101,117,118)" d="M 847.597 1351.22 C 880.487 1327.28 908.785 1317.88 949.306 1323.52 C 948.342 1325.47 947.154 1328.07 946.101 1329.9 L 945.53 1331.29 C 938.722 1327.07 915.442 1329.94 907.682 1331.89 C 875.31 1340.02 852.24 1360.27 835.21 1388.2 C 816.505 1419.52 810.945 1456.97 819.742 1492.37 C 821.02 1497.52 825.671 1512.21 829.083 1515.78 L 828.153 1517.07 C 826.87 1519.95 825.067 1524.38 823.572 1526.99 C 818.264 1518.52 814.293 1511.42 810.342 1502.28 C 801.671 1485.63 798.488 1458.52 800.42 1440 C 804.248 1403.31 819.366 1374.59 847.597 1351.22 z" />
<path transform="translate(0,0)" fill="rgb(62,81,83)" d="M 810.342 1502.28 C 801.671 1485.63 798.488 1458.52 800.42 1440 C 804.248 1403.31 819.366 1374.59 847.597 1351.22 L 849.428 1353.68 C 848.986 1354.55 836.285 1366.74 833.768 1369.98 C 810.11 1400.44 801.197 1439.56 806.503 1477.56 C 807.39 1483.91 811.133 1496.64 810.342 1502.28 z" />
<path transform="translate(0,0)" fill="rgb(124,136,137)" d="M 914.385 1380.16 C 917.449 1403.43 939.838 1395.29 954.49 1403.14 L 954.798 1403.58 C 958.905 1405.55 968.127 1412.66 970.183 1416.46 C 956.033 1443.18 938.912 1467.98 923.155 1493.72 C 918.135 1501.92 909.952 1514.1 905.803 1522.21 C 896.733 1521.36 893.612 1518.15 886.753 1512.69 L 886.226 1512.88 C 881.043 1521.47 875.588 1530.93 869.928 1539.12 C 873.042 1541.38 885.541 1549.56 887.253 1551.09 L 887.836 1551.22 C 891.716 1554.07 900.368 1555.82 905.17 1556.75 C 901.641 1562.51 898.131 1568.09 895.019 1574.09 C 903.878 1577.83 922.933 1579.76 932.68 1579.1 L 939.183 1580.88 C 904.523 1586.71 859.36 1566.75 836.032 1541.45 C 832.198 1537.35 829.647 1534.15 826.241 1529.78 L 823.572 1526.99 C 825.067 1524.38 826.87 1519.95 828.153 1517.07 L 829.083 1515.78 L 914.385 1380.16 z" />
<path transform="translate(0,0)" fill="rgb(62,81,83)" d="M 954.798 1403.58 C 958.905 1405.55 968.127 1412.66 970.183 1416.46 C 956.033 1443.18 938.912 1467.98 923.155 1493.72 C 918.135 1501.92 909.952 1514.1 905.803 1522.21 C 896.733 1521.36 893.612 1518.15 886.753 1512.69 C 904.41 1482.04 925.069 1452.63 942.874 1422 C 946.436 1415.87 950.603 1409.27 954.798 1403.58 z" />
<path transform="translate(0,0)" fill="rgb(152,162,163)" d="M 869.928 1539.12 C 861.48 1531.17 856.582 1524.22 853.758 1513.24 C 848.148 1491.42 862.581 1486.19 875.98 1502.37 C 878.606 1505.54 883.195 1509.93 886.226 1512.88 C 881.043 1521.47 875.588 1530.93 869.928 1539.12 z" />
<path transform="translate(0,0)" fill="rgb(62,81,83)" d="M 869.928 1539.12 C 873.042 1541.38 885.541 1549.56 887.253 1551.09 C 884.571 1555.94 881.251 1562.4 878.426 1567.01 C 871.863 1565.93 864.576 1560.24 859.065 1556.44 L 869.928 1539.12 z" />
<path transform="translate(0,0)" fill="rgb(101,117,118)" d="M 887.253 1551.09 L 887.836 1551.22 C 891.716 1554.07 900.368 1555.82 905.17 1556.75 C 901.641 1562.51 898.131 1568.09 895.019 1574.09 C 892.49 1571.33 882.871 1568.79 878.426 1567.01 C 881.251 1562.4 884.571 1555.94 887.253 1551.09 z" />
<path transform="translate(0,0)" fill="rgb(152,162,163)" d="M 828.153 1517.07 L 829.602 1518.94 L 840.129 1535.55 C 838.1 1539.61 837.658 1537.92 836.032 1541.45 C 832.198 1537.35 829.647 1534.15 826.241 1529.78 L 823.572 1526.99 C 825.067 1524.38 826.87 1519.95 828.153 1517.07 z" />
<path transform="translate(0,0)" fill="rgb(177,178,176)" d="M 828.153 1517.07 L 829.602 1518.94 C 829.74 1525.68 830.385 1525.26 826.241 1529.78 L 823.572 1526.99 C 825.067 1524.38 826.87 1519.95 828.153 1517.07 z" />
<path transform="translate(0,0)" fill="rgb(152,162,163)" d="M 949.306 1323.52 C 960.916 1325.95 974.107 1329.07 984.408 1335.32 C 989.442 1337.13 996.224 1341.74 1000.84 1344.8 C 1004.24 1347.6 1008.2 1350.68 1011.39 1353.64 C 1016.29 1357.91 1019.78 1360.95 1024.2 1365.74 C 1022.56 1368.66 1020.69 1372.28 1018.66 1374.82 L 1018.37 1375.52 C 1012.49 1385.16 1006.23 1395.1 1000.65 1404.88 L 997.642 1400.03 C 990.538 1395.94 989.453 1396.05 981.884 1399.62 C 980.943 1401.55 980.405 1402.85 979.191 1404.64 C 974.759 1408.97 972.981 1410.87 970.183 1416.46 C 968.127 1412.66 958.905 1405.55 954.798 1403.58 L 954.49 1403.14 C 939.838 1395.29 917.449 1403.43 914.385 1380.16 C 918.493 1370.59 920.363 1367.96 927.129 1360.72 C 930.77 1353 940.722 1339.73 945.53 1331.29 L 946.101 1329.9 C 947.154 1328.07 948.342 1325.47 949.306 1323.52 z" />
<path transform="translate(0,0)" fill="rgb(62,81,83)" d="M 984.408 1335.32 C 989.442 1337.13 996.224 1341.74 1000.84 1344.8 C 1004.24 1347.6 1008.2 1350.68 1011.39 1353.64 C 1016.29 1357.91 1019.78 1360.95 1024.2 1365.74 C 1022.56 1368.66 1020.69 1372.28 1018.66 1374.82 L 1018.37 1375.52 C 1012.49 1385.16 1006.23 1395.1 1000.65 1404.88 L 997.642 1400.03 C 990.538 1395.94 989.453 1396.05 981.884 1399.62 C 985.231 1393.32 986.981 1390.69 991.211 1384.91 L 991.294 1384.23 C 986.803 1378.62 980.225 1372.47 976.668 1367.02 L 988.525 1347.06 L 988.52 1346.6 C 984.172 1342.17 979.992 1341.93 977.883 1339.85 C 977.102 1337.38 977.158 1338.25 977.211 1335.74 C 980.564 1336.26 980.991 1336.38 984.408 1335.32 z" />
<path transform="translate(0,0)" fill="rgb(124,136,137)" d="M 1011.39 1353.64 C 1016.29 1357.91 1019.78 1360.95 1024.2 1365.74 C 1022.56 1368.66 1020.69 1372.28 1018.66 1374.82 L 1018.37 1375.52 C 1012.49 1385.16 1006.23 1395.1 1000.65 1404.88 L 997.642 1400.03 C 990.538 1395.94 989.453 1396.05 981.884 1399.62 C 985.231 1393.32 986.981 1390.69 991.211 1384.91 L 991.294 1384.23 C 993.724 1381.89 1002.87 1366.45 1006.25 1361.94 L 1006.99 1361.59 C 1007.69 1358.75 1009.74 1356.15 1011.39 1353.64 z" />
<path transform="translate(0,0)" fill="rgb(152,162,163)" d="M 1011.39 1353.64 C 1016.29 1357.91 1019.78 1360.95 1024.2 1365.74 C 1022.56 1368.66 1020.69 1372.28 1018.66 1374.82 C 1015.74 1369.57 1011.74 1365.23 1006.99 1361.59 C 1007.69 1358.75 1009.74 1356.15 1011.39 1353.64 z" />
<path transform="translate(0,0)" fill="rgb(152,162,163)" d="M 991.211 1384.91 C 995.08 1388.65 996.986 1391.69 998.483 1396.79 L 997.642 1400.03 C 990.538 1395.94 989.453 1396.05 981.884 1399.62 C 985.231 1393.32 986.981 1390.69 991.211 1384.91 z" />
<path transform="translate(0,0)" fill="rgb(101,117,118)" d="M 984.408 1335.32 C 989.442 1337.13 996.224 1341.74 1000.84 1344.8 L 1000.44 1348.31 C 997.594 1349.76 997.006 1349.33 993.588 1349.4 C 991.704 1347.68 991.051 1347.79 988.525 1347.06 L 988.52 1346.6 C 984.172 1342.17 979.992 1341.93 977.883 1339.85 C 977.102 1337.38 977.158 1338.25 977.211 1335.74 C 980.564 1336.26 980.991 1336.38 984.408 1335.32 z" />
<path transform="translate(0,0)" fill="rgb(101,117,118)" d="M 1000.84 1344.8 C 1004.24 1347.6 1008.2 1350.68 1011.39 1353.64 C 1009.74 1356.15 1007.69 1358.75 1006.99 1361.59 L 1006.25 1361.94 C 1005.67 1357.68 997.203 1352.17 993.588 1349.4 C 997.006 1349.33 997.594 1349.76 1000.44 1348.31 L 1000.84 1344.8 z" />
<path transform="translate(0,0)" fill="rgb(124,136,137)" d="M 949.306 1323.52 C 960.916 1325.95 974.107 1329.07 984.408 1335.32 C 980.991 1336.38 980.564 1336.26 977.211 1335.74 C 977.158 1338.25 977.102 1337.38 977.883 1339.85 C 979.992 1341.93 984.172 1342.17 988.52 1346.6 L 988.525 1347.06 L 976.668 1367.02 L 976.11 1367.11 C 974.39 1366.86 974.307 1366.93 972.827 1366 C 959.671 1357.73 941.558 1355.6 927.129 1360.72 C 930.77 1353 940.722 1339.73 945.53 1331.29 L 946.101 1329.9 C 947.154 1328.07 948.342 1325.47 949.306 1323.52 z" />
<path transform="translate(0,0)" fill="rgb(152,162,163)" d="M 949.306 1323.52 C 960.916 1325.95 974.107 1329.07 984.408 1335.32 C 980.991 1336.38 980.564 1336.26 977.211 1335.74 C 977.158 1338.25 977.102 1337.38 977.883 1339.85 C 967.435 1336.21 956.859 1332.5 946.101 1329.9 C 947.154 1328.07 948.342 1325.47 949.306 1323.52 z" />
<path transform="translate(0,0)" fill="rgb(101,117,118)" d="M 976.11 1367.11 L 976.668 1367.02 C 980.225 1372.47 986.803 1378.62 991.294 1384.23 L 991.211 1384.91 C 986.981 1390.69 985.231 1393.32 981.884 1399.62 C 980.943 1401.55 980.405 1402.85 979.191 1404.64 C 974.759 1408.97 972.981 1410.87 970.183 1416.46 C 968.127 1412.66 958.905 1405.55 954.798 1403.58 L 954.49 1403.14 C 959.903 1395.94 972.474 1375.08 976.11 1367.11 z" />
<path transform="translate(0,0)" fill="rgb(101,117,118)" d="M 886.753 1512.69 C 893.612 1518.15 896.733 1521.36 905.803 1522.21 L 905.949 1522.7 C 910.433 1523.34 920.14 1524.27 923.654 1526.44 L 924.371 1525.69 C 939.217 1524.67 1011.8 1507.39 961.861 1547.43 C 947.161 1559.21 923.557 1559.37 905.17 1556.75 C 900.368 1555.82 891.716 1554.07 887.836 1551.22 L 887.253 1551.09 C 885.541 1549.56 873.042 1541.38 869.928 1539.12 C 875.588 1530.93 881.043 1521.47 886.226 1512.88 L 886.753 1512.69 z" />
<path transform="translate(0,0)" fill="rgb(101,117,118)" d="M 886.753 1512.69 C 893.612 1518.15 896.733 1521.36 905.803 1522.21 L 905.949 1522.7 C 899.387 1532.01 894.377 1541.89 887.836 1551.22 L 887.253 1551.09 C 885.541 1549.56 873.042 1541.38 869.928 1539.12 C 875.588 1530.93 881.043 1521.47 886.226 1512.88 L 886.753 1512.69 z" />
<path transform="translate(0,0)" fill="rgb(152,162,163)" d="M 905.949 1522.7 C 910.433 1523.34 920.14 1524.27 923.654 1526.44 C 920.396 1531.89 908.316 1552.87 905.17 1556.75 C 900.368 1555.82 891.716 1554.07 887.836 1551.22 C 894.377 1541.89 899.387 1532.01 905.949 1522.7 z" />
<path transform="translate(0,0)" fill="rgb(101,117,118)" d="M 1024.2 1365.74 L 1029.19 1372.14 C 1071.17 1421.38 1063.31 1510.43 1012.08 1550.07 C 993.756 1564.5 963.104 1581.73 939.183 1580.88 L 932.68 1579.1 C 959.46 1576.21 979.323 1567.06 1000.4 1549.53 C 1045.45 1512.04 1058.15 1420.88 1018.37 1375.52 L 1018.66 1374.82 C 1020.69 1372.28 1022.56 1368.66 1024.2 1365.74 z" />
<path transform="translate(0,0)" fill="rgb(62,81,83)" d="M 1029.19 1372.14 C 1071.17 1421.38 1063.31 1510.43 1012.08 1550.07 C 1010.99 1548.55 1009.46 1546.99 1010.93 1545.3 C 1047.76 1503.14 1060.09 1438.4 1034.68 1387.34 C 1032.65 1383.27 1028.7 1376.4 1029.19 1372.14 z" />
<path transform="translate(0,0)" fill="rgb(124,136,137)" d="M 970.183 1416.46 C 972.981 1410.87 974.759 1408.97 979.191 1404.64 C 978.302 1415.66 979.84 1421.9 981.712 1432.8 C 963.57 1460.62 941.236 1496.9 924.371 1525.69 L 923.654 1526.44 C 920.14 1524.27 910.433 1523.34 905.949 1522.7 L 905.803 1522.21 C 909.952 1514.1 918.135 1501.92 923.155 1493.72 C 938.912 1467.98 956.033 1443.18 970.183 1416.46 z" />
<path transform="translate(0,0)" fill="rgb(231,233,227)" d="M 981.884 1399.62 C 989.453 1396.05 990.538 1395.94 997.642 1400.03 L 1000.65 1404.88 C 1004.47 1417.91 1009.33 1440.39 995.709 1449.21 C 988.386 1453.96 982.817 1437.27 981.712 1432.8 C 979.84 1421.9 978.302 1415.66 979.191 1404.64 C 980.405 1402.85 980.943 1401.55 981.884 1399.62 z" />
<path transform="translate(0,0)" fill="rgb(7,8,6)" d="M 1490.3 1202.9 C 1494.67 1198.39 1499.39 1194.22 1504.41 1190.44 C 1533.07 1168.72 1569.22 1159.35 1604.82 1164.39 C 1641.17 1169.73 1673.85 1189.48 1695.47 1219.19 C 1716.75 1248.26 1728.03 1293.85 1717.93 1328.98 C 1711.43 1365.79 1680.7 1406.92 1646.01 1421.61 C 1640.7 1424.79 1633.76 1427 1627.78 1428.76 C 1618.31 1431.5 1605.99 1435.27 1596.03 1435.06 C 1568.19 1440 1523.73 1425.62 1502.86 1406.63 C 1495.81 1401.7 1488.44 1393.99 1482.93 1387.37 C 1474.93 1380.22 1465.04 1360.65 1460.84 1350.78 C 1451.48 1328.75 1446.59 1294.52 1453.38 1271.22 C 1454.97 1260.62 1461.28 1242.73 1467.31 1233.97 C 1470.35 1225.29 1483.1 1208.92 1490.3 1202.9 z" />
<path transform="translate(0,0)" fill="rgb(178,146,85)" d="M 1490.3 1202.9 C 1494.67 1198.39 1499.39 1194.22 1504.41 1190.44 C 1533.07 1168.72 1569.22 1159.35 1604.82 1164.39 C 1641.17 1169.73 1673.85 1189.48 1695.47 1219.19 C 1716.75 1248.26 1728.03 1293.85 1717.93 1328.98 C 1711.43 1365.79 1680.7 1406.92 1646.01 1421.61 L 1645.83 1419.44 L 1648.22 1418.19 L 1648.33 1417.19 C 1642.94 1418.21 1633.92 1421.2 1629.51 1419.98 C 1628.97 1416.72 1628.39 1416.6 1626.09 1414.21 C 1651.83 1405.01 1673.67 1387.33 1688.04 1364.08 C 1705.58 1335.8 1710.5 1300.36 1702.66 1268.14 C 1694.83 1237.03 1674.8 1210.39 1647.1 1194.21 C 1620.13 1178.1 1587.86 1173.37 1557.4 1181.05 C 1532.29 1187.58 1517.86 1197.19 1498.37 1214.05 C 1493.24 1220.29 1488.61 1226.85 1483.64 1233.23 C 1477.23 1235.33 1466.72 1261.41 1464.85 1269.13 L 1464.46 1258.12 C 1457.56 1259.18 1456.49 1265.68 1455.04 1271.95 L 1454.1 1272.18 L 1453.38 1271.22 C 1454.97 1260.62 1461.28 1242.73 1467.31 1233.97 C 1470.35 1225.29 1483.1 1208.92 1490.3 1202.9 z" />
<path transform="translate(0,0)" fill="rgb(211,183,116)" d="M 1604.82 1164.39 C 1641.17 1169.73 1673.85 1189.48 1695.47 1219.19 C 1716.75 1248.26 1728.03 1293.85 1717.93 1328.98 C 1715.93 1326.93 1722.2 1276.53 1714.34 1266.45 C 1709.83 1271.58 1714.91 1267.48 1712.87 1271.67 C 1711.02 1269.85 1703.86 1254.28 1702.49 1250.99 C 1690.1 1221.31 1667.38 1197.86 1638.37 1183.28 C 1634.93 1181.29 1630.72 1180.7 1628.06 1178.08 C 1616.05 1175.25 1610.95 1174.97 1602.55 1165.71 L 1604.82 1164.39 z" />
<path transform="translate(0,0)" fill="rgb(177,139,76)" d="M 1453.38 1271.22 C 1454.97 1260.62 1461.28 1242.73 1467.31 1233.97 C 1468.11 1243.03 1465 1249.49 1464.46 1258.12 C 1457.56 1259.18 1456.49 1265.68 1455.04 1271.95 L 1454.1 1272.18 L 1453.38 1271.22 z" />
<path transform="translate(0,0)" fill="rgb(178,146,85)" d="M 1453.38 1271.22 L 1454.1 1272.18 L 1455.04 1271.95 C 1456.49 1265.68 1457.56 1259.18 1464.46 1258.12 L 1464.85 1269.13 C 1458.72 1311.23 1462.42 1341.23 1488.27 1376.67 C 1507.47 1403 1541.59 1419.47 1573.25 1424.26 C 1580.95 1425.42 1590.64 1425.36 1597.4 1428.77 C 1601.87 1428.21 1605.53 1427.56 1609.96 1426.69 L 1610.83 1427.53 L 1610.18 1430.45 C 1604.01 1430.99 1598.13 1433.38 1591.84 1434.53 L 1591.03 1434.57 L 1596.03 1435.06 C 1568.19 1440 1523.73 1425.62 1502.86 1406.63 C 1495.81 1401.7 1488.44 1393.99 1482.93 1387.37 C 1474.93 1380.22 1465.04 1360.65 1460.84 1350.78 C 1451.48 1328.75 1446.59 1294.52 1453.38 1271.22 z" />
<path transform="translate(0,0)" fill="rgb(177,139,76)" d="M 1482.93 1387.37 C 1489.36 1388.22 1499.11 1399.61 1503.31 1404.64 L 1502.86 1406.63 C 1495.81 1401.7 1488.44 1393.99 1482.93 1387.37 z" />
<path transform="translate(0,0)" fill="rgb(187,156,96)" d="M 1464.85 1269.13 C 1466.72 1261.41 1477.23 1235.33 1483.64 1233.23 C 1477.2 1244.89 1472.49 1253.91 1468.94 1267.02 C 1452.04 1329.45 1487.55 1396.16 1549.58 1415.47 C 1553.52 1416.69 1559.69 1418.28 1563.77 1418.59 C 1586.88 1423.11 1604.05 1421.62 1626.09 1414.21 C 1628.39 1416.6 1628.97 1416.72 1629.51 1419.98 C 1633.92 1421.2 1642.94 1418.21 1648.33 1417.19 L 1648.22 1418.19 L 1645.83 1419.44 L 1646.01 1421.61 C 1640.7 1424.79 1633.76 1427 1627.78 1428.76 C 1618.31 1431.5 1605.99 1435.27 1596.03 1435.06 L 1591.03 1434.57 L 1591.84 1434.53 C 1598.13 1433.38 1604.01 1430.99 1610.18 1430.45 L 1610.83 1427.53 L 1609.96 1426.69 C 1605.53 1427.56 1601.87 1428.21 1597.4 1428.77 C 1590.64 1425.36 1580.95 1425.42 1573.25 1424.26 C 1541.59 1419.47 1507.47 1403 1488.27 1376.67 C 1462.42 1341.23 1458.72 1311.23 1464.85 1269.13 z" />
<path transform="translate(0,0)" fill="rgb(177,139,76)" d="M 1629.51 1419.98 C 1633.92 1421.2 1642.94 1418.21 1648.33 1417.19 L 1648.22 1418.19 L 1645.83 1419.44 L 1646.01 1421.61 C 1640.7 1424.79 1633.76 1427 1627.78 1428.76 L 1626.27 1427.47 C 1628.35 1426.68 1627.38 1427.28 1628.8 1425.05 C 1628.29 1424.47 1621.82 1425.2 1617.57 1423.81 L 1616.89 1422.24 L 1618.62 1420.38 L 1617.99 1419.24 C 1622.99 1418.93 1625.87 1420.46 1629.51 1419.98 z" />
<path transform="translate(0,0)" fill="rgb(231,233,227)" d="M 1561.04 1188.16 C 1592.93 1182.27 1622.24 1186.62 1649.44 1205.14 C 1674.22 1221.98 1691.2 1248.07 1696.57 1277.54 C 1699.41 1292.96 1699.71 1313.02 1694.6 1327.99 C 1692.02 1337.8 1688.69 1347.77 1683.05 1356.3 C 1671.37 1380.13 1646.51 1398.74 1621.77 1407.33 C 1605.74 1412.82 1588.66 1414.58 1571.85 1412.49 C 1563.57 1411.17 1555.83 1409.42 1548.03 1406.37 C 1545.76 1405.54 1543.83 1404.58 1541.67 1403.55 C 1528.17 1398.69 1514.8 1389.76 1505.32 1378.97 C 1501.71 1375.27 1499.43 1372.35 1496.25 1368.33 C 1494.52 1366.89 1489.62 1359.35 1488.39 1357.15 C 1472.72 1329.68 1468.76 1297.06 1477.39 1266.63 C 1485.61 1238 1504.97 1213.85 1531.13 1199.6 L 1541.31 1194.62 C 1548.58 1191.64 1553.42 1190.27 1561.04 1188.16 z" />
<path transform="translate(0,0)" fill="rgb(199,199,198)" d="M 1683.05 1356.3 L 1682.69 1352 C 1684.24 1349.84 1684.03 1350.33 1685.07 1347.91 L 1682.77 1346.83 L 1682.32 1345.15 C 1684.72 1342.88 1683.33 1343.83 1687.09 1342.93 C 1690.6 1339.59 1689.64 1333.98 1692.8 1327.93 L 1694.6 1327.99 C 1692.02 1337.8 1688.69 1347.77 1683.05 1356.3 z" />
<path transform="translate(0,0)" fill="rgb(199,199,198)" d="M 1541.67 1403.55 C 1540.79 1401.64 1540.36 1401.04 1538.87 1399.54 C 1542.82 1398.17 1549.81 1400.37 1553.8 1401.75 L 1553.34 1403.13 C 1550.88 1404.35 1549.97 1404.5 1548.03 1406.37 C 1545.76 1405.54 1543.83 1404.58 1541.67 1403.55 z" />
<path transform="translate(0,0)" fill="rgb(199,199,198)" d="M 1496.25 1368.33 C 1500.4 1369.48 1505.12 1370.38 1507.6 1373.85 L 1507.96 1376.12 C 1506.73 1377.17 1506.27 1377.62 1505.32 1378.97 C 1501.71 1375.27 1499.43 1372.35 1496.25 1368.33 z" />
<path transform="translate(0,0)" fill="rgb(199,199,198)" d="M 1531.13 1199.6 L 1541.31 1194.62 C 1542.86 1197.6 1543.3 1196.92 1542.71 1198.97 C 1540.29 1201.22 1538.46 1200.99 1535.12 1201.33 L 1531.13 1199.6 z" />
<path transform="translate(0,0)" fill="rgb(245,246,244)" d="M 1622.57 1214.1 C 1664.67 1218.97 1696.4 1295.05 1666.29 1309.69 C 1650.17 1310.23 1650.47 1301.38 1647.89 1288.45 C 1645.9 1278.23 1644.1 1268.63 1639 1259.27 C 1632.42 1247.21 1608.58 1240.23 1611.41 1223.98 C 1612.27 1219 1618.56 1215.95 1622.57 1214.1 z" />
<path transform="translate(0,0)" fill="rgb(245,246,244)" d="M 1655 1323.96 C 1673.68 1323.85 1672.35 1343.19 1658.3 1352.09 C 1639.09 1351.3 1639.27 1329.48 1655 1323.96 z" />
<path transform="translate(0,0)" fill="rgb(26,26,26)" d="M 748.273 856.722 L 778.699 881.592 C 744.722 925.659 816.078 956.842 793.488 1007.23 L 791.688 1012.17 C 772.373 1046.3 744.036 1041.9 721.002 1069.6 C 688.807 1050.37 639.92 1060.64 625.569 1015.61 C 622.619 1010.44 622.013 1003.82 621.468 998.002 C 621.32 992.445 621.929 987.699 622.479 982.195 C 623.337 976.497 623.638 974.617 625.552 969.229 C 631.592 943.194 634.675 927.22 611.182 908.319 C 617.876 897.796 625.192 886.7 631.56 876.051 C 656.187 881.943 670.157 881.596 689.059 862.595 C 712.963 872.715 726.646 871.404 748.273 856.722 z" />
<path transform="translate(0,0)" fill="rgb(177,178,176)" d="M 748.273 856.722 L 778.699 881.592 C 744.722 925.659 816.078 956.842 793.488 1007.23 L 791.688 1012.17 C 788.957 1010.09 789.754 1008.92 785.994 1007.77 L 788.496 1000.75 C 792.979 967.469 782.11 959.802 767.773 931.255 C 758.734 913.256 761.93 899.877 768.388 882.24 C 760.979 876.131 754.006 870.381 746.285 864.635 C 725.517 877.053 713.026 879.138 690.374 870.399 C 688.154 872.266 685.859 874.041 683.492 875.718 C 667.094 887.128 653.877 886.719 635.225 883.369 C 630.125 891.504 625.526 898.922 620.845 907.347 C 639.916 930.897 639.061 939.225 633.057 968.115 C 630.172 969.592 629.991 968.905 626.541 970.222 L 625.552 969.229 C 631.592 943.194 634.675 927.22 611.182 908.319 C 617.876 897.796 625.192 886.7 631.56 876.051 C 656.187 881.943 670.157 881.596 689.059 862.595 C 712.963 872.715 726.646 871.404 748.273 856.722 z" />
<path transform="translate(0,0)" fill="rgb(152,162,163)" d="M 788.496 1000.75 C 789.859 999.842 791.035 998.909 792.166 997.724 L 794.081 997.697 L 793.352 1003.5 C 793.116 1005.42 793.111 1005.4 793.488 1007.23 L 791.688 1012.17 C 788.957 1010.09 789.754 1008.92 785.994 1007.77 L 788.496 1000.75 z" />
<path transform="translate(0,0)" fill="rgb(177,178,176)" d="M 624.686 980.654 L 624.204 983.989 C 625.888 985.289 627.169 985.882 628.973 986.974 C 628.908 1004.26 631.092 1019.19 644.223 1032.15 C 665.737 1053.38 694.952 1045.7 720.613 1061.78 C 740.099 1037.81 770.317 1039.48 785.994 1007.77 C 789.754 1008.92 788.957 1010.09 791.688 1012.17 C 772.373 1046.3 744.036 1041.9 721.002 1069.6 C 688.807 1050.37 639.92 1060.64 625.569 1015.61 C 622.619 1010.44 622.013 1003.82 621.468 998.002 C 621.32 992.445 621.929 987.699 622.479 982.195 L 624.686 980.654 z" />
<path transform="translate(0,0)" fill="rgb(113,112,112)" d="M 621.468 998.002 L 624.183 996.178 L 625.717 996.683 C 629.134 1004.55 625.101 1010.98 627.576 1013.47 L 628.341 1011.14 C 629.945 1014.12 630.41 1014.5 630.836 1017.9 L 629.886 1018.44 C 626.982 1015.44 628.381 1015.67 625.569 1015.61 C 622.619 1010.44 622.013 1003.82 621.468 998.002 z" />
<path transform="translate(0,0)" fill="url(#Gradient3)" d="M 633.057 968.115 C 632.155 972.324 630.988 977.156 630.296 981.344 L 628.973 986.974 C 627.169 985.882 625.888 985.289 624.204 983.989 L 624.686 980.654 L 622.479 982.195 C 623.337 976.497 623.638 974.617 625.552 969.229 L 626.541 970.222 C 629.991 968.905 630.172 969.592 633.057 968.115 z" />
<path transform="translate(0,0)" fill="url(#Gradient2)" d="M 624.686 980.654 C 625.49 977.816 624.626 978.735 626.86 977.433 C 629.171 978.884 628.973 978.901 630.296 981.344 L 628.973 986.974 C 627.169 985.882 625.888 985.289 624.204 983.989 L 624.686 980.654 z" />
<path transform="translate(0,0)" fill="rgb(177,178,176)" d="M 740.698 870.997 C 744.302 868.28 743.004 868.456 746.894 868.188 C 750.255 869.969 750.353 870.138 753.078 872.52 L 766.155 883.003 C 759.36 900.497 757.603 909.025 763.388 927.768 C 775.318 951.502 794.074 974.906 785.086 1002.61 C 777.402 1026.3 752.66 1034.63 733.613 1046.69 C 728.793 1049.74 724.444 1053.84 720.185 1057.67 C 720.631 1057.65 701.355 1050.9 699.192 1050.26 C 693.597 1049.16 687.781 1047.82 682.182 1046.61 C 680.6 1046.35 679.02 1046.07 677.441 1045.79 C 654.137 1041.54 636.109 1027.32 631.768 1002.95 C 629.822 992.033 631.934 982.731 634.16 972.154 C 641.704 943.893 642.911 930.579 623.177 906.826 C 627.548 900.362 632.107 892.463 636.221 885.724 C 658.585 890.728 672.738 888.294 690.354 873.274 C 702.784 878.146 713.938 879.248 727.046 876.647 C 729.997 876.026 737.577 872.391 740.698 870.997 z" />
<path transform="translate(0,0)" fill="rgb(26,26,26)" d="M 742.272 971.554 C 743.22 969.373 743.624 968.522 744.19 966.197 C 747.593 952.208 754.213 939.203 758.052 925.189 L 758.403 923.884 L 759.139 923.476 C 760.466 925.045 761.805 926.457 763.388 927.768 C 775.318 951.502 794.074 974.906 785.086 1002.61 C 777.402 1026.3 752.66 1034.63 733.613 1046.69 C 728.793 1049.74 724.444 1053.84 720.185 1057.67 C 720.631 1057.65 701.355 1050.9 699.192 1050.26 C 693.597 1049.16 687.781 1047.82 682.182 1046.61 L 683.747 1045.76 C 682.692 1042.27 681.922 1037.87 683.476 1034.48 C 686.302 1031.91 685.201 1032.69 689.809 1032.3 L 689.791 1030.66 C 678.067 1029.71 652.187 1027.88 643.457 1019.56 C 641.194 1014.53 641.392 1013.36 641.5 1007.9 C 638.388 1005.28 636.239 1004.31 632.622 1002.37 C 639.631 993.707 641.703 992.927 639.138 981.853 L 640.126 978.571 C 644.575 977.393 665.936 985.424 666.748 989.689 C 666.419 994.164 665.756 993.28 667.856 995.936 C 676.026 999.515 695.567 1000.66 703.198 998.271 L 703.012 997.074 L 707.445 996.227 C 713.203 995.166 724.258 993.024 725.97 986.556 C 722.817 983.277 724.723 984.399 719.755 983.621 C 722.659 982.073 725.328 980.12 727.681 977.819 L 729.093 978.643 C 733.973 974.225 731.067 973.442 736.111 971.753 C 737.999 972.474 739.736 973.208 741.77 973.339 L 742.272 971.554 z" />
<path transform="translate(0,0)" fill="rgb(177,178,176)" d="M 742.272 971.554 C 743.22 969.373 743.624 968.522 744.19 966.197 C 747.593 952.208 754.213 939.203 758.052 925.189 L 758.403 923.884 L 759.139 923.476 C 760.466 925.045 761.805 926.457 763.388 927.768 C 775.318 951.502 794.074 974.906 785.086 1002.61 C 777.402 1026.3 752.66 1034.63 733.613 1046.69 C 728.793 1049.74 724.444 1053.84 720.185 1057.67 C 720.631 1057.65 701.355 1050.9 699.192 1050.26 C 693.597 1049.16 687.781 1047.82 682.182 1046.61 L 683.747 1045.76 C 682.692 1042.27 681.922 1037.87 683.476 1034.48 C 686.302 1031.91 685.201 1032.69 689.809 1032.3 L 689.791 1030.66 C 707.762 1030.35 715.383 1028.97 732.778 1025.66 C 735.533 1024.23 743.277 1021.48 746.599 1020.06 C 761.253 1013.82 770.349 1008.76 781.887 998.015 C 780.219 994.431 777.778 990.72 775.687 987.319 L 784.676 979.764 L 773.509 971.004 L 770.624 957.111 C 765.647 961.088 752.206 970.282 749.188 975.408 C 748.551 976.49 749.577 978.033 750.182 979.561 C 750.463 985.066 748.285 984.905 743.326 987.123 L 739.941 985.535 L 739.45 985.089 C 739.549 982.981 741.353 976.216 741.77 973.339 L 742.272 971.554 z" />
<path transform="translate(0,0)" fill="rgb(177,178,176)" d="M 689.791 1030.66 C 707.762 1030.35 715.383 1028.97 732.778 1025.66 C 729.263 1029.76 725.81 1028.18 719.557 1030.87 C 722.843 1031.42 724.147 1031.23 727.4 1031.04 C 726.632 1037.12 724.1 1045.16 720.088 1050.12 L 717.003 1050.59 C 720.73 1054.91 718.265 1053.21 720.185 1057.67 C 720.631 1057.65 701.355 1050.9 699.192 1050.26 C 693.597 1049.16 687.781 1047.82 682.182 1046.61 L 683.747 1045.76 C 682.692 1042.27 681.922 1037.87 683.476 1034.48 C 686.302 1031.91 685.201 1032.69 689.809 1032.3 L 689.791 1030.66 z" />
<path transform="translate(0,0)" fill="rgb(199,199,198)" d="M 689.791 1030.66 C 707.762 1030.35 715.383 1028.97 732.778 1025.66 C 729.263 1029.76 725.81 1028.18 719.557 1030.87 C 722.843 1031.42 724.147 1031.23 727.4 1031.04 C 726.632 1037.12 724.1 1045.16 720.088 1050.12 L 717.003 1050.59 L 715.623 1050.48 L 714.562 1048.32 L 712.9 1050.05 C 707.439 1044.81 714.522 1038.28 716.37 1033.29 C 713.444 1030.44 696.494 1032.48 689.809 1032.3 L 689.791 1030.66 z" />
<path transform="translate(0,0)" fill="rgb(231,233,227)" d="M 712.9 1050.05 L 714.562 1048.32 L 715.623 1050.48 L 717.003 1050.59 C 720.73 1054.91 718.265 1053.21 720.185 1057.67 C 720.631 1057.65 701.355 1050.9 699.192 1050.26 C 704.033 1047.63 709.749 1054.16 712.9 1050.05 z" />
<path transform="translate(0,0)" fill="rgb(177,178,176)" d="M 739.941 985.535 C 742.756 981.565 745.495 980.123 750.182 979.561 C 750.463 985.066 748.285 984.905 743.326 987.123 L 739.941 985.535 z" />
<path transform="translate(0,0)" fill="rgb(199,199,198)" d="M 727.681 977.819 L 729.093 978.643 C 733.973 974.225 731.067 973.442 736.111 971.753 C 737.999 972.474 739.736 973.208 741.77 973.339 C 741.353 976.216 739.549 982.981 739.45 985.089 L 739.941 985.535 L 743.326 987.123 C 730.251 993.045 717.786 997.737 703.198 998.271 L 703.012 997.074 L 707.445 996.227 C 713.203 995.166 724.258 993.024 725.97 986.556 C 722.817 983.277 724.723 984.399 719.755 983.621 C 722.659 982.073 725.328 980.12 727.681 977.819 z" />
<path transform="translate(0,0)" fill="rgb(177,178,176)" d="M 764.068 977.846 C 768.831 979.21 776.338 993.123 778.946 997.522 C 773.054 1002.6 765.573 1007.54 758.759 1011.25 C 727.01 1028.28 689.878 1032.28 655.228 1022.41 C 651.313 1021.1 647.553 1019.65 643.698 1018.19 C 645.72 1009.09 647.784 1003.42 650.977 994.554 C 694.768 1007.96 726.154 1003.23 764.068 977.846 z" />
<path transform="translate(0,0)" fill="rgb(26,26,26)" d="M 668.703 1004.52 C 673.414 1005.09 693.479 1005.16 694.184 1008.57 L 689.443 1011.2 C 688.327 1015.55 689.919 1018.82 687.669 1022.58 L 685.54 1022.86 L 684.613 1021.47 C 685.22 1015.5 687.393 1010.66 681.005 1009 C 677.686 1008.48 676.892 1008.25 673.451 1008.63 L 672.678 1009.71 C 674.551 1011.6 675.643 1012.66 677.307 1014.77 C 673.342 1014.46 673.996 1013.88 671.323 1015.6 L 671.506 1017.39 C 674.307 1019.02 675.022 1019.18 677.152 1021.66 C 674.655 1022.52 670.485 1021.7 668.166 1020.49 C 666.915 1016.11 668.181 1009.32 668.703 1004.52 z" />
<path transform="translate(0,0)" fill="rgb(26,26,26)" d="M 653.069 999.808 C 664.581 1002.57 670.188 1007.24 661.364 1018.14 C 656.18 1018.38 653.153 1019.42 649.812 1015.25 C 649.165 1010.77 651.677 1004.44 653.069 999.808 z" />
<path transform="translate(0,0)" fill="rgb(26,26,26)" d="M 731.328 1000.05 L 733.102 999.915 L 734.326 1001.22 C 730.022 1007.59 731.532 1009.58 733.398 1016.49 L 732.176 1017.92 C 727.485 1017.05 729.385 1008.15 725.612 1005.61 C 721.069 1006.17 719.007 1007.07 714.62 1008.59 C 712.218 1011.42 712.915 1011.35 712.163 1015.63 C 716.366 1018.79 716.483 1017.91 721.542 1018.6 L 722.011 1019.78 C 717.215 1022.74 713.341 1022.17 709.622 1018.09 C 705.422 1003.55 720.642 1003.04 731.328 1000.05 z" />
<path transform="translate(0,0)" fill="rgb(26,26,26)" d="M 763.264 983.848 L 764.397 984.349 L 764.938 986.005 C 762.856 987.935 762.403 988.064 761.121 990.532 L 761.8 991.649 C 765.036 990.162 765.516 989.235 768.403 989.704 C 768.776 993.769 765.389 992.315 764.528 997.162 L 766.405 997.866 L 772.446 994.474 L 772.875 996.987 C 770.952 1000.15 767.385 1001.71 764.088 1003.62 L 755.336 989.491 L 763.264 983.848 z" />
<path transform="translate(0,0)" fill="rgb(26,26,26)" d="M 694.857 1006.42 C 698.358 1006.19 701.987 1005.72 705.37 1006.46 L 706.003 1007.68 C 703.866 1009.67 702.321 1008.37 699.358 1011 L 700.121 1012.17 C 702.649 1012.4 703.712 1012.28 705.964 1013.42 L 705.155 1015.5 C 702.88 1015.85 702.39 1016.01 700.31 1016.84 L 698.46 1017.58 L 700.683 1019.27 C 703.355 1019.55 704.293 1019.45 706.727 1020.59 L 706.373 1022.44 C 702.54 1024.17 700.593 1024.37 697.073 1022.17 C 695.324 1018.95 695.46 1011.12 694.857 1006.42 z" />
<path transform="translate(0,0)" fill="rgb(7,8,6)" d="M 753.231 989.784 C 755.746 993.23 759.315 1006.68 752.834 1008.49 C 748.777 1007.29 746.759 1004.03 743.864 1000.67 C 741.5 998.389 741.911 999.634 741.368 997.037 L 742.834 996.439 C 748.119 998.394 748.912 1000.04 752.531 1004.34 C 751.667 998.381 750.166 994.198 753.231 989.784 z" />
<path transform="translate(0,0)" fill="rgb(26,26,26)" d="M 735.585 997.294 L 738.814 998.462 C 741.745 1003.91 743.339 1008.85 744.064 1015.01 C 742.717 1014.78 742.408 1014.49 741.135 1013.91 C 737.864 1008.47 736.84 1003.51 735.585 997.294 z" />
<path transform="translate(0,0)" fill="rgb(152,162,163)" d="M 642.054 980.26 C 650.361 983.939 655.421 985.728 664.128 988.455 C 655.036 988.627 652.627 987.484 647.995 995.75 C 646.223 1000.8 645.121 1005.37 638.789 1004.67 C 636.595 997.632 640.766 996.474 642.975 990.629 C 643.559 989.084 642.37 982.265 642.054 980.26 z" />
<path transform="translate(0,0)" fill="rgb(152,162,163)" d="M 768.189 961.965 C 770.208 963.801 770.442 969.521 770.807 972.485 L 780.78 980.056 C 779.065 981.539 777.436 982.861 775.68 984.283 C 772.221 983.703 772.992 983.309 770.065 979.532 C 764.499 972.007 762.752 972.172 753.688 973.768 L 768.189 961.965 z" />
<path transform="translate(0,0)" fill="rgb(152,162,163)" d="M 756.383 975.266 L 758.544 976.232 L 758.731 977.517 L 754.826 980.682 C 754.118 980.32 752.951 979.4 752.258 978.898 L 752.695 977.294 L 756.383 975.266 z" />
<path transform="translate(0,0)" fill="rgb(152,162,163)" d="M 662.077 990.782 C 662.485 991.02 663.546 992.222 663.929 992.624 L 663.318 994.252 L 660.636 995.369 C 657.754 993.662 657.587 994.362 656.915 992.293 L 662.077 990.782 z" />
<path transform="translate(0,0)" fill="rgb(26,26,26)" d="M 740.698 870.997 C 744.302 868.28 743.004 868.456 746.894 868.188 C 750.255 869.969 750.353 870.138 753.078 872.52 L 766.155 883.003 C 759.36 900.497 757.603 909.025 763.388 927.768 C 761.805 926.457 760.466 925.045 759.139 923.476 L 758.403 923.884 L 758.052 925.189 C 754.213 939.203 747.593 952.208 744.19 966.197 C 743.624 968.522 743.22 969.373 742.272 971.554 C 740.428 970.336 743.912 972.559 740.796 970.906 C 735.805 968.26 740.949 959.832 738.045 955.069 C 738.785 942.384 732.52 930.311 721.72 923.614 C 713.456 918.489 703.419 917.073 694.06 919.713 C 690.476 915.128 697.528 919.394 690.33 911.978 C 673.603 916.661 663.923 921.711 650.291 932.089 C 645.486 925.677 643.244 922.209 639.256 915.248 C 662.113 893.725 687.747 888.33 717.918 887.751 L 718.365 886.502 C 723.417 886.13 722.935 886.51 726.285 883.861 C 727.72 880.338 727.486 880.295 727.046 876.647 C 729.997 876.026 737.577 872.391 740.698 870.997 z" />
<path transform="translate(0,0)" fill="rgb(199,199,198)" d="M 740.698 870.997 C 744.302 868.28 743.004 868.456 746.894 868.188 C 750.255 869.969 750.353 870.138 753.078 872.52 L 766.155 883.003 C 759.36 900.497 757.603 909.025 763.388 927.768 C 761.805 926.457 760.466 925.045 759.139 923.476 L 758.403 923.884 L 758.052 925.189 C 754.213 939.203 747.593 952.208 744.19 966.197 C 743.624 968.522 743.22 969.373 742.272 971.554 C 740.428 970.336 743.912 972.559 740.796 970.906 C 735.805 968.26 740.949 959.832 738.045 955.069 C 738.785 942.384 732.52 930.311 721.72 923.614 C 713.456 918.489 703.419 917.073 694.06 919.713 C 690.476 915.128 697.528 919.394 690.33 911.978 C 696.286 910.834 699.44 910.1 705.613 910.087 C 716.388 909.202 723.038 909.975 733.777 911.552 L 736.889 912.809 L 739.442 913.227 C 742.943 914.624 743.107 914.869 746.986 915.174 C 749.418 912.324 752.598 900.749 751.561 896.626 C 746.875 891.533 725.608 888.91 717.918 887.751 L 718.365 886.502 C 723.417 886.13 722.935 886.51 726.285 883.861 C 727.72 880.338 727.486 880.295 727.046 876.647 C 729.997 876.026 737.577 872.391 740.698 870.997 z" />
<path transform="translate(0,0)" fill="rgb(177,178,176)" d="M 740.698 870.997 C 744.302 868.28 743.004 868.456 746.894 868.188 C 750.255 869.969 750.353 870.138 753.078 872.52 C 747.984 871.243 746.965 869.914 743.617 875.276 L 744.039 877.425 C 747.095 877.944 747.473 876.533 750.546 875.143 C 748.954 880.3 747.417 881.363 746.404 886.873 L 746.094 889.912 L 745.541 890.675 C 740.845 889.974 741.397 890.782 738.336 888.173 C 736.778 883.27 739.356 876.365 740.698 870.997 z" />
<path transform="translate(0,0)" fill="rgb(177,178,176)" d="M 733.777 911.552 L 736.889 912.809 C 738.908 919.681 732.855 926.553 733.105 931.302 C 725.252 922.804 724.462 919.282 733.777 911.552 z" />
<path transform="translate(0,0)" fill="rgb(245,246,244)" d="M 746.404 886.873 L 749.138 883.171 L 751.371 883.62 C 752.957 886.764 752.202 887.991 749.751 890.456 L 746.094 889.912 L 746.404 886.873 z" />
<path transform="translate(0,0)" fill="rgb(152,162,163)" d="M 657.15 905.328 C 675.978 892.093 707.485 888.06 729.82 892.306 L 738.903 894.313 C 743.024 895.192 745.357 895.238 748.479 897.823 C 750.778 903.317 748.341 907.142 746.223 913.144 C 742.48 911.956 738.529 910.792 734.898 909.34 C 719.833 906.618 714.039 906.518 698.605 907.179 C 688.007 909.751 675.375 913.285 665.792 918.411 C 660.19 921.717 655.952 924.901 650.723 928.752 C 647.849 924.473 645.027 920.023 642.213 915.689 C 646.639 911.805 651.843 907.845 657.15 905.328 z" />
<path transform="translate(0,0)" fill="rgb(177,178,176)" d="M 642.213 915.689 C 646.639 911.805 651.843 907.845 657.15 905.328 L 657.915 906.747 L 655.663 907.818 L 656.508 909.061 C 658.784 909.071 662.635 908.82 664.558 909.508 L 660.233 911.529 C 659.645 914.506 659.971 913.739 661.926 917.127 C 663.333 917.636 664.338 918.042 665.792 918.411 C 660.19 921.717 655.952 924.901 650.723 928.752 C 647.849 924.473 645.027 920.023 642.213 915.689 z" />
<path transform="translate(0,0)" fill="rgb(177,178,176)" d="M 738.903 894.313 C 743.024 895.192 745.357 895.238 748.479 897.823 C 750.778 903.317 748.341 907.142 746.223 913.144 C 742.48 911.956 738.529 910.792 734.898 909.34 C 735.345 908.247 729.464 900.045 738.903 894.313 z" />
<path transform="translate(0,0)" fill="rgb(199,199,198)" d="M 729.82 892.306 L 738.903 894.313 C 729.464 900.045 735.345 908.247 734.898 909.34 C 719.833 906.618 714.039 906.518 698.605 907.179 C 702.266 902.928 718.344 907.153 724.659 905.191 C 725.321 899.943 725.192 895.19 729.82 892.306 z" />
<path transform="translate(0,0)" fill="rgb(26,26,26)" d="M 694.06 919.713 C 703.419 917.073 713.456 918.489 721.72 923.614 C 732.52 930.311 738.785 942.384 738.045 955.069 C 740.949 959.832 735.805 968.26 740.796 970.906 C 743.912 972.559 740.428 970.336 742.272 971.554 L 741.77 973.339 C 739.736 973.208 737.999 972.474 736.111 971.753 C 731.067 973.442 733.973 974.225 729.093 978.643 L 727.681 977.819 C 725.328 980.12 722.659 982.073 719.755 983.621 C 708.878 989.417 695.741 988.998 685.256 982.52 C 673.568 975.297 667.253 961.85 669.16 948.243 C 671.067 934.637 680.836 923.444 694.06 919.713 z" />
<path transform="translate(0,0)" fill="rgb(245,246,244)" d="M 738.045 955.069 C 740.949 959.832 735.805 968.26 740.796 970.906 C 743.912 972.559 740.428 970.336 742.272 971.554 L 741.77 973.339 C 739.736 973.208 737.999 972.474 736.111 971.753 C 731.067 973.442 733.973 974.225 729.093 978.643 L 727.681 977.819 C 733.847 971.79 737.542 963.678 738.045 955.069 z" />
<path transform="translate(0,0)" fill="rgb(26,26,26)" d="M 676.67 935.886 C 682.367 927.028 692.07 921.556 702.597 921.265 C 713.124 920.973 723.115 925.899 729.293 934.427 C 738.606 947.282 737.041 965.029 725.623 976.056 C 714.205 987.083 696.414 988.029 683.891 978.274 C 679.813 975.097 676.569 970.976 674.438 966.266 L 676.702 964.529 C 679.142 960.285 678.789 957.14 679.006 952.202 C 678.19 951.619 677.594 950.729 676.911 949.905 C 678.442 947.262 678.028 948.093 681.843 946.824 C 681.016 945.06 680.14 943.347 679.168 941.658 L 681.088 939.849 L 678.801 936.935 C 677.691 936.992 678.481 937.037 676.67 935.886 z" />
<path transform="translate(0,0)" fill="rgb(101,117,118)" d="M 724.163 939.912 L 722.86 938.951 C 722.547 936.336 721.814 935.247 721.665 932.44 C 728.639 933.258 722.004 934.144 729.293 934.427 C 738.606 947.282 737.041 965.029 725.623 976.056 C 714.205 987.083 696.414 988.029 683.891 978.274 C 683.971 975.593 683.984 975.883 684.527 973.261 C 686.723 974.885 685.568 974.665 687.882 974.698 L 690.074 970.071 C 689.881 973.453 689.2 975.332 691.496 977.725 C 695.214 977.496 702.2 971.132 705.753 968.404 L 724.795 975.426 C 723.211 969.69 719.998 961.767 717.842 955.997 C 720.951 951.589 727.174 945.598 726.566 940.771 L 724.163 939.912 z" />
<path transform="translate(0,0)" fill="rgb(124,136,137)" d="M 676.67 935.886 C 682.367 927.028 692.07 921.556 702.597 921.265 C 713.124 920.973 723.115 925.899 729.293 934.427 C 722.004 934.144 728.639 933.258 721.665 932.44 C 721.814 935.247 722.547 936.336 722.86 938.951 L 724.163 939.912 L 710.16 940.493 L 699.069 925.352 C 696.732 931.727 695.135 936.881 693.259 943.418 L 681.843 946.824 C 681.016 945.06 680.14 943.347 679.168 941.658 L 681.088 939.849 L 678.801 936.935 C 677.691 936.992 678.481 937.037 676.67 935.886 z" />
<path transform="translate(0,0)" fill="rgb(113,112,112)" d="M 678.801 936.935 L 680.524 934.649 L 682.371 934.847 C 684.35 937.923 683.989 936.324 683.836 939.713 C 681.617 940.315 682.511 940.52 681.088 939.849 L 678.801 936.935 z" />
<path transform="translate(0,0)" fill="rgb(124,136,137)" d="M 679.006 952.202 C 682.883 954.864 686.846 957.669 690.758 960.251 C 690.605 962.761 690.453 967.75 690.074 970.071 L 687.882 974.698 C 685.568 974.665 686.723 974.885 684.527 973.261 C 683.984 975.883 683.971 975.593 683.891 978.274 C 679.813 975.097 676.569 970.976 674.438 966.266 L 676.702 964.529 C 679.142 960.285 678.789 957.14 679.006 952.202 z" />
<path transform="translate(0,0)" fill="rgb(199,199,198)" d="M 697.951 936.807 L 699.583 932.47 C 706.688 934.854 701.85 942.874 715.82 943.08 L 721.351 942.9 L 722.627 944.098 C 721.117 948.455 717.326 951.136 714.67 955.746 C 716.484 960.511 718.48 965.496 720.105 970.305 L 705.678 965.386 C 702.44 967.772 696.85 972.624 693.449 972.836 C 692.747 970.224 692.946 970.269 693.531 967.567 C 692.671 955.736 689.719 956.264 680.237 949.858 C 691.052 947.262 694.9 948.394 697.951 936.807 z" />
<path transform="translate(0,0)" fill="rgb(177,178,176)" d="M 680.237 949.858 C 691.052 947.262 694.9 948.394 697.951 936.807 C 703.973 943.021 699.439 958.728 695.459 965.744 L 694.745 959.468 C 694.239 962.134 693.903 964.875 693.531 967.567 C 692.671 955.736 689.719 956.264 680.237 949.858 z" />
<path transform="translate(0,0)" fill="rgb(177,178,176)" d="M 715.82 943.08 L 721.351 942.9 L 722.627 944.098 C 721.117 948.455 717.326 951.136 714.67 955.746 L 712.03 957.51 C 709.023 956.253 710.093 957.262 708.607 954.494 C 710.378 949.114 713.932 948.889 715.82 943.08 z" />
<path transform="translate(0,0)" fill="rgb(101,117,118)" d="M 676.67 935.886 C 678.481 937.037 677.691 936.992 678.801 936.935 L 681.088 939.849 L 679.168 941.658 C 680.14 943.347 681.016 945.06 681.843 946.824 C 678.028 948.093 678.442 947.262 676.911 949.905 C 677.594 950.729 678.19 951.619 679.006 952.202 C 678.789 957.14 679.142 960.285 676.702 964.529 L 674.438 966.266 C 669.982 956.416 670.822 944.979 676.67 935.886 z" />
<path transform="translate(0,0)" fill="rgb(119,86,59)" d="M 1492.59 1486.74 L 1522.19 1498.89 L 1519.63 1507.09 L 1492.23 1594.51 C 1482.85 1624.55 1467.07 1680.47 1447.2 1702.67 C 1436.57 1713.83 1421.7 1707.33 1411.18 1699.9 C 1411.05 1699.65 1410.92 1699.39 1410.79 1699.14 L 1410.16 1697.84 C 1401.45 1680.18 1410.86 1655.03 1418.54 1638.37 C 1441.79 1587.98 1466.59 1535.66 1492.59 1486.74 z" />
<path transform="translate(0,0)" fill="rgb(91,63,40)" d="M 1492.59 1486.74 L 1522.19 1498.89 L 1519.63 1507.09 C 1514.58 1508.18 1507.29 1505.4 1499.88 1505.37 C 1491.12 1511.95 1487.09 1521.98 1482.51 1531.75 C 1461.51 1576.59 1435.38 1619.78 1425.88 1669.01 C 1422.26 1687.78 1430.22 1696.41 1447.2 1702.67 C 1436.57 1713.83 1421.7 1707.33 1411.18 1699.9 C 1411.05 1699.65 1410.92 1699.39 1410.79 1699.14 L 1410.16 1697.84 C 1401.45 1680.18 1410.86 1655.03 1418.54 1638.37 C 1441.79 1587.98 1466.59 1535.66 1492.59 1486.74 z" />
<path transform="translate(0,0)" fill="rgb(26,26,26)" d="M 593.932 904.76 C 597.042 904.288 600.628 903.336 603.266 904.61 C 602.05 919.508 621.192 918.884 620.952 935.591 C 620.448 970.648 607.932 984.367 618.902 1020.65 C 595.734 1021.1 580.221 1021.2 557.23 1018.28 C 553.622 1018.03 549.203 1017.23 545.553 1016.68 C 535.05 976.82 529.467 948.771 522.628 907.941 C 546.436 908.136 570.237 907.074 593.932 904.76 z" />
<path transform="translate(0,0)" fill="rgb(245,246,244)" d="M 1227.91 1061.12 C 1228.19 1061.72 1228.47 1062.32 1228.76 1062.92 C 1219.88 1087.65 1217.31 1110.73 1204.25 1136.25 C 1198.38 1136.17 1192.88 1135.58 1187.07 1135.19 C 1120.31 1130.77 1053.5 1133.56 986.757 1136.16 L 983.827 1135.82 C 985.557 1134.68 1031.41 1123.09 1037.73 1121.31 C 1101.25 1103.44 1166.48 1085.46 1227.91 1061.12 z" />
<path transform="translate(0,0)" fill="rgb(178,146,85)" d="M 749.153 1481.35 C 751.4 1481.83 754.094 1482.08 755.872 1483.63 C 756.762 1484.41 756.552 1484.45 756.668 1485.65 C 757.948 1498.79 756.81 1512.19 757.252 1525.39 C 758.695 1568.6 764.869 1692.86 736.85 1724.82 C 732.758 1729.49 727.435 1732.58 721.134 1732.75 C 713.574 1732.95 705.532 1730.11 700.103 1724.78 C 685.499 1710.42 684.638 1686.55 684.9 1667.47 L 686.198 1650.67 C 689.324 1652.44 691.624 1654.48 694.405 1656.72 C 694.166 1659.55 693.945 1662.39 693.742 1665.22 C 692.623 1681.07 693.552 1703.73 704.782 1716.07 C 708.282 1719.91 713.072 1723.02 718.433 1723.01 C 722.448 1723 725.904 1721.17 728.714 1718.39 C 756.739 1690.67 749.008 1525.05 749.153 1481.35 z" />
<path transform="translate(0,0)" fill="rgb(52,53,54)" d="M 1166.74 1423.43 C 1175.06 1423.07 1179.42 1423.28 1187.77 1424 C 1187.61 1432.9 1188.09 1441.5 1187.43 1450.46 C 1165.47 1451.9 1135.61 1451.4 1113.25 1451.5 C 1109.52 1451.13 1096.62 1451.49 1092.21 1451.49 C 1091.82 1443.02 1091.86 1437.35 1092.28 1428.86 C 1102.07 1427.89 1113.55 1428.19 1123.63 1427.38 C 1138.04 1426.2 1152.35 1424.7 1166.74 1423.43 z" />
<path transform="translate(0,0)" fill="rgb(52,53,54)" d="M 1309.2 1412.14 C 1308.65 1403.56 1307.71 1404.63 1304.66 1398.88 C 1295.92 1382.35 1275.77 1387.88 1269.1 1380.88 C 1266.18 1373.23 1272.25 1366.65 1279.19 1364.28 C 1289.02 1361.01 1299.78 1362.01 1308.84 1367.04 C 1318.85 1372.53 1323.84 1379.84 1326.82 1390.64 C 1349.91 1418.27 1320.49 1444.89 1309.2 1412.14 z" />
<path transform="translate(0,0)" fill="rgb(245,246,244)" d="M 1309.2 1412.14 C 1310.09 1399.76 1311.6 1389.12 1326.82 1390.64 C 1349.91 1418.27 1320.49 1444.89 1309.2 1412.14 z" />
<path transform="translate(0,0)" fill="rgb(52,53,54)" d="M 1240.14 1465.21 C 1250.26 1467.8 1254.2 1478.86 1267.34 1482.02 C 1279.66 1484.99 1312.25 1473.09 1317.89 1483.94 C 1317.6 1490.38 1313.85 1492.9 1309.25 1497.2 C 1287.05 1516.22 1220.11 1496.22 1240.14 1465.21 z" />
<path transform="translate(0,0)" fill="rgb(245,246,244)" d="M 654.477 1220.8 C 657.636 1220.92 659.611 1221.35 661.121 1224.09 C 658.518 1229.73 651.036 1238.32 647.351 1243.99 C 641.915 1252.36 637.055 1261.82 633.386 1271.07 C 630.735 1277.89 628.517 1284.88 626.746 1291.98 C 625.552 1296.72 621.872 1316.53 620.66 1318.61 L 619.043 1317.76 C 594.476 1274.8 617.723 1244.19 654.477 1220.8 z" />
<path transform="translate(0,0)" fill="rgb(245,246,244)" d="M 701.23 1662.32 C 715.805 1670.66 718.611 1674.19 735.351 1680.91 C 733.924 1692.17 731.722 1698.02 727.248 1708.46 C 722.832 1714.72 716.345 1720.8 710.19 1711.73 C 700.723 1697.78 698.965 1678.72 701.23 1662.32 z" />
<path transform="translate(0,0)" fill="url(#Gradient1)" d="M 1410.08 390.77 C 1414.97 390.979 1416.49 390.522 1419.28 394.738 C 1419.15 402.564 1402.44 463.933 1398.9 472.83 C 1397.97 472.901 1396.36 473.063 1395.47 472.949 C 1393.12 472.646 1391.8 471.635 1390.76 469.521 C 1387.79 463.459 1406.77 402.498 1410.08 390.77 z" />
<path transform="translate(0,0)" fill="rgb(178,146,85)" d="M 1518.46 1428.39 C 1524.57 1431.16 1534.96 1435.29 1540.11 1438.8 C 1541.21 1442.06 1541.09 1440.33 1539.61 1444.17 C 1536.36 1452.88 1533.12 1461.97 1529.55 1470.53 C 1523.92 1468.03 1517.29 1465.28 1511.86 1462.58 C 1508.25 1461.19 1508.39 1461.96 1506.99 1459.32 C 1507.87 1452.58 1511.78 1445.63 1514.67 1439.15 L 1518.46 1428.39 z" />
<path transform="translate(0,0)" fill="rgb(187,156,96)" d="M 1511.86 1462.58 C 1513.72 1462.5 1515.28 1462.41 1517.15 1462.25 C 1524.87 1453.77 1517.5 1443.06 1534.37 1443.02 C 1538.01 1445.21 1536.63 1442.97 1539.61 1444.17 C 1536.36 1452.88 1533.12 1461.97 1529.55 1470.53 C 1523.92 1468.03 1517.29 1465.28 1511.86 1462.58 z" />
<path transform="translate(0,0)" fill="rgb(177,139,76)" d="M 1518.46 1428.39 C 1524.57 1431.16 1534.96 1435.29 1540.11 1438.8 C 1541.21 1442.06 1541.09 1440.33 1539.61 1444.17 C 1536.63 1442.97 1538.01 1445.21 1534.37 1443.02 C 1523.75 1433.91 1524.16 1448.96 1515.58 1445.62 C 1516.04 1442.36 1516.17 1442.08 1514.67 1439.15 L 1518.46 1428.39 z" />
<path transform="translate(0,0)" fill="rgb(187,156,96)" d="M 747.324 1454.28 C 750.916 1445.18 756.864 1439.58 767.369 1441.29 C 769.956 1444.42 771.611 1471.31 766.579 1475 C 765.241 1475.98 764.552 1475.85 762.904 1476.13 C 758.276 1474.59 754.017 1472.15 751.044 1468.22 C 747.133 1465.06 746.304 1458.97 747.324 1454.28 z" />
<path transform="translate(0,0)" fill="rgb(177,139,76)" d="M 747.324 1454.28 L 748.214 1456.48 L 749.035 1456.77 L 749.121 1456.04 C 755.361 1463.02 759.48 1460.91 764.91 1454.62 C 767.505 1458.24 768.641 1468.84 765.49 1472.68 C 759.448 1474.5 755.586 1469.04 751.044 1468.22 C 747.133 1465.06 746.304 1458.97 747.324 1454.28 z" />
<path transform="translate(0,0)" fill="rgb(213,183,106)" d="M 747.324 1454.28 L 748.288 1453.8 C 753.778 1451.03 756.59 1447.06 760.629 1446.73 C 764.093 1449.27 763.225 1449.54 764.91 1454.62 C 759.48 1460.91 755.361 1463.02 749.121 1456.04 L 749.035 1456.77 L 748.214 1456.48 L 747.324 1454.28 z" />
<path transform="translate(0,0)" fill="rgb(211,183,116)" d="M 1507.42 1483.38 C 1500.44 1481.1 1489.99 1479.1 1492.55 1469.5 C 1498.27 1463.78 1504.38 1468.56 1510.18 1471.67 C 1519.04 1475.26 1526.99 1477.3 1532.8 1484.8 L 1533.37 1487.59 C 1527.95 1493.89 1513.8 1486.15 1507.42 1483.38 z" />
<path transform="translate(0,0)" fill="rgb(177,139,76)" d="M 1507.42 1483.38 C 1500.44 1481.1 1489.99 1479.1 1492.55 1469.5 C 1498.27 1463.78 1504.38 1468.56 1510.18 1471.67 L 1509.96 1473.04 C 1511.52 1476.41 1511.6 1476.25 1514.42 1478.41 C 1511.76 1479.88 1509.09 1480.95 1507.42 1483.38 z" />
<path transform="translate(0,0)" fill="rgb(245,246,244)" d="M 706.742 1186.64 C 706.526 1187.52 701.007 1190.48 699.739 1191.25 C 689.151 1197.65 679.897 1205.32 670.568 1213.36 C 669.933 1205.33 670.183 1198.68 670.392 1190.62 C 682.49 1189.13 694.608 1187.8 706.742 1186.64 z" />
<path transform="translate(0,0)" fill="rgb(52,53,54)" d="M 650.928 1192.07 C 652.821 1192.05 654.715 1192.04 656.609 1192.05 C 660.458 1195.72 660.531 1207.38 657.762 1211.08 C 655.255 1211.38 654.513 1211.58 652.03 1211.33 C 647.535 1206.64 649.69 1197.89 650.928 1192.07 z" />
<path transform="translate(0,0)" fill="rgb(245,246,244)" d="M 639.485 1213.55 C 641.594 1215.47 641.857 1216.58 642.093 1219.13 C 640.514 1222.68 638.015 1223.73 634.693 1225.89 L 633.588 1225.33 C 634.01 1221.77 637.498 1216.84 639.485 1213.55 z" />
<path transform="translate(0,0)" fill="rgb(245,246,244)" d="M 283.933 1152.28 C 288.63 1155.37 289.372 1155.87 289.851 1161.52 L 287.593 1161.64 C 284.721 1158.5 285.043 1156.79 283.933 1152.28 z" />
</svg>